%TF.GenerationSoftware,KiCad,Pcbnew,5.1.9*%
%TF.CreationDate,2021-04-20T14:37:20+02:00*%
%TF.ProjectId,ts908,74733930-382e-46b6-9963-61645f706362,rev?*%
%TF.SameCoordinates,Original*%
%TF.FileFunction,Soldermask,Top*%
%TF.FilePolarity,Negative*%
%FSLAX46Y46*%
G04 Gerber Fmt 4.6, Leading zero omitted, Abs format (unit mm)*
G04 Created by KiCad (PCBNEW 5.1.9) date 2021-04-20 14:37:20*
%MOMM*%
%LPD*%
G01*
G04 APERTURE LIST*
%ADD10C,1.600000*%
%ADD11R,1.600000X1.600000*%
%ADD12O,1.600000X1.600000*%
%ADD13R,1.500000X1.050000*%
%ADD14O,1.500000X1.050000*%
%ADD15O,2.200000X2.200000*%
%ADD16R,2.200000X2.200000*%
G04 APERTURE END LIST*
D10*
%TO.C,C4*%
X246170000Y-117700000D03*
D11*
X246170000Y-119700000D03*
%TD*%
D10*
%TO.C,C8*%
X260720000Y-115350000D03*
X260720000Y-125350000D03*
%TD*%
%TO.C,P1*%
G36*
G01*
X231440000Y-107600001D02*
X231440000Y-105999999D01*
G75*
G02*
X231689999Y-105750000I249999J0D01*
G01*
X233290001Y-105750000D01*
G75*
G02*
X233540000Y-105999999I0J-249999D01*
G01*
X233540000Y-107600001D01*
G75*
G02*
X233290001Y-107850000I-249999J0D01*
G01*
X231689999Y-107850000D01*
G75*
G02*
X231440000Y-107600001I0J249999D01*
G01*
G37*
%TD*%
D12*
%TO.C,U1*%
X253960000Y-106670000D03*
X246340000Y-114290000D03*
X253960000Y-109210000D03*
X246340000Y-111750000D03*
X253960000Y-111750000D03*
X246340000Y-109210000D03*
X253960000Y-114290000D03*
D11*
X246340000Y-106670000D03*
%TD*%
D10*
%TO.C,R2*%
X251550000Y-85460000D03*
D12*
X246470000Y-85460000D03*
%TD*%
D10*
%TO.C,C6*%
X238030000Y-126700000D03*
X238030000Y-121700000D03*
%TD*%
%TO.C,S3*%
G36*
G01*
X245299999Y-92810000D02*
X246900001Y-92810000D01*
G75*
G02*
X247150000Y-93059999I0J-249999D01*
G01*
X247150000Y-94660001D01*
G75*
G02*
X246900001Y-94910000I-249999J0D01*
G01*
X245299999Y-94910000D01*
G75*
G02*
X245050000Y-94660001I0J249999D01*
G01*
X245050000Y-93059999D01*
G75*
G02*
X245299999Y-92810000I249999J0D01*
G01*
G37*
%TD*%
D12*
%TO.C,R19*%
X234080000Y-134190000D03*
D10*
X239160000Y-134190000D03*
%TD*%
%TO.C,P5*%
G36*
G01*
X242250000Y-107720001D02*
X242250000Y-106119999D01*
G75*
G02*
X242499999Y-105870000I249999J0D01*
G01*
X244100001Y-105870000D01*
G75*
G02*
X244350000Y-106119999I0J-249999D01*
G01*
X244350000Y-107720001D01*
G75*
G02*
X244100001Y-107970000I-249999J0D01*
G01*
X242499999Y-107970000D01*
G75*
G02*
X242250000Y-107720001I0J249999D01*
G01*
G37*
%TD*%
D13*
%TO.C,Q2*%
X250470000Y-94250000D03*
D14*
X250470000Y-91710000D03*
X250470000Y-92980000D03*
%TD*%
D10*
%TO.C,R13*%
X250990000Y-88630000D03*
D12*
X245910000Y-88630000D03*
%TD*%
%TO.C,R8*%
X251460000Y-103505000D03*
D10*
X246380000Y-103505000D03*
%TD*%
D12*
%TO.C,R5*%
X255650000Y-117435000D03*
D10*
X250570000Y-117435000D03*
%TD*%
%TO.C,C11*%
X233180000Y-99160000D03*
D11*
X235180000Y-99160000D03*
%TD*%
%TO.C,C2*%
X236080000Y-93590000D03*
D10*
X234080000Y-93590000D03*
%TD*%
%TO.C,C9*%
X265290000Y-103750000D03*
D11*
X263290000Y-103750000D03*
%TD*%
%TO.C,C1*%
X243010000Y-88580000D03*
D10*
X241010000Y-88580000D03*
%TD*%
%TO.C,C7*%
X256540000Y-93120000D03*
X256540000Y-103120000D03*
%TD*%
%TO.C,S1*%
G36*
G01*
X261100000Y-127329999D02*
X261100000Y-128930001D01*
G75*
G02*
X260850001Y-129180000I-249999J0D01*
G01*
X259249999Y-129180000D01*
G75*
G02*
X259000000Y-128930001I0J249999D01*
G01*
X259000000Y-127329999D01*
G75*
G02*
X259249999Y-127080000I249999J0D01*
G01*
X260850001Y-127080000D01*
G75*
G02*
X261100000Y-127329999I0J-249999D01*
G01*
G37*
%TD*%
D12*
%TO.C,R16*%
X239480000Y-97810000D03*
D10*
X239480000Y-92730000D03*
%TD*%
D12*
%TO.C,R18*%
X239600000Y-131040000D03*
D10*
X234520000Y-131040000D03*
%TD*%
D13*
%TO.C,Q1*%
X246200000Y-123010000D03*
D14*
X246200000Y-125550000D03*
X246200000Y-124280000D03*
%TD*%
%TO.C,P3*%
G36*
G01*
X260560001Y-107160000D02*
X258959999Y-107160000D01*
G75*
G02*
X258710000Y-106910001I0J249999D01*
G01*
X258710000Y-105309999D01*
G75*
G02*
X258959999Y-105060000I249999J0D01*
G01*
X260560001Y-105060000D01*
G75*
G02*
X260810000Y-105309999I0J-249999D01*
G01*
X260810000Y-106910001D01*
G75*
G02*
X260560001Y-107160000I-249999J0D01*
G01*
G37*
%TD*%
%TO.C,S7*%
G36*
G01*
X241620000Y-133925001D02*
X241620000Y-132324999D01*
G75*
G02*
X241869999Y-132075000I249999J0D01*
G01*
X243470001Y-132075000D01*
G75*
G02*
X243720000Y-132324999I0J-249999D01*
G01*
X243720000Y-133925001D01*
G75*
G02*
X243470001Y-134175000I-249999J0D01*
G01*
X241869999Y-134175000D01*
G75*
G02*
X241620000Y-133925001I0J249999D01*
G01*
G37*
%TD*%
D12*
%TO.C,R7*%
X242540000Y-121710000D03*
D10*
X242540000Y-126790000D03*
%TD*%
%TO.C,S4*%
G36*
G01*
X243980000Y-96509999D02*
X243980000Y-98110001D01*
G75*
G02*
X243730001Y-98360000I-249999J0D01*
G01*
X242129999Y-98360000D01*
G75*
G02*
X241880000Y-98110001I0J249999D01*
G01*
X241880000Y-96509999D01*
G75*
G02*
X242129999Y-96260000I249999J0D01*
G01*
X243730001Y-96260000D01*
G75*
G02*
X243980000Y-96509999I0J-249999D01*
G01*
G37*
%TD*%
D12*
%TO.C,R15*%
X238160000Y-100490000D03*
D10*
X243240000Y-100490000D03*
%TD*%
%TO.C,S2*%
G36*
G01*
X240330001Y-104980000D02*
X238729999Y-104980000D01*
G75*
G02*
X238480000Y-104730001I0J249999D01*
G01*
X238480000Y-103129999D01*
G75*
G02*
X238729999Y-102880000I249999J0D01*
G01*
X240330001Y-102880000D01*
G75*
G02*
X240580000Y-103129999I0J-249999D01*
G01*
X240580000Y-104730001D01*
G75*
G02*
X240330001Y-104980000I-249999J0D01*
G01*
G37*
%TD*%
%TO.C,9V1*%
G36*
G01*
X255530001Y-85040000D02*
X253929999Y-85040000D01*
G75*
G02*
X253680000Y-84790001I0J249999D01*
G01*
X253680000Y-83189999D01*
G75*
G02*
X253929999Y-82940000I249999J0D01*
G01*
X255530001Y-82940000D01*
G75*
G02*
X255780000Y-83189999I0J-249999D01*
G01*
X255780000Y-84790001D01*
G75*
G02*
X255530001Y-85040000I-249999J0D01*
G01*
G37*
%TD*%
D12*
%TO.C,R1*%
X238720000Y-84280000D03*
D10*
X243800000Y-84280000D03*
%TD*%
D15*
%TO.C,D3*%
X236010000Y-116810000D03*
D16*
X236010000Y-106650000D03*
%TD*%
%TO.C,S8*%
G36*
G01*
X241620000Y-130750001D02*
X241620000Y-129149999D01*
G75*
G02*
X241869999Y-128900000I249999J0D01*
G01*
X243470001Y-128900000D01*
G75*
G02*
X243720000Y-129149999I0J-249999D01*
G01*
X243720000Y-130750001D01*
G75*
G02*
X243470001Y-131000000I-249999J0D01*
G01*
X241869999Y-131000000D01*
G75*
G02*
X241620000Y-130750001I0J249999D01*
G01*
G37*
%TD*%
D12*
%TO.C,R3*%
X255650000Y-126960000D03*
D10*
X250570000Y-126960000D03*
%TD*%
%TO.C,GND1*%
G36*
G01*
X236860001Y-86370000D02*
X235259999Y-86370000D01*
G75*
G02*
X235010000Y-86120001I0J249999D01*
G01*
X235010000Y-84519999D01*
G75*
G02*
X235259999Y-84270000I249999J0D01*
G01*
X236860001Y-84270000D01*
G75*
G02*
X237110000Y-84519999I0J-249999D01*
G01*
X237110000Y-86120001D01*
G75*
G02*
X236860001Y-86370000I-249999J0D01*
G01*
G37*
%TD*%
%TO.C,P7*%
G36*
G01*
X263340001Y-88720000D02*
X261739999Y-88720000D01*
G75*
G02*
X261490000Y-88470001I0J249999D01*
G01*
X261490000Y-86869999D01*
G75*
G02*
X261739999Y-86620000I249999J0D01*
G01*
X263340001Y-86620000D01*
G75*
G02*
X263590000Y-86869999I0J-249999D01*
G01*
X263590000Y-88470001D01*
G75*
G02*
X263340001Y-88720000I-249999J0D01*
G01*
G37*
%TD*%
D12*
%TO.C,R10*%
X265840000Y-112680000D03*
D10*
X260760000Y-112680000D03*
%TD*%
%TO.C,S5*%
G36*
G01*
X243680001Y-94930000D02*
X242079999Y-94930000D01*
G75*
G02*
X241830000Y-94680001I0J249999D01*
G01*
X241830000Y-93079999D01*
G75*
G02*
X242079999Y-92830000I249999J0D01*
G01*
X243680001Y-92830000D01*
G75*
G02*
X243930000Y-93079999I0J-249999D01*
G01*
X243930000Y-94680001D01*
G75*
G02*
X243680001Y-94930000I-249999J0D01*
G01*
G37*
%TD*%
%TO.C,C5*%
X243120000Y-113600000D03*
X243120000Y-111100000D03*
%TD*%
D12*
%TO.C,R4*%
X255650000Y-123785000D03*
D10*
X250570000Y-123785000D03*
%TD*%
D12*
%TO.C,D1*%
X265090000Y-84540000D03*
D11*
X257470000Y-84540000D03*
%TD*%
%TO.C,P2*%
G36*
G01*
X231450000Y-110800001D02*
X231450000Y-109199999D01*
G75*
G02*
X231699999Y-108950000I249999J0D01*
G01*
X233300001Y-108950000D01*
G75*
G02*
X233550000Y-109199999I0J-249999D01*
G01*
X233550000Y-110800001D01*
G75*
G02*
X233300001Y-111050000I-249999J0D01*
G01*
X231699999Y-111050000D01*
G75*
G02*
X231450000Y-110800001I0J249999D01*
G01*
G37*
%TD*%
%TO.C,P8*%
G36*
G01*
X236739999Y-87960000D02*
X238340001Y-87960000D01*
G75*
G02*
X238590000Y-88209999I0J-249999D01*
G01*
X238590000Y-89810001D01*
G75*
G02*
X238340001Y-90060000I-249999J0D01*
G01*
X236739999Y-90060000D01*
G75*
G02*
X236490000Y-89810001I0J249999D01*
G01*
X236490000Y-88209999D01*
G75*
G02*
X236739999Y-87960000I249999J0D01*
G01*
G37*
%TD*%
D12*
%TO.C,R11*%
X261690000Y-109510000D03*
D10*
X256610000Y-109510000D03*
%TD*%
%TO.C,C10*%
X259510000Y-88900000D03*
X254510000Y-88900000D03*
%TD*%
%TO.C,C3*%
X255090000Y-132080000D03*
X247590000Y-132080000D03*
%TD*%
D12*
%TO.C,R6*%
X236790000Y-103650000D03*
D10*
X231710000Y-103650000D03*
%TD*%
%TO.C,P4*%
G36*
G01*
X256300000Y-113450001D02*
X256300000Y-111849999D01*
G75*
G02*
X256549999Y-111600000I249999J0D01*
G01*
X258150001Y-111600000D01*
G75*
G02*
X258400000Y-111849999I0J-249999D01*
G01*
X258400000Y-113450001D01*
G75*
G02*
X258150001Y-113700000I-249999J0D01*
G01*
X256549999Y-113700000D01*
G75*
G02*
X256300000Y-113450001I0J249999D01*
G01*
G37*
%TD*%
D12*
%TO.C,R12*%
X262060000Y-94330000D03*
D10*
X262060000Y-99410000D03*
%TD*%
%TO.C,P6*%
G36*
G01*
X263360001Y-92400000D02*
X261759999Y-92400000D01*
G75*
G02*
X261510000Y-92150001I0J249999D01*
G01*
X261510000Y-90549999D01*
G75*
G02*
X261759999Y-90300000I249999J0D01*
G01*
X263360001Y-90300000D01*
G75*
G02*
X263610000Y-90549999I0J-249999D01*
G01*
X263610000Y-92150001D01*
G75*
G02*
X263360001Y-92400000I-249999J0D01*
G01*
G37*
%TD*%
%TO.C,S6*%
G36*
G01*
X244030000Y-102889999D02*
X244030000Y-104490001D01*
G75*
G02*
X243780001Y-104740000I-249999J0D01*
G01*
X242179999Y-104740000D01*
G75*
G02*
X241930000Y-104490001I0J249999D01*
G01*
X241930000Y-102889999D01*
G75*
G02*
X242179999Y-102640000I249999J0D01*
G01*
X243780001Y-102640000D01*
G75*
G02*
X244030000Y-102889999I0J-249999D01*
G01*
G37*
%TD*%
D12*
%TO.C,R9*%
X251460000Y-100330000D03*
D10*
X246380000Y-100330000D03*
%TD*%
D12*
%TO.C,R14*%
X245910000Y-97260000D03*
D10*
X250990000Y-97260000D03*
%TD*%
D12*
%TO.C,R17*%
X255650000Y-120610000D03*
D10*
X250570000Y-120610000D03*
%TD*%
D15*
%TO.C,D2*%
X239400000Y-107280000D03*
D16*
X239400000Y-117440000D03*
%TD*%
M02*
