%TF.GenerationSoftware,KiCad,Pcbnew,5.1.9*%
%TF.CreationDate,2021-04-20T14:37:20+02:00*%
%TF.ProjectId,ts908,74733930-382e-46b6-9963-61645f706362,rev?*%
%TF.SameCoordinates,Original*%
%TF.FileFunction,Copper,L2,Bot*%
%TF.FilePolarity,Positive*%
%FSLAX46Y46*%
G04 Gerber Fmt 4.6, Leading zero omitted, Abs format (unit mm)*
G04 Created by KiCad (PCBNEW 5.1.9) date 2021-04-20 14:37:20*
%MOMM*%
%LPD*%
G01*
G04 APERTURE LIST*
%TA.AperFunction,ComponentPad*%
%ADD10C,1.600000*%
%TD*%
%TA.AperFunction,ComponentPad*%
%ADD11R,1.600000X1.600000*%
%TD*%
%TA.AperFunction,ComponentPad*%
%ADD12O,1.600000X1.600000*%
%TD*%
%TA.AperFunction,ComponentPad*%
%ADD13R,1.500000X1.050000*%
%TD*%
%TA.AperFunction,ComponentPad*%
%ADD14O,1.500000X1.050000*%
%TD*%
%TA.AperFunction,ComponentPad*%
%ADD15O,2.200000X2.200000*%
%TD*%
%TA.AperFunction,ComponentPad*%
%ADD16R,2.200000X2.200000*%
%TD*%
%TA.AperFunction,Conductor*%
%ADD17C,0.254000*%
%TD*%
%TA.AperFunction,Conductor*%
%ADD18C,0.100000*%
%TD*%
G04 APERTURE END LIST*
D10*
%TO.P,C4,2*%
%TO.N,Net-(C4-Pad2)*%
X246170000Y-117700000D03*
D11*
%TO.P,C4,1*%
%TO.N,Net-(C4-Pad1)*%
X246170000Y-119700000D03*
%TD*%
D10*
%TO.P,C8,2*%
%TO.N,Net-(C8-Pad2)*%
X260720000Y-115350000D03*
%TO.P,C8,1*%
%TO.N,Net-(C8-Pad1)*%
X260720000Y-125350000D03*
%TD*%
%TO.P,P1,1*%
%TO.N,Net-(P1-Pad1)*%
%TA.AperFunction,ComponentPad*%
G36*
G01*
X231440000Y-107600001D02*
X231440000Y-105999999D01*
G75*
G02*
X231689999Y-105750000I249999J0D01*
G01*
X233290001Y-105750000D01*
G75*
G02*
X233540000Y-105999999I0J-249999D01*
G01*
X233540000Y-107600001D01*
G75*
G02*
X233290001Y-107850000I-249999J0D01*
G01*
X231689999Y-107850000D01*
G75*
G02*
X231440000Y-107600001I0J249999D01*
G01*
G37*
%TD.AperFunction*%
%TD*%
D12*
%TO.P,U1,8*%
%TO.N,+9V*%
X253960000Y-106670000D03*
%TO.P,U1,4*%
%TO.N,GND*%
X246340000Y-114290000D03*
%TO.P,U1,7*%
%TO.N,Net-(C9-Pad2)*%
X253960000Y-109210000D03*
%TO.P,U1,3*%
%TO.N,Net-(C4-Pad2)*%
X246340000Y-111750000D03*
%TO.P,U1,6*%
%TO.N,Net-(P3-Pad1)*%
X253960000Y-111750000D03*
%TO.P,U1,2*%
%TO.N,Net-(C5-Pad2)*%
X246340000Y-109210000D03*
%TO.P,U1,5*%
%TO.N,Net-(C7-Pad1)*%
X253960000Y-114290000D03*
D11*
%TO.P,U1,1*%
%TO.N,Net-(C5-Pad1)*%
X246340000Y-106670000D03*
%TD*%
D10*
%TO.P,R2,1*%
%TO.N,VCC*%
X251550000Y-85460000D03*
D12*
%TO.P,R2,2*%
%TO.N,GND*%
X246470000Y-85460000D03*
%TD*%
D10*
%TO.P,C6,2*%
%TO.N,Net-(C6-Pad2)*%
X238030000Y-126700000D03*
%TO.P,C6,1*%
%TO.N,Net-(C5-Pad2)*%
X238030000Y-121700000D03*
%TD*%
%TO.P,S3,1*%
%TO.N,Net-(Q2-Pad1)*%
%TA.AperFunction,ComponentPad*%
G36*
G01*
X245299999Y-92810000D02*
X246900001Y-92810000D01*
G75*
G02*
X247150000Y-93059999I0J-249999D01*
G01*
X247150000Y-94660001D01*
G75*
G02*
X246900001Y-94910000I-249999J0D01*
G01*
X245299999Y-94910000D01*
G75*
G02*
X245050000Y-94660001I0J249999D01*
G01*
X245050000Y-93059999D01*
G75*
G02*
X245299999Y-92810000I249999J0D01*
G01*
G37*
%TD.AperFunction*%
%TD*%
D12*
%TO.P,R19,2*%
%TO.N,GND*%
X234080000Y-134190000D03*
D10*
%TO.P,R19,1*%
%TO.N,Net-(R19-Pad1)*%
X239160000Y-134190000D03*
%TD*%
%TO.P,P5,1*%
%TO.N,Net-(C7-Pad1)*%
%TA.AperFunction,ComponentPad*%
G36*
G01*
X242250000Y-107720001D02*
X242250000Y-106119999D01*
G75*
G02*
X242499999Y-105870000I249999J0D01*
G01*
X244100001Y-105870000D01*
G75*
G02*
X244350000Y-106119999I0J-249999D01*
G01*
X244350000Y-107720001D01*
G75*
G02*
X244100001Y-107970000I-249999J0D01*
G01*
X242499999Y-107970000D01*
G75*
G02*
X242250000Y-107720001I0J249999D01*
G01*
G37*
%TD.AperFunction*%
%TD*%
D13*
%TO.P,Q2,1*%
%TO.N,Net-(Q2-Pad1)*%
X250470000Y-94250000D03*
D14*
%TO.P,Q2,3*%
%TO.N,Net-(C10-Pad1)*%
X250470000Y-91710000D03*
%TO.P,Q2,2*%
%TO.N,+9V*%
X250470000Y-92980000D03*
%TD*%
D10*
%TO.P,R13,1*%
%TO.N,Net-(C10-Pad1)*%
X250990000Y-88630000D03*
D12*
%TO.P,R13,2*%
%TO.N,VCC*%
X245910000Y-88630000D03*
%TD*%
%TO.P,R8,2*%
%TO.N,Net-(C7-Pad1)*%
X251460000Y-103505000D03*
D10*
%TO.P,R8,1*%
%TO.N,Net-(C5-Pad1)*%
X246380000Y-103505000D03*
%TD*%
D12*
%TO.P,R5,2*%
%TO.N,VCC*%
X255650000Y-117435000D03*
D10*
%TO.P,R5,1*%
%TO.N,Net-(C4-Pad2)*%
X250570000Y-117435000D03*
%TD*%
%TO.P,C11,2*%
%TO.N,Net-(C11-Pad2)*%
X233180000Y-99160000D03*
D11*
%TO.P,C11,1*%
%TO.N,Net-(C11-Pad1)*%
X235180000Y-99160000D03*
%TD*%
%TO.P,C2,1*%
%TO.N,VCC*%
X236080000Y-93590000D03*
D10*
%TO.P,C2,2*%
%TO.N,GND*%
X234080000Y-93590000D03*
%TD*%
%TO.P,C9,2*%
%TO.N,Net-(C9-Pad2)*%
X265290000Y-103750000D03*
D11*
%TO.P,C9,1*%
%TO.N,Net-(C9-Pad1)*%
X263290000Y-103750000D03*
%TD*%
%TO.P,C1,1*%
%TO.N,+9V*%
X243010000Y-88580000D03*
D10*
%TO.P,C1,2*%
%TO.N,GND*%
X241010000Y-88580000D03*
%TD*%
%TO.P,C7,2*%
%TO.N,GND*%
X256540000Y-93120000D03*
%TO.P,C7,1*%
%TO.N,Net-(C7-Pad1)*%
X256540000Y-103120000D03*
%TD*%
%TO.P,S1,1*%
%TO.N,Net-(C3-Pad2)*%
%TA.AperFunction,ComponentPad*%
G36*
G01*
X261100000Y-127329999D02*
X261100000Y-128930001D01*
G75*
G02*
X260850001Y-129180000I-249999J0D01*
G01*
X259249999Y-129180000D01*
G75*
G02*
X259000000Y-128930001I0J249999D01*
G01*
X259000000Y-127329999D01*
G75*
G02*
X259249999Y-127080000I249999J0D01*
G01*
X260850001Y-127080000D01*
G75*
G02*
X261100000Y-127329999I0J-249999D01*
G01*
G37*
%TD.AperFunction*%
%TD*%
D12*
%TO.P,R16,2*%
%TO.N,Net-(R16-Pad2)*%
X239480000Y-97810000D03*
D10*
%TO.P,R16,1*%
%TO.N,Net-(C11-Pad1)*%
X239480000Y-92730000D03*
%TD*%
D12*
%TO.P,R18,2*%
%TO.N,Net-(R18-Pad2)*%
X239600000Y-131040000D03*
D10*
%TO.P,R18,1*%
%TO.N,GND*%
X234520000Y-131040000D03*
%TD*%
D13*
%TO.P,Q1,1*%
%TO.N,Net-(C4-Pad1)*%
X246200000Y-123010000D03*
D14*
%TO.P,Q1,3*%
%TO.N,Net-(Q1-Pad3)*%
X246200000Y-125550000D03*
%TO.P,Q1,2*%
%TO.N,+9V*%
X246200000Y-124280000D03*
%TD*%
%TO.P,P3,1*%
%TO.N,Net-(P3-Pad1)*%
%TA.AperFunction,ComponentPad*%
G36*
G01*
X260560001Y-107160000D02*
X258959999Y-107160000D01*
G75*
G02*
X258710000Y-106910001I0J249999D01*
G01*
X258710000Y-105309999D01*
G75*
G02*
X258959999Y-105060000I249999J0D01*
G01*
X260560001Y-105060000D01*
G75*
G02*
X260810000Y-105309999I0J-249999D01*
G01*
X260810000Y-106910001D01*
G75*
G02*
X260560001Y-107160000I-249999J0D01*
G01*
G37*
%TD.AperFunction*%
%TD*%
%TO.P,S7,1*%
%TO.N,Net-(R19-Pad1)*%
%TA.AperFunction,ComponentPad*%
G36*
G01*
X241620000Y-133925001D02*
X241620000Y-132324999D01*
G75*
G02*
X241869999Y-132075000I249999J0D01*
G01*
X243470001Y-132075000D01*
G75*
G02*
X243720000Y-132324999I0J-249999D01*
G01*
X243720000Y-133925001D01*
G75*
G02*
X243470001Y-134175000I-249999J0D01*
G01*
X241869999Y-134175000D01*
G75*
G02*
X241620000Y-133925001I0J249999D01*
G01*
G37*
%TD.AperFunction*%
%TD*%
D12*
%TO.P,R7,2*%
%TO.N,VCC*%
X242540000Y-121710000D03*
D10*
%TO.P,R7,1*%
%TO.N,Net-(C6-Pad2)*%
X242540000Y-126790000D03*
%TD*%
%TO.P,S4,1*%
%TO.N,Net-(R15-Pad1)*%
%TA.AperFunction,ComponentPad*%
G36*
G01*
X243980000Y-96509999D02*
X243980000Y-98110001D01*
G75*
G02*
X243730001Y-98360000I-249999J0D01*
G01*
X242129999Y-98360000D01*
G75*
G02*
X241880000Y-98110001I0J249999D01*
G01*
X241880000Y-96509999D01*
G75*
G02*
X242129999Y-96260000I249999J0D01*
G01*
X243730001Y-96260000D01*
G75*
G02*
X243980000Y-96509999I0J-249999D01*
G01*
G37*
%TD.AperFunction*%
%TD*%
D12*
%TO.P,R15,2*%
%TO.N,Net-(C11-Pad1)*%
X238160000Y-100490000D03*
D10*
%TO.P,R15,1*%
%TO.N,Net-(R15-Pad1)*%
X243240000Y-100490000D03*
%TD*%
%TO.P,S2,1*%
%TO.N,Net-(C11-Pad2)*%
%TA.AperFunction,ComponentPad*%
G36*
G01*
X240330001Y-104980000D02*
X238729999Y-104980000D01*
G75*
G02*
X238480000Y-104730001I0J249999D01*
G01*
X238480000Y-103129999D01*
G75*
G02*
X238729999Y-102880000I249999J0D01*
G01*
X240330001Y-102880000D01*
G75*
G02*
X240580000Y-103129999I0J-249999D01*
G01*
X240580000Y-104730001D01*
G75*
G02*
X240330001Y-104980000I-249999J0D01*
G01*
G37*
%TD.AperFunction*%
%TD*%
%TO.P,9V1,1*%
%TO.N,+9V*%
%TA.AperFunction,ComponentPad*%
G36*
G01*
X255530001Y-85040000D02*
X253929999Y-85040000D01*
G75*
G02*
X253680000Y-84790001I0J249999D01*
G01*
X253680000Y-83189999D01*
G75*
G02*
X253929999Y-82940000I249999J0D01*
G01*
X255530001Y-82940000D01*
G75*
G02*
X255780000Y-83189999I0J-249999D01*
G01*
X255780000Y-84790001D01*
G75*
G02*
X255530001Y-85040000I-249999J0D01*
G01*
G37*
%TD.AperFunction*%
%TD*%
D12*
%TO.P,R1,2*%
%TO.N,VCC*%
X238720000Y-84280000D03*
D10*
%TO.P,R1,1*%
%TO.N,+9V*%
X243800000Y-84280000D03*
%TD*%
D15*
%TO.P,D3,2*%
%TO.N,Net-(C5-Pad2)*%
X236010000Y-116810000D03*
D16*
%TO.P,D3,1*%
%TO.N,Net-(C5-Pad1)*%
X236010000Y-106650000D03*
%TD*%
%TO.P,S8,1*%
%TO.N,Net-(R18-Pad2)*%
%TA.AperFunction,ComponentPad*%
G36*
G01*
X241620000Y-130750001D02*
X241620000Y-129149999D01*
G75*
G02*
X241869999Y-128900000I249999J0D01*
G01*
X243470001Y-128900000D01*
G75*
G02*
X243720000Y-129149999I0J-249999D01*
G01*
X243720000Y-130750001D01*
G75*
G02*
X243470001Y-131000000I-249999J0D01*
G01*
X241869999Y-131000000D01*
G75*
G02*
X241620000Y-130750001I0J249999D01*
G01*
G37*
%TD.AperFunction*%
%TD*%
D12*
%TO.P,R3,2*%
%TO.N,Net-(C3-Pad1)*%
X255650000Y-126960000D03*
D10*
%TO.P,R3,1*%
%TO.N,Net-(Q1-Pad3)*%
X250570000Y-126960000D03*
%TD*%
%TO.P,GND1,1*%
%TO.N,GND*%
%TA.AperFunction,ComponentPad*%
G36*
G01*
X236860001Y-86370000D02*
X235259999Y-86370000D01*
G75*
G02*
X235010000Y-86120001I0J249999D01*
G01*
X235010000Y-84519999D01*
G75*
G02*
X235259999Y-84270000I249999J0D01*
G01*
X236860001Y-84270000D01*
G75*
G02*
X237110000Y-84519999I0J-249999D01*
G01*
X237110000Y-86120001D01*
G75*
G02*
X236860001Y-86370000I-249999J0D01*
G01*
G37*
%TD.AperFunction*%
%TD*%
%TO.P,P7,1*%
%TO.N,Net-(C10-Pad2)*%
%TA.AperFunction,ComponentPad*%
G36*
G01*
X263340001Y-88720000D02*
X261739999Y-88720000D01*
G75*
G02*
X261490000Y-88470001I0J249999D01*
G01*
X261490000Y-86869999D01*
G75*
G02*
X261739999Y-86620000I249999J0D01*
G01*
X263340001Y-86620000D01*
G75*
G02*
X263590000Y-86869999I0J-249999D01*
G01*
X263590000Y-88470001D01*
G75*
G02*
X263340001Y-88720000I-249999J0D01*
G01*
G37*
%TD.AperFunction*%
%TD*%
D12*
%TO.P,R10,2*%
%TO.N,GND*%
X265840000Y-112680000D03*
D10*
%TO.P,R10,1*%
%TO.N,Net-(C8-Pad2)*%
X260760000Y-112680000D03*
%TD*%
%TO.P,S5,1*%
%TO.N,Net-(R16-Pad2)*%
%TA.AperFunction,ComponentPad*%
G36*
G01*
X243680001Y-94930000D02*
X242079999Y-94930000D01*
G75*
G02*
X241830000Y-94680001I0J249999D01*
G01*
X241830000Y-93079999D01*
G75*
G02*
X242079999Y-92830000I249999J0D01*
G01*
X243680001Y-92830000D01*
G75*
G02*
X243930000Y-93079999I0J-249999D01*
G01*
X243930000Y-94680001D01*
G75*
G02*
X243680001Y-94930000I-249999J0D01*
G01*
G37*
%TD.AperFunction*%
%TD*%
%TO.P,C5,2*%
%TO.N,Net-(C5-Pad2)*%
X243120000Y-113600000D03*
%TO.P,C5,1*%
%TO.N,Net-(C5-Pad1)*%
X243120000Y-111100000D03*
%TD*%
D12*
%TO.P,R4,2*%
%TO.N,VCC*%
X255650000Y-123785000D03*
D10*
%TO.P,R4,1*%
%TO.N,Net-(Q1-Pad3)*%
X250570000Y-123785000D03*
%TD*%
D12*
%TO.P,D1,2*%
%TO.N,GND*%
X265090000Y-84540000D03*
D11*
%TO.P,D1,1*%
%TO.N,+9V*%
X257470000Y-84540000D03*
%TD*%
%TO.P,P2,1*%
%TO.N,Net-(C5-Pad1)*%
%TA.AperFunction,ComponentPad*%
G36*
G01*
X231450000Y-110800001D02*
X231450000Y-109199999D01*
G75*
G02*
X231699999Y-108950000I249999J0D01*
G01*
X233300001Y-108950000D01*
G75*
G02*
X233550000Y-109199999I0J-249999D01*
G01*
X233550000Y-110800001D01*
G75*
G02*
X233300001Y-111050000I-249999J0D01*
G01*
X231699999Y-111050000D01*
G75*
G02*
X231450000Y-110800001I0J249999D01*
G01*
G37*
%TD.AperFunction*%
%TD*%
%TO.P,P8,1*%
%TO.N,VCC*%
%TA.AperFunction,ComponentPad*%
G36*
G01*
X236739999Y-87960000D02*
X238340001Y-87960000D01*
G75*
G02*
X238590000Y-88209999I0J-249999D01*
G01*
X238590000Y-89810001D01*
G75*
G02*
X238340001Y-90060000I-249999J0D01*
G01*
X236739999Y-90060000D01*
G75*
G02*
X236490000Y-89810001I0J249999D01*
G01*
X236490000Y-88209999D01*
G75*
G02*
X236739999Y-87960000I249999J0D01*
G01*
G37*
%TD.AperFunction*%
%TD*%
D12*
%TO.P,R11,2*%
%TO.N,Net-(C9-Pad2)*%
X261690000Y-109510000D03*
D10*
%TO.P,R11,1*%
%TO.N,Net-(P3-Pad1)*%
X256610000Y-109510000D03*
%TD*%
%TO.P,C10,2*%
%TO.N,Net-(C10-Pad2)*%
X259510000Y-88900000D03*
%TO.P,C10,1*%
%TO.N,Net-(C10-Pad1)*%
X254510000Y-88900000D03*
%TD*%
%TO.P,C3,2*%
%TO.N,Net-(C3-Pad2)*%
X255090000Y-132080000D03*
%TO.P,C3,1*%
%TO.N,Net-(C3-Pad1)*%
X247590000Y-132080000D03*
%TD*%
D12*
%TO.P,R6,2*%
%TO.N,Net-(P1-Pad1)*%
X236790000Y-103650000D03*
D10*
%TO.P,R6,1*%
%TO.N,Net-(C5-Pad2)*%
X231710000Y-103650000D03*
%TD*%
%TO.P,P4,1*%
%TO.N,Net-(C8-Pad1)*%
%TA.AperFunction,ComponentPad*%
G36*
G01*
X256300000Y-113450001D02*
X256300000Y-111849999D01*
G75*
G02*
X256549999Y-111600000I249999J0D01*
G01*
X258150001Y-111600000D01*
G75*
G02*
X258400000Y-111849999I0J-249999D01*
G01*
X258400000Y-113450001D01*
G75*
G02*
X258150001Y-113700000I-249999J0D01*
G01*
X256549999Y-113700000D01*
G75*
G02*
X256300000Y-113450001I0J249999D01*
G01*
G37*
%TD.AperFunction*%
%TD*%
D12*
%TO.P,R12,2*%
%TO.N,Net-(P6-Pad1)*%
X262060000Y-94330000D03*
D10*
%TO.P,R12,1*%
%TO.N,Net-(C9-Pad1)*%
X262060000Y-99410000D03*
%TD*%
%TO.P,P6,1*%
%TO.N,Net-(P6-Pad1)*%
%TA.AperFunction,ComponentPad*%
G36*
G01*
X263360001Y-92400000D02*
X261759999Y-92400000D01*
G75*
G02*
X261510000Y-92150001I0J249999D01*
G01*
X261510000Y-90549999D01*
G75*
G02*
X261759999Y-90300000I249999J0D01*
G01*
X263360001Y-90300000D01*
G75*
G02*
X263610000Y-90549999I0J-249999D01*
G01*
X263610000Y-92150001D01*
G75*
G02*
X263360001Y-92400000I-249999J0D01*
G01*
G37*
%TD.AperFunction*%
%TD*%
%TO.P,S6,1*%
%TO.N,Net-(C11-Pad2)*%
%TA.AperFunction,ComponentPad*%
G36*
G01*
X244030000Y-102889999D02*
X244030000Y-104490001D01*
G75*
G02*
X243780001Y-104740000I-249999J0D01*
G01*
X242179999Y-104740000D01*
G75*
G02*
X241930000Y-104490001I0J249999D01*
G01*
X241930000Y-102889999D01*
G75*
G02*
X242179999Y-102640000I249999J0D01*
G01*
X243780001Y-102640000D01*
G75*
G02*
X244030000Y-102889999I0J-249999D01*
G01*
G37*
%TD.AperFunction*%
%TD*%
D12*
%TO.P,R9,2*%
%TO.N,Net-(C7-Pad1)*%
X251460000Y-100330000D03*
D10*
%TO.P,R9,1*%
%TO.N,VCC*%
X246380000Y-100330000D03*
%TD*%
D12*
%TO.P,R14,2*%
%TO.N,GND*%
X245910000Y-97260000D03*
D10*
%TO.P,R14,1*%
%TO.N,Net-(Q2-Pad1)*%
X250990000Y-97260000D03*
%TD*%
D12*
%TO.P,R17,2*%
%TO.N,GND*%
X255650000Y-120610000D03*
D10*
%TO.P,R17,1*%
%TO.N,Net-(C4-Pad1)*%
X250570000Y-120610000D03*
%TD*%
D15*
%TO.P,D2,2*%
%TO.N,Net-(C5-Pad1)*%
X239400000Y-107280000D03*
D16*
%TO.P,D2,1*%
%TO.N,Net-(C5-Pad2)*%
X239400000Y-117440000D03*
%TD*%
D17*
%TO.N,GND*%
X267020000Y-83741841D02*
X267020001Y-111873728D01*
X266903519Y-111716586D01*
X266695131Y-111527615D01*
X266453881Y-111382930D01*
X266189040Y-111288091D01*
X265967000Y-111409376D01*
X265967000Y-112553000D01*
X265987000Y-112553000D01*
X265987000Y-112807000D01*
X265967000Y-112807000D01*
X265967000Y-113950624D01*
X266189040Y-114071909D01*
X266453881Y-113977070D01*
X266695131Y-113832385D01*
X266903519Y-113643414D01*
X267020001Y-113486272D01*
X267020001Y-127566618D01*
X258776724Y-135809896D01*
X233208743Y-135800092D01*
X231692831Y-134539039D01*
X232688096Y-134539039D01*
X232728754Y-134673087D01*
X232848963Y-134927420D01*
X233016481Y-135153414D01*
X233224869Y-135342385D01*
X233466119Y-135487070D01*
X233730960Y-135581909D01*
X233953000Y-135460624D01*
X233953000Y-134317000D01*
X234207000Y-134317000D01*
X234207000Y-135460624D01*
X234429040Y-135581909D01*
X234693881Y-135487070D01*
X234935131Y-135342385D01*
X235143519Y-135153414D01*
X235311037Y-134927420D01*
X235431246Y-134673087D01*
X235471904Y-134539039D01*
X235349915Y-134317000D01*
X234207000Y-134317000D01*
X233953000Y-134317000D01*
X232810085Y-134317000D01*
X232688096Y-134539039D01*
X231692831Y-134539039D01*
X230853672Y-133840961D01*
X232688096Y-133840961D01*
X232810085Y-134063000D01*
X233953000Y-134063000D01*
X233953000Y-132919376D01*
X234207000Y-132919376D01*
X234207000Y-134063000D01*
X235349915Y-134063000D01*
X235357790Y-134048665D01*
X237725000Y-134048665D01*
X237725000Y-134331335D01*
X237780147Y-134608574D01*
X237888320Y-134869727D01*
X238045363Y-135104759D01*
X238245241Y-135304637D01*
X238480273Y-135461680D01*
X238741426Y-135569853D01*
X239018665Y-135625000D01*
X239301335Y-135625000D01*
X239578574Y-135569853D01*
X239839727Y-135461680D01*
X240074759Y-135304637D01*
X240274637Y-135104759D01*
X240431680Y-134869727D01*
X240539853Y-134608574D01*
X240595000Y-134331335D01*
X240595000Y-134048665D01*
X240539853Y-133771426D01*
X240431680Y-133510273D01*
X240274637Y-133275241D01*
X240074759Y-133075363D01*
X239839727Y-132918320D01*
X239578574Y-132810147D01*
X239301335Y-132755000D01*
X239018665Y-132755000D01*
X238741426Y-132810147D01*
X238480273Y-132918320D01*
X238245241Y-133075363D01*
X238045363Y-133275241D01*
X237888320Y-133510273D01*
X237780147Y-133771426D01*
X237725000Y-134048665D01*
X235357790Y-134048665D01*
X235471904Y-133840961D01*
X235431246Y-133706913D01*
X235311037Y-133452580D01*
X235143519Y-133226586D01*
X234935131Y-133037615D01*
X234693881Y-132892930D01*
X234429040Y-132798091D01*
X234207000Y-132919376D01*
X233953000Y-132919376D01*
X233730960Y-132798091D01*
X233466119Y-132892930D01*
X233224869Y-133037615D01*
X233016481Y-133226586D01*
X232848963Y-133452580D01*
X232728754Y-133706913D01*
X232688096Y-133840961D01*
X230853672Y-133840961D01*
X229317000Y-132562639D01*
X229317000Y-132032702D01*
X233706903Y-132032702D01*
X233778486Y-132276671D01*
X234033996Y-132397571D01*
X234308184Y-132466300D01*
X234590512Y-132480217D01*
X234870130Y-132438787D01*
X235136292Y-132343603D01*
X235261514Y-132276671D01*
X235333097Y-132032702D01*
X234520000Y-131219605D01*
X233706903Y-132032702D01*
X229317000Y-132032702D01*
X229317000Y-131110512D01*
X233079783Y-131110512D01*
X233121213Y-131390130D01*
X233216397Y-131656292D01*
X233283329Y-131781514D01*
X233527298Y-131853097D01*
X234340395Y-131040000D01*
X234699605Y-131040000D01*
X235512702Y-131853097D01*
X235756671Y-131781514D01*
X235877571Y-131526004D01*
X235946300Y-131251816D01*
X235960217Y-130969488D01*
X235949724Y-130898665D01*
X238165000Y-130898665D01*
X238165000Y-131181335D01*
X238220147Y-131458574D01*
X238328320Y-131719727D01*
X238485363Y-131954759D01*
X238685241Y-132154637D01*
X238920273Y-132311680D01*
X239181426Y-132419853D01*
X239458665Y-132475000D01*
X239741335Y-132475000D01*
X240018574Y-132419853D01*
X240279727Y-132311680D01*
X240514759Y-132154637D01*
X240714637Y-131954759D01*
X240871680Y-131719727D01*
X240979853Y-131458574D01*
X241035000Y-131181335D01*
X241035000Y-131041958D01*
X241049528Y-131089851D01*
X241131595Y-131243387D01*
X241242038Y-131377962D01*
X241376613Y-131488405D01*
X241468463Y-131537500D01*
X241376613Y-131586595D01*
X241242038Y-131697038D01*
X241131595Y-131831613D01*
X241049528Y-131985149D01*
X240998992Y-132151745D01*
X240981928Y-132324999D01*
X240981928Y-133925001D01*
X240998992Y-134098255D01*
X241049528Y-134264851D01*
X241131595Y-134418387D01*
X241242038Y-134552962D01*
X241376613Y-134663405D01*
X241530149Y-134745472D01*
X241696745Y-134796008D01*
X241869999Y-134813072D01*
X243470001Y-134813072D01*
X243643255Y-134796008D01*
X243809851Y-134745472D01*
X243963387Y-134663405D01*
X244097962Y-134552962D01*
X244208405Y-134418387D01*
X244290472Y-134264851D01*
X244341008Y-134098255D01*
X244358072Y-133925001D01*
X244358072Y-132324999D01*
X244341008Y-132151745D01*
X244290472Y-131985149D01*
X244265626Y-131938665D01*
X246155000Y-131938665D01*
X246155000Y-132221335D01*
X246210147Y-132498574D01*
X246318320Y-132759727D01*
X246475363Y-132994759D01*
X246675241Y-133194637D01*
X246910273Y-133351680D01*
X247171426Y-133459853D01*
X247448665Y-133515000D01*
X247731335Y-133515000D01*
X248008574Y-133459853D01*
X248269727Y-133351680D01*
X248504759Y-133194637D01*
X248704637Y-132994759D01*
X248861680Y-132759727D01*
X248969853Y-132498574D01*
X249025000Y-132221335D01*
X249025000Y-131938665D01*
X253655000Y-131938665D01*
X253655000Y-132221335D01*
X253710147Y-132498574D01*
X253818320Y-132759727D01*
X253975363Y-132994759D01*
X254175241Y-133194637D01*
X254410273Y-133351680D01*
X254671426Y-133459853D01*
X254948665Y-133515000D01*
X255231335Y-133515000D01*
X255508574Y-133459853D01*
X255769727Y-133351680D01*
X256004759Y-133194637D01*
X256204637Y-132994759D01*
X256361680Y-132759727D01*
X256469853Y-132498574D01*
X256525000Y-132221335D01*
X256525000Y-131938665D01*
X256469853Y-131661426D01*
X256361680Y-131400273D01*
X256204637Y-131165241D01*
X256004759Y-130965363D01*
X255769727Y-130808320D01*
X255508574Y-130700147D01*
X255231335Y-130645000D01*
X254948665Y-130645000D01*
X254671426Y-130700147D01*
X254410273Y-130808320D01*
X254175241Y-130965363D01*
X253975363Y-131165241D01*
X253818320Y-131400273D01*
X253710147Y-131661426D01*
X253655000Y-131938665D01*
X249025000Y-131938665D01*
X248969853Y-131661426D01*
X248861680Y-131400273D01*
X248704637Y-131165241D01*
X248504759Y-130965363D01*
X248269727Y-130808320D01*
X248008574Y-130700147D01*
X247731335Y-130645000D01*
X247448665Y-130645000D01*
X247171426Y-130700147D01*
X246910273Y-130808320D01*
X246675241Y-130965363D01*
X246475363Y-131165241D01*
X246318320Y-131400273D01*
X246210147Y-131661426D01*
X246155000Y-131938665D01*
X244265626Y-131938665D01*
X244208405Y-131831613D01*
X244097962Y-131697038D01*
X243963387Y-131586595D01*
X243871537Y-131537500D01*
X243963387Y-131488405D01*
X244097962Y-131377962D01*
X244208405Y-131243387D01*
X244290472Y-131089851D01*
X244341008Y-130923255D01*
X244358072Y-130750001D01*
X244358072Y-129149999D01*
X244341008Y-128976745D01*
X244290472Y-128810149D01*
X244208405Y-128656613D01*
X244097962Y-128522038D01*
X243963387Y-128411595D01*
X243809851Y-128329528D01*
X243643255Y-128278992D01*
X243470001Y-128261928D01*
X241869999Y-128261928D01*
X241696745Y-128278992D01*
X241530149Y-128329528D01*
X241376613Y-128411595D01*
X241242038Y-128522038D01*
X241131595Y-128656613D01*
X241049528Y-128810149D01*
X240998992Y-128976745D01*
X240981928Y-129149999D01*
X240981928Y-130631858D01*
X240979853Y-130621426D01*
X240871680Y-130360273D01*
X240714637Y-130125241D01*
X240514759Y-129925363D01*
X240279727Y-129768320D01*
X240018574Y-129660147D01*
X239741335Y-129605000D01*
X239458665Y-129605000D01*
X239181426Y-129660147D01*
X238920273Y-129768320D01*
X238685241Y-129925363D01*
X238485363Y-130125241D01*
X238328320Y-130360273D01*
X238220147Y-130621426D01*
X238165000Y-130898665D01*
X235949724Y-130898665D01*
X235918787Y-130689870D01*
X235823603Y-130423708D01*
X235756671Y-130298486D01*
X235512702Y-130226903D01*
X234699605Y-131040000D01*
X234340395Y-131040000D01*
X233527298Y-130226903D01*
X233283329Y-130298486D01*
X233162429Y-130553996D01*
X233093700Y-130828184D01*
X233079783Y-131110512D01*
X229317000Y-131110512D01*
X229317000Y-130047298D01*
X233706903Y-130047298D01*
X234520000Y-130860395D01*
X235333097Y-130047298D01*
X235261514Y-129803329D01*
X235006004Y-129682429D01*
X234731816Y-129613700D01*
X234449488Y-129599783D01*
X234169870Y-129641213D01*
X233903708Y-129736397D01*
X233778486Y-129803329D01*
X233706903Y-130047298D01*
X229317000Y-130047298D01*
X229317000Y-126558665D01*
X236595000Y-126558665D01*
X236595000Y-126841335D01*
X236650147Y-127118574D01*
X236758320Y-127379727D01*
X236915363Y-127614759D01*
X237115241Y-127814637D01*
X237350273Y-127971680D01*
X237611426Y-128079853D01*
X237888665Y-128135000D01*
X238171335Y-128135000D01*
X238448574Y-128079853D01*
X238709727Y-127971680D01*
X238944759Y-127814637D01*
X239144637Y-127614759D01*
X239301680Y-127379727D01*
X239409853Y-127118574D01*
X239465000Y-126841335D01*
X239465000Y-126648665D01*
X241105000Y-126648665D01*
X241105000Y-126931335D01*
X241160147Y-127208574D01*
X241268320Y-127469727D01*
X241425363Y-127704759D01*
X241625241Y-127904637D01*
X241860273Y-128061680D01*
X242121426Y-128169853D01*
X242398665Y-128225000D01*
X242681335Y-128225000D01*
X242958574Y-128169853D01*
X243219727Y-128061680D01*
X243454759Y-127904637D01*
X243654637Y-127704759D01*
X243811680Y-127469727D01*
X243919853Y-127208574D01*
X243975000Y-126931335D01*
X243975000Y-126818665D01*
X249135000Y-126818665D01*
X249135000Y-127101335D01*
X249190147Y-127378574D01*
X249298320Y-127639727D01*
X249455363Y-127874759D01*
X249655241Y-128074637D01*
X249890273Y-128231680D01*
X250151426Y-128339853D01*
X250428665Y-128395000D01*
X250711335Y-128395000D01*
X250988574Y-128339853D01*
X251249727Y-128231680D01*
X251484759Y-128074637D01*
X251684637Y-127874759D01*
X251841680Y-127639727D01*
X251949853Y-127378574D01*
X252005000Y-127101335D01*
X252005000Y-126818665D01*
X254215000Y-126818665D01*
X254215000Y-127101335D01*
X254270147Y-127378574D01*
X254378320Y-127639727D01*
X254535363Y-127874759D01*
X254735241Y-128074637D01*
X254970273Y-128231680D01*
X255231426Y-128339853D01*
X255508665Y-128395000D01*
X255791335Y-128395000D01*
X256068574Y-128339853D01*
X256329727Y-128231680D01*
X256564759Y-128074637D01*
X256764637Y-127874759D01*
X256921680Y-127639727D01*
X257029853Y-127378574D01*
X257039515Y-127329999D01*
X258361928Y-127329999D01*
X258361928Y-128930001D01*
X258378992Y-129103255D01*
X258429528Y-129269851D01*
X258511595Y-129423387D01*
X258622038Y-129557962D01*
X258756613Y-129668405D01*
X258910149Y-129750472D01*
X259076745Y-129801008D01*
X259249999Y-129818072D01*
X260850001Y-129818072D01*
X261023255Y-129801008D01*
X261189851Y-129750472D01*
X261343387Y-129668405D01*
X261477962Y-129557962D01*
X261588405Y-129423387D01*
X261670472Y-129269851D01*
X261721008Y-129103255D01*
X261738072Y-128930001D01*
X261738072Y-127329999D01*
X261721008Y-127156745D01*
X261670472Y-126990149D01*
X261588405Y-126836613D01*
X261477962Y-126702038D01*
X261386647Y-126627098D01*
X261399727Y-126621680D01*
X261634759Y-126464637D01*
X261834637Y-126264759D01*
X261991680Y-126029727D01*
X262099853Y-125768574D01*
X262155000Y-125491335D01*
X262155000Y-125208665D01*
X262099853Y-124931426D01*
X261991680Y-124670273D01*
X261834637Y-124435241D01*
X261634759Y-124235363D01*
X261399727Y-124078320D01*
X261138574Y-123970147D01*
X260861335Y-123915000D01*
X260578665Y-123915000D01*
X260301426Y-123970147D01*
X260040273Y-124078320D01*
X259805241Y-124235363D01*
X259605363Y-124435241D01*
X259448320Y-124670273D01*
X259340147Y-124931426D01*
X259285000Y-125208665D01*
X259285000Y-125491335D01*
X259340147Y-125768574D01*
X259448320Y-126029727D01*
X259605363Y-126264759D01*
X259782532Y-126441928D01*
X259249999Y-126441928D01*
X259076745Y-126458992D01*
X258910149Y-126509528D01*
X258756613Y-126591595D01*
X258622038Y-126702038D01*
X258511595Y-126836613D01*
X258429528Y-126990149D01*
X258378992Y-127156745D01*
X258361928Y-127329999D01*
X257039515Y-127329999D01*
X257085000Y-127101335D01*
X257085000Y-126818665D01*
X257029853Y-126541426D01*
X256921680Y-126280273D01*
X256764637Y-126045241D01*
X256564759Y-125845363D01*
X256329727Y-125688320D01*
X256068574Y-125580147D01*
X255791335Y-125525000D01*
X255508665Y-125525000D01*
X255231426Y-125580147D01*
X254970273Y-125688320D01*
X254735241Y-125845363D01*
X254535363Y-126045241D01*
X254378320Y-126280273D01*
X254270147Y-126541426D01*
X254215000Y-126818665D01*
X252005000Y-126818665D01*
X251949853Y-126541426D01*
X251841680Y-126280273D01*
X251684637Y-126045241D01*
X251484759Y-125845363D01*
X251249727Y-125688320D01*
X250988574Y-125580147D01*
X250711335Y-125525000D01*
X250428665Y-125525000D01*
X250151426Y-125580147D01*
X249890273Y-125688320D01*
X249655241Y-125845363D01*
X249455363Y-126045241D01*
X249298320Y-126280273D01*
X249190147Y-126541426D01*
X249135000Y-126818665D01*
X243975000Y-126818665D01*
X243975000Y-126648665D01*
X243919853Y-126371426D01*
X243811680Y-126110273D01*
X243654637Y-125875241D01*
X243454759Y-125675363D01*
X243219727Y-125518320D01*
X242958574Y-125410147D01*
X242681335Y-125355000D01*
X242398665Y-125355000D01*
X242121426Y-125410147D01*
X241860273Y-125518320D01*
X241625241Y-125675363D01*
X241425363Y-125875241D01*
X241268320Y-126110273D01*
X241160147Y-126371426D01*
X241105000Y-126648665D01*
X239465000Y-126648665D01*
X239465000Y-126558665D01*
X239409853Y-126281426D01*
X239301680Y-126020273D01*
X239144637Y-125785241D01*
X238944759Y-125585363D01*
X238709727Y-125428320D01*
X238448574Y-125320147D01*
X238171335Y-125265000D01*
X237888665Y-125265000D01*
X237611426Y-125320147D01*
X237350273Y-125428320D01*
X237115241Y-125585363D01*
X236915363Y-125785241D01*
X236758320Y-126020273D01*
X236650147Y-126281426D01*
X236595000Y-126558665D01*
X229317000Y-126558665D01*
X229317000Y-124280000D01*
X244809388Y-124280000D01*
X244831785Y-124507400D01*
X244898115Y-124726060D01*
X244999105Y-124915000D01*
X244898115Y-125103940D01*
X244831785Y-125322600D01*
X244809388Y-125550000D01*
X244831785Y-125777400D01*
X244898115Y-125996060D01*
X245005829Y-126197579D01*
X245150788Y-126374212D01*
X245327421Y-126519171D01*
X245528940Y-126626885D01*
X245747600Y-126693215D01*
X245918021Y-126710000D01*
X246481979Y-126710000D01*
X246652400Y-126693215D01*
X246871060Y-126626885D01*
X247072579Y-126519171D01*
X247249212Y-126374212D01*
X247394171Y-126197579D01*
X247501885Y-125996060D01*
X247568215Y-125777400D01*
X247590612Y-125550000D01*
X247568215Y-125322600D01*
X247501885Y-125103940D01*
X247400895Y-124915000D01*
X247501885Y-124726060D01*
X247568215Y-124507400D01*
X247590612Y-124280000D01*
X247568215Y-124052600D01*
X247504907Y-123843902D01*
X247539502Y-123779180D01*
X247575812Y-123659482D01*
X247577369Y-123643665D01*
X249135000Y-123643665D01*
X249135000Y-123926335D01*
X249190147Y-124203574D01*
X249298320Y-124464727D01*
X249455363Y-124699759D01*
X249655241Y-124899637D01*
X249890273Y-125056680D01*
X250151426Y-125164853D01*
X250428665Y-125220000D01*
X250711335Y-125220000D01*
X250988574Y-125164853D01*
X251249727Y-125056680D01*
X251484759Y-124899637D01*
X251684637Y-124699759D01*
X251841680Y-124464727D01*
X251949853Y-124203574D01*
X252005000Y-123926335D01*
X252005000Y-123643665D01*
X254215000Y-123643665D01*
X254215000Y-123926335D01*
X254270147Y-124203574D01*
X254378320Y-124464727D01*
X254535363Y-124699759D01*
X254735241Y-124899637D01*
X254970273Y-125056680D01*
X255231426Y-125164853D01*
X255508665Y-125220000D01*
X255791335Y-125220000D01*
X256068574Y-125164853D01*
X256329727Y-125056680D01*
X256564759Y-124899637D01*
X256764637Y-124699759D01*
X256921680Y-124464727D01*
X257029853Y-124203574D01*
X257085000Y-123926335D01*
X257085000Y-123643665D01*
X257029853Y-123366426D01*
X256921680Y-123105273D01*
X256764637Y-122870241D01*
X256564759Y-122670363D01*
X256329727Y-122513320D01*
X256068574Y-122405147D01*
X255791335Y-122350000D01*
X255508665Y-122350000D01*
X255231426Y-122405147D01*
X254970273Y-122513320D01*
X254735241Y-122670363D01*
X254535363Y-122870241D01*
X254378320Y-123105273D01*
X254270147Y-123366426D01*
X254215000Y-123643665D01*
X252005000Y-123643665D01*
X251949853Y-123366426D01*
X251841680Y-123105273D01*
X251684637Y-122870241D01*
X251484759Y-122670363D01*
X251249727Y-122513320D01*
X250988574Y-122405147D01*
X250711335Y-122350000D01*
X250428665Y-122350000D01*
X250151426Y-122405147D01*
X249890273Y-122513320D01*
X249655241Y-122670363D01*
X249455363Y-122870241D01*
X249298320Y-123105273D01*
X249190147Y-123366426D01*
X249135000Y-123643665D01*
X247577369Y-123643665D01*
X247588072Y-123535000D01*
X247588072Y-122485000D01*
X247575812Y-122360518D01*
X247539502Y-122240820D01*
X247480537Y-122130506D01*
X247401185Y-122033815D01*
X247304494Y-121954463D01*
X247194180Y-121895498D01*
X247074482Y-121859188D01*
X246950000Y-121846928D01*
X245450000Y-121846928D01*
X245325518Y-121859188D01*
X245205820Y-121895498D01*
X245095506Y-121954463D01*
X244998815Y-122033815D01*
X244919463Y-122130506D01*
X244860498Y-122240820D01*
X244824188Y-122360518D01*
X244811928Y-122485000D01*
X244811928Y-123535000D01*
X244824188Y-123659482D01*
X244860498Y-123779180D01*
X244895093Y-123843902D01*
X244831785Y-124052600D01*
X244809388Y-124280000D01*
X229317000Y-124280000D01*
X229317000Y-121558665D01*
X236595000Y-121558665D01*
X236595000Y-121841335D01*
X236650147Y-122118574D01*
X236758320Y-122379727D01*
X236915363Y-122614759D01*
X237115241Y-122814637D01*
X237350273Y-122971680D01*
X237611426Y-123079853D01*
X237888665Y-123135000D01*
X238171335Y-123135000D01*
X238448574Y-123079853D01*
X238709727Y-122971680D01*
X238944759Y-122814637D01*
X239144637Y-122614759D01*
X239301680Y-122379727D01*
X239409853Y-122118574D01*
X239465000Y-121841335D01*
X239465000Y-121568665D01*
X241105000Y-121568665D01*
X241105000Y-121851335D01*
X241160147Y-122128574D01*
X241268320Y-122389727D01*
X241425363Y-122624759D01*
X241625241Y-122824637D01*
X241860273Y-122981680D01*
X242121426Y-123089853D01*
X242398665Y-123145000D01*
X242681335Y-123145000D01*
X242958574Y-123089853D01*
X243219727Y-122981680D01*
X243454759Y-122824637D01*
X243654637Y-122624759D01*
X243811680Y-122389727D01*
X243919853Y-122128574D01*
X243975000Y-121851335D01*
X243975000Y-121568665D01*
X243919853Y-121291426D01*
X243811680Y-121030273D01*
X243654637Y-120795241D01*
X243454759Y-120595363D01*
X243219727Y-120438320D01*
X242958574Y-120330147D01*
X242681335Y-120275000D01*
X242398665Y-120275000D01*
X242121426Y-120330147D01*
X241860273Y-120438320D01*
X241625241Y-120595363D01*
X241425363Y-120795241D01*
X241268320Y-121030273D01*
X241160147Y-121291426D01*
X241105000Y-121568665D01*
X239465000Y-121568665D01*
X239465000Y-121558665D01*
X239409853Y-121281426D01*
X239301680Y-121020273D01*
X239144637Y-120785241D01*
X238944759Y-120585363D01*
X238709727Y-120428320D01*
X238448574Y-120320147D01*
X238171335Y-120265000D01*
X237888665Y-120265000D01*
X237611426Y-120320147D01*
X237350273Y-120428320D01*
X237115241Y-120585363D01*
X236915363Y-120785241D01*
X236758320Y-121020273D01*
X236650147Y-121281426D01*
X236595000Y-121558665D01*
X229317000Y-121558665D01*
X229317000Y-116639117D01*
X234275000Y-116639117D01*
X234275000Y-116980883D01*
X234341675Y-117316081D01*
X234472463Y-117631831D01*
X234662337Y-117915998D01*
X234904002Y-118157663D01*
X235188169Y-118347537D01*
X235503919Y-118478325D01*
X235839117Y-118545000D01*
X236180883Y-118545000D01*
X236516081Y-118478325D01*
X236831831Y-118347537D01*
X237115998Y-118157663D01*
X237357663Y-117915998D01*
X237547537Y-117631831D01*
X237661928Y-117355667D01*
X237661928Y-118540000D01*
X237674188Y-118664482D01*
X237710498Y-118784180D01*
X237769463Y-118894494D01*
X237848815Y-118991185D01*
X237945506Y-119070537D01*
X238055820Y-119129502D01*
X238175518Y-119165812D01*
X238300000Y-119178072D01*
X240500000Y-119178072D01*
X240624482Y-119165812D01*
X240744180Y-119129502D01*
X240854494Y-119070537D01*
X240951185Y-118991185D01*
X241026018Y-118900000D01*
X244731928Y-118900000D01*
X244731928Y-120500000D01*
X244744188Y-120624482D01*
X244780498Y-120744180D01*
X244839463Y-120854494D01*
X244918815Y-120951185D01*
X245015506Y-121030537D01*
X245125820Y-121089502D01*
X245245518Y-121125812D01*
X245370000Y-121138072D01*
X246970000Y-121138072D01*
X247094482Y-121125812D01*
X247214180Y-121089502D01*
X247324494Y-121030537D01*
X247421185Y-120951185D01*
X247500537Y-120854494D01*
X247559502Y-120744180D01*
X247595812Y-120624482D01*
X247608072Y-120500000D01*
X247608072Y-120468665D01*
X249135000Y-120468665D01*
X249135000Y-120751335D01*
X249190147Y-121028574D01*
X249298320Y-121289727D01*
X249455363Y-121524759D01*
X249655241Y-121724637D01*
X249890273Y-121881680D01*
X250151426Y-121989853D01*
X250428665Y-122045000D01*
X250711335Y-122045000D01*
X250988574Y-121989853D01*
X251249727Y-121881680D01*
X251484759Y-121724637D01*
X251684637Y-121524759D01*
X251841680Y-121289727D01*
X251949853Y-121028574D01*
X251963684Y-120959039D01*
X254258096Y-120959039D01*
X254298754Y-121093087D01*
X254418963Y-121347420D01*
X254586481Y-121573414D01*
X254794869Y-121762385D01*
X255036119Y-121907070D01*
X255300960Y-122001909D01*
X255523000Y-121880624D01*
X255523000Y-120737000D01*
X255777000Y-120737000D01*
X255777000Y-121880624D01*
X255999040Y-122001909D01*
X256263881Y-121907070D01*
X256505131Y-121762385D01*
X256713519Y-121573414D01*
X256881037Y-121347420D01*
X257001246Y-121093087D01*
X257041904Y-120959039D01*
X256919915Y-120737000D01*
X255777000Y-120737000D01*
X255523000Y-120737000D01*
X254380085Y-120737000D01*
X254258096Y-120959039D01*
X251963684Y-120959039D01*
X252005000Y-120751335D01*
X252005000Y-120468665D01*
X251963685Y-120260961D01*
X254258096Y-120260961D01*
X254380085Y-120483000D01*
X255523000Y-120483000D01*
X255523000Y-119339376D01*
X255777000Y-119339376D01*
X255777000Y-120483000D01*
X256919915Y-120483000D01*
X257041904Y-120260961D01*
X257001246Y-120126913D01*
X256881037Y-119872580D01*
X256713519Y-119646586D01*
X256505131Y-119457615D01*
X256263881Y-119312930D01*
X255999040Y-119218091D01*
X255777000Y-119339376D01*
X255523000Y-119339376D01*
X255300960Y-119218091D01*
X255036119Y-119312930D01*
X254794869Y-119457615D01*
X254586481Y-119646586D01*
X254418963Y-119872580D01*
X254298754Y-120126913D01*
X254258096Y-120260961D01*
X251963685Y-120260961D01*
X251949853Y-120191426D01*
X251841680Y-119930273D01*
X251684637Y-119695241D01*
X251484759Y-119495363D01*
X251249727Y-119338320D01*
X250988574Y-119230147D01*
X250711335Y-119175000D01*
X250428665Y-119175000D01*
X250151426Y-119230147D01*
X249890273Y-119338320D01*
X249655241Y-119495363D01*
X249455363Y-119695241D01*
X249298320Y-119930273D01*
X249190147Y-120191426D01*
X249135000Y-120468665D01*
X247608072Y-120468665D01*
X247608072Y-118900000D01*
X247595812Y-118775518D01*
X247559502Y-118655820D01*
X247500537Y-118545506D01*
X247421185Y-118448815D01*
X247404607Y-118435210D01*
X247441680Y-118379727D01*
X247549853Y-118118574D01*
X247605000Y-117841335D01*
X247605000Y-117558665D01*
X247552288Y-117293665D01*
X249135000Y-117293665D01*
X249135000Y-117576335D01*
X249190147Y-117853574D01*
X249298320Y-118114727D01*
X249455363Y-118349759D01*
X249655241Y-118549637D01*
X249890273Y-118706680D01*
X250151426Y-118814853D01*
X250428665Y-118870000D01*
X250711335Y-118870000D01*
X250988574Y-118814853D01*
X251249727Y-118706680D01*
X251484759Y-118549637D01*
X251684637Y-118349759D01*
X251841680Y-118114727D01*
X251949853Y-117853574D01*
X252005000Y-117576335D01*
X252005000Y-117293665D01*
X254215000Y-117293665D01*
X254215000Y-117576335D01*
X254270147Y-117853574D01*
X254378320Y-118114727D01*
X254535363Y-118349759D01*
X254735241Y-118549637D01*
X254970273Y-118706680D01*
X255231426Y-118814853D01*
X255508665Y-118870000D01*
X255791335Y-118870000D01*
X256068574Y-118814853D01*
X256329727Y-118706680D01*
X256564759Y-118549637D01*
X256764637Y-118349759D01*
X256921680Y-118114727D01*
X257029853Y-117853574D01*
X257085000Y-117576335D01*
X257085000Y-117293665D01*
X257029853Y-117016426D01*
X256921680Y-116755273D01*
X256764637Y-116520241D01*
X256564759Y-116320363D01*
X256329727Y-116163320D01*
X256068574Y-116055147D01*
X255791335Y-116000000D01*
X255508665Y-116000000D01*
X255231426Y-116055147D01*
X254970273Y-116163320D01*
X254735241Y-116320363D01*
X254535363Y-116520241D01*
X254378320Y-116755273D01*
X254270147Y-117016426D01*
X254215000Y-117293665D01*
X252005000Y-117293665D01*
X251949853Y-117016426D01*
X251841680Y-116755273D01*
X251684637Y-116520241D01*
X251484759Y-116320363D01*
X251249727Y-116163320D01*
X250988574Y-116055147D01*
X250711335Y-116000000D01*
X250428665Y-116000000D01*
X250151426Y-116055147D01*
X249890273Y-116163320D01*
X249655241Y-116320363D01*
X249455363Y-116520241D01*
X249298320Y-116755273D01*
X249190147Y-117016426D01*
X249135000Y-117293665D01*
X247552288Y-117293665D01*
X247549853Y-117281426D01*
X247441680Y-117020273D01*
X247284637Y-116785241D01*
X247084759Y-116585363D01*
X246849727Y-116428320D01*
X246588574Y-116320147D01*
X246311335Y-116265000D01*
X246028665Y-116265000D01*
X245751426Y-116320147D01*
X245490273Y-116428320D01*
X245255241Y-116585363D01*
X245055363Y-116785241D01*
X244898320Y-117020273D01*
X244790147Y-117281426D01*
X244735000Y-117558665D01*
X244735000Y-117841335D01*
X244790147Y-118118574D01*
X244898320Y-118379727D01*
X244935393Y-118435210D01*
X244918815Y-118448815D01*
X244839463Y-118545506D01*
X244780498Y-118655820D01*
X244744188Y-118775518D01*
X244731928Y-118900000D01*
X241026018Y-118900000D01*
X241030537Y-118894494D01*
X241089502Y-118784180D01*
X241125812Y-118664482D01*
X241138072Y-118540000D01*
X241138072Y-116340000D01*
X241125812Y-116215518D01*
X241089502Y-116095820D01*
X241030537Y-115985506D01*
X240951185Y-115888815D01*
X240854494Y-115809463D01*
X240744180Y-115750498D01*
X240624482Y-115714188D01*
X240500000Y-115701928D01*
X238300000Y-115701928D01*
X238175518Y-115714188D01*
X238055820Y-115750498D01*
X237945506Y-115809463D01*
X237848815Y-115888815D01*
X237769463Y-115985506D01*
X237710498Y-116095820D01*
X237674188Y-116215518D01*
X237667949Y-116278868D01*
X237547537Y-115988169D01*
X237357663Y-115704002D01*
X237115998Y-115462337D01*
X236831831Y-115272463D01*
X236516081Y-115141675D01*
X236180883Y-115075000D01*
X235839117Y-115075000D01*
X235503919Y-115141675D01*
X235188169Y-115272463D01*
X234904002Y-115462337D01*
X234662337Y-115704002D01*
X234472463Y-115988169D01*
X234341675Y-116303919D01*
X234275000Y-116639117D01*
X229317000Y-116639117D01*
X229317000Y-105999999D01*
X230801928Y-105999999D01*
X230801928Y-107600001D01*
X230818992Y-107773255D01*
X230869528Y-107939851D01*
X230951595Y-108093387D01*
X231062038Y-108227962D01*
X231196613Y-108338405D01*
X231316849Y-108402673D01*
X231206613Y-108461595D01*
X231072038Y-108572038D01*
X230961595Y-108706613D01*
X230879528Y-108860149D01*
X230828992Y-109026745D01*
X230811928Y-109199999D01*
X230811928Y-110800001D01*
X230828992Y-110973255D01*
X230879528Y-111139851D01*
X230961595Y-111293387D01*
X231072038Y-111427962D01*
X231206613Y-111538405D01*
X231360149Y-111620472D01*
X231526745Y-111671008D01*
X231699999Y-111688072D01*
X233300001Y-111688072D01*
X233473255Y-111671008D01*
X233639851Y-111620472D01*
X233793387Y-111538405D01*
X233927962Y-111427962D01*
X234038405Y-111293387D01*
X234120472Y-111139851D01*
X234171008Y-110973255D01*
X234172444Y-110958665D01*
X241685000Y-110958665D01*
X241685000Y-111241335D01*
X241740147Y-111518574D01*
X241848320Y-111779727D01*
X242005363Y-112014759D01*
X242205241Y-112214637D01*
X242407827Y-112350000D01*
X242205241Y-112485363D01*
X242005363Y-112685241D01*
X241848320Y-112920273D01*
X241740147Y-113181426D01*
X241685000Y-113458665D01*
X241685000Y-113741335D01*
X241740147Y-114018574D01*
X241848320Y-114279727D01*
X242005363Y-114514759D01*
X242205241Y-114714637D01*
X242440273Y-114871680D01*
X242701426Y-114979853D01*
X242978665Y-115035000D01*
X243261335Y-115035000D01*
X243538574Y-114979853D01*
X243799727Y-114871680D01*
X244034759Y-114714637D01*
X244110357Y-114639039D01*
X244948096Y-114639039D01*
X244988754Y-114773087D01*
X245108963Y-115027420D01*
X245276481Y-115253414D01*
X245484869Y-115442385D01*
X245726119Y-115587070D01*
X245990960Y-115681909D01*
X246213000Y-115560624D01*
X246213000Y-114417000D01*
X246467000Y-114417000D01*
X246467000Y-115560624D01*
X246689040Y-115681909D01*
X246953881Y-115587070D01*
X247195131Y-115442385D01*
X247403519Y-115253414D01*
X247571037Y-115027420D01*
X247691246Y-114773087D01*
X247731904Y-114639039D01*
X247609915Y-114417000D01*
X246467000Y-114417000D01*
X246213000Y-114417000D01*
X245070085Y-114417000D01*
X244948096Y-114639039D01*
X244110357Y-114639039D01*
X244234637Y-114514759D01*
X244391680Y-114279727D01*
X244499853Y-114018574D01*
X244555000Y-113741335D01*
X244555000Y-113458665D01*
X244499853Y-113181426D01*
X244391680Y-112920273D01*
X244234637Y-112685241D01*
X244034759Y-112485363D01*
X243832173Y-112350000D01*
X244034759Y-112214637D01*
X244234637Y-112014759D01*
X244391680Y-111779727D01*
X244499853Y-111518574D01*
X244555000Y-111241335D01*
X244555000Y-110958665D01*
X244499853Y-110681426D01*
X244391680Y-110420273D01*
X244234637Y-110185241D01*
X244034759Y-109985363D01*
X243799727Y-109828320D01*
X243538574Y-109720147D01*
X243261335Y-109665000D01*
X242978665Y-109665000D01*
X242701426Y-109720147D01*
X242440273Y-109828320D01*
X242205241Y-109985363D01*
X242005363Y-110185241D01*
X241848320Y-110420273D01*
X241740147Y-110681426D01*
X241685000Y-110958665D01*
X234172444Y-110958665D01*
X234188072Y-110800001D01*
X234188072Y-109199999D01*
X234171008Y-109026745D01*
X234120472Y-108860149D01*
X234038405Y-108706613D01*
X233927962Y-108572038D01*
X233793387Y-108461595D01*
X233673151Y-108397327D01*
X233783387Y-108338405D01*
X233917962Y-108227962D01*
X234028405Y-108093387D01*
X234110472Y-107939851D01*
X234161008Y-107773255D01*
X234178072Y-107600001D01*
X234178072Y-105999999D01*
X234161008Y-105826745D01*
X234110472Y-105660149D01*
X234051596Y-105550000D01*
X234271928Y-105550000D01*
X234271928Y-107750000D01*
X234284188Y-107874482D01*
X234320498Y-107994180D01*
X234379463Y-108104494D01*
X234458815Y-108201185D01*
X234555506Y-108280537D01*
X234665820Y-108339502D01*
X234785518Y-108375812D01*
X234910000Y-108388072D01*
X237110000Y-108388072D01*
X237234482Y-108375812D01*
X237354180Y-108339502D01*
X237464494Y-108280537D01*
X237561185Y-108201185D01*
X237640537Y-108104494D01*
X237699502Y-107994180D01*
X237735812Y-107874482D01*
X237742051Y-107811132D01*
X237862463Y-108101831D01*
X238052337Y-108385998D01*
X238294002Y-108627663D01*
X238578169Y-108817537D01*
X238893919Y-108948325D01*
X239229117Y-109015000D01*
X239570883Y-109015000D01*
X239906081Y-108948325D01*
X240221831Y-108817537D01*
X240505998Y-108627663D01*
X240747663Y-108385998D01*
X240937537Y-108101831D01*
X241068325Y-107786081D01*
X241135000Y-107450883D01*
X241135000Y-107109117D01*
X241068325Y-106773919D01*
X240937537Y-106458169D01*
X240747663Y-106174002D01*
X240505998Y-105932337D01*
X240221831Y-105742463D01*
X239921525Y-105618072D01*
X240330001Y-105618072D01*
X240503255Y-105601008D01*
X240669851Y-105550472D01*
X240823387Y-105468405D01*
X240957962Y-105357962D01*
X241068405Y-105223387D01*
X241150472Y-105069851D01*
X241201008Y-104903255D01*
X241218072Y-104730001D01*
X241218072Y-103129999D01*
X241201008Y-102956745D01*
X241180761Y-102889999D01*
X241291928Y-102889999D01*
X241291928Y-104490001D01*
X241308992Y-104663255D01*
X241359528Y-104829851D01*
X241441595Y-104983387D01*
X241552038Y-105117962D01*
X241686613Y-105228405D01*
X241840149Y-105310472D01*
X242006745Y-105361008D01*
X242039156Y-105364200D01*
X242006613Y-105381595D01*
X241872038Y-105492038D01*
X241761595Y-105626613D01*
X241679528Y-105780149D01*
X241628992Y-105946745D01*
X241611928Y-106119999D01*
X241611928Y-107720001D01*
X241628992Y-107893255D01*
X241679528Y-108059851D01*
X241761595Y-108213387D01*
X241872038Y-108347962D01*
X242006613Y-108458405D01*
X242160149Y-108540472D01*
X242326745Y-108591008D01*
X242499999Y-108608072D01*
X244100001Y-108608072D01*
X244273255Y-108591008D01*
X244439851Y-108540472D01*
X244593387Y-108458405D01*
X244727962Y-108347962D01*
X244838405Y-108213387D01*
X244920472Y-108059851D01*
X244971008Y-107893255D01*
X244982710Y-107774443D01*
X245009463Y-107824494D01*
X245088815Y-107921185D01*
X245185506Y-108000537D01*
X245295820Y-108059502D01*
X245415518Y-108095812D01*
X245423961Y-108096643D01*
X245225363Y-108295241D01*
X245068320Y-108530273D01*
X244960147Y-108791426D01*
X244905000Y-109068665D01*
X244905000Y-109351335D01*
X244960147Y-109628574D01*
X245068320Y-109889727D01*
X245225363Y-110124759D01*
X245425241Y-110324637D01*
X245657759Y-110480000D01*
X245425241Y-110635363D01*
X245225363Y-110835241D01*
X245068320Y-111070273D01*
X244960147Y-111331426D01*
X244905000Y-111608665D01*
X244905000Y-111891335D01*
X244960147Y-112168574D01*
X245068320Y-112429727D01*
X245225363Y-112664759D01*
X245425241Y-112864637D01*
X245660273Y-113021680D01*
X245670865Y-113026067D01*
X245484869Y-113137615D01*
X245276481Y-113326586D01*
X245108963Y-113552580D01*
X244988754Y-113806913D01*
X244948096Y-113940961D01*
X245070085Y-114163000D01*
X246213000Y-114163000D01*
X246213000Y-114143000D01*
X246467000Y-114143000D01*
X246467000Y-114163000D01*
X247609915Y-114163000D01*
X247731904Y-113940961D01*
X247691246Y-113806913D01*
X247571037Y-113552580D01*
X247403519Y-113326586D01*
X247195131Y-113137615D01*
X247009135Y-113026067D01*
X247019727Y-113021680D01*
X247254759Y-112864637D01*
X247454637Y-112664759D01*
X247611680Y-112429727D01*
X247719853Y-112168574D01*
X247775000Y-111891335D01*
X247775000Y-111608665D01*
X247719853Y-111331426D01*
X247611680Y-111070273D01*
X247454637Y-110835241D01*
X247254759Y-110635363D01*
X247022241Y-110480000D01*
X247254759Y-110324637D01*
X247454637Y-110124759D01*
X247611680Y-109889727D01*
X247719853Y-109628574D01*
X247775000Y-109351335D01*
X247775000Y-109068665D01*
X247719853Y-108791426D01*
X247611680Y-108530273D01*
X247454637Y-108295241D01*
X247256039Y-108096643D01*
X247264482Y-108095812D01*
X247384180Y-108059502D01*
X247494494Y-108000537D01*
X247591185Y-107921185D01*
X247670537Y-107824494D01*
X247729502Y-107714180D01*
X247765812Y-107594482D01*
X247778072Y-107470000D01*
X247778072Y-106528665D01*
X252525000Y-106528665D01*
X252525000Y-106811335D01*
X252580147Y-107088574D01*
X252688320Y-107349727D01*
X252845363Y-107584759D01*
X253045241Y-107784637D01*
X253277759Y-107940000D01*
X253045241Y-108095363D01*
X252845363Y-108295241D01*
X252688320Y-108530273D01*
X252580147Y-108791426D01*
X252525000Y-109068665D01*
X252525000Y-109351335D01*
X252580147Y-109628574D01*
X252688320Y-109889727D01*
X252845363Y-110124759D01*
X253045241Y-110324637D01*
X253277759Y-110480000D01*
X253045241Y-110635363D01*
X252845363Y-110835241D01*
X252688320Y-111070273D01*
X252580147Y-111331426D01*
X252525000Y-111608665D01*
X252525000Y-111891335D01*
X252580147Y-112168574D01*
X252688320Y-112429727D01*
X252845363Y-112664759D01*
X253045241Y-112864637D01*
X253277759Y-113020000D01*
X253045241Y-113175363D01*
X252845363Y-113375241D01*
X252688320Y-113610273D01*
X252580147Y-113871426D01*
X252525000Y-114148665D01*
X252525000Y-114431335D01*
X252580147Y-114708574D01*
X252688320Y-114969727D01*
X252845363Y-115204759D01*
X253045241Y-115404637D01*
X253280273Y-115561680D01*
X253541426Y-115669853D01*
X253818665Y-115725000D01*
X254101335Y-115725000D01*
X254378574Y-115669853D01*
X254639727Y-115561680D01*
X254874759Y-115404637D01*
X255070731Y-115208665D01*
X259285000Y-115208665D01*
X259285000Y-115491335D01*
X259340147Y-115768574D01*
X259448320Y-116029727D01*
X259605363Y-116264759D01*
X259805241Y-116464637D01*
X260040273Y-116621680D01*
X260301426Y-116729853D01*
X260578665Y-116785000D01*
X260861335Y-116785000D01*
X261138574Y-116729853D01*
X261399727Y-116621680D01*
X261634759Y-116464637D01*
X261834637Y-116264759D01*
X261991680Y-116029727D01*
X262099853Y-115768574D01*
X262155000Y-115491335D01*
X262155000Y-115208665D01*
X262099853Y-114931426D01*
X261991680Y-114670273D01*
X261834637Y-114435241D01*
X261634759Y-114235363D01*
X261399727Y-114078320D01*
X261266859Y-114023284D01*
X261439727Y-113951680D01*
X261674759Y-113794637D01*
X261874637Y-113594759D01*
X262031680Y-113359727D01*
X262139853Y-113098574D01*
X262153684Y-113029039D01*
X264448096Y-113029039D01*
X264488754Y-113163087D01*
X264608963Y-113417420D01*
X264776481Y-113643414D01*
X264984869Y-113832385D01*
X265226119Y-113977070D01*
X265490960Y-114071909D01*
X265713000Y-113950624D01*
X265713000Y-112807000D01*
X264570085Y-112807000D01*
X264448096Y-113029039D01*
X262153684Y-113029039D01*
X262195000Y-112821335D01*
X262195000Y-112538665D01*
X262153685Y-112330961D01*
X264448096Y-112330961D01*
X264570085Y-112553000D01*
X265713000Y-112553000D01*
X265713000Y-111409376D01*
X265490960Y-111288091D01*
X265226119Y-111382930D01*
X264984869Y-111527615D01*
X264776481Y-111716586D01*
X264608963Y-111942580D01*
X264488754Y-112196913D01*
X264448096Y-112330961D01*
X262153685Y-112330961D01*
X262139853Y-112261426D01*
X262031680Y-112000273D01*
X261874637Y-111765241D01*
X261674759Y-111565363D01*
X261439727Y-111408320D01*
X261178574Y-111300147D01*
X260901335Y-111245000D01*
X260618665Y-111245000D01*
X260341426Y-111300147D01*
X260080273Y-111408320D01*
X259845241Y-111565363D01*
X259645363Y-111765241D01*
X259488320Y-112000273D01*
X259380147Y-112261426D01*
X259325000Y-112538665D01*
X259325000Y-112821335D01*
X259380147Y-113098574D01*
X259488320Y-113359727D01*
X259645363Y-113594759D01*
X259845241Y-113794637D01*
X260080273Y-113951680D01*
X260213141Y-114006716D01*
X260040273Y-114078320D01*
X259805241Y-114235363D01*
X259605363Y-114435241D01*
X259448320Y-114670273D01*
X259340147Y-114931426D01*
X259285000Y-115208665D01*
X255070731Y-115208665D01*
X255074637Y-115204759D01*
X255231680Y-114969727D01*
X255339853Y-114708574D01*
X255395000Y-114431335D01*
X255395000Y-114148665D01*
X255339853Y-113871426D01*
X255231680Y-113610273D01*
X255074637Y-113375241D01*
X254874759Y-113175363D01*
X254642241Y-113020000D01*
X254874759Y-112864637D01*
X255074637Y-112664759D01*
X255231680Y-112429727D01*
X255339853Y-112168574D01*
X255395000Y-111891335D01*
X255395000Y-111849999D01*
X255661928Y-111849999D01*
X255661928Y-113450001D01*
X255678992Y-113623255D01*
X255729528Y-113789851D01*
X255811595Y-113943387D01*
X255922038Y-114077962D01*
X256056613Y-114188405D01*
X256210149Y-114270472D01*
X256376745Y-114321008D01*
X256549999Y-114338072D01*
X258150001Y-114338072D01*
X258323255Y-114321008D01*
X258489851Y-114270472D01*
X258643387Y-114188405D01*
X258777962Y-114077962D01*
X258888405Y-113943387D01*
X258970472Y-113789851D01*
X259021008Y-113623255D01*
X259038072Y-113450001D01*
X259038072Y-111849999D01*
X259021008Y-111676745D01*
X258970472Y-111510149D01*
X258888405Y-111356613D01*
X258777962Y-111222038D01*
X258643387Y-111111595D01*
X258489851Y-111029528D01*
X258323255Y-110978992D01*
X258150001Y-110961928D01*
X256549999Y-110961928D01*
X256376745Y-110978992D01*
X256210149Y-111029528D01*
X256056613Y-111111595D01*
X255922038Y-111222038D01*
X255811595Y-111356613D01*
X255729528Y-111510149D01*
X255678992Y-111676745D01*
X255661928Y-111849999D01*
X255395000Y-111849999D01*
X255395000Y-111608665D01*
X255339853Y-111331426D01*
X255231680Y-111070273D01*
X255074637Y-110835241D01*
X254874759Y-110635363D01*
X254642241Y-110480000D01*
X254874759Y-110324637D01*
X255074637Y-110124759D01*
X255224544Y-109900407D01*
X255230147Y-109928574D01*
X255338320Y-110189727D01*
X255495363Y-110424759D01*
X255695241Y-110624637D01*
X255930273Y-110781680D01*
X256191426Y-110889853D01*
X256468665Y-110945000D01*
X256751335Y-110945000D01*
X257028574Y-110889853D01*
X257289727Y-110781680D01*
X257524759Y-110624637D01*
X257724637Y-110424759D01*
X257881680Y-110189727D01*
X257989853Y-109928574D01*
X258045000Y-109651335D01*
X258045000Y-109368665D01*
X260255000Y-109368665D01*
X260255000Y-109651335D01*
X260310147Y-109928574D01*
X260418320Y-110189727D01*
X260575363Y-110424759D01*
X260775241Y-110624637D01*
X261010273Y-110781680D01*
X261271426Y-110889853D01*
X261548665Y-110945000D01*
X261831335Y-110945000D01*
X262108574Y-110889853D01*
X262369727Y-110781680D01*
X262604759Y-110624637D01*
X262804637Y-110424759D01*
X262961680Y-110189727D01*
X263069853Y-109928574D01*
X263125000Y-109651335D01*
X263125000Y-109368665D01*
X263069853Y-109091426D01*
X262961680Y-108830273D01*
X262804637Y-108595241D01*
X262604759Y-108395363D01*
X262369727Y-108238320D01*
X262108574Y-108130147D01*
X261831335Y-108075000D01*
X261548665Y-108075000D01*
X261271426Y-108130147D01*
X261010273Y-108238320D01*
X260775241Y-108395363D01*
X260575363Y-108595241D01*
X260418320Y-108830273D01*
X260310147Y-109091426D01*
X260255000Y-109368665D01*
X258045000Y-109368665D01*
X257989853Y-109091426D01*
X257881680Y-108830273D01*
X257724637Y-108595241D01*
X257524759Y-108395363D01*
X257289727Y-108238320D01*
X257028574Y-108130147D01*
X256751335Y-108075000D01*
X256468665Y-108075000D01*
X256191426Y-108130147D01*
X255930273Y-108238320D01*
X255695241Y-108395363D01*
X255495363Y-108595241D01*
X255345456Y-108819593D01*
X255339853Y-108791426D01*
X255231680Y-108530273D01*
X255074637Y-108295241D01*
X254874759Y-108095363D01*
X254642241Y-107940000D01*
X254874759Y-107784637D01*
X255074637Y-107584759D01*
X255231680Y-107349727D01*
X255339853Y-107088574D01*
X255395000Y-106811335D01*
X255395000Y-106528665D01*
X255339853Y-106251426D01*
X255231680Y-105990273D01*
X255074637Y-105755241D01*
X254874759Y-105555363D01*
X254639727Y-105398320D01*
X254426502Y-105309999D01*
X258071928Y-105309999D01*
X258071928Y-106910001D01*
X258088992Y-107083255D01*
X258139528Y-107249851D01*
X258221595Y-107403387D01*
X258332038Y-107537962D01*
X258466613Y-107648405D01*
X258620149Y-107730472D01*
X258786745Y-107781008D01*
X258959999Y-107798072D01*
X260560001Y-107798072D01*
X260733255Y-107781008D01*
X260899851Y-107730472D01*
X261053387Y-107648405D01*
X261187962Y-107537962D01*
X261298405Y-107403387D01*
X261380472Y-107249851D01*
X261431008Y-107083255D01*
X261448072Y-106910001D01*
X261448072Y-105309999D01*
X261431008Y-105136745D01*
X261380472Y-104970149D01*
X261298405Y-104816613D01*
X261187962Y-104682038D01*
X261053387Y-104571595D01*
X260899851Y-104489528D01*
X260733255Y-104438992D01*
X260560001Y-104421928D01*
X258959999Y-104421928D01*
X258786745Y-104438992D01*
X258620149Y-104489528D01*
X258466613Y-104571595D01*
X258332038Y-104682038D01*
X258221595Y-104816613D01*
X258139528Y-104970149D01*
X258088992Y-105136745D01*
X258071928Y-105309999D01*
X254426502Y-105309999D01*
X254378574Y-105290147D01*
X254101335Y-105235000D01*
X253818665Y-105235000D01*
X253541426Y-105290147D01*
X253280273Y-105398320D01*
X253045241Y-105555363D01*
X252845363Y-105755241D01*
X252688320Y-105990273D01*
X252580147Y-106251426D01*
X252525000Y-106528665D01*
X247778072Y-106528665D01*
X247778072Y-105870000D01*
X247765812Y-105745518D01*
X247729502Y-105625820D01*
X247670537Y-105515506D01*
X247591185Y-105418815D01*
X247494494Y-105339463D01*
X247384180Y-105280498D01*
X247264482Y-105244188D01*
X247140000Y-105231928D01*
X245540000Y-105231928D01*
X245415518Y-105244188D01*
X245295820Y-105280498D01*
X245185506Y-105339463D01*
X245088815Y-105418815D01*
X245009463Y-105515506D01*
X244950498Y-105625820D01*
X244914188Y-105745518D01*
X244912286Y-105764833D01*
X244838405Y-105626613D01*
X244727962Y-105492038D01*
X244593387Y-105381595D01*
X244439851Y-105299528D01*
X244273255Y-105248992D01*
X244240844Y-105245800D01*
X244273387Y-105228405D01*
X244407962Y-105117962D01*
X244518405Y-104983387D01*
X244600472Y-104829851D01*
X244651008Y-104663255D01*
X244668072Y-104490001D01*
X244668072Y-103363665D01*
X244945000Y-103363665D01*
X244945000Y-103646335D01*
X245000147Y-103923574D01*
X245108320Y-104184727D01*
X245265363Y-104419759D01*
X245465241Y-104619637D01*
X245700273Y-104776680D01*
X245961426Y-104884853D01*
X246238665Y-104940000D01*
X246521335Y-104940000D01*
X246798574Y-104884853D01*
X247059727Y-104776680D01*
X247294759Y-104619637D01*
X247494637Y-104419759D01*
X247651680Y-104184727D01*
X247759853Y-103923574D01*
X247815000Y-103646335D01*
X247815000Y-103363665D01*
X250025000Y-103363665D01*
X250025000Y-103646335D01*
X250080147Y-103923574D01*
X250188320Y-104184727D01*
X250345363Y-104419759D01*
X250545241Y-104619637D01*
X250780273Y-104776680D01*
X251041426Y-104884853D01*
X251318665Y-104940000D01*
X251601335Y-104940000D01*
X251878574Y-104884853D01*
X252139727Y-104776680D01*
X252374759Y-104619637D01*
X252574637Y-104419759D01*
X252731680Y-104184727D01*
X252839853Y-103923574D01*
X252895000Y-103646335D01*
X252895000Y-103363665D01*
X252839853Y-103086426D01*
X252795217Y-102978665D01*
X255105000Y-102978665D01*
X255105000Y-103261335D01*
X255160147Y-103538574D01*
X255268320Y-103799727D01*
X255425363Y-104034759D01*
X255625241Y-104234637D01*
X255860273Y-104391680D01*
X256121426Y-104499853D01*
X256398665Y-104555000D01*
X256681335Y-104555000D01*
X256958574Y-104499853D01*
X257219727Y-104391680D01*
X257454759Y-104234637D01*
X257654637Y-104034759D01*
X257811680Y-103799727D01*
X257919853Y-103538574D01*
X257975000Y-103261335D01*
X257975000Y-102978665D01*
X257969299Y-102950000D01*
X261851928Y-102950000D01*
X261851928Y-104550000D01*
X261864188Y-104674482D01*
X261900498Y-104794180D01*
X261959463Y-104904494D01*
X262038815Y-105001185D01*
X262135506Y-105080537D01*
X262245820Y-105139502D01*
X262365518Y-105175812D01*
X262490000Y-105188072D01*
X264090000Y-105188072D01*
X264214482Y-105175812D01*
X264334180Y-105139502D01*
X264444494Y-105080537D01*
X264541185Y-105001185D01*
X264554790Y-104984607D01*
X264610273Y-105021680D01*
X264871426Y-105129853D01*
X265148665Y-105185000D01*
X265431335Y-105185000D01*
X265708574Y-105129853D01*
X265969727Y-105021680D01*
X266204759Y-104864637D01*
X266404637Y-104664759D01*
X266561680Y-104429727D01*
X266669853Y-104168574D01*
X266725000Y-103891335D01*
X266725000Y-103608665D01*
X266669853Y-103331426D01*
X266561680Y-103070273D01*
X266404637Y-102835241D01*
X266204759Y-102635363D01*
X265969727Y-102478320D01*
X265708574Y-102370147D01*
X265431335Y-102315000D01*
X265148665Y-102315000D01*
X264871426Y-102370147D01*
X264610273Y-102478320D01*
X264554790Y-102515393D01*
X264541185Y-102498815D01*
X264444494Y-102419463D01*
X264334180Y-102360498D01*
X264214482Y-102324188D01*
X264090000Y-102311928D01*
X262490000Y-102311928D01*
X262365518Y-102324188D01*
X262245820Y-102360498D01*
X262135506Y-102419463D01*
X262038815Y-102498815D01*
X261959463Y-102595506D01*
X261900498Y-102705820D01*
X261864188Y-102825518D01*
X261851928Y-102950000D01*
X257969299Y-102950000D01*
X257919853Y-102701426D01*
X257811680Y-102440273D01*
X257654637Y-102205241D01*
X257454759Y-102005363D01*
X257219727Y-101848320D01*
X256958574Y-101740147D01*
X256681335Y-101685000D01*
X256398665Y-101685000D01*
X256121426Y-101740147D01*
X255860273Y-101848320D01*
X255625241Y-102005363D01*
X255425363Y-102205241D01*
X255268320Y-102440273D01*
X255160147Y-102701426D01*
X255105000Y-102978665D01*
X252795217Y-102978665D01*
X252731680Y-102825273D01*
X252574637Y-102590241D01*
X252374759Y-102390363D01*
X252139727Y-102233320D01*
X251878574Y-102125147D01*
X251601335Y-102070000D01*
X251318665Y-102070000D01*
X251041426Y-102125147D01*
X250780273Y-102233320D01*
X250545241Y-102390363D01*
X250345363Y-102590241D01*
X250188320Y-102825273D01*
X250080147Y-103086426D01*
X250025000Y-103363665D01*
X247815000Y-103363665D01*
X247759853Y-103086426D01*
X247651680Y-102825273D01*
X247494637Y-102590241D01*
X247294759Y-102390363D01*
X247059727Y-102233320D01*
X246798574Y-102125147D01*
X246521335Y-102070000D01*
X246238665Y-102070000D01*
X245961426Y-102125147D01*
X245700273Y-102233320D01*
X245465241Y-102390363D01*
X245265363Y-102590241D01*
X245108320Y-102825273D01*
X245000147Y-103086426D01*
X244945000Y-103363665D01*
X244668072Y-103363665D01*
X244668072Y-102889999D01*
X244651008Y-102716745D01*
X244600472Y-102550149D01*
X244518405Y-102396613D01*
X244407962Y-102262038D01*
X244273387Y-102151595D01*
X244119851Y-102069528D01*
X243953255Y-102018992D01*
X243780001Y-102001928D01*
X242179999Y-102001928D01*
X242006745Y-102018992D01*
X241840149Y-102069528D01*
X241686613Y-102151595D01*
X241552038Y-102262038D01*
X241441595Y-102396613D01*
X241359528Y-102550149D01*
X241308992Y-102716745D01*
X241291928Y-102889999D01*
X241180761Y-102889999D01*
X241150472Y-102790149D01*
X241068405Y-102636613D01*
X240957962Y-102502038D01*
X240823387Y-102391595D01*
X240669851Y-102309528D01*
X240503255Y-102258992D01*
X240330001Y-102241928D01*
X238729999Y-102241928D01*
X238556745Y-102258992D01*
X238390149Y-102309528D01*
X238236613Y-102391595D01*
X238102038Y-102502038D01*
X237991595Y-102636613D01*
X237923660Y-102763711D01*
X237904637Y-102735241D01*
X237704759Y-102535363D01*
X237469727Y-102378320D01*
X237208574Y-102270147D01*
X236931335Y-102215000D01*
X236648665Y-102215000D01*
X236371426Y-102270147D01*
X236110273Y-102378320D01*
X235875241Y-102535363D01*
X235675363Y-102735241D01*
X235518320Y-102970273D01*
X235410147Y-103231426D01*
X235355000Y-103508665D01*
X235355000Y-103791335D01*
X235410147Y-104068574D01*
X235518320Y-104329727D01*
X235675363Y-104564759D01*
X235875241Y-104764637D01*
X236095678Y-104911928D01*
X234910000Y-104911928D01*
X234785518Y-104924188D01*
X234665820Y-104960498D01*
X234555506Y-105019463D01*
X234458815Y-105098815D01*
X234379463Y-105195506D01*
X234320498Y-105305820D01*
X234284188Y-105425518D01*
X234271928Y-105550000D01*
X234051596Y-105550000D01*
X234028405Y-105506613D01*
X233917962Y-105372038D01*
X233783387Y-105261595D01*
X233629851Y-105179528D01*
X233463255Y-105128992D01*
X233290001Y-105111928D01*
X231689999Y-105111928D01*
X231516745Y-105128992D01*
X231350149Y-105179528D01*
X231196613Y-105261595D01*
X231062038Y-105372038D01*
X230951595Y-105506613D01*
X230869528Y-105660149D01*
X230818992Y-105826745D01*
X230801928Y-105999999D01*
X229317000Y-105999999D01*
X229317000Y-103508665D01*
X230275000Y-103508665D01*
X230275000Y-103791335D01*
X230330147Y-104068574D01*
X230438320Y-104329727D01*
X230595363Y-104564759D01*
X230795241Y-104764637D01*
X231030273Y-104921680D01*
X231291426Y-105029853D01*
X231568665Y-105085000D01*
X231851335Y-105085000D01*
X232128574Y-105029853D01*
X232389727Y-104921680D01*
X232624759Y-104764637D01*
X232824637Y-104564759D01*
X232981680Y-104329727D01*
X233089853Y-104068574D01*
X233145000Y-103791335D01*
X233145000Y-103508665D01*
X233089853Y-103231426D01*
X232981680Y-102970273D01*
X232824637Y-102735241D01*
X232624759Y-102535363D01*
X232389727Y-102378320D01*
X232128574Y-102270147D01*
X231851335Y-102215000D01*
X231568665Y-102215000D01*
X231291426Y-102270147D01*
X231030273Y-102378320D01*
X230795241Y-102535363D01*
X230595363Y-102735241D01*
X230438320Y-102970273D01*
X230330147Y-103231426D01*
X230275000Y-103508665D01*
X229317000Y-103508665D01*
X229317000Y-99018665D01*
X231745000Y-99018665D01*
X231745000Y-99301335D01*
X231800147Y-99578574D01*
X231908320Y-99839727D01*
X232065363Y-100074759D01*
X232265241Y-100274637D01*
X232500273Y-100431680D01*
X232761426Y-100539853D01*
X233038665Y-100595000D01*
X233321335Y-100595000D01*
X233598574Y-100539853D01*
X233859727Y-100431680D01*
X233915210Y-100394607D01*
X233928815Y-100411185D01*
X234025506Y-100490537D01*
X234135820Y-100549502D01*
X234255518Y-100585812D01*
X234380000Y-100598072D01*
X235980000Y-100598072D01*
X236104482Y-100585812D01*
X236224180Y-100549502D01*
X236334494Y-100490537D01*
X236431185Y-100411185D01*
X236482493Y-100348665D01*
X236725000Y-100348665D01*
X236725000Y-100631335D01*
X236780147Y-100908574D01*
X236888320Y-101169727D01*
X237045363Y-101404759D01*
X237245241Y-101604637D01*
X237480273Y-101761680D01*
X237741426Y-101869853D01*
X238018665Y-101925000D01*
X238301335Y-101925000D01*
X238578574Y-101869853D01*
X238839727Y-101761680D01*
X239074759Y-101604637D01*
X239274637Y-101404759D01*
X239431680Y-101169727D01*
X239539853Y-100908574D01*
X239595000Y-100631335D01*
X239595000Y-100348665D01*
X241805000Y-100348665D01*
X241805000Y-100631335D01*
X241860147Y-100908574D01*
X241968320Y-101169727D01*
X242125363Y-101404759D01*
X242325241Y-101604637D01*
X242560273Y-101761680D01*
X242821426Y-101869853D01*
X243098665Y-101925000D01*
X243381335Y-101925000D01*
X243658574Y-101869853D01*
X243919727Y-101761680D01*
X244154759Y-101604637D01*
X244354637Y-101404759D01*
X244511680Y-101169727D01*
X244619853Y-100908574D01*
X244675000Y-100631335D01*
X244675000Y-100348665D01*
X244643174Y-100188665D01*
X244945000Y-100188665D01*
X244945000Y-100471335D01*
X245000147Y-100748574D01*
X245108320Y-101009727D01*
X245265363Y-101244759D01*
X245465241Y-101444637D01*
X245700273Y-101601680D01*
X245961426Y-101709853D01*
X246238665Y-101765000D01*
X246521335Y-101765000D01*
X246798574Y-101709853D01*
X247059727Y-101601680D01*
X247294759Y-101444637D01*
X247494637Y-101244759D01*
X247651680Y-101009727D01*
X247759853Y-100748574D01*
X247815000Y-100471335D01*
X247815000Y-100188665D01*
X250025000Y-100188665D01*
X250025000Y-100471335D01*
X250080147Y-100748574D01*
X250188320Y-101009727D01*
X250345363Y-101244759D01*
X250545241Y-101444637D01*
X250780273Y-101601680D01*
X251041426Y-101709853D01*
X251318665Y-101765000D01*
X251601335Y-101765000D01*
X251878574Y-101709853D01*
X252139727Y-101601680D01*
X252374759Y-101444637D01*
X252574637Y-101244759D01*
X252731680Y-101009727D01*
X252839853Y-100748574D01*
X252895000Y-100471335D01*
X252895000Y-100188665D01*
X252839853Y-99911426D01*
X252731680Y-99650273D01*
X252574637Y-99415241D01*
X252428061Y-99268665D01*
X260625000Y-99268665D01*
X260625000Y-99551335D01*
X260680147Y-99828574D01*
X260788320Y-100089727D01*
X260945363Y-100324759D01*
X261145241Y-100524637D01*
X261380273Y-100681680D01*
X261641426Y-100789853D01*
X261918665Y-100845000D01*
X262201335Y-100845000D01*
X262478574Y-100789853D01*
X262739727Y-100681680D01*
X262974759Y-100524637D01*
X263174637Y-100324759D01*
X263331680Y-100089727D01*
X263439853Y-99828574D01*
X263495000Y-99551335D01*
X263495000Y-99268665D01*
X263439853Y-98991426D01*
X263331680Y-98730273D01*
X263174637Y-98495241D01*
X262974759Y-98295363D01*
X262739727Y-98138320D01*
X262478574Y-98030147D01*
X262201335Y-97975000D01*
X261918665Y-97975000D01*
X261641426Y-98030147D01*
X261380273Y-98138320D01*
X261145241Y-98295363D01*
X260945363Y-98495241D01*
X260788320Y-98730273D01*
X260680147Y-98991426D01*
X260625000Y-99268665D01*
X252428061Y-99268665D01*
X252374759Y-99215363D01*
X252139727Y-99058320D01*
X251878574Y-98950147D01*
X251601335Y-98895000D01*
X251318665Y-98895000D01*
X251041426Y-98950147D01*
X250780273Y-99058320D01*
X250545241Y-99215363D01*
X250345363Y-99415241D01*
X250188320Y-99650273D01*
X250080147Y-99911426D01*
X250025000Y-100188665D01*
X247815000Y-100188665D01*
X247759853Y-99911426D01*
X247651680Y-99650273D01*
X247494637Y-99415241D01*
X247294759Y-99215363D01*
X247059727Y-99058320D01*
X246798574Y-98950147D01*
X246521335Y-98895000D01*
X246238665Y-98895000D01*
X245961426Y-98950147D01*
X245700273Y-99058320D01*
X245465241Y-99215363D01*
X245265363Y-99415241D01*
X245108320Y-99650273D01*
X245000147Y-99911426D01*
X244945000Y-100188665D01*
X244643174Y-100188665D01*
X244619853Y-100071426D01*
X244511680Y-99810273D01*
X244354637Y-99575241D01*
X244154759Y-99375363D01*
X243919727Y-99218320D01*
X243658574Y-99110147D01*
X243381335Y-99055000D01*
X243098665Y-99055000D01*
X242821426Y-99110147D01*
X242560273Y-99218320D01*
X242325241Y-99375363D01*
X242125363Y-99575241D01*
X241968320Y-99810273D01*
X241860147Y-100071426D01*
X241805000Y-100348665D01*
X239595000Y-100348665D01*
X239539853Y-100071426D01*
X239431680Y-99810273D01*
X239274637Y-99575241D01*
X239074759Y-99375363D01*
X238839727Y-99218320D01*
X238578574Y-99110147D01*
X238301335Y-99055000D01*
X238018665Y-99055000D01*
X237741426Y-99110147D01*
X237480273Y-99218320D01*
X237245241Y-99375363D01*
X237045363Y-99575241D01*
X236888320Y-99810273D01*
X236780147Y-100071426D01*
X236725000Y-100348665D01*
X236482493Y-100348665D01*
X236510537Y-100314494D01*
X236569502Y-100204180D01*
X236605812Y-100084482D01*
X236618072Y-99960000D01*
X236618072Y-98360000D01*
X236605812Y-98235518D01*
X236569502Y-98115820D01*
X236510537Y-98005506D01*
X236431185Y-97908815D01*
X236334494Y-97829463D01*
X236224180Y-97770498D01*
X236104482Y-97734188D01*
X235980000Y-97721928D01*
X234380000Y-97721928D01*
X234255518Y-97734188D01*
X234135820Y-97770498D01*
X234025506Y-97829463D01*
X233928815Y-97908815D01*
X233915210Y-97925393D01*
X233859727Y-97888320D01*
X233598574Y-97780147D01*
X233321335Y-97725000D01*
X233038665Y-97725000D01*
X232761426Y-97780147D01*
X232500273Y-97888320D01*
X232265241Y-98045363D01*
X232065363Y-98245241D01*
X231908320Y-98480273D01*
X231800147Y-98741426D01*
X231745000Y-99018665D01*
X229317000Y-99018665D01*
X229317000Y-97668665D01*
X238045000Y-97668665D01*
X238045000Y-97951335D01*
X238100147Y-98228574D01*
X238208320Y-98489727D01*
X238365363Y-98724759D01*
X238565241Y-98924637D01*
X238800273Y-99081680D01*
X239061426Y-99189853D01*
X239338665Y-99245000D01*
X239621335Y-99245000D01*
X239898574Y-99189853D01*
X240159727Y-99081680D01*
X240394759Y-98924637D01*
X240594637Y-98724759D01*
X240751680Y-98489727D01*
X240859853Y-98228574D01*
X240915000Y-97951335D01*
X240915000Y-97668665D01*
X240859853Y-97391426D01*
X240751680Y-97130273D01*
X240594637Y-96895241D01*
X240394759Y-96695363D01*
X240159727Y-96538320D01*
X240091354Y-96509999D01*
X241241928Y-96509999D01*
X241241928Y-98110001D01*
X241258992Y-98283255D01*
X241309528Y-98449851D01*
X241391595Y-98603387D01*
X241502038Y-98737962D01*
X241636613Y-98848405D01*
X241790149Y-98930472D01*
X241956745Y-98981008D01*
X242129999Y-98998072D01*
X243730001Y-98998072D01*
X243903255Y-98981008D01*
X244069851Y-98930472D01*
X244223387Y-98848405D01*
X244357962Y-98737962D01*
X244468405Y-98603387D01*
X244550472Y-98449851D01*
X244601008Y-98283255D01*
X244618072Y-98110001D01*
X244618072Y-97868589D01*
X244678963Y-97997420D01*
X244846481Y-98223414D01*
X245054869Y-98412385D01*
X245296119Y-98557070D01*
X245560960Y-98651909D01*
X245783000Y-98530624D01*
X245783000Y-97387000D01*
X246037000Y-97387000D01*
X246037000Y-98530624D01*
X246259040Y-98651909D01*
X246523881Y-98557070D01*
X246765131Y-98412385D01*
X246973519Y-98223414D01*
X247141037Y-97997420D01*
X247261246Y-97743087D01*
X247301904Y-97609039D01*
X247179915Y-97387000D01*
X246037000Y-97387000D01*
X245783000Y-97387000D01*
X245763000Y-97387000D01*
X245763000Y-97133000D01*
X245783000Y-97133000D01*
X245783000Y-95989376D01*
X246037000Y-95989376D01*
X246037000Y-97133000D01*
X247179915Y-97133000D01*
X247187790Y-97118665D01*
X249555000Y-97118665D01*
X249555000Y-97401335D01*
X249610147Y-97678574D01*
X249718320Y-97939727D01*
X249875363Y-98174759D01*
X250075241Y-98374637D01*
X250310273Y-98531680D01*
X250571426Y-98639853D01*
X250848665Y-98695000D01*
X251131335Y-98695000D01*
X251408574Y-98639853D01*
X251669727Y-98531680D01*
X251904759Y-98374637D01*
X252104637Y-98174759D01*
X252261680Y-97939727D01*
X252369853Y-97678574D01*
X252425000Y-97401335D01*
X252425000Y-97118665D01*
X252369853Y-96841426D01*
X252261680Y-96580273D01*
X252104637Y-96345241D01*
X251904759Y-96145363D01*
X251669727Y-95988320D01*
X251408574Y-95880147D01*
X251131335Y-95825000D01*
X250848665Y-95825000D01*
X250571426Y-95880147D01*
X250310273Y-95988320D01*
X250075241Y-96145363D01*
X249875363Y-96345241D01*
X249718320Y-96580273D01*
X249610147Y-96841426D01*
X249555000Y-97118665D01*
X247187790Y-97118665D01*
X247301904Y-96910961D01*
X247261246Y-96776913D01*
X247141037Y-96522580D01*
X246973519Y-96296586D01*
X246765131Y-96107615D01*
X246523881Y-95962930D01*
X246259040Y-95868091D01*
X246037000Y-95989376D01*
X245783000Y-95989376D01*
X245560960Y-95868091D01*
X245296119Y-95962930D01*
X245054869Y-96107615D01*
X244846481Y-96296586D01*
X244678963Y-96522580D01*
X244618072Y-96651411D01*
X244618072Y-96509999D01*
X244601008Y-96336745D01*
X244550472Y-96170149D01*
X244468405Y-96016613D01*
X244357962Y-95882038D01*
X244223387Y-95771595D01*
X244069851Y-95689528D01*
X243903255Y-95638992D01*
X243730001Y-95621928D01*
X242129999Y-95621928D01*
X241956745Y-95638992D01*
X241790149Y-95689528D01*
X241636613Y-95771595D01*
X241502038Y-95882038D01*
X241391595Y-96016613D01*
X241309528Y-96170149D01*
X241258992Y-96336745D01*
X241241928Y-96509999D01*
X240091354Y-96509999D01*
X239898574Y-96430147D01*
X239621335Y-96375000D01*
X239338665Y-96375000D01*
X239061426Y-96430147D01*
X238800273Y-96538320D01*
X238565241Y-96695363D01*
X238365363Y-96895241D01*
X238208320Y-97130273D01*
X238100147Y-97391426D01*
X238045000Y-97668665D01*
X229317000Y-97668665D01*
X229317000Y-93660512D01*
X232639783Y-93660512D01*
X232681213Y-93940130D01*
X232776397Y-94206292D01*
X232843329Y-94331514D01*
X233087298Y-94403097D01*
X233900395Y-93590000D01*
X233087298Y-92776903D01*
X232843329Y-92848486D01*
X232722429Y-93103996D01*
X232653700Y-93378184D01*
X232639783Y-93660512D01*
X229317000Y-93660512D01*
X229317000Y-92597298D01*
X233266903Y-92597298D01*
X234080000Y-93410395D01*
X234094143Y-93396253D01*
X234273748Y-93575858D01*
X234259605Y-93590000D01*
X234273748Y-93604143D01*
X234094143Y-93783748D01*
X234080000Y-93769605D01*
X233266903Y-94582702D01*
X233338486Y-94826671D01*
X233593996Y-94947571D01*
X233868184Y-95016300D01*
X234150512Y-95030217D01*
X234430130Y-94988787D01*
X234696292Y-94893603D01*
X234818309Y-94828384D01*
X234828815Y-94841185D01*
X234925506Y-94920537D01*
X235035820Y-94979502D01*
X235155518Y-95015812D01*
X235280000Y-95028072D01*
X236880000Y-95028072D01*
X237004482Y-95015812D01*
X237124180Y-94979502D01*
X237234494Y-94920537D01*
X237331185Y-94841185D01*
X237410537Y-94744494D01*
X237469502Y-94634180D01*
X237505812Y-94514482D01*
X237518072Y-94390000D01*
X237518072Y-92790000D01*
X237505812Y-92665518D01*
X237482499Y-92588665D01*
X238045000Y-92588665D01*
X238045000Y-92871335D01*
X238100147Y-93148574D01*
X238208320Y-93409727D01*
X238365363Y-93644759D01*
X238565241Y-93844637D01*
X238800273Y-94001680D01*
X239061426Y-94109853D01*
X239338665Y-94165000D01*
X239621335Y-94165000D01*
X239898574Y-94109853D01*
X240159727Y-94001680D01*
X240394759Y-93844637D01*
X240594637Y-93644759D01*
X240751680Y-93409727D01*
X240859853Y-93148574D01*
X240873493Y-93079999D01*
X241191928Y-93079999D01*
X241191928Y-94680001D01*
X241208992Y-94853255D01*
X241259528Y-95019851D01*
X241341595Y-95173387D01*
X241452038Y-95307962D01*
X241586613Y-95418405D01*
X241740149Y-95500472D01*
X241906745Y-95551008D01*
X242079999Y-95568072D01*
X243680001Y-95568072D01*
X243853255Y-95551008D01*
X244019851Y-95500472D01*
X244173387Y-95418405D01*
X244307962Y-95307962D01*
X244418405Y-95173387D01*
X244495345Y-95029443D01*
X244561595Y-95153387D01*
X244672038Y-95287962D01*
X244806613Y-95398405D01*
X244960149Y-95480472D01*
X245126745Y-95531008D01*
X245299999Y-95548072D01*
X246900001Y-95548072D01*
X247073255Y-95531008D01*
X247239851Y-95480472D01*
X247393387Y-95398405D01*
X247527962Y-95287962D01*
X247638405Y-95153387D01*
X247720472Y-94999851D01*
X247771008Y-94833255D01*
X247788072Y-94660001D01*
X247788072Y-93059999D01*
X247771008Y-92886745D01*
X247720472Y-92720149D01*
X247638405Y-92566613D01*
X247527962Y-92432038D01*
X247393387Y-92321595D01*
X247239851Y-92239528D01*
X247073255Y-92188992D01*
X246900001Y-92171928D01*
X245299999Y-92171928D01*
X245126745Y-92188992D01*
X244960149Y-92239528D01*
X244806613Y-92321595D01*
X244672038Y-92432038D01*
X244561595Y-92566613D01*
X244484655Y-92710557D01*
X244418405Y-92586613D01*
X244307962Y-92452038D01*
X244173387Y-92341595D01*
X244019851Y-92259528D01*
X243853255Y-92208992D01*
X243680001Y-92191928D01*
X242079999Y-92191928D01*
X241906745Y-92208992D01*
X241740149Y-92259528D01*
X241586613Y-92341595D01*
X241452038Y-92452038D01*
X241341595Y-92586613D01*
X241259528Y-92740149D01*
X241208992Y-92906745D01*
X241191928Y-93079999D01*
X240873493Y-93079999D01*
X240915000Y-92871335D01*
X240915000Y-92588665D01*
X240859853Y-92311426D01*
X240751680Y-92050273D01*
X240594637Y-91815241D01*
X240489396Y-91710000D01*
X249079388Y-91710000D01*
X249101785Y-91937400D01*
X249168115Y-92156060D01*
X249269105Y-92345000D01*
X249168115Y-92533940D01*
X249101785Y-92752600D01*
X249079388Y-92980000D01*
X249101785Y-93207400D01*
X249165093Y-93416098D01*
X249130498Y-93480820D01*
X249094188Y-93600518D01*
X249081928Y-93725000D01*
X249081928Y-94775000D01*
X249094188Y-94899482D01*
X249130498Y-95019180D01*
X249189463Y-95129494D01*
X249268815Y-95226185D01*
X249365506Y-95305537D01*
X249475820Y-95364502D01*
X249595518Y-95400812D01*
X249720000Y-95413072D01*
X251220000Y-95413072D01*
X251344482Y-95400812D01*
X251464180Y-95364502D01*
X251574494Y-95305537D01*
X251671185Y-95226185D01*
X251750537Y-95129494D01*
X251809502Y-95019180D01*
X251845812Y-94899482D01*
X251858072Y-94775000D01*
X251858072Y-94112702D01*
X255726903Y-94112702D01*
X255798486Y-94356671D01*
X256053996Y-94477571D01*
X256328184Y-94546300D01*
X256610512Y-94560217D01*
X256890130Y-94518787D01*
X257156292Y-94423603D01*
X257281514Y-94356671D01*
X257330808Y-94188665D01*
X260625000Y-94188665D01*
X260625000Y-94471335D01*
X260680147Y-94748574D01*
X260788320Y-95009727D01*
X260945363Y-95244759D01*
X261145241Y-95444637D01*
X261380273Y-95601680D01*
X261641426Y-95709853D01*
X261918665Y-95765000D01*
X262201335Y-95765000D01*
X262478574Y-95709853D01*
X262739727Y-95601680D01*
X262974759Y-95444637D01*
X263174637Y-95244759D01*
X263331680Y-95009727D01*
X263439853Y-94748574D01*
X263495000Y-94471335D01*
X263495000Y-94188665D01*
X263439853Y-93911426D01*
X263331680Y-93650273D01*
X263174637Y-93415241D01*
X262974759Y-93215363D01*
X262739727Y-93058320D01*
X262690844Y-93038072D01*
X263360001Y-93038072D01*
X263533255Y-93021008D01*
X263699851Y-92970472D01*
X263853387Y-92888405D01*
X263987962Y-92777962D01*
X264098405Y-92643387D01*
X264180472Y-92489851D01*
X264231008Y-92323255D01*
X264248072Y-92150001D01*
X264248072Y-90549999D01*
X264231008Y-90376745D01*
X264180472Y-90210149D01*
X264098405Y-90056613D01*
X263987962Y-89922038D01*
X263853387Y-89811595D01*
X263699851Y-89729528D01*
X263533255Y-89678992D01*
X263360001Y-89661928D01*
X261759999Y-89661928D01*
X261586745Y-89678992D01*
X261420149Y-89729528D01*
X261266613Y-89811595D01*
X261132038Y-89922038D01*
X261021595Y-90056613D01*
X260939528Y-90210149D01*
X260888992Y-90376745D01*
X260871928Y-90549999D01*
X260871928Y-92150001D01*
X260888992Y-92323255D01*
X260939528Y-92489851D01*
X261021595Y-92643387D01*
X261132038Y-92777962D01*
X261266613Y-92888405D01*
X261420149Y-92970472D01*
X261519557Y-93000627D01*
X261380273Y-93058320D01*
X261145241Y-93215363D01*
X260945363Y-93415241D01*
X260788320Y-93650273D01*
X260680147Y-93911426D01*
X260625000Y-94188665D01*
X257330808Y-94188665D01*
X257353097Y-94112702D01*
X256540000Y-93299605D01*
X255726903Y-94112702D01*
X251858072Y-94112702D01*
X251858072Y-93725000D01*
X251845812Y-93600518D01*
X251809502Y-93480820D01*
X251774907Y-93416098D01*
X251838215Y-93207400D01*
X251839878Y-93190512D01*
X255099783Y-93190512D01*
X255141213Y-93470130D01*
X255236397Y-93736292D01*
X255303329Y-93861514D01*
X255547298Y-93933097D01*
X256360395Y-93120000D01*
X256719605Y-93120000D01*
X257532702Y-93933097D01*
X257776671Y-93861514D01*
X257897571Y-93606004D01*
X257966300Y-93331816D01*
X257980217Y-93049488D01*
X257938787Y-92769870D01*
X257843603Y-92503708D01*
X257776671Y-92378486D01*
X257532702Y-92306903D01*
X256719605Y-93120000D01*
X256360395Y-93120000D01*
X255547298Y-92306903D01*
X255303329Y-92378486D01*
X255182429Y-92633996D01*
X255113700Y-92908184D01*
X255099783Y-93190512D01*
X251839878Y-93190512D01*
X251860612Y-92980000D01*
X251838215Y-92752600D01*
X251771885Y-92533940D01*
X251670895Y-92345000D01*
X251771885Y-92156060D01*
X251780609Y-92127298D01*
X255726903Y-92127298D01*
X256540000Y-92940395D01*
X257353097Y-92127298D01*
X257281514Y-91883329D01*
X257026004Y-91762429D01*
X256751816Y-91693700D01*
X256469488Y-91679783D01*
X256189870Y-91721213D01*
X255923708Y-91816397D01*
X255798486Y-91883329D01*
X255726903Y-92127298D01*
X251780609Y-92127298D01*
X251838215Y-91937400D01*
X251860612Y-91710000D01*
X251838215Y-91482600D01*
X251771885Y-91263940D01*
X251664171Y-91062421D01*
X251519212Y-90885788D01*
X251342579Y-90740829D01*
X251141060Y-90633115D01*
X250922400Y-90566785D01*
X250751979Y-90550000D01*
X250188021Y-90550000D01*
X250017600Y-90566785D01*
X249798940Y-90633115D01*
X249597421Y-90740829D01*
X249420788Y-90885788D01*
X249275829Y-91062421D01*
X249168115Y-91263940D01*
X249101785Y-91482600D01*
X249079388Y-91710000D01*
X240489396Y-91710000D01*
X240394759Y-91615363D01*
X240159727Y-91458320D01*
X239898574Y-91350147D01*
X239621335Y-91295000D01*
X239338665Y-91295000D01*
X239061426Y-91350147D01*
X238800273Y-91458320D01*
X238565241Y-91615363D01*
X238365363Y-91815241D01*
X238208320Y-92050273D01*
X238100147Y-92311426D01*
X238045000Y-92588665D01*
X237482499Y-92588665D01*
X237469502Y-92545820D01*
X237410537Y-92435506D01*
X237331185Y-92338815D01*
X237234494Y-92259463D01*
X237124180Y-92200498D01*
X237004482Y-92164188D01*
X236880000Y-92151928D01*
X235280000Y-92151928D01*
X235155518Y-92164188D01*
X235035820Y-92200498D01*
X234925506Y-92259463D01*
X234828815Y-92338815D01*
X234818193Y-92351758D01*
X234566004Y-92232429D01*
X234291816Y-92163700D01*
X234009488Y-92149783D01*
X233729870Y-92191213D01*
X233463708Y-92286397D01*
X233338486Y-92353329D01*
X233266903Y-92597298D01*
X229317000Y-92597298D01*
X229317000Y-88209999D01*
X235851928Y-88209999D01*
X235851928Y-89810001D01*
X235868992Y-89983255D01*
X235919528Y-90149851D01*
X236001595Y-90303387D01*
X236112038Y-90437962D01*
X236246613Y-90548405D01*
X236400149Y-90630472D01*
X236566745Y-90681008D01*
X236739999Y-90698072D01*
X238340001Y-90698072D01*
X238513255Y-90681008D01*
X238679851Y-90630472D01*
X238833387Y-90548405D01*
X238967962Y-90437962D01*
X239078405Y-90303387D01*
X239160472Y-90149851D01*
X239211008Y-89983255D01*
X239228072Y-89810001D01*
X239228072Y-88650512D01*
X239569783Y-88650512D01*
X239611213Y-88930130D01*
X239706397Y-89196292D01*
X239773329Y-89321514D01*
X240017298Y-89393097D01*
X240830395Y-88580000D01*
X240017298Y-87766903D01*
X239773329Y-87838486D01*
X239652429Y-88093996D01*
X239583700Y-88368184D01*
X239569783Y-88650512D01*
X239228072Y-88650512D01*
X239228072Y-88209999D01*
X239211008Y-88036745D01*
X239160472Y-87870149D01*
X239078405Y-87716613D01*
X238972279Y-87587298D01*
X240196903Y-87587298D01*
X241010000Y-88400395D01*
X241024143Y-88386253D01*
X241203748Y-88565858D01*
X241189605Y-88580000D01*
X241203748Y-88594143D01*
X241024143Y-88773748D01*
X241010000Y-88759605D01*
X240196903Y-89572702D01*
X240268486Y-89816671D01*
X240523996Y-89937571D01*
X240798184Y-90006300D01*
X241080512Y-90020217D01*
X241360130Y-89978787D01*
X241626292Y-89883603D01*
X241748309Y-89818384D01*
X241758815Y-89831185D01*
X241855506Y-89910537D01*
X241965820Y-89969502D01*
X242085518Y-90005812D01*
X242210000Y-90018072D01*
X243810000Y-90018072D01*
X243934482Y-90005812D01*
X244054180Y-89969502D01*
X244164494Y-89910537D01*
X244261185Y-89831185D01*
X244340537Y-89734494D01*
X244399502Y-89624180D01*
X244435812Y-89504482D01*
X244448072Y-89380000D01*
X244448072Y-88488665D01*
X244475000Y-88488665D01*
X244475000Y-88771335D01*
X244530147Y-89048574D01*
X244638320Y-89309727D01*
X244795363Y-89544759D01*
X244995241Y-89744637D01*
X245230273Y-89901680D01*
X245491426Y-90009853D01*
X245768665Y-90065000D01*
X246051335Y-90065000D01*
X246328574Y-90009853D01*
X246589727Y-89901680D01*
X246824759Y-89744637D01*
X247024637Y-89544759D01*
X247181680Y-89309727D01*
X247289853Y-89048574D01*
X247345000Y-88771335D01*
X247345000Y-88488665D01*
X249555000Y-88488665D01*
X249555000Y-88771335D01*
X249610147Y-89048574D01*
X249718320Y-89309727D01*
X249875363Y-89544759D01*
X250075241Y-89744637D01*
X250310273Y-89901680D01*
X250571426Y-90009853D01*
X250848665Y-90065000D01*
X251131335Y-90065000D01*
X251408574Y-90009853D01*
X251669727Y-89901680D01*
X251904759Y-89744637D01*
X252104637Y-89544759D01*
X252261680Y-89309727D01*
X252369853Y-89048574D01*
X252425000Y-88771335D01*
X252425000Y-88758665D01*
X253075000Y-88758665D01*
X253075000Y-89041335D01*
X253130147Y-89318574D01*
X253238320Y-89579727D01*
X253395363Y-89814759D01*
X253595241Y-90014637D01*
X253830273Y-90171680D01*
X254091426Y-90279853D01*
X254368665Y-90335000D01*
X254651335Y-90335000D01*
X254928574Y-90279853D01*
X255189727Y-90171680D01*
X255424759Y-90014637D01*
X255624637Y-89814759D01*
X255781680Y-89579727D01*
X255889853Y-89318574D01*
X255945000Y-89041335D01*
X255945000Y-88758665D01*
X258075000Y-88758665D01*
X258075000Y-89041335D01*
X258130147Y-89318574D01*
X258238320Y-89579727D01*
X258395363Y-89814759D01*
X258595241Y-90014637D01*
X258830273Y-90171680D01*
X259091426Y-90279853D01*
X259368665Y-90335000D01*
X259651335Y-90335000D01*
X259928574Y-90279853D01*
X260189727Y-90171680D01*
X260424759Y-90014637D01*
X260624637Y-89814759D01*
X260781680Y-89579727D01*
X260889853Y-89318574D01*
X260945000Y-89041335D01*
X260945000Y-88857506D01*
X261001595Y-88963387D01*
X261112038Y-89097962D01*
X261246613Y-89208405D01*
X261400149Y-89290472D01*
X261566745Y-89341008D01*
X261739999Y-89358072D01*
X263340001Y-89358072D01*
X263513255Y-89341008D01*
X263679851Y-89290472D01*
X263833387Y-89208405D01*
X263967962Y-89097962D01*
X264078405Y-88963387D01*
X264160472Y-88809851D01*
X264211008Y-88643255D01*
X264228072Y-88470001D01*
X264228072Y-86869999D01*
X264211008Y-86696745D01*
X264160472Y-86530149D01*
X264078405Y-86376613D01*
X263967962Y-86242038D01*
X263833387Y-86131595D01*
X263679851Y-86049528D01*
X263513255Y-85998992D01*
X263340001Y-85981928D01*
X261739999Y-85981928D01*
X261566745Y-85998992D01*
X261400149Y-86049528D01*
X261246613Y-86131595D01*
X261112038Y-86242038D01*
X261001595Y-86376613D01*
X260919528Y-86530149D01*
X260868992Y-86696745D01*
X260851928Y-86869999D01*
X260851928Y-88389867D01*
X260781680Y-88220273D01*
X260624637Y-87985241D01*
X260424759Y-87785363D01*
X260189727Y-87628320D01*
X259928574Y-87520147D01*
X259651335Y-87465000D01*
X259368665Y-87465000D01*
X259091426Y-87520147D01*
X258830273Y-87628320D01*
X258595241Y-87785363D01*
X258395363Y-87985241D01*
X258238320Y-88220273D01*
X258130147Y-88481426D01*
X258075000Y-88758665D01*
X255945000Y-88758665D01*
X255889853Y-88481426D01*
X255781680Y-88220273D01*
X255624637Y-87985241D01*
X255424759Y-87785363D01*
X255189727Y-87628320D01*
X254928574Y-87520147D01*
X254651335Y-87465000D01*
X254368665Y-87465000D01*
X254091426Y-87520147D01*
X253830273Y-87628320D01*
X253595241Y-87785363D01*
X253395363Y-87985241D01*
X253238320Y-88220273D01*
X253130147Y-88481426D01*
X253075000Y-88758665D01*
X252425000Y-88758665D01*
X252425000Y-88488665D01*
X252369853Y-88211426D01*
X252261680Y-87950273D01*
X252104637Y-87715241D01*
X251904759Y-87515363D01*
X251669727Y-87358320D01*
X251408574Y-87250147D01*
X251131335Y-87195000D01*
X250848665Y-87195000D01*
X250571426Y-87250147D01*
X250310273Y-87358320D01*
X250075241Y-87515363D01*
X249875363Y-87715241D01*
X249718320Y-87950273D01*
X249610147Y-88211426D01*
X249555000Y-88488665D01*
X247345000Y-88488665D01*
X247289853Y-88211426D01*
X247181680Y-87950273D01*
X247024637Y-87715241D01*
X246824759Y-87515363D01*
X246589727Y-87358320D01*
X246328574Y-87250147D01*
X246051335Y-87195000D01*
X245768665Y-87195000D01*
X245491426Y-87250147D01*
X245230273Y-87358320D01*
X244995241Y-87515363D01*
X244795363Y-87715241D01*
X244638320Y-87950273D01*
X244530147Y-88211426D01*
X244475000Y-88488665D01*
X244448072Y-88488665D01*
X244448072Y-87780000D01*
X244435812Y-87655518D01*
X244399502Y-87535820D01*
X244340537Y-87425506D01*
X244261185Y-87328815D01*
X244164494Y-87249463D01*
X244054180Y-87190498D01*
X243934482Y-87154188D01*
X243810000Y-87141928D01*
X242210000Y-87141928D01*
X242085518Y-87154188D01*
X241965820Y-87190498D01*
X241855506Y-87249463D01*
X241758815Y-87328815D01*
X241748193Y-87341758D01*
X241496004Y-87222429D01*
X241221816Y-87153700D01*
X240939488Y-87139783D01*
X240659870Y-87181213D01*
X240393708Y-87276397D01*
X240268486Y-87343329D01*
X240196903Y-87587298D01*
X238972279Y-87587298D01*
X238967962Y-87582038D01*
X238833387Y-87471595D01*
X238679851Y-87389528D01*
X238513255Y-87338992D01*
X238340001Y-87321928D01*
X236739999Y-87321928D01*
X236566745Y-87338992D01*
X236400149Y-87389528D01*
X236246613Y-87471595D01*
X236112038Y-87582038D01*
X236001595Y-87716613D01*
X235919528Y-87870149D01*
X235868992Y-88036745D01*
X235851928Y-88209999D01*
X229317000Y-88209999D01*
X229317000Y-87702606D01*
X229780876Y-87238730D01*
X230726795Y-86370000D01*
X234371928Y-86370000D01*
X234384188Y-86494482D01*
X234420498Y-86614180D01*
X234479463Y-86724494D01*
X234558815Y-86821185D01*
X234655506Y-86900537D01*
X234765820Y-86959502D01*
X234885518Y-86995812D01*
X235010000Y-87008072D01*
X235774250Y-87005000D01*
X235933000Y-86846250D01*
X235933000Y-85447000D01*
X234533750Y-85447000D01*
X234375000Y-85605750D01*
X234371928Y-86370000D01*
X230726795Y-86370000D01*
X233013386Y-84270000D01*
X234371928Y-84270000D01*
X234375000Y-85034250D01*
X234533750Y-85193000D01*
X235933000Y-85193000D01*
X235933000Y-83793750D01*
X236187000Y-83793750D01*
X236187000Y-85193000D01*
X236207000Y-85193000D01*
X236207000Y-85447000D01*
X236187000Y-85447000D01*
X236187000Y-86846250D01*
X236345750Y-87005000D01*
X237110000Y-87008072D01*
X237234482Y-86995812D01*
X237354180Y-86959502D01*
X237464494Y-86900537D01*
X237561185Y-86821185D01*
X237640537Y-86724494D01*
X237699502Y-86614180D01*
X237735812Y-86494482D01*
X237748072Y-86370000D01*
X237745818Y-85809039D01*
X245078096Y-85809039D01*
X245118754Y-85943087D01*
X245238963Y-86197420D01*
X245406481Y-86423414D01*
X245614869Y-86612385D01*
X245856119Y-86757070D01*
X246120960Y-86851909D01*
X246343000Y-86730624D01*
X246343000Y-85587000D01*
X246597000Y-85587000D01*
X246597000Y-86730624D01*
X246819040Y-86851909D01*
X247083881Y-86757070D01*
X247325131Y-86612385D01*
X247533519Y-86423414D01*
X247701037Y-86197420D01*
X247821246Y-85943087D01*
X247861904Y-85809039D01*
X247739915Y-85587000D01*
X246597000Y-85587000D01*
X246343000Y-85587000D01*
X245200085Y-85587000D01*
X245078096Y-85809039D01*
X237745818Y-85809039D01*
X237745000Y-85605750D01*
X237586252Y-85447002D01*
X237745000Y-85447002D01*
X237745000Y-85334396D01*
X237805241Y-85394637D01*
X238040273Y-85551680D01*
X238301426Y-85659853D01*
X238578665Y-85715000D01*
X238861335Y-85715000D01*
X239138574Y-85659853D01*
X239399727Y-85551680D01*
X239634759Y-85394637D01*
X239834637Y-85194759D01*
X239991680Y-84959727D01*
X240099853Y-84698574D01*
X240155000Y-84421335D01*
X240155000Y-84138665D01*
X242365000Y-84138665D01*
X242365000Y-84421335D01*
X242420147Y-84698574D01*
X242528320Y-84959727D01*
X242685363Y-85194759D01*
X242885241Y-85394637D01*
X243120273Y-85551680D01*
X243381426Y-85659853D01*
X243658665Y-85715000D01*
X243941335Y-85715000D01*
X244218574Y-85659853D01*
X244479727Y-85551680D01*
X244714759Y-85394637D01*
X244914637Y-85194759D01*
X244970628Y-85110961D01*
X245078096Y-85110961D01*
X245200085Y-85333000D01*
X246343000Y-85333000D01*
X246343000Y-84189376D01*
X246597000Y-84189376D01*
X246597000Y-85333000D01*
X247739915Y-85333000D01*
X247747790Y-85318665D01*
X250115000Y-85318665D01*
X250115000Y-85601335D01*
X250170147Y-85878574D01*
X250278320Y-86139727D01*
X250435363Y-86374759D01*
X250635241Y-86574637D01*
X250870273Y-86731680D01*
X251131426Y-86839853D01*
X251408665Y-86895000D01*
X251691335Y-86895000D01*
X251968574Y-86839853D01*
X252229727Y-86731680D01*
X252464759Y-86574637D01*
X252664637Y-86374759D01*
X252821680Y-86139727D01*
X252929853Y-85878574D01*
X252985000Y-85601335D01*
X252985000Y-85318665D01*
X252929853Y-85041426D01*
X252821680Y-84780273D01*
X252664637Y-84545241D01*
X252464759Y-84345363D01*
X252229727Y-84188320D01*
X251968574Y-84080147D01*
X251691335Y-84025000D01*
X251408665Y-84025000D01*
X251131426Y-84080147D01*
X250870273Y-84188320D01*
X250635241Y-84345363D01*
X250435363Y-84545241D01*
X250278320Y-84780273D01*
X250170147Y-85041426D01*
X250115000Y-85318665D01*
X247747790Y-85318665D01*
X247861904Y-85110961D01*
X247821246Y-84976913D01*
X247701037Y-84722580D01*
X247533519Y-84496586D01*
X247325131Y-84307615D01*
X247083881Y-84162930D01*
X246819040Y-84068091D01*
X246597000Y-84189376D01*
X246343000Y-84189376D01*
X246120960Y-84068091D01*
X245856119Y-84162930D01*
X245614869Y-84307615D01*
X245406481Y-84496586D01*
X245238963Y-84722580D01*
X245118754Y-84976913D01*
X245078096Y-85110961D01*
X244970628Y-85110961D01*
X245071680Y-84959727D01*
X245179853Y-84698574D01*
X245235000Y-84421335D01*
X245235000Y-84138665D01*
X245179853Y-83861426D01*
X245071680Y-83600273D01*
X244914637Y-83365241D01*
X244739395Y-83189999D01*
X253041928Y-83189999D01*
X253041928Y-84790001D01*
X253058992Y-84963255D01*
X253109528Y-85129851D01*
X253191595Y-85283387D01*
X253302038Y-85417962D01*
X253436613Y-85528405D01*
X253590149Y-85610472D01*
X253756745Y-85661008D01*
X253929999Y-85678072D01*
X255530001Y-85678072D01*
X255703255Y-85661008D01*
X255869851Y-85610472D01*
X256023387Y-85528405D01*
X256055567Y-85501995D01*
X256080498Y-85584180D01*
X256139463Y-85694494D01*
X256218815Y-85791185D01*
X256315506Y-85870537D01*
X256425820Y-85929502D01*
X256545518Y-85965812D01*
X256670000Y-85978072D01*
X258270000Y-85978072D01*
X258394482Y-85965812D01*
X258514180Y-85929502D01*
X258624494Y-85870537D01*
X258721185Y-85791185D01*
X258800537Y-85694494D01*
X258859502Y-85584180D01*
X258895812Y-85464482D01*
X258908072Y-85340000D01*
X258908072Y-84889039D01*
X263698096Y-84889039D01*
X263738754Y-85023087D01*
X263858963Y-85277420D01*
X264026481Y-85503414D01*
X264234869Y-85692385D01*
X264476119Y-85837070D01*
X264740960Y-85931909D01*
X264963000Y-85810624D01*
X264963000Y-84667000D01*
X265217000Y-84667000D01*
X265217000Y-85810624D01*
X265439040Y-85931909D01*
X265703881Y-85837070D01*
X265945131Y-85692385D01*
X266153519Y-85503414D01*
X266321037Y-85277420D01*
X266441246Y-85023087D01*
X266481904Y-84889039D01*
X266359915Y-84667000D01*
X265217000Y-84667000D01*
X264963000Y-84667000D01*
X263820085Y-84667000D01*
X263698096Y-84889039D01*
X258908072Y-84889039D01*
X258908072Y-84190961D01*
X263698096Y-84190961D01*
X263820085Y-84413000D01*
X264963000Y-84413000D01*
X264963000Y-83269376D01*
X265217000Y-83269376D01*
X265217000Y-84413000D01*
X266359915Y-84413000D01*
X266481904Y-84190961D01*
X266441246Y-84056913D01*
X266321037Y-83802580D01*
X266153519Y-83576586D01*
X265945131Y-83387615D01*
X265703881Y-83242930D01*
X265439040Y-83148091D01*
X265217000Y-83269376D01*
X264963000Y-83269376D01*
X264740960Y-83148091D01*
X264476119Y-83242930D01*
X264234869Y-83387615D01*
X264026481Y-83576586D01*
X263858963Y-83802580D01*
X263738754Y-84056913D01*
X263698096Y-84190961D01*
X258908072Y-84190961D01*
X258908072Y-83740000D01*
X258895812Y-83615518D01*
X258859502Y-83495820D01*
X258800537Y-83385506D01*
X258721185Y-83288815D01*
X258624494Y-83209463D01*
X258514180Y-83150498D01*
X258394482Y-83114188D01*
X258270000Y-83101928D01*
X256670000Y-83101928D01*
X256545518Y-83114188D01*
X256425820Y-83150498D01*
X256414764Y-83156408D01*
X256401008Y-83016745D01*
X256350472Y-82850149D01*
X256268405Y-82696613D01*
X256157962Y-82562038D01*
X256023387Y-82451595D01*
X255869851Y-82369528D01*
X255703255Y-82318992D01*
X255530001Y-82301928D01*
X253929999Y-82301928D01*
X253756745Y-82318992D01*
X253590149Y-82369528D01*
X253436613Y-82451595D01*
X253302038Y-82562038D01*
X253191595Y-82696613D01*
X253109528Y-82850149D01*
X253058992Y-83016745D01*
X253041928Y-83189999D01*
X244739395Y-83189999D01*
X244714759Y-83165363D01*
X244479727Y-83008320D01*
X244218574Y-82900147D01*
X243941335Y-82845000D01*
X243658665Y-82845000D01*
X243381426Y-82900147D01*
X243120273Y-83008320D01*
X242885241Y-83165363D01*
X242685363Y-83365241D01*
X242528320Y-83600273D01*
X242420147Y-83861426D01*
X242365000Y-84138665D01*
X240155000Y-84138665D01*
X240099853Y-83861426D01*
X239991680Y-83600273D01*
X239834637Y-83365241D01*
X239634759Y-83165363D01*
X239399727Y-83008320D01*
X239138574Y-82900147D01*
X238861335Y-82845000D01*
X238578665Y-82845000D01*
X238301426Y-82900147D01*
X238040273Y-83008320D01*
X237805241Y-83165363D01*
X237605363Y-83365241D01*
X237448320Y-83600273D01*
X237404049Y-83707154D01*
X237354180Y-83680498D01*
X237234482Y-83644188D01*
X237110000Y-83631928D01*
X236345750Y-83635000D01*
X236187000Y-83793750D01*
X235933000Y-83793750D01*
X235774250Y-83635000D01*
X235010000Y-83631928D01*
X234885518Y-83644188D01*
X234765820Y-83680498D01*
X234655506Y-83739463D01*
X234558815Y-83818815D01*
X234479463Y-83915506D01*
X234420498Y-84025820D01*
X234384188Y-84145518D01*
X234371928Y-84270000D01*
X233013386Y-84270000D01*
X235387086Y-82090000D01*
X265544571Y-82090000D01*
X267020000Y-83741841D01*
%TA.AperFunction,Conductor*%
D18*
G36*
X267020000Y-83741841D02*
G01*
X267020001Y-111873728D01*
X266903519Y-111716586D01*
X266695131Y-111527615D01*
X266453881Y-111382930D01*
X266189040Y-111288091D01*
X265967000Y-111409376D01*
X265967000Y-112553000D01*
X265987000Y-112553000D01*
X265987000Y-112807000D01*
X265967000Y-112807000D01*
X265967000Y-113950624D01*
X266189040Y-114071909D01*
X266453881Y-113977070D01*
X266695131Y-113832385D01*
X266903519Y-113643414D01*
X267020001Y-113486272D01*
X267020001Y-127566618D01*
X258776724Y-135809896D01*
X233208743Y-135800092D01*
X231692831Y-134539039D01*
X232688096Y-134539039D01*
X232728754Y-134673087D01*
X232848963Y-134927420D01*
X233016481Y-135153414D01*
X233224869Y-135342385D01*
X233466119Y-135487070D01*
X233730960Y-135581909D01*
X233953000Y-135460624D01*
X233953000Y-134317000D01*
X234207000Y-134317000D01*
X234207000Y-135460624D01*
X234429040Y-135581909D01*
X234693881Y-135487070D01*
X234935131Y-135342385D01*
X235143519Y-135153414D01*
X235311037Y-134927420D01*
X235431246Y-134673087D01*
X235471904Y-134539039D01*
X235349915Y-134317000D01*
X234207000Y-134317000D01*
X233953000Y-134317000D01*
X232810085Y-134317000D01*
X232688096Y-134539039D01*
X231692831Y-134539039D01*
X230853672Y-133840961D01*
X232688096Y-133840961D01*
X232810085Y-134063000D01*
X233953000Y-134063000D01*
X233953000Y-132919376D01*
X234207000Y-132919376D01*
X234207000Y-134063000D01*
X235349915Y-134063000D01*
X235357790Y-134048665D01*
X237725000Y-134048665D01*
X237725000Y-134331335D01*
X237780147Y-134608574D01*
X237888320Y-134869727D01*
X238045363Y-135104759D01*
X238245241Y-135304637D01*
X238480273Y-135461680D01*
X238741426Y-135569853D01*
X239018665Y-135625000D01*
X239301335Y-135625000D01*
X239578574Y-135569853D01*
X239839727Y-135461680D01*
X240074759Y-135304637D01*
X240274637Y-135104759D01*
X240431680Y-134869727D01*
X240539853Y-134608574D01*
X240595000Y-134331335D01*
X240595000Y-134048665D01*
X240539853Y-133771426D01*
X240431680Y-133510273D01*
X240274637Y-133275241D01*
X240074759Y-133075363D01*
X239839727Y-132918320D01*
X239578574Y-132810147D01*
X239301335Y-132755000D01*
X239018665Y-132755000D01*
X238741426Y-132810147D01*
X238480273Y-132918320D01*
X238245241Y-133075363D01*
X238045363Y-133275241D01*
X237888320Y-133510273D01*
X237780147Y-133771426D01*
X237725000Y-134048665D01*
X235357790Y-134048665D01*
X235471904Y-133840961D01*
X235431246Y-133706913D01*
X235311037Y-133452580D01*
X235143519Y-133226586D01*
X234935131Y-133037615D01*
X234693881Y-132892930D01*
X234429040Y-132798091D01*
X234207000Y-132919376D01*
X233953000Y-132919376D01*
X233730960Y-132798091D01*
X233466119Y-132892930D01*
X233224869Y-133037615D01*
X233016481Y-133226586D01*
X232848963Y-133452580D01*
X232728754Y-133706913D01*
X232688096Y-133840961D01*
X230853672Y-133840961D01*
X229317000Y-132562639D01*
X229317000Y-132032702D01*
X233706903Y-132032702D01*
X233778486Y-132276671D01*
X234033996Y-132397571D01*
X234308184Y-132466300D01*
X234590512Y-132480217D01*
X234870130Y-132438787D01*
X235136292Y-132343603D01*
X235261514Y-132276671D01*
X235333097Y-132032702D01*
X234520000Y-131219605D01*
X233706903Y-132032702D01*
X229317000Y-132032702D01*
X229317000Y-131110512D01*
X233079783Y-131110512D01*
X233121213Y-131390130D01*
X233216397Y-131656292D01*
X233283329Y-131781514D01*
X233527298Y-131853097D01*
X234340395Y-131040000D01*
X234699605Y-131040000D01*
X235512702Y-131853097D01*
X235756671Y-131781514D01*
X235877571Y-131526004D01*
X235946300Y-131251816D01*
X235960217Y-130969488D01*
X235949724Y-130898665D01*
X238165000Y-130898665D01*
X238165000Y-131181335D01*
X238220147Y-131458574D01*
X238328320Y-131719727D01*
X238485363Y-131954759D01*
X238685241Y-132154637D01*
X238920273Y-132311680D01*
X239181426Y-132419853D01*
X239458665Y-132475000D01*
X239741335Y-132475000D01*
X240018574Y-132419853D01*
X240279727Y-132311680D01*
X240514759Y-132154637D01*
X240714637Y-131954759D01*
X240871680Y-131719727D01*
X240979853Y-131458574D01*
X241035000Y-131181335D01*
X241035000Y-131041958D01*
X241049528Y-131089851D01*
X241131595Y-131243387D01*
X241242038Y-131377962D01*
X241376613Y-131488405D01*
X241468463Y-131537500D01*
X241376613Y-131586595D01*
X241242038Y-131697038D01*
X241131595Y-131831613D01*
X241049528Y-131985149D01*
X240998992Y-132151745D01*
X240981928Y-132324999D01*
X240981928Y-133925001D01*
X240998992Y-134098255D01*
X241049528Y-134264851D01*
X241131595Y-134418387D01*
X241242038Y-134552962D01*
X241376613Y-134663405D01*
X241530149Y-134745472D01*
X241696745Y-134796008D01*
X241869999Y-134813072D01*
X243470001Y-134813072D01*
X243643255Y-134796008D01*
X243809851Y-134745472D01*
X243963387Y-134663405D01*
X244097962Y-134552962D01*
X244208405Y-134418387D01*
X244290472Y-134264851D01*
X244341008Y-134098255D01*
X244358072Y-133925001D01*
X244358072Y-132324999D01*
X244341008Y-132151745D01*
X244290472Y-131985149D01*
X244265626Y-131938665D01*
X246155000Y-131938665D01*
X246155000Y-132221335D01*
X246210147Y-132498574D01*
X246318320Y-132759727D01*
X246475363Y-132994759D01*
X246675241Y-133194637D01*
X246910273Y-133351680D01*
X247171426Y-133459853D01*
X247448665Y-133515000D01*
X247731335Y-133515000D01*
X248008574Y-133459853D01*
X248269727Y-133351680D01*
X248504759Y-133194637D01*
X248704637Y-132994759D01*
X248861680Y-132759727D01*
X248969853Y-132498574D01*
X249025000Y-132221335D01*
X249025000Y-131938665D01*
X253655000Y-131938665D01*
X253655000Y-132221335D01*
X253710147Y-132498574D01*
X253818320Y-132759727D01*
X253975363Y-132994759D01*
X254175241Y-133194637D01*
X254410273Y-133351680D01*
X254671426Y-133459853D01*
X254948665Y-133515000D01*
X255231335Y-133515000D01*
X255508574Y-133459853D01*
X255769727Y-133351680D01*
X256004759Y-133194637D01*
X256204637Y-132994759D01*
X256361680Y-132759727D01*
X256469853Y-132498574D01*
X256525000Y-132221335D01*
X256525000Y-131938665D01*
X256469853Y-131661426D01*
X256361680Y-131400273D01*
X256204637Y-131165241D01*
X256004759Y-130965363D01*
X255769727Y-130808320D01*
X255508574Y-130700147D01*
X255231335Y-130645000D01*
X254948665Y-130645000D01*
X254671426Y-130700147D01*
X254410273Y-130808320D01*
X254175241Y-130965363D01*
X253975363Y-131165241D01*
X253818320Y-131400273D01*
X253710147Y-131661426D01*
X253655000Y-131938665D01*
X249025000Y-131938665D01*
X248969853Y-131661426D01*
X248861680Y-131400273D01*
X248704637Y-131165241D01*
X248504759Y-130965363D01*
X248269727Y-130808320D01*
X248008574Y-130700147D01*
X247731335Y-130645000D01*
X247448665Y-130645000D01*
X247171426Y-130700147D01*
X246910273Y-130808320D01*
X246675241Y-130965363D01*
X246475363Y-131165241D01*
X246318320Y-131400273D01*
X246210147Y-131661426D01*
X246155000Y-131938665D01*
X244265626Y-131938665D01*
X244208405Y-131831613D01*
X244097962Y-131697038D01*
X243963387Y-131586595D01*
X243871537Y-131537500D01*
X243963387Y-131488405D01*
X244097962Y-131377962D01*
X244208405Y-131243387D01*
X244290472Y-131089851D01*
X244341008Y-130923255D01*
X244358072Y-130750001D01*
X244358072Y-129149999D01*
X244341008Y-128976745D01*
X244290472Y-128810149D01*
X244208405Y-128656613D01*
X244097962Y-128522038D01*
X243963387Y-128411595D01*
X243809851Y-128329528D01*
X243643255Y-128278992D01*
X243470001Y-128261928D01*
X241869999Y-128261928D01*
X241696745Y-128278992D01*
X241530149Y-128329528D01*
X241376613Y-128411595D01*
X241242038Y-128522038D01*
X241131595Y-128656613D01*
X241049528Y-128810149D01*
X240998992Y-128976745D01*
X240981928Y-129149999D01*
X240981928Y-130631858D01*
X240979853Y-130621426D01*
X240871680Y-130360273D01*
X240714637Y-130125241D01*
X240514759Y-129925363D01*
X240279727Y-129768320D01*
X240018574Y-129660147D01*
X239741335Y-129605000D01*
X239458665Y-129605000D01*
X239181426Y-129660147D01*
X238920273Y-129768320D01*
X238685241Y-129925363D01*
X238485363Y-130125241D01*
X238328320Y-130360273D01*
X238220147Y-130621426D01*
X238165000Y-130898665D01*
X235949724Y-130898665D01*
X235918787Y-130689870D01*
X235823603Y-130423708D01*
X235756671Y-130298486D01*
X235512702Y-130226903D01*
X234699605Y-131040000D01*
X234340395Y-131040000D01*
X233527298Y-130226903D01*
X233283329Y-130298486D01*
X233162429Y-130553996D01*
X233093700Y-130828184D01*
X233079783Y-131110512D01*
X229317000Y-131110512D01*
X229317000Y-130047298D01*
X233706903Y-130047298D01*
X234520000Y-130860395D01*
X235333097Y-130047298D01*
X235261514Y-129803329D01*
X235006004Y-129682429D01*
X234731816Y-129613700D01*
X234449488Y-129599783D01*
X234169870Y-129641213D01*
X233903708Y-129736397D01*
X233778486Y-129803329D01*
X233706903Y-130047298D01*
X229317000Y-130047298D01*
X229317000Y-126558665D01*
X236595000Y-126558665D01*
X236595000Y-126841335D01*
X236650147Y-127118574D01*
X236758320Y-127379727D01*
X236915363Y-127614759D01*
X237115241Y-127814637D01*
X237350273Y-127971680D01*
X237611426Y-128079853D01*
X237888665Y-128135000D01*
X238171335Y-128135000D01*
X238448574Y-128079853D01*
X238709727Y-127971680D01*
X238944759Y-127814637D01*
X239144637Y-127614759D01*
X239301680Y-127379727D01*
X239409853Y-127118574D01*
X239465000Y-126841335D01*
X239465000Y-126648665D01*
X241105000Y-126648665D01*
X241105000Y-126931335D01*
X241160147Y-127208574D01*
X241268320Y-127469727D01*
X241425363Y-127704759D01*
X241625241Y-127904637D01*
X241860273Y-128061680D01*
X242121426Y-128169853D01*
X242398665Y-128225000D01*
X242681335Y-128225000D01*
X242958574Y-128169853D01*
X243219727Y-128061680D01*
X243454759Y-127904637D01*
X243654637Y-127704759D01*
X243811680Y-127469727D01*
X243919853Y-127208574D01*
X243975000Y-126931335D01*
X243975000Y-126818665D01*
X249135000Y-126818665D01*
X249135000Y-127101335D01*
X249190147Y-127378574D01*
X249298320Y-127639727D01*
X249455363Y-127874759D01*
X249655241Y-128074637D01*
X249890273Y-128231680D01*
X250151426Y-128339853D01*
X250428665Y-128395000D01*
X250711335Y-128395000D01*
X250988574Y-128339853D01*
X251249727Y-128231680D01*
X251484759Y-128074637D01*
X251684637Y-127874759D01*
X251841680Y-127639727D01*
X251949853Y-127378574D01*
X252005000Y-127101335D01*
X252005000Y-126818665D01*
X254215000Y-126818665D01*
X254215000Y-127101335D01*
X254270147Y-127378574D01*
X254378320Y-127639727D01*
X254535363Y-127874759D01*
X254735241Y-128074637D01*
X254970273Y-128231680D01*
X255231426Y-128339853D01*
X255508665Y-128395000D01*
X255791335Y-128395000D01*
X256068574Y-128339853D01*
X256329727Y-128231680D01*
X256564759Y-128074637D01*
X256764637Y-127874759D01*
X256921680Y-127639727D01*
X257029853Y-127378574D01*
X257039515Y-127329999D01*
X258361928Y-127329999D01*
X258361928Y-128930001D01*
X258378992Y-129103255D01*
X258429528Y-129269851D01*
X258511595Y-129423387D01*
X258622038Y-129557962D01*
X258756613Y-129668405D01*
X258910149Y-129750472D01*
X259076745Y-129801008D01*
X259249999Y-129818072D01*
X260850001Y-129818072D01*
X261023255Y-129801008D01*
X261189851Y-129750472D01*
X261343387Y-129668405D01*
X261477962Y-129557962D01*
X261588405Y-129423387D01*
X261670472Y-129269851D01*
X261721008Y-129103255D01*
X261738072Y-128930001D01*
X261738072Y-127329999D01*
X261721008Y-127156745D01*
X261670472Y-126990149D01*
X261588405Y-126836613D01*
X261477962Y-126702038D01*
X261386647Y-126627098D01*
X261399727Y-126621680D01*
X261634759Y-126464637D01*
X261834637Y-126264759D01*
X261991680Y-126029727D01*
X262099853Y-125768574D01*
X262155000Y-125491335D01*
X262155000Y-125208665D01*
X262099853Y-124931426D01*
X261991680Y-124670273D01*
X261834637Y-124435241D01*
X261634759Y-124235363D01*
X261399727Y-124078320D01*
X261138574Y-123970147D01*
X260861335Y-123915000D01*
X260578665Y-123915000D01*
X260301426Y-123970147D01*
X260040273Y-124078320D01*
X259805241Y-124235363D01*
X259605363Y-124435241D01*
X259448320Y-124670273D01*
X259340147Y-124931426D01*
X259285000Y-125208665D01*
X259285000Y-125491335D01*
X259340147Y-125768574D01*
X259448320Y-126029727D01*
X259605363Y-126264759D01*
X259782532Y-126441928D01*
X259249999Y-126441928D01*
X259076745Y-126458992D01*
X258910149Y-126509528D01*
X258756613Y-126591595D01*
X258622038Y-126702038D01*
X258511595Y-126836613D01*
X258429528Y-126990149D01*
X258378992Y-127156745D01*
X258361928Y-127329999D01*
X257039515Y-127329999D01*
X257085000Y-127101335D01*
X257085000Y-126818665D01*
X257029853Y-126541426D01*
X256921680Y-126280273D01*
X256764637Y-126045241D01*
X256564759Y-125845363D01*
X256329727Y-125688320D01*
X256068574Y-125580147D01*
X255791335Y-125525000D01*
X255508665Y-125525000D01*
X255231426Y-125580147D01*
X254970273Y-125688320D01*
X254735241Y-125845363D01*
X254535363Y-126045241D01*
X254378320Y-126280273D01*
X254270147Y-126541426D01*
X254215000Y-126818665D01*
X252005000Y-126818665D01*
X251949853Y-126541426D01*
X251841680Y-126280273D01*
X251684637Y-126045241D01*
X251484759Y-125845363D01*
X251249727Y-125688320D01*
X250988574Y-125580147D01*
X250711335Y-125525000D01*
X250428665Y-125525000D01*
X250151426Y-125580147D01*
X249890273Y-125688320D01*
X249655241Y-125845363D01*
X249455363Y-126045241D01*
X249298320Y-126280273D01*
X249190147Y-126541426D01*
X249135000Y-126818665D01*
X243975000Y-126818665D01*
X243975000Y-126648665D01*
X243919853Y-126371426D01*
X243811680Y-126110273D01*
X243654637Y-125875241D01*
X243454759Y-125675363D01*
X243219727Y-125518320D01*
X242958574Y-125410147D01*
X242681335Y-125355000D01*
X242398665Y-125355000D01*
X242121426Y-125410147D01*
X241860273Y-125518320D01*
X241625241Y-125675363D01*
X241425363Y-125875241D01*
X241268320Y-126110273D01*
X241160147Y-126371426D01*
X241105000Y-126648665D01*
X239465000Y-126648665D01*
X239465000Y-126558665D01*
X239409853Y-126281426D01*
X239301680Y-126020273D01*
X239144637Y-125785241D01*
X238944759Y-125585363D01*
X238709727Y-125428320D01*
X238448574Y-125320147D01*
X238171335Y-125265000D01*
X237888665Y-125265000D01*
X237611426Y-125320147D01*
X237350273Y-125428320D01*
X237115241Y-125585363D01*
X236915363Y-125785241D01*
X236758320Y-126020273D01*
X236650147Y-126281426D01*
X236595000Y-126558665D01*
X229317000Y-126558665D01*
X229317000Y-124280000D01*
X244809388Y-124280000D01*
X244831785Y-124507400D01*
X244898115Y-124726060D01*
X244999105Y-124915000D01*
X244898115Y-125103940D01*
X244831785Y-125322600D01*
X244809388Y-125550000D01*
X244831785Y-125777400D01*
X244898115Y-125996060D01*
X245005829Y-126197579D01*
X245150788Y-126374212D01*
X245327421Y-126519171D01*
X245528940Y-126626885D01*
X245747600Y-126693215D01*
X245918021Y-126710000D01*
X246481979Y-126710000D01*
X246652400Y-126693215D01*
X246871060Y-126626885D01*
X247072579Y-126519171D01*
X247249212Y-126374212D01*
X247394171Y-126197579D01*
X247501885Y-125996060D01*
X247568215Y-125777400D01*
X247590612Y-125550000D01*
X247568215Y-125322600D01*
X247501885Y-125103940D01*
X247400895Y-124915000D01*
X247501885Y-124726060D01*
X247568215Y-124507400D01*
X247590612Y-124280000D01*
X247568215Y-124052600D01*
X247504907Y-123843902D01*
X247539502Y-123779180D01*
X247575812Y-123659482D01*
X247577369Y-123643665D01*
X249135000Y-123643665D01*
X249135000Y-123926335D01*
X249190147Y-124203574D01*
X249298320Y-124464727D01*
X249455363Y-124699759D01*
X249655241Y-124899637D01*
X249890273Y-125056680D01*
X250151426Y-125164853D01*
X250428665Y-125220000D01*
X250711335Y-125220000D01*
X250988574Y-125164853D01*
X251249727Y-125056680D01*
X251484759Y-124899637D01*
X251684637Y-124699759D01*
X251841680Y-124464727D01*
X251949853Y-124203574D01*
X252005000Y-123926335D01*
X252005000Y-123643665D01*
X254215000Y-123643665D01*
X254215000Y-123926335D01*
X254270147Y-124203574D01*
X254378320Y-124464727D01*
X254535363Y-124699759D01*
X254735241Y-124899637D01*
X254970273Y-125056680D01*
X255231426Y-125164853D01*
X255508665Y-125220000D01*
X255791335Y-125220000D01*
X256068574Y-125164853D01*
X256329727Y-125056680D01*
X256564759Y-124899637D01*
X256764637Y-124699759D01*
X256921680Y-124464727D01*
X257029853Y-124203574D01*
X257085000Y-123926335D01*
X257085000Y-123643665D01*
X257029853Y-123366426D01*
X256921680Y-123105273D01*
X256764637Y-122870241D01*
X256564759Y-122670363D01*
X256329727Y-122513320D01*
X256068574Y-122405147D01*
X255791335Y-122350000D01*
X255508665Y-122350000D01*
X255231426Y-122405147D01*
X254970273Y-122513320D01*
X254735241Y-122670363D01*
X254535363Y-122870241D01*
X254378320Y-123105273D01*
X254270147Y-123366426D01*
X254215000Y-123643665D01*
X252005000Y-123643665D01*
X251949853Y-123366426D01*
X251841680Y-123105273D01*
X251684637Y-122870241D01*
X251484759Y-122670363D01*
X251249727Y-122513320D01*
X250988574Y-122405147D01*
X250711335Y-122350000D01*
X250428665Y-122350000D01*
X250151426Y-122405147D01*
X249890273Y-122513320D01*
X249655241Y-122670363D01*
X249455363Y-122870241D01*
X249298320Y-123105273D01*
X249190147Y-123366426D01*
X249135000Y-123643665D01*
X247577369Y-123643665D01*
X247588072Y-123535000D01*
X247588072Y-122485000D01*
X247575812Y-122360518D01*
X247539502Y-122240820D01*
X247480537Y-122130506D01*
X247401185Y-122033815D01*
X247304494Y-121954463D01*
X247194180Y-121895498D01*
X247074482Y-121859188D01*
X246950000Y-121846928D01*
X245450000Y-121846928D01*
X245325518Y-121859188D01*
X245205820Y-121895498D01*
X245095506Y-121954463D01*
X244998815Y-122033815D01*
X244919463Y-122130506D01*
X244860498Y-122240820D01*
X244824188Y-122360518D01*
X244811928Y-122485000D01*
X244811928Y-123535000D01*
X244824188Y-123659482D01*
X244860498Y-123779180D01*
X244895093Y-123843902D01*
X244831785Y-124052600D01*
X244809388Y-124280000D01*
X229317000Y-124280000D01*
X229317000Y-121558665D01*
X236595000Y-121558665D01*
X236595000Y-121841335D01*
X236650147Y-122118574D01*
X236758320Y-122379727D01*
X236915363Y-122614759D01*
X237115241Y-122814637D01*
X237350273Y-122971680D01*
X237611426Y-123079853D01*
X237888665Y-123135000D01*
X238171335Y-123135000D01*
X238448574Y-123079853D01*
X238709727Y-122971680D01*
X238944759Y-122814637D01*
X239144637Y-122614759D01*
X239301680Y-122379727D01*
X239409853Y-122118574D01*
X239465000Y-121841335D01*
X239465000Y-121568665D01*
X241105000Y-121568665D01*
X241105000Y-121851335D01*
X241160147Y-122128574D01*
X241268320Y-122389727D01*
X241425363Y-122624759D01*
X241625241Y-122824637D01*
X241860273Y-122981680D01*
X242121426Y-123089853D01*
X242398665Y-123145000D01*
X242681335Y-123145000D01*
X242958574Y-123089853D01*
X243219727Y-122981680D01*
X243454759Y-122824637D01*
X243654637Y-122624759D01*
X243811680Y-122389727D01*
X243919853Y-122128574D01*
X243975000Y-121851335D01*
X243975000Y-121568665D01*
X243919853Y-121291426D01*
X243811680Y-121030273D01*
X243654637Y-120795241D01*
X243454759Y-120595363D01*
X243219727Y-120438320D01*
X242958574Y-120330147D01*
X242681335Y-120275000D01*
X242398665Y-120275000D01*
X242121426Y-120330147D01*
X241860273Y-120438320D01*
X241625241Y-120595363D01*
X241425363Y-120795241D01*
X241268320Y-121030273D01*
X241160147Y-121291426D01*
X241105000Y-121568665D01*
X239465000Y-121568665D01*
X239465000Y-121558665D01*
X239409853Y-121281426D01*
X239301680Y-121020273D01*
X239144637Y-120785241D01*
X238944759Y-120585363D01*
X238709727Y-120428320D01*
X238448574Y-120320147D01*
X238171335Y-120265000D01*
X237888665Y-120265000D01*
X237611426Y-120320147D01*
X237350273Y-120428320D01*
X237115241Y-120585363D01*
X236915363Y-120785241D01*
X236758320Y-121020273D01*
X236650147Y-121281426D01*
X236595000Y-121558665D01*
X229317000Y-121558665D01*
X229317000Y-116639117D01*
X234275000Y-116639117D01*
X234275000Y-116980883D01*
X234341675Y-117316081D01*
X234472463Y-117631831D01*
X234662337Y-117915998D01*
X234904002Y-118157663D01*
X235188169Y-118347537D01*
X235503919Y-118478325D01*
X235839117Y-118545000D01*
X236180883Y-118545000D01*
X236516081Y-118478325D01*
X236831831Y-118347537D01*
X237115998Y-118157663D01*
X237357663Y-117915998D01*
X237547537Y-117631831D01*
X237661928Y-117355667D01*
X237661928Y-118540000D01*
X237674188Y-118664482D01*
X237710498Y-118784180D01*
X237769463Y-118894494D01*
X237848815Y-118991185D01*
X237945506Y-119070537D01*
X238055820Y-119129502D01*
X238175518Y-119165812D01*
X238300000Y-119178072D01*
X240500000Y-119178072D01*
X240624482Y-119165812D01*
X240744180Y-119129502D01*
X240854494Y-119070537D01*
X240951185Y-118991185D01*
X241026018Y-118900000D01*
X244731928Y-118900000D01*
X244731928Y-120500000D01*
X244744188Y-120624482D01*
X244780498Y-120744180D01*
X244839463Y-120854494D01*
X244918815Y-120951185D01*
X245015506Y-121030537D01*
X245125820Y-121089502D01*
X245245518Y-121125812D01*
X245370000Y-121138072D01*
X246970000Y-121138072D01*
X247094482Y-121125812D01*
X247214180Y-121089502D01*
X247324494Y-121030537D01*
X247421185Y-120951185D01*
X247500537Y-120854494D01*
X247559502Y-120744180D01*
X247595812Y-120624482D01*
X247608072Y-120500000D01*
X247608072Y-120468665D01*
X249135000Y-120468665D01*
X249135000Y-120751335D01*
X249190147Y-121028574D01*
X249298320Y-121289727D01*
X249455363Y-121524759D01*
X249655241Y-121724637D01*
X249890273Y-121881680D01*
X250151426Y-121989853D01*
X250428665Y-122045000D01*
X250711335Y-122045000D01*
X250988574Y-121989853D01*
X251249727Y-121881680D01*
X251484759Y-121724637D01*
X251684637Y-121524759D01*
X251841680Y-121289727D01*
X251949853Y-121028574D01*
X251963684Y-120959039D01*
X254258096Y-120959039D01*
X254298754Y-121093087D01*
X254418963Y-121347420D01*
X254586481Y-121573414D01*
X254794869Y-121762385D01*
X255036119Y-121907070D01*
X255300960Y-122001909D01*
X255523000Y-121880624D01*
X255523000Y-120737000D01*
X255777000Y-120737000D01*
X255777000Y-121880624D01*
X255999040Y-122001909D01*
X256263881Y-121907070D01*
X256505131Y-121762385D01*
X256713519Y-121573414D01*
X256881037Y-121347420D01*
X257001246Y-121093087D01*
X257041904Y-120959039D01*
X256919915Y-120737000D01*
X255777000Y-120737000D01*
X255523000Y-120737000D01*
X254380085Y-120737000D01*
X254258096Y-120959039D01*
X251963684Y-120959039D01*
X252005000Y-120751335D01*
X252005000Y-120468665D01*
X251963685Y-120260961D01*
X254258096Y-120260961D01*
X254380085Y-120483000D01*
X255523000Y-120483000D01*
X255523000Y-119339376D01*
X255777000Y-119339376D01*
X255777000Y-120483000D01*
X256919915Y-120483000D01*
X257041904Y-120260961D01*
X257001246Y-120126913D01*
X256881037Y-119872580D01*
X256713519Y-119646586D01*
X256505131Y-119457615D01*
X256263881Y-119312930D01*
X255999040Y-119218091D01*
X255777000Y-119339376D01*
X255523000Y-119339376D01*
X255300960Y-119218091D01*
X255036119Y-119312930D01*
X254794869Y-119457615D01*
X254586481Y-119646586D01*
X254418963Y-119872580D01*
X254298754Y-120126913D01*
X254258096Y-120260961D01*
X251963685Y-120260961D01*
X251949853Y-120191426D01*
X251841680Y-119930273D01*
X251684637Y-119695241D01*
X251484759Y-119495363D01*
X251249727Y-119338320D01*
X250988574Y-119230147D01*
X250711335Y-119175000D01*
X250428665Y-119175000D01*
X250151426Y-119230147D01*
X249890273Y-119338320D01*
X249655241Y-119495363D01*
X249455363Y-119695241D01*
X249298320Y-119930273D01*
X249190147Y-120191426D01*
X249135000Y-120468665D01*
X247608072Y-120468665D01*
X247608072Y-118900000D01*
X247595812Y-118775518D01*
X247559502Y-118655820D01*
X247500537Y-118545506D01*
X247421185Y-118448815D01*
X247404607Y-118435210D01*
X247441680Y-118379727D01*
X247549853Y-118118574D01*
X247605000Y-117841335D01*
X247605000Y-117558665D01*
X247552288Y-117293665D01*
X249135000Y-117293665D01*
X249135000Y-117576335D01*
X249190147Y-117853574D01*
X249298320Y-118114727D01*
X249455363Y-118349759D01*
X249655241Y-118549637D01*
X249890273Y-118706680D01*
X250151426Y-118814853D01*
X250428665Y-118870000D01*
X250711335Y-118870000D01*
X250988574Y-118814853D01*
X251249727Y-118706680D01*
X251484759Y-118549637D01*
X251684637Y-118349759D01*
X251841680Y-118114727D01*
X251949853Y-117853574D01*
X252005000Y-117576335D01*
X252005000Y-117293665D01*
X254215000Y-117293665D01*
X254215000Y-117576335D01*
X254270147Y-117853574D01*
X254378320Y-118114727D01*
X254535363Y-118349759D01*
X254735241Y-118549637D01*
X254970273Y-118706680D01*
X255231426Y-118814853D01*
X255508665Y-118870000D01*
X255791335Y-118870000D01*
X256068574Y-118814853D01*
X256329727Y-118706680D01*
X256564759Y-118549637D01*
X256764637Y-118349759D01*
X256921680Y-118114727D01*
X257029853Y-117853574D01*
X257085000Y-117576335D01*
X257085000Y-117293665D01*
X257029853Y-117016426D01*
X256921680Y-116755273D01*
X256764637Y-116520241D01*
X256564759Y-116320363D01*
X256329727Y-116163320D01*
X256068574Y-116055147D01*
X255791335Y-116000000D01*
X255508665Y-116000000D01*
X255231426Y-116055147D01*
X254970273Y-116163320D01*
X254735241Y-116320363D01*
X254535363Y-116520241D01*
X254378320Y-116755273D01*
X254270147Y-117016426D01*
X254215000Y-117293665D01*
X252005000Y-117293665D01*
X251949853Y-117016426D01*
X251841680Y-116755273D01*
X251684637Y-116520241D01*
X251484759Y-116320363D01*
X251249727Y-116163320D01*
X250988574Y-116055147D01*
X250711335Y-116000000D01*
X250428665Y-116000000D01*
X250151426Y-116055147D01*
X249890273Y-116163320D01*
X249655241Y-116320363D01*
X249455363Y-116520241D01*
X249298320Y-116755273D01*
X249190147Y-117016426D01*
X249135000Y-117293665D01*
X247552288Y-117293665D01*
X247549853Y-117281426D01*
X247441680Y-117020273D01*
X247284637Y-116785241D01*
X247084759Y-116585363D01*
X246849727Y-116428320D01*
X246588574Y-116320147D01*
X246311335Y-116265000D01*
X246028665Y-116265000D01*
X245751426Y-116320147D01*
X245490273Y-116428320D01*
X245255241Y-116585363D01*
X245055363Y-116785241D01*
X244898320Y-117020273D01*
X244790147Y-117281426D01*
X244735000Y-117558665D01*
X244735000Y-117841335D01*
X244790147Y-118118574D01*
X244898320Y-118379727D01*
X244935393Y-118435210D01*
X244918815Y-118448815D01*
X244839463Y-118545506D01*
X244780498Y-118655820D01*
X244744188Y-118775518D01*
X244731928Y-118900000D01*
X241026018Y-118900000D01*
X241030537Y-118894494D01*
X241089502Y-118784180D01*
X241125812Y-118664482D01*
X241138072Y-118540000D01*
X241138072Y-116340000D01*
X241125812Y-116215518D01*
X241089502Y-116095820D01*
X241030537Y-115985506D01*
X240951185Y-115888815D01*
X240854494Y-115809463D01*
X240744180Y-115750498D01*
X240624482Y-115714188D01*
X240500000Y-115701928D01*
X238300000Y-115701928D01*
X238175518Y-115714188D01*
X238055820Y-115750498D01*
X237945506Y-115809463D01*
X237848815Y-115888815D01*
X237769463Y-115985506D01*
X237710498Y-116095820D01*
X237674188Y-116215518D01*
X237667949Y-116278868D01*
X237547537Y-115988169D01*
X237357663Y-115704002D01*
X237115998Y-115462337D01*
X236831831Y-115272463D01*
X236516081Y-115141675D01*
X236180883Y-115075000D01*
X235839117Y-115075000D01*
X235503919Y-115141675D01*
X235188169Y-115272463D01*
X234904002Y-115462337D01*
X234662337Y-115704002D01*
X234472463Y-115988169D01*
X234341675Y-116303919D01*
X234275000Y-116639117D01*
X229317000Y-116639117D01*
X229317000Y-105999999D01*
X230801928Y-105999999D01*
X230801928Y-107600001D01*
X230818992Y-107773255D01*
X230869528Y-107939851D01*
X230951595Y-108093387D01*
X231062038Y-108227962D01*
X231196613Y-108338405D01*
X231316849Y-108402673D01*
X231206613Y-108461595D01*
X231072038Y-108572038D01*
X230961595Y-108706613D01*
X230879528Y-108860149D01*
X230828992Y-109026745D01*
X230811928Y-109199999D01*
X230811928Y-110800001D01*
X230828992Y-110973255D01*
X230879528Y-111139851D01*
X230961595Y-111293387D01*
X231072038Y-111427962D01*
X231206613Y-111538405D01*
X231360149Y-111620472D01*
X231526745Y-111671008D01*
X231699999Y-111688072D01*
X233300001Y-111688072D01*
X233473255Y-111671008D01*
X233639851Y-111620472D01*
X233793387Y-111538405D01*
X233927962Y-111427962D01*
X234038405Y-111293387D01*
X234120472Y-111139851D01*
X234171008Y-110973255D01*
X234172444Y-110958665D01*
X241685000Y-110958665D01*
X241685000Y-111241335D01*
X241740147Y-111518574D01*
X241848320Y-111779727D01*
X242005363Y-112014759D01*
X242205241Y-112214637D01*
X242407827Y-112350000D01*
X242205241Y-112485363D01*
X242005363Y-112685241D01*
X241848320Y-112920273D01*
X241740147Y-113181426D01*
X241685000Y-113458665D01*
X241685000Y-113741335D01*
X241740147Y-114018574D01*
X241848320Y-114279727D01*
X242005363Y-114514759D01*
X242205241Y-114714637D01*
X242440273Y-114871680D01*
X242701426Y-114979853D01*
X242978665Y-115035000D01*
X243261335Y-115035000D01*
X243538574Y-114979853D01*
X243799727Y-114871680D01*
X244034759Y-114714637D01*
X244110357Y-114639039D01*
X244948096Y-114639039D01*
X244988754Y-114773087D01*
X245108963Y-115027420D01*
X245276481Y-115253414D01*
X245484869Y-115442385D01*
X245726119Y-115587070D01*
X245990960Y-115681909D01*
X246213000Y-115560624D01*
X246213000Y-114417000D01*
X246467000Y-114417000D01*
X246467000Y-115560624D01*
X246689040Y-115681909D01*
X246953881Y-115587070D01*
X247195131Y-115442385D01*
X247403519Y-115253414D01*
X247571037Y-115027420D01*
X247691246Y-114773087D01*
X247731904Y-114639039D01*
X247609915Y-114417000D01*
X246467000Y-114417000D01*
X246213000Y-114417000D01*
X245070085Y-114417000D01*
X244948096Y-114639039D01*
X244110357Y-114639039D01*
X244234637Y-114514759D01*
X244391680Y-114279727D01*
X244499853Y-114018574D01*
X244555000Y-113741335D01*
X244555000Y-113458665D01*
X244499853Y-113181426D01*
X244391680Y-112920273D01*
X244234637Y-112685241D01*
X244034759Y-112485363D01*
X243832173Y-112350000D01*
X244034759Y-112214637D01*
X244234637Y-112014759D01*
X244391680Y-111779727D01*
X244499853Y-111518574D01*
X244555000Y-111241335D01*
X244555000Y-110958665D01*
X244499853Y-110681426D01*
X244391680Y-110420273D01*
X244234637Y-110185241D01*
X244034759Y-109985363D01*
X243799727Y-109828320D01*
X243538574Y-109720147D01*
X243261335Y-109665000D01*
X242978665Y-109665000D01*
X242701426Y-109720147D01*
X242440273Y-109828320D01*
X242205241Y-109985363D01*
X242005363Y-110185241D01*
X241848320Y-110420273D01*
X241740147Y-110681426D01*
X241685000Y-110958665D01*
X234172444Y-110958665D01*
X234188072Y-110800001D01*
X234188072Y-109199999D01*
X234171008Y-109026745D01*
X234120472Y-108860149D01*
X234038405Y-108706613D01*
X233927962Y-108572038D01*
X233793387Y-108461595D01*
X233673151Y-108397327D01*
X233783387Y-108338405D01*
X233917962Y-108227962D01*
X234028405Y-108093387D01*
X234110472Y-107939851D01*
X234161008Y-107773255D01*
X234178072Y-107600001D01*
X234178072Y-105999999D01*
X234161008Y-105826745D01*
X234110472Y-105660149D01*
X234051596Y-105550000D01*
X234271928Y-105550000D01*
X234271928Y-107750000D01*
X234284188Y-107874482D01*
X234320498Y-107994180D01*
X234379463Y-108104494D01*
X234458815Y-108201185D01*
X234555506Y-108280537D01*
X234665820Y-108339502D01*
X234785518Y-108375812D01*
X234910000Y-108388072D01*
X237110000Y-108388072D01*
X237234482Y-108375812D01*
X237354180Y-108339502D01*
X237464494Y-108280537D01*
X237561185Y-108201185D01*
X237640537Y-108104494D01*
X237699502Y-107994180D01*
X237735812Y-107874482D01*
X237742051Y-107811132D01*
X237862463Y-108101831D01*
X238052337Y-108385998D01*
X238294002Y-108627663D01*
X238578169Y-108817537D01*
X238893919Y-108948325D01*
X239229117Y-109015000D01*
X239570883Y-109015000D01*
X239906081Y-108948325D01*
X240221831Y-108817537D01*
X240505998Y-108627663D01*
X240747663Y-108385998D01*
X240937537Y-108101831D01*
X241068325Y-107786081D01*
X241135000Y-107450883D01*
X241135000Y-107109117D01*
X241068325Y-106773919D01*
X240937537Y-106458169D01*
X240747663Y-106174002D01*
X240505998Y-105932337D01*
X240221831Y-105742463D01*
X239921525Y-105618072D01*
X240330001Y-105618072D01*
X240503255Y-105601008D01*
X240669851Y-105550472D01*
X240823387Y-105468405D01*
X240957962Y-105357962D01*
X241068405Y-105223387D01*
X241150472Y-105069851D01*
X241201008Y-104903255D01*
X241218072Y-104730001D01*
X241218072Y-103129999D01*
X241201008Y-102956745D01*
X241180761Y-102889999D01*
X241291928Y-102889999D01*
X241291928Y-104490001D01*
X241308992Y-104663255D01*
X241359528Y-104829851D01*
X241441595Y-104983387D01*
X241552038Y-105117962D01*
X241686613Y-105228405D01*
X241840149Y-105310472D01*
X242006745Y-105361008D01*
X242039156Y-105364200D01*
X242006613Y-105381595D01*
X241872038Y-105492038D01*
X241761595Y-105626613D01*
X241679528Y-105780149D01*
X241628992Y-105946745D01*
X241611928Y-106119999D01*
X241611928Y-107720001D01*
X241628992Y-107893255D01*
X241679528Y-108059851D01*
X241761595Y-108213387D01*
X241872038Y-108347962D01*
X242006613Y-108458405D01*
X242160149Y-108540472D01*
X242326745Y-108591008D01*
X242499999Y-108608072D01*
X244100001Y-108608072D01*
X244273255Y-108591008D01*
X244439851Y-108540472D01*
X244593387Y-108458405D01*
X244727962Y-108347962D01*
X244838405Y-108213387D01*
X244920472Y-108059851D01*
X244971008Y-107893255D01*
X244982710Y-107774443D01*
X245009463Y-107824494D01*
X245088815Y-107921185D01*
X245185506Y-108000537D01*
X245295820Y-108059502D01*
X245415518Y-108095812D01*
X245423961Y-108096643D01*
X245225363Y-108295241D01*
X245068320Y-108530273D01*
X244960147Y-108791426D01*
X244905000Y-109068665D01*
X244905000Y-109351335D01*
X244960147Y-109628574D01*
X245068320Y-109889727D01*
X245225363Y-110124759D01*
X245425241Y-110324637D01*
X245657759Y-110480000D01*
X245425241Y-110635363D01*
X245225363Y-110835241D01*
X245068320Y-111070273D01*
X244960147Y-111331426D01*
X244905000Y-111608665D01*
X244905000Y-111891335D01*
X244960147Y-112168574D01*
X245068320Y-112429727D01*
X245225363Y-112664759D01*
X245425241Y-112864637D01*
X245660273Y-113021680D01*
X245670865Y-113026067D01*
X245484869Y-113137615D01*
X245276481Y-113326586D01*
X245108963Y-113552580D01*
X244988754Y-113806913D01*
X244948096Y-113940961D01*
X245070085Y-114163000D01*
X246213000Y-114163000D01*
X246213000Y-114143000D01*
X246467000Y-114143000D01*
X246467000Y-114163000D01*
X247609915Y-114163000D01*
X247731904Y-113940961D01*
X247691246Y-113806913D01*
X247571037Y-113552580D01*
X247403519Y-113326586D01*
X247195131Y-113137615D01*
X247009135Y-113026067D01*
X247019727Y-113021680D01*
X247254759Y-112864637D01*
X247454637Y-112664759D01*
X247611680Y-112429727D01*
X247719853Y-112168574D01*
X247775000Y-111891335D01*
X247775000Y-111608665D01*
X247719853Y-111331426D01*
X247611680Y-111070273D01*
X247454637Y-110835241D01*
X247254759Y-110635363D01*
X247022241Y-110480000D01*
X247254759Y-110324637D01*
X247454637Y-110124759D01*
X247611680Y-109889727D01*
X247719853Y-109628574D01*
X247775000Y-109351335D01*
X247775000Y-109068665D01*
X247719853Y-108791426D01*
X247611680Y-108530273D01*
X247454637Y-108295241D01*
X247256039Y-108096643D01*
X247264482Y-108095812D01*
X247384180Y-108059502D01*
X247494494Y-108000537D01*
X247591185Y-107921185D01*
X247670537Y-107824494D01*
X247729502Y-107714180D01*
X247765812Y-107594482D01*
X247778072Y-107470000D01*
X247778072Y-106528665D01*
X252525000Y-106528665D01*
X252525000Y-106811335D01*
X252580147Y-107088574D01*
X252688320Y-107349727D01*
X252845363Y-107584759D01*
X253045241Y-107784637D01*
X253277759Y-107940000D01*
X253045241Y-108095363D01*
X252845363Y-108295241D01*
X252688320Y-108530273D01*
X252580147Y-108791426D01*
X252525000Y-109068665D01*
X252525000Y-109351335D01*
X252580147Y-109628574D01*
X252688320Y-109889727D01*
X252845363Y-110124759D01*
X253045241Y-110324637D01*
X253277759Y-110480000D01*
X253045241Y-110635363D01*
X252845363Y-110835241D01*
X252688320Y-111070273D01*
X252580147Y-111331426D01*
X252525000Y-111608665D01*
X252525000Y-111891335D01*
X252580147Y-112168574D01*
X252688320Y-112429727D01*
X252845363Y-112664759D01*
X253045241Y-112864637D01*
X253277759Y-113020000D01*
X253045241Y-113175363D01*
X252845363Y-113375241D01*
X252688320Y-113610273D01*
X252580147Y-113871426D01*
X252525000Y-114148665D01*
X252525000Y-114431335D01*
X252580147Y-114708574D01*
X252688320Y-114969727D01*
X252845363Y-115204759D01*
X253045241Y-115404637D01*
X253280273Y-115561680D01*
X253541426Y-115669853D01*
X253818665Y-115725000D01*
X254101335Y-115725000D01*
X254378574Y-115669853D01*
X254639727Y-115561680D01*
X254874759Y-115404637D01*
X255070731Y-115208665D01*
X259285000Y-115208665D01*
X259285000Y-115491335D01*
X259340147Y-115768574D01*
X259448320Y-116029727D01*
X259605363Y-116264759D01*
X259805241Y-116464637D01*
X260040273Y-116621680D01*
X260301426Y-116729853D01*
X260578665Y-116785000D01*
X260861335Y-116785000D01*
X261138574Y-116729853D01*
X261399727Y-116621680D01*
X261634759Y-116464637D01*
X261834637Y-116264759D01*
X261991680Y-116029727D01*
X262099853Y-115768574D01*
X262155000Y-115491335D01*
X262155000Y-115208665D01*
X262099853Y-114931426D01*
X261991680Y-114670273D01*
X261834637Y-114435241D01*
X261634759Y-114235363D01*
X261399727Y-114078320D01*
X261266859Y-114023284D01*
X261439727Y-113951680D01*
X261674759Y-113794637D01*
X261874637Y-113594759D01*
X262031680Y-113359727D01*
X262139853Y-113098574D01*
X262153684Y-113029039D01*
X264448096Y-113029039D01*
X264488754Y-113163087D01*
X264608963Y-113417420D01*
X264776481Y-113643414D01*
X264984869Y-113832385D01*
X265226119Y-113977070D01*
X265490960Y-114071909D01*
X265713000Y-113950624D01*
X265713000Y-112807000D01*
X264570085Y-112807000D01*
X264448096Y-113029039D01*
X262153684Y-113029039D01*
X262195000Y-112821335D01*
X262195000Y-112538665D01*
X262153685Y-112330961D01*
X264448096Y-112330961D01*
X264570085Y-112553000D01*
X265713000Y-112553000D01*
X265713000Y-111409376D01*
X265490960Y-111288091D01*
X265226119Y-111382930D01*
X264984869Y-111527615D01*
X264776481Y-111716586D01*
X264608963Y-111942580D01*
X264488754Y-112196913D01*
X264448096Y-112330961D01*
X262153685Y-112330961D01*
X262139853Y-112261426D01*
X262031680Y-112000273D01*
X261874637Y-111765241D01*
X261674759Y-111565363D01*
X261439727Y-111408320D01*
X261178574Y-111300147D01*
X260901335Y-111245000D01*
X260618665Y-111245000D01*
X260341426Y-111300147D01*
X260080273Y-111408320D01*
X259845241Y-111565363D01*
X259645363Y-111765241D01*
X259488320Y-112000273D01*
X259380147Y-112261426D01*
X259325000Y-112538665D01*
X259325000Y-112821335D01*
X259380147Y-113098574D01*
X259488320Y-113359727D01*
X259645363Y-113594759D01*
X259845241Y-113794637D01*
X260080273Y-113951680D01*
X260213141Y-114006716D01*
X260040273Y-114078320D01*
X259805241Y-114235363D01*
X259605363Y-114435241D01*
X259448320Y-114670273D01*
X259340147Y-114931426D01*
X259285000Y-115208665D01*
X255070731Y-115208665D01*
X255074637Y-115204759D01*
X255231680Y-114969727D01*
X255339853Y-114708574D01*
X255395000Y-114431335D01*
X255395000Y-114148665D01*
X255339853Y-113871426D01*
X255231680Y-113610273D01*
X255074637Y-113375241D01*
X254874759Y-113175363D01*
X254642241Y-113020000D01*
X254874759Y-112864637D01*
X255074637Y-112664759D01*
X255231680Y-112429727D01*
X255339853Y-112168574D01*
X255395000Y-111891335D01*
X255395000Y-111849999D01*
X255661928Y-111849999D01*
X255661928Y-113450001D01*
X255678992Y-113623255D01*
X255729528Y-113789851D01*
X255811595Y-113943387D01*
X255922038Y-114077962D01*
X256056613Y-114188405D01*
X256210149Y-114270472D01*
X256376745Y-114321008D01*
X256549999Y-114338072D01*
X258150001Y-114338072D01*
X258323255Y-114321008D01*
X258489851Y-114270472D01*
X258643387Y-114188405D01*
X258777962Y-114077962D01*
X258888405Y-113943387D01*
X258970472Y-113789851D01*
X259021008Y-113623255D01*
X259038072Y-113450001D01*
X259038072Y-111849999D01*
X259021008Y-111676745D01*
X258970472Y-111510149D01*
X258888405Y-111356613D01*
X258777962Y-111222038D01*
X258643387Y-111111595D01*
X258489851Y-111029528D01*
X258323255Y-110978992D01*
X258150001Y-110961928D01*
X256549999Y-110961928D01*
X256376745Y-110978992D01*
X256210149Y-111029528D01*
X256056613Y-111111595D01*
X255922038Y-111222038D01*
X255811595Y-111356613D01*
X255729528Y-111510149D01*
X255678992Y-111676745D01*
X255661928Y-111849999D01*
X255395000Y-111849999D01*
X255395000Y-111608665D01*
X255339853Y-111331426D01*
X255231680Y-111070273D01*
X255074637Y-110835241D01*
X254874759Y-110635363D01*
X254642241Y-110480000D01*
X254874759Y-110324637D01*
X255074637Y-110124759D01*
X255224544Y-109900407D01*
X255230147Y-109928574D01*
X255338320Y-110189727D01*
X255495363Y-110424759D01*
X255695241Y-110624637D01*
X255930273Y-110781680D01*
X256191426Y-110889853D01*
X256468665Y-110945000D01*
X256751335Y-110945000D01*
X257028574Y-110889853D01*
X257289727Y-110781680D01*
X257524759Y-110624637D01*
X257724637Y-110424759D01*
X257881680Y-110189727D01*
X257989853Y-109928574D01*
X258045000Y-109651335D01*
X258045000Y-109368665D01*
X260255000Y-109368665D01*
X260255000Y-109651335D01*
X260310147Y-109928574D01*
X260418320Y-110189727D01*
X260575363Y-110424759D01*
X260775241Y-110624637D01*
X261010273Y-110781680D01*
X261271426Y-110889853D01*
X261548665Y-110945000D01*
X261831335Y-110945000D01*
X262108574Y-110889853D01*
X262369727Y-110781680D01*
X262604759Y-110624637D01*
X262804637Y-110424759D01*
X262961680Y-110189727D01*
X263069853Y-109928574D01*
X263125000Y-109651335D01*
X263125000Y-109368665D01*
X263069853Y-109091426D01*
X262961680Y-108830273D01*
X262804637Y-108595241D01*
X262604759Y-108395363D01*
X262369727Y-108238320D01*
X262108574Y-108130147D01*
X261831335Y-108075000D01*
X261548665Y-108075000D01*
X261271426Y-108130147D01*
X261010273Y-108238320D01*
X260775241Y-108395363D01*
X260575363Y-108595241D01*
X260418320Y-108830273D01*
X260310147Y-109091426D01*
X260255000Y-109368665D01*
X258045000Y-109368665D01*
X257989853Y-109091426D01*
X257881680Y-108830273D01*
X257724637Y-108595241D01*
X257524759Y-108395363D01*
X257289727Y-108238320D01*
X257028574Y-108130147D01*
X256751335Y-108075000D01*
X256468665Y-108075000D01*
X256191426Y-108130147D01*
X255930273Y-108238320D01*
X255695241Y-108395363D01*
X255495363Y-108595241D01*
X255345456Y-108819593D01*
X255339853Y-108791426D01*
X255231680Y-108530273D01*
X255074637Y-108295241D01*
X254874759Y-108095363D01*
X254642241Y-107940000D01*
X254874759Y-107784637D01*
X255074637Y-107584759D01*
X255231680Y-107349727D01*
X255339853Y-107088574D01*
X255395000Y-106811335D01*
X255395000Y-106528665D01*
X255339853Y-106251426D01*
X255231680Y-105990273D01*
X255074637Y-105755241D01*
X254874759Y-105555363D01*
X254639727Y-105398320D01*
X254426502Y-105309999D01*
X258071928Y-105309999D01*
X258071928Y-106910001D01*
X258088992Y-107083255D01*
X258139528Y-107249851D01*
X258221595Y-107403387D01*
X258332038Y-107537962D01*
X258466613Y-107648405D01*
X258620149Y-107730472D01*
X258786745Y-107781008D01*
X258959999Y-107798072D01*
X260560001Y-107798072D01*
X260733255Y-107781008D01*
X260899851Y-107730472D01*
X261053387Y-107648405D01*
X261187962Y-107537962D01*
X261298405Y-107403387D01*
X261380472Y-107249851D01*
X261431008Y-107083255D01*
X261448072Y-106910001D01*
X261448072Y-105309999D01*
X261431008Y-105136745D01*
X261380472Y-104970149D01*
X261298405Y-104816613D01*
X261187962Y-104682038D01*
X261053387Y-104571595D01*
X260899851Y-104489528D01*
X260733255Y-104438992D01*
X260560001Y-104421928D01*
X258959999Y-104421928D01*
X258786745Y-104438992D01*
X258620149Y-104489528D01*
X258466613Y-104571595D01*
X258332038Y-104682038D01*
X258221595Y-104816613D01*
X258139528Y-104970149D01*
X258088992Y-105136745D01*
X258071928Y-105309999D01*
X254426502Y-105309999D01*
X254378574Y-105290147D01*
X254101335Y-105235000D01*
X253818665Y-105235000D01*
X253541426Y-105290147D01*
X253280273Y-105398320D01*
X253045241Y-105555363D01*
X252845363Y-105755241D01*
X252688320Y-105990273D01*
X252580147Y-106251426D01*
X252525000Y-106528665D01*
X247778072Y-106528665D01*
X247778072Y-105870000D01*
X247765812Y-105745518D01*
X247729502Y-105625820D01*
X247670537Y-105515506D01*
X247591185Y-105418815D01*
X247494494Y-105339463D01*
X247384180Y-105280498D01*
X247264482Y-105244188D01*
X247140000Y-105231928D01*
X245540000Y-105231928D01*
X245415518Y-105244188D01*
X245295820Y-105280498D01*
X245185506Y-105339463D01*
X245088815Y-105418815D01*
X245009463Y-105515506D01*
X244950498Y-105625820D01*
X244914188Y-105745518D01*
X244912286Y-105764833D01*
X244838405Y-105626613D01*
X244727962Y-105492038D01*
X244593387Y-105381595D01*
X244439851Y-105299528D01*
X244273255Y-105248992D01*
X244240844Y-105245800D01*
X244273387Y-105228405D01*
X244407962Y-105117962D01*
X244518405Y-104983387D01*
X244600472Y-104829851D01*
X244651008Y-104663255D01*
X244668072Y-104490001D01*
X244668072Y-103363665D01*
X244945000Y-103363665D01*
X244945000Y-103646335D01*
X245000147Y-103923574D01*
X245108320Y-104184727D01*
X245265363Y-104419759D01*
X245465241Y-104619637D01*
X245700273Y-104776680D01*
X245961426Y-104884853D01*
X246238665Y-104940000D01*
X246521335Y-104940000D01*
X246798574Y-104884853D01*
X247059727Y-104776680D01*
X247294759Y-104619637D01*
X247494637Y-104419759D01*
X247651680Y-104184727D01*
X247759853Y-103923574D01*
X247815000Y-103646335D01*
X247815000Y-103363665D01*
X250025000Y-103363665D01*
X250025000Y-103646335D01*
X250080147Y-103923574D01*
X250188320Y-104184727D01*
X250345363Y-104419759D01*
X250545241Y-104619637D01*
X250780273Y-104776680D01*
X251041426Y-104884853D01*
X251318665Y-104940000D01*
X251601335Y-104940000D01*
X251878574Y-104884853D01*
X252139727Y-104776680D01*
X252374759Y-104619637D01*
X252574637Y-104419759D01*
X252731680Y-104184727D01*
X252839853Y-103923574D01*
X252895000Y-103646335D01*
X252895000Y-103363665D01*
X252839853Y-103086426D01*
X252795217Y-102978665D01*
X255105000Y-102978665D01*
X255105000Y-103261335D01*
X255160147Y-103538574D01*
X255268320Y-103799727D01*
X255425363Y-104034759D01*
X255625241Y-104234637D01*
X255860273Y-104391680D01*
X256121426Y-104499853D01*
X256398665Y-104555000D01*
X256681335Y-104555000D01*
X256958574Y-104499853D01*
X257219727Y-104391680D01*
X257454759Y-104234637D01*
X257654637Y-104034759D01*
X257811680Y-103799727D01*
X257919853Y-103538574D01*
X257975000Y-103261335D01*
X257975000Y-102978665D01*
X257969299Y-102950000D01*
X261851928Y-102950000D01*
X261851928Y-104550000D01*
X261864188Y-104674482D01*
X261900498Y-104794180D01*
X261959463Y-104904494D01*
X262038815Y-105001185D01*
X262135506Y-105080537D01*
X262245820Y-105139502D01*
X262365518Y-105175812D01*
X262490000Y-105188072D01*
X264090000Y-105188072D01*
X264214482Y-105175812D01*
X264334180Y-105139502D01*
X264444494Y-105080537D01*
X264541185Y-105001185D01*
X264554790Y-104984607D01*
X264610273Y-105021680D01*
X264871426Y-105129853D01*
X265148665Y-105185000D01*
X265431335Y-105185000D01*
X265708574Y-105129853D01*
X265969727Y-105021680D01*
X266204759Y-104864637D01*
X266404637Y-104664759D01*
X266561680Y-104429727D01*
X266669853Y-104168574D01*
X266725000Y-103891335D01*
X266725000Y-103608665D01*
X266669853Y-103331426D01*
X266561680Y-103070273D01*
X266404637Y-102835241D01*
X266204759Y-102635363D01*
X265969727Y-102478320D01*
X265708574Y-102370147D01*
X265431335Y-102315000D01*
X265148665Y-102315000D01*
X264871426Y-102370147D01*
X264610273Y-102478320D01*
X264554790Y-102515393D01*
X264541185Y-102498815D01*
X264444494Y-102419463D01*
X264334180Y-102360498D01*
X264214482Y-102324188D01*
X264090000Y-102311928D01*
X262490000Y-102311928D01*
X262365518Y-102324188D01*
X262245820Y-102360498D01*
X262135506Y-102419463D01*
X262038815Y-102498815D01*
X261959463Y-102595506D01*
X261900498Y-102705820D01*
X261864188Y-102825518D01*
X261851928Y-102950000D01*
X257969299Y-102950000D01*
X257919853Y-102701426D01*
X257811680Y-102440273D01*
X257654637Y-102205241D01*
X257454759Y-102005363D01*
X257219727Y-101848320D01*
X256958574Y-101740147D01*
X256681335Y-101685000D01*
X256398665Y-101685000D01*
X256121426Y-101740147D01*
X255860273Y-101848320D01*
X255625241Y-102005363D01*
X255425363Y-102205241D01*
X255268320Y-102440273D01*
X255160147Y-102701426D01*
X255105000Y-102978665D01*
X252795217Y-102978665D01*
X252731680Y-102825273D01*
X252574637Y-102590241D01*
X252374759Y-102390363D01*
X252139727Y-102233320D01*
X251878574Y-102125147D01*
X251601335Y-102070000D01*
X251318665Y-102070000D01*
X251041426Y-102125147D01*
X250780273Y-102233320D01*
X250545241Y-102390363D01*
X250345363Y-102590241D01*
X250188320Y-102825273D01*
X250080147Y-103086426D01*
X250025000Y-103363665D01*
X247815000Y-103363665D01*
X247759853Y-103086426D01*
X247651680Y-102825273D01*
X247494637Y-102590241D01*
X247294759Y-102390363D01*
X247059727Y-102233320D01*
X246798574Y-102125147D01*
X246521335Y-102070000D01*
X246238665Y-102070000D01*
X245961426Y-102125147D01*
X245700273Y-102233320D01*
X245465241Y-102390363D01*
X245265363Y-102590241D01*
X245108320Y-102825273D01*
X245000147Y-103086426D01*
X244945000Y-103363665D01*
X244668072Y-103363665D01*
X244668072Y-102889999D01*
X244651008Y-102716745D01*
X244600472Y-102550149D01*
X244518405Y-102396613D01*
X244407962Y-102262038D01*
X244273387Y-102151595D01*
X244119851Y-102069528D01*
X243953255Y-102018992D01*
X243780001Y-102001928D01*
X242179999Y-102001928D01*
X242006745Y-102018992D01*
X241840149Y-102069528D01*
X241686613Y-102151595D01*
X241552038Y-102262038D01*
X241441595Y-102396613D01*
X241359528Y-102550149D01*
X241308992Y-102716745D01*
X241291928Y-102889999D01*
X241180761Y-102889999D01*
X241150472Y-102790149D01*
X241068405Y-102636613D01*
X240957962Y-102502038D01*
X240823387Y-102391595D01*
X240669851Y-102309528D01*
X240503255Y-102258992D01*
X240330001Y-102241928D01*
X238729999Y-102241928D01*
X238556745Y-102258992D01*
X238390149Y-102309528D01*
X238236613Y-102391595D01*
X238102038Y-102502038D01*
X237991595Y-102636613D01*
X237923660Y-102763711D01*
X237904637Y-102735241D01*
X237704759Y-102535363D01*
X237469727Y-102378320D01*
X237208574Y-102270147D01*
X236931335Y-102215000D01*
X236648665Y-102215000D01*
X236371426Y-102270147D01*
X236110273Y-102378320D01*
X235875241Y-102535363D01*
X235675363Y-102735241D01*
X235518320Y-102970273D01*
X235410147Y-103231426D01*
X235355000Y-103508665D01*
X235355000Y-103791335D01*
X235410147Y-104068574D01*
X235518320Y-104329727D01*
X235675363Y-104564759D01*
X235875241Y-104764637D01*
X236095678Y-104911928D01*
X234910000Y-104911928D01*
X234785518Y-104924188D01*
X234665820Y-104960498D01*
X234555506Y-105019463D01*
X234458815Y-105098815D01*
X234379463Y-105195506D01*
X234320498Y-105305820D01*
X234284188Y-105425518D01*
X234271928Y-105550000D01*
X234051596Y-105550000D01*
X234028405Y-105506613D01*
X233917962Y-105372038D01*
X233783387Y-105261595D01*
X233629851Y-105179528D01*
X233463255Y-105128992D01*
X233290001Y-105111928D01*
X231689999Y-105111928D01*
X231516745Y-105128992D01*
X231350149Y-105179528D01*
X231196613Y-105261595D01*
X231062038Y-105372038D01*
X230951595Y-105506613D01*
X230869528Y-105660149D01*
X230818992Y-105826745D01*
X230801928Y-105999999D01*
X229317000Y-105999999D01*
X229317000Y-103508665D01*
X230275000Y-103508665D01*
X230275000Y-103791335D01*
X230330147Y-104068574D01*
X230438320Y-104329727D01*
X230595363Y-104564759D01*
X230795241Y-104764637D01*
X231030273Y-104921680D01*
X231291426Y-105029853D01*
X231568665Y-105085000D01*
X231851335Y-105085000D01*
X232128574Y-105029853D01*
X232389727Y-104921680D01*
X232624759Y-104764637D01*
X232824637Y-104564759D01*
X232981680Y-104329727D01*
X233089853Y-104068574D01*
X233145000Y-103791335D01*
X233145000Y-103508665D01*
X233089853Y-103231426D01*
X232981680Y-102970273D01*
X232824637Y-102735241D01*
X232624759Y-102535363D01*
X232389727Y-102378320D01*
X232128574Y-102270147D01*
X231851335Y-102215000D01*
X231568665Y-102215000D01*
X231291426Y-102270147D01*
X231030273Y-102378320D01*
X230795241Y-102535363D01*
X230595363Y-102735241D01*
X230438320Y-102970273D01*
X230330147Y-103231426D01*
X230275000Y-103508665D01*
X229317000Y-103508665D01*
X229317000Y-99018665D01*
X231745000Y-99018665D01*
X231745000Y-99301335D01*
X231800147Y-99578574D01*
X231908320Y-99839727D01*
X232065363Y-100074759D01*
X232265241Y-100274637D01*
X232500273Y-100431680D01*
X232761426Y-100539853D01*
X233038665Y-100595000D01*
X233321335Y-100595000D01*
X233598574Y-100539853D01*
X233859727Y-100431680D01*
X233915210Y-100394607D01*
X233928815Y-100411185D01*
X234025506Y-100490537D01*
X234135820Y-100549502D01*
X234255518Y-100585812D01*
X234380000Y-100598072D01*
X235980000Y-100598072D01*
X236104482Y-100585812D01*
X236224180Y-100549502D01*
X236334494Y-100490537D01*
X236431185Y-100411185D01*
X236482493Y-100348665D01*
X236725000Y-100348665D01*
X236725000Y-100631335D01*
X236780147Y-100908574D01*
X236888320Y-101169727D01*
X237045363Y-101404759D01*
X237245241Y-101604637D01*
X237480273Y-101761680D01*
X237741426Y-101869853D01*
X238018665Y-101925000D01*
X238301335Y-101925000D01*
X238578574Y-101869853D01*
X238839727Y-101761680D01*
X239074759Y-101604637D01*
X239274637Y-101404759D01*
X239431680Y-101169727D01*
X239539853Y-100908574D01*
X239595000Y-100631335D01*
X239595000Y-100348665D01*
X241805000Y-100348665D01*
X241805000Y-100631335D01*
X241860147Y-100908574D01*
X241968320Y-101169727D01*
X242125363Y-101404759D01*
X242325241Y-101604637D01*
X242560273Y-101761680D01*
X242821426Y-101869853D01*
X243098665Y-101925000D01*
X243381335Y-101925000D01*
X243658574Y-101869853D01*
X243919727Y-101761680D01*
X244154759Y-101604637D01*
X244354637Y-101404759D01*
X244511680Y-101169727D01*
X244619853Y-100908574D01*
X244675000Y-100631335D01*
X244675000Y-100348665D01*
X244643174Y-100188665D01*
X244945000Y-100188665D01*
X244945000Y-100471335D01*
X245000147Y-100748574D01*
X245108320Y-101009727D01*
X245265363Y-101244759D01*
X245465241Y-101444637D01*
X245700273Y-101601680D01*
X245961426Y-101709853D01*
X246238665Y-101765000D01*
X246521335Y-101765000D01*
X246798574Y-101709853D01*
X247059727Y-101601680D01*
X247294759Y-101444637D01*
X247494637Y-101244759D01*
X247651680Y-101009727D01*
X247759853Y-100748574D01*
X247815000Y-100471335D01*
X247815000Y-100188665D01*
X250025000Y-100188665D01*
X250025000Y-100471335D01*
X250080147Y-100748574D01*
X250188320Y-101009727D01*
X250345363Y-101244759D01*
X250545241Y-101444637D01*
X250780273Y-101601680D01*
X251041426Y-101709853D01*
X251318665Y-101765000D01*
X251601335Y-101765000D01*
X251878574Y-101709853D01*
X252139727Y-101601680D01*
X252374759Y-101444637D01*
X252574637Y-101244759D01*
X252731680Y-101009727D01*
X252839853Y-100748574D01*
X252895000Y-100471335D01*
X252895000Y-100188665D01*
X252839853Y-99911426D01*
X252731680Y-99650273D01*
X252574637Y-99415241D01*
X252428061Y-99268665D01*
X260625000Y-99268665D01*
X260625000Y-99551335D01*
X260680147Y-99828574D01*
X260788320Y-100089727D01*
X260945363Y-100324759D01*
X261145241Y-100524637D01*
X261380273Y-100681680D01*
X261641426Y-100789853D01*
X261918665Y-100845000D01*
X262201335Y-100845000D01*
X262478574Y-100789853D01*
X262739727Y-100681680D01*
X262974759Y-100524637D01*
X263174637Y-100324759D01*
X263331680Y-100089727D01*
X263439853Y-99828574D01*
X263495000Y-99551335D01*
X263495000Y-99268665D01*
X263439853Y-98991426D01*
X263331680Y-98730273D01*
X263174637Y-98495241D01*
X262974759Y-98295363D01*
X262739727Y-98138320D01*
X262478574Y-98030147D01*
X262201335Y-97975000D01*
X261918665Y-97975000D01*
X261641426Y-98030147D01*
X261380273Y-98138320D01*
X261145241Y-98295363D01*
X260945363Y-98495241D01*
X260788320Y-98730273D01*
X260680147Y-98991426D01*
X260625000Y-99268665D01*
X252428061Y-99268665D01*
X252374759Y-99215363D01*
X252139727Y-99058320D01*
X251878574Y-98950147D01*
X251601335Y-98895000D01*
X251318665Y-98895000D01*
X251041426Y-98950147D01*
X250780273Y-99058320D01*
X250545241Y-99215363D01*
X250345363Y-99415241D01*
X250188320Y-99650273D01*
X250080147Y-99911426D01*
X250025000Y-100188665D01*
X247815000Y-100188665D01*
X247759853Y-99911426D01*
X247651680Y-99650273D01*
X247494637Y-99415241D01*
X247294759Y-99215363D01*
X247059727Y-99058320D01*
X246798574Y-98950147D01*
X246521335Y-98895000D01*
X246238665Y-98895000D01*
X245961426Y-98950147D01*
X245700273Y-99058320D01*
X245465241Y-99215363D01*
X245265363Y-99415241D01*
X245108320Y-99650273D01*
X245000147Y-99911426D01*
X244945000Y-100188665D01*
X244643174Y-100188665D01*
X244619853Y-100071426D01*
X244511680Y-99810273D01*
X244354637Y-99575241D01*
X244154759Y-99375363D01*
X243919727Y-99218320D01*
X243658574Y-99110147D01*
X243381335Y-99055000D01*
X243098665Y-99055000D01*
X242821426Y-99110147D01*
X242560273Y-99218320D01*
X242325241Y-99375363D01*
X242125363Y-99575241D01*
X241968320Y-99810273D01*
X241860147Y-100071426D01*
X241805000Y-100348665D01*
X239595000Y-100348665D01*
X239539853Y-100071426D01*
X239431680Y-99810273D01*
X239274637Y-99575241D01*
X239074759Y-99375363D01*
X238839727Y-99218320D01*
X238578574Y-99110147D01*
X238301335Y-99055000D01*
X238018665Y-99055000D01*
X237741426Y-99110147D01*
X237480273Y-99218320D01*
X237245241Y-99375363D01*
X237045363Y-99575241D01*
X236888320Y-99810273D01*
X236780147Y-100071426D01*
X236725000Y-100348665D01*
X236482493Y-100348665D01*
X236510537Y-100314494D01*
X236569502Y-100204180D01*
X236605812Y-100084482D01*
X236618072Y-99960000D01*
X236618072Y-98360000D01*
X236605812Y-98235518D01*
X236569502Y-98115820D01*
X236510537Y-98005506D01*
X236431185Y-97908815D01*
X236334494Y-97829463D01*
X236224180Y-97770498D01*
X236104482Y-97734188D01*
X235980000Y-97721928D01*
X234380000Y-97721928D01*
X234255518Y-97734188D01*
X234135820Y-97770498D01*
X234025506Y-97829463D01*
X233928815Y-97908815D01*
X233915210Y-97925393D01*
X233859727Y-97888320D01*
X233598574Y-97780147D01*
X233321335Y-97725000D01*
X233038665Y-97725000D01*
X232761426Y-97780147D01*
X232500273Y-97888320D01*
X232265241Y-98045363D01*
X232065363Y-98245241D01*
X231908320Y-98480273D01*
X231800147Y-98741426D01*
X231745000Y-99018665D01*
X229317000Y-99018665D01*
X229317000Y-97668665D01*
X238045000Y-97668665D01*
X238045000Y-97951335D01*
X238100147Y-98228574D01*
X238208320Y-98489727D01*
X238365363Y-98724759D01*
X238565241Y-98924637D01*
X238800273Y-99081680D01*
X239061426Y-99189853D01*
X239338665Y-99245000D01*
X239621335Y-99245000D01*
X239898574Y-99189853D01*
X240159727Y-99081680D01*
X240394759Y-98924637D01*
X240594637Y-98724759D01*
X240751680Y-98489727D01*
X240859853Y-98228574D01*
X240915000Y-97951335D01*
X240915000Y-97668665D01*
X240859853Y-97391426D01*
X240751680Y-97130273D01*
X240594637Y-96895241D01*
X240394759Y-96695363D01*
X240159727Y-96538320D01*
X240091354Y-96509999D01*
X241241928Y-96509999D01*
X241241928Y-98110001D01*
X241258992Y-98283255D01*
X241309528Y-98449851D01*
X241391595Y-98603387D01*
X241502038Y-98737962D01*
X241636613Y-98848405D01*
X241790149Y-98930472D01*
X241956745Y-98981008D01*
X242129999Y-98998072D01*
X243730001Y-98998072D01*
X243903255Y-98981008D01*
X244069851Y-98930472D01*
X244223387Y-98848405D01*
X244357962Y-98737962D01*
X244468405Y-98603387D01*
X244550472Y-98449851D01*
X244601008Y-98283255D01*
X244618072Y-98110001D01*
X244618072Y-97868589D01*
X244678963Y-97997420D01*
X244846481Y-98223414D01*
X245054869Y-98412385D01*
X245296119Y-98557070D01*
X245560960Y-98651909D01*
X245783000Y-98530624D01*
X245783000Y-97387000D01*
X246037000Y-97387000D01*
X246037000Y-98530624D01*
X246259040Y-98651909D01*
X246523881Y-98557070D01*
X246765131Y-98412385D01*
X246973519Y-98223414D01*
X247141037Y-97997420D01*
X247261246Y-97743087D01*
X247301904Y-97609039D01*
X247179915Y-97387000D01*
X246037000Y-97387000D01*
X245783000Y-97387000D01*
X245763000Y-97387000D01*
X245763000Y-97133000D01*
X245783000Y-97133000D01*
X245783000Y-95989376D01*
X246037000Y-95989376D01*
X246037000Y-97133000D01*
X247179915Y-97133000D01*
X247187790Y-97118665D01*
X249555000Y-97118665D01*
X249555000Y-97401335D01*
X249610147Y-97678574D01*
X249718320Y-97939727D01*
X249875363Y-98174759D01*
X250075241Y-98374637D01*
X250310273Y-98531680D01*
X250571426Y-98639853D01*
X250848665Y-98695000D01*
X251131335Y-98695000D01*
X251408574Y-98639853D01*
X251669727Y-98531680D01*
X251904759Y-98374637D01*
X252104637Y-98174759D01*
X252261680Y-97939727D01*
X252369853Y-97678574D01*
X252425000Y-97401335D01*
X252425000Y-97118665D01*
X252369853Y-96841426D01*
X252261680Y-96580273D01*
X252104637Y-96345241D01*
X251904759Y-96145363D01*
X251669727Y-95988320D01*
X251408574Y-95880147D01*
X251131335Y-95825000D01*
X250848665Y-95825000D01*
X250571426Y-95880147D01*
X250310273Y-95988320D01*
X250075241Y-96145363D01*
X249875363Y-96345241D01*
X249718320Y-96580273D01*
X249610147Y-96841426D01*
X249555000Y-97118665D01*
X247187790Y-97118665D01*
X247301904Y-96910961D01*
X247261246Y-96776913D01*
X247141037Y-96522580D01*
X246973519Y-96296586D01*
X246765131Y-96107615D01*
X246523881Y-95962930D01*
X246259040Y-95868091D01*
X246037000Y-95989376D01*
X245783000Y-95989376D01*
X245560960Y-95868091D01*
X245296119Y-95962930D01*
X245054869Y-96107615D01*
X244846481Y-96296586D01*
X244678963Y-96522580D01*
X244618072Y-96651411D01*
X244618072Y-96509999D01*
X244601008Y-96336745D01*
X244550472Y-96170149D01*
X244468405Y-96016613D01*
X244357962Y-95882038D01*
X244223387Y-95771595D01*
X244069851Y-95689528D01*
X243903255Y-95638992D01*
X243730001Y-95621928D01*
X242129999Y-95621928D01*
X241956745Y-95638992D01*
X241790149Y-95689528D01*
X241636613Y-95771595D01*
X241502038Y-95882038D01*
X241391595Y-96016613D01*
X241309528Y-96170149D01*
X241258992Y-96336745D01*
X241241928Y-96509999D01*
X240091354Y-96509999D01*
X239898574Y-96430147D01*
X239621335Y-96375000D01*
X239338665Y-96375000D01*
X239061426Y-96430147D01*
X238800273Y-96538320D01*
X238565241Y-96695363D01*
X238365363Y-96895241D01*
X238208320Y-97130273D01*
X238100147Y-97391426D01*
X238045000Y-97668665D01*
X229317000Y-97668665D01*
X229317000Y-93660512D01*
X232639783Y-93660512D01*
X232681213Y-93940130D01*
X232776397Y-94206292D01*
X232843329Y-94331514D01*
X233087298Y-94403097D01*
X233900395Y-93590000D01*
X233087298Y-92776903D01*
X232843329Y-92848486D01*
X232722429Y-93103996D01*
X232653700Y-93378184D01*
X232639783Y-93660512D01*
X229317000Y-93660512D01*
X229317000Y-92597298D01*
X233266903Y-92597298D01*
X234080000Y-93410395D01*
X234094143Y-93396253D01*
X234273748Y-93575858D01*
X234259605Y-93590000D01*
X234273748Y-93604143D01*
X234094143Y-93783748D01*
X234080000Y-93769605D01*
X233266903Y-94582702D01*
X233338486Y-94826671D01*
X233593996Y-94947571D01*
X233868184Y-95016300D01*
X234150512Y-95030217D01*
X234430130Y-94988787D01*
X234696292Y-94893603D01*
X234818309Y-94828384D01*
X234828815Y-94841185D01*
X234925506Y-94920537D01*
X235035820Y-94979502D01*
X235155518Y-95015812D01*
X235280000Y-95028072D01*
X236880000Y-95028072D01*
X237004482Y-95015812D01*
X237124180Y-94979502D01*
X237234494Y-94920537D01*
X237331185Y-94841185D01*
X237410537Y-94744494D01*
X237469502Y-94634180D01*
X237505812Y-94514482D01*
X237518072Y-94390000D01*
X237518072Y-92790000D01*
X237505812Y-92665518D01*
X237482499Y-92588665D01*
X238045000Y-92588665D01*
X238045000Y-92871335D01*
X238100147Y-93148574D01*
X238208320Y-93409727D01*
X238365363Y-93644759D01*
X238565241Y-93844637D01*
X238800273Y-94001680D01*
X239061426Y-94109853D01*
X239338665Y-94165000D01*
X239621335Y-94165000D01*
X239898574Y-94109853D01*
X240159727Y-94001680D01*
X240394759Y-93844637D01*
X240594637Y-93644759D01*
X240751680Y-93409727D01*
X240859853Y-93148574D01*
X240873493Y-93079999D01*
X241191928Y-93079999D01*
X241191928Y-94680001D01*
X241208992Y-94853255D01*
X241259528Y-95019851D01*
X241341595Y-95173387D01*
X241452038Y-95307962D01*
X241586613Y-95418405D01*
X241740149Y-95500472D01*
X241906745Y-95551008D01*
X242079999Y-95568072D01*
X243680001Y-95568072D01*
X243853255Y-95551008D01*
X244019851Y-95500472D01*
X244173387Y-95418405D01*
X244307962Y-95307962D01*
X244418405Y-95173387D01*
X244495345Y-95029443D01*
X244561595Y-95153387D01*
X244672038Y-95287962D01*
X244806613Y-95398405D01*
X244960149Y-95480472D01*
X245126745Y-95531008D01*
X245299999Y-95548072D01*
X246900001Y-95548072D01*
X247073255Y-95531008D01*
X247239851Y-95480472D01*
X247393387Y-95398405D01*
X247527962Y-95287962D01*
X247638405Y-95153387D01*
X247720472Y-94999851D01*
X247771008Y-94833255D01*
X247788072Y-94660001D01*
X247788072Y-93059999D01*
X247771008Y-92886745D01*
X247720472Y-92720149D01*
X247638405Y-92566613D01*
X247527962Y-92432038D01*
X247393387Y-92321595D01*
X247239851Y-92239528D01*
X247073255Y-92188992D01*
X246900001Y-92171928D01*
X245299999Y-92171928D01*
X245126745Y-92188992D01*
X244960149Y-92239528D01*
X244806613Y-92321595D01*
X244672038Y-92432038D01*
X244561595Y-92566613D01*
X244484655Y-92710557D01*
X244418405Y-92586613D01*
X244307962Y-92452038D01*
X244173387Y-92341595D01*
X244019851Y-92259528D01*
X243853255Y-92208992D01*
X243680001Y-92191928D01*
X242079999Y-92191928D01*
X241906745Y-92208992D01*
X241740149Y-92259528D01*
X241586613Y-92341595D01*
X241452038Y-92452038D01*
X241341595Y-92586613D01*
X241259528Y-92740149D01*
X241208992Y-92906745D01*
X241191928Y-93079999D01*
X240873493Y-93079999D01*
X240915000Y-92871335D01*
X240915000Y-92588665D01*
X240859853Y-92311426D01*
X240751680Y-92050273D01*
X240594637Y-91815241D01*
X240489396Y-91710000D01*
X249079388Y-91710000D01*
X249101785Y-91937400D01*
X249168115Y-92156060D01*
X249269105Y-92345000D01*
X249168115Y-92533940D01*
X249101785Y-92752600D01*
X249079388Y-92980000D01*
X249101785Y-93207400D01*
X249165093Y-93416098D01*
X249130498Y-93480820D01*
X249094188Y-93600518D01*
X249081928Y-93725000D01*
X249081928Y-94775000D01*
X249094188Y-94899482D01*
X249130498Y-95019180D01*
X249189463Y-95129494D01*
X249268815Y-95226185D01*
X249365506Y-95305537D01*
X249475820Y-95364502D01*
X249595518Y-95400812D01*
X249720000Y-95413072D01*
X251220000Y-95413072D01*
X251344482Y-95400812D01*
X251464180Y-95364502D01*
X251574494Y-95305537D01*
X251671185Y-95226185D01*
X251750537Y-95129494D01*
X251809502Y-95019180D01*
X251845812Y-94899482D01*
X251858072Y-94775000D01*
X251858072Y-94112702D01*
X255726903Y-94112702D01*
X255798486Y-94356671D01*
X256053996Y-94477571D01*
X256328184Y-94546300D01*
X256610512Y-94560217D01*
X256890130Y-94518787D01*
X257156292Y-94423603D01*
X257281514Y-94356671D01*
X257330808Y-94188665D01*
X260625000Y-94188665D01*
X260625000Y-94471335D01*
X260680147Y-94748574D01*
X260788320Y-95009727D01*
X260945363Y-95244759D01*
X261145241Y-95444637D01*
X261380273Y-95601680D01*
X261641426Y-95709853D01*
X261918665Y-95765000D01*
X262201335Y-95765000D01*
X262478574Y-95709853D01*
X262739727Y-95601680D01*
X262974759Y-95444637D01*
X263174637Y-95244759D01*
X263331680Y-95009727D01*
X263439853Y-94748574D01*
X263495000Y-94471335D01*
X263495000Y-94188665D01*
X263439853Y-93911426D01*
X263331680Y-93650273D01*
X263174637Y-93415241D01*
X262974759Y-93215363D01*
X262739727Y-93058320D01*
X262690844Y-93038072D01*
X263360001Y-93038072D01*
X263533255Y-93021008D01*
X263699851Y-92970472D01*
X263853387Y-92888405D01*
X263987962Y-92777962D01*
X264098405Y-92643387D01*
X264180472Y-92489851D01*
X264231008Y-92323255D01*
X264248072Y-92150001D01*
X264248072Y-90549999D01*
X264231008Y-90376745D01*
X264180472Y-90210149D01*
X264098405Y-90056613D01*
X263987962Y-89922038D01*
X263853387Y-89811595D01*
X263699851Y-89729528D01*
X263533255Y-89678992D01*
X263360001Y-89661928D01*
X261759999Y-89661928D01*
X261586745Y-89678992D01*
X261420149Y-89729528D01*
X261266613Y-89811595D01*
X261132038Y-89922038D01*
X261021595Y-90056613D01*
X260939528Y-90210149D01*
X260888992Y-90376745D01*
X260871928Y-90549999D01*
X260871928Y-92150001D01*
X260888992Y-92323255D01*
X260939528Y-92489851D01*
X261021595Y-92643387D01*
X261132038Y-92777962D01*
X261266613Y-92888405D01*
X261420149Y-92970472D01*
X261519557Y-93000627D01*
X261380273Y-93058320D01*
X261145241Y-93215363D01*
X260945363Y-93415241D01*
X260788320Y-93650273D01*
X260680147Y-93911426D01*
X260625000Y-94188665D01*
X257330808Y-94188665D01*
X257353097Y-94112702D01*
X256540000Y-93299605D01*
X255726903Y-94112702D01*
X251858072Y-94112702D01*
X251858072Y-93725000D01*
X251845812Y-93600518D01*
X251809502Y-93480820D01*
X251774907Y-93416098D01*
X251838215Y-93207400D01*
X251839878Y-93190512D01*
X255099783Y-93190512D01*
X255141213Y-93470130D01*
X255236397Y-93736292D01*
X255303329Y-93861514D01*
X255547298Y-93933097D01*
X256360395Y-93120000D01*
X256719605Y-93120000D01*
X257532702Y-93933097D01*
X257776671Y-93861514D01*
X257897571Y-93606004D01*
X257966300Y-93331816D01*
X257980217Y-93049488D01*
X257938787Y-92769870D01*
X257843603Y-92503708D01*
X257776671Y-92378486D01*
X257532702Y-92306903D01*
X256719605Y-93120000D01*
X256360395Y-93120000D01*
X255547298Y-92306903D01*
X255303329Y-92378486D01*
X255182429Y-92633996D01*
X255113700Y-92908184D01*
X255099783Y-93190512D01*
X251839878Y-93190512D01*
X251860612Y-92980000D01*
X251838215Y-92752600D01*
X251771885Y-92533940D01*
X251670895Y-92345000D01*
X251771885Y-92156060D01*
X251780609Y-92127298D01*
X255726903Y-92127298D01*
X256540000Y-92940395D01*
X257353097Y-92127298D01*
X257281514Y-91883329D01*
X257026004Y-91762429D01*
X256751816Y-91693700D01*
X256469488Y-91679783D01*
X256189870Y-91721213D01*
X255923708Y-91816397D01*
X255798486Y-91883329D01*
X255726903Y-92127298D01*
X251780609Y-92127298D01*
X251838215Y-91937400D01*
X251860612Y-91710000D01*
X251838215Y-91482600D01*
X251771885Y-91263940D01*
X251664171Y-91062421D01*
X251519212Y-90885788D01*
X251342579Y-90740829D01*
X251141060Y-90633115D01*
X250922400Y-90566785D01*
X250751979Y-90550000D01*
X250188021Y-90550000D01*
X250017600Y-90566785D01*
X249798940Y-90633115D01*
X249597421Y-90740829D01*
X249420788Y-90885788D01*
X249275829Y-91062421D01*
X249168115Y-91263940D01*
X249101785Y-91482600D01*
X249079388Y-91710000D01*
X240489396Y-91710000D01*
X240394759Y-91615363D01*
X240159727Y-91458320D01*
X239898574Y-91350147D01*
X239621335Y-91295000D01*
X239338665Y-91295000D01*
X239061426Y-91350147D01*
X238800273Y-91458320D01*
X238565241Y-91615363D01*
X238365363Y-91815241D01*
X238208320Y-92050273D01*
X238100147Y-92311426D01*
X238045000Y-92588665D01*
X237482499Y-92588665D01*
X237469502Y-92545820D01*
X237410537Y-92435506D01*
X237331185Y-92338815D01*
X237234494Y-92259463D01*
X237124180Y-92200498D01*
X237004482Y-92164188D01*
X236880000Y-92151928D01*
X235280000Y-92151928D01*
X235155518Y-92164188D01*
X235035820Y-92200498D01*
X234925506Y-92259463D01*
X234828815Y-92338815D01*
X234818193Y-92351758D01*
X234566004Y-92232429D01*
X234291816Y-92163700D01*
X234009488Y-92149783D01*
X233729870Y-92191213D01*
X233463708Y-92286397D01*
X233338486Y-92353329D01*
X233266903Y-92597298D01*
X229317000Y-92597298D01*
X229317000Y-88209999D01*
X235851928Y-88209999D01*
X235851928Y-89810001D01*
X235868992Y-89983255D01*
X235919528Y-90149851D01*
X236001595Y-90303387D01*
X236112038Y-90437962D01*
X236246613Y-90548405D01*
X236400149Y-90630472D01*
X236566745Y-90681008D01*
X236739999Y-90698072D01*
X238340001Y-90698072D01*
X238513255Y-90681008D01*
X238679851Y-90630472D01*
X238833387Y-90548405D01*
X238967962Y-90437962D01*
X239078405Y-90303387D01*
X239160472Y-90149851D01*
X239211008Y-89983255D01*
X239228072Y-89810001D01*
X239228072Y-88650512D01*
X239569783Y-88650512D01*
X239611213Y-88930130D01*
X239706397Y-89196292D01*
X239773329Y-89321514D01*
X240017298Y-89393097D01*
X240830395Y-88580000D01*
X240017298Y-87766903D01*
X239773329Y-87838486D01*
X239652429Y-88093996D01*
X239583700Y-88368184D01*
X239569783Y-88650512D01*
X239228072Y-88650512D01*
X239228072Y-88209999D01*
X239211008Y-88036745D01*
X239160472Y-87870149D01*
X239078405Y-87716613D01*
X238972279Y-87587298D01*
X240196903Y-87587298D01*
X241010000Y-88400395D01*
X241024143Y-88386253D01*
X241203748Y-88565858D01*
X241189605Y-88580000D01*
X241203748Y-88594143D01*
X241024143Y-88773748D01*
X241010000Y-88759605D01*
X240196903Y-89572702D01*
X240268486Y-89816671D01*
X240523996Y-89937571D01*
X240798184Y-90006300D01*
X241080512Y-90020217D01*
X241360130Y-89978787D01*
X241626292Y-89883603D01*
X241748309Y-89818384D01*
X241758815Y-89831185D01*
X241855506Y-89910537D01*
X241965820Y-89969502D01*
X242085518Y-90005812D01*
X242210000Y-90018072D01*
X243810000Y-90018072D01*
X243934482Y-90005812D01*
X244054180Y-89969502D01*
X244164494Y-89910537D01*
X244261185Y-89831185D01*
X244340537Y-89734494D01*
X244399502Y-89624180D01*
X244435812Y-89504482D01*
X244448072Y-89380000D01*
X244448072Y-88488665D01*
X244475000Y-88488665D01*
X244475000Y-88771335D01*
X244530147Y-89048574D01*
X244638320Y-89309727D01*
X244795363Y-89544759D01*
X244995241Y-89744637D01*
X245230273Y-89901680D01*
X245491426Y-90009853D01*
X245768665Y-90065000D01*
X246051335Y-90065000D01*
X246328574Y-90009853D01*
X246589727Y-89901680D01*
X246824759Y-89744637D01*
X247024637Y-89544759D01*
X247181680Y-89309727D01*
X247289853Y-89048574D01*
X247345000Y-88771335D01*
X247345000Y-88488665D01*
X249555000Y-88488665D01*
X249555000Y-88771335D01*
X249610147Y-89048574D01*
X249718320Y-89309727D01*
X249875363Y-89544759D01*
X250075241Y-89744637D01*
X250310273Y-89901680D01*
X250571426Y-90009853D01*
X250848665Y-90065000D01*
X251131335Y-90065000D01*
X251408574Y-90009853D01*
X251669727Y-89901680D01*
X251904759Y-89744637D01*
X252104637Y-89544759D01*
X252261680Y-89309727D01*
X252369853Y-89048574D01*
X252425000Y-88771335D01*
X252425000Y-88758665D01*
X253075000Y-88758665D01*
X253075000Y-89041335D01*
X253130147Y-89318574D01*
X253238320Y-89579727D01*
X253395363Y-89814759D01*
X253595241Y-90014637D01*
X253830273Y-90171680D01*
X254091426Y-90279853D01*
X254368665Y-90335000D01*
X254651335Y-90335000D01*
X254928574Y-90279853D01*
X255189727Y-90171680D01*
X255424759Y-90014637D01*
X255624637Y-89814759D01*
X255781680Y-89579727D01*
X255889853Y-89318574D01*
X255945000Y-89041335D01*
X255945000Y-88758665D01*
X258075000Y-88758665D01*
X258075000Y-89041335D01*
X258130147Y-89318574D01*
X258238320Y-89579727D01*
X258395363Y-89814759D01*
X258595241Y-90014637D01*
X258830273Y-90171680D01*
X259091426Y-90279853D01*
X259368665Y-90335000D01*
X259651335Y-90335000D01*
X259928574Y-90279853D01*
X260189727Y-90171680D01*
X260424759Y-90014637D01*
X260624637Y-89814759D01*
X260781680Y-89579727D01*
X260889853Y-89318574D01*
X260945000Y-89041335D01*
X260945000Y-88857506D01*
X261001595Y-88963387D01*
X261112038Y-89097962D01*
X261246613Y-89208405D01*
X261400149Y-89290472D01*
X261566745Y-89341008D01*
X261739999Y-89358072D01*
X263340001Y-89358072D01*
X263513255Y-89341008D01*
X263679851Y-89290472D01*
X263833387Y-89208405D01*
X263967962Y-89097962D01*
X264078405Y-88963387D01*
X264160472Y-88809851D01*
X264211008Y-88643255D01*
X264228072Y-88470001D01*
X264228072Y-86869999D01*
X264211008Y-86696745D01*
X264160472Y-86530149D01*
X264078405Y-86376613D01*
X263967962Y-86242038D01*
X263833387Y-86131595D01*
X263679851Y-86049528D01*
X263513255Y-85998992D01*
X263340001Y-85981928D01*
X261739999Y-85981928D01*
X261566745Y-85998992D01*
X261400149Y-86049528D01*
X261246613Y-86131595D01*
X261112038Y-86242038D01*
X261001595Y-86376613D01*
X260919528Y-86530149D01*
X260868992Y-86696745D01*
X260851928Y-86869999D01*
X260851928Y-88389867D01*
X260781680Y-88220273D01*
X260624637Y-87985241D01*
X260424759Y-87785363D01*
X260189727Y-87628320D01*
X259928574Y-87520147D01*
X259651335Y-87465000D01*
X259368665Y-87465000D01*
X259091426Y-87520147D01*
X258830273Y-87628320D01*
X258595241Y-87785363D01*
X258395363Y-87985241D01*
X258238320Y-88220273D01*
X258130147Y-88481426D01*
X258075000Y-88758665D01*
X255945000Y-88758665D01*
X255889853Y-88481426D01*
X255781680Y-88220273D01*
X255624637Y-87985241D01*
X255424759Y-87785363D01*
X255189727Y-87628320D01*
X254928574Y-87520147D01*
X254651335Y-87465000D01*
X254368665Y-87465000D01*
X254091426Y-87520147D01*
X253830273Y-87628320D01*
X253595241Y-87785363D01*
X253395363Y-87985241D01*
X253238320Y-88220273D01*
X253130147Y-88481426D01*
X253075000Y-88758665D01*
X252425000Y-88758665D01*
X252425000Y-88488665D01*
X252369853Y-88211426D01*
X252261680Y-87950273D01*
X252104637Y-87715241D01*
X251904759Y-87515363D01*
X251669727Y-87358320D01*
X251408574Y-87250147D01*
X251131335Y-87195000D01*
X250848665Y-87195000D01*
X250571426Y-87250147D01*
X250310273Y-87358320D01*
X250075241Y-87515363D01*
X249875363Y-87715241D01*
X249718320Y-87950273D01*
X249610147Y-88211426D01*
X249555000Y-88488665D01*
X247345000Y-88488665D01*
X247289853Y-88211426D01*
X247181680Y-87950273D01*
X247024637Y-87715241D01*
X246824759Y-87515363D01*
X246589727Y-87358320D01*
X246328574Y-87250147D01*
X246051335Y-87195000D01*
X245768665Y-87195000D01*
X245491426Y-87250147D01*
X245230273Y-87358320D01*
X244995241Y-87515363D01*
X244795363Y-87715241D01*
X244638320Y-87950273D01*
X244530147Y-88211426D01*
X244475000Y-88488665D01*
X244448072Y-88488665D01*
X244448072Y-87780000D01*
X244435812Y-87655518D01*
X244399502Y-87535820D01*
X244340537Y-87425506D01*
X244261185Y-87328815D01*
X244164494Y-87249463D01*
X244054180Y-87190498D01*
X243934482Y-87154188D01*
X243810000Y-87141928D01*
X242210000Y-87141928D01*
X242085518Y-87154188D01*
X241965820Y-87190498D01*
X241855506Y-87249463D01*
X241758815Y-87328815D01*
X241748193Y-87341758D01*
X241496004Y-87222429D01*
X241221816Y-87153700D01*
X240939488Y-87139783D01*
X240659870Y-87181213D01*
X240393708Y-87276397D01*
X240268486Y-87343329D01*
X240196903Y-87587298D01*
X238972279Y-87587298D01*
X238967962Y-87582038D01*
X238833387Y-87471595D01*
X238679851Y-87389528D01*
X238513255Y-87338992D01*
X238340001Y-87321928D01*
X236739999Y-87321928D01*
X236566745Y-87338992D01*
X236400149Y-87389528D01*
X236246613Y-87471595D01*
X236112038Y-87582038D01*
X236001595Y-87716613D01*
X235919528Y-87870149D01*
X235868992Y-88036745D01*
X235851928Y-88209999D01*
X229317000Y-88209999D01*
X229317000Y-87702606D01*
X229780876Y-87238730D01*
X230726795Y-86370000D01*
X234371928Y-86370000D01*
X234384188Y-86494482D01*
X234420498Y-86614180D01*
X234479463Y-86724494D01*
X234558815Y-86821185D01*
X234655506Y-86900537D01*
X234765820Y-86959502D01*
X234885518Y-86995812D01*
X235010000Y-87008072D01*
X235774250Y-87005000D01*
X235933000Y-86846250D01*
X235933000Y-85447000D01*
X234533750Y-85447000D01*
X234375000Y-85605750D01*
X234371928Y-86370000D01*
X230726795Y-86370000D01*
X233013386Y-84270000D01*
X234371928Y-84270000D01*
X234375000Y-85034250D01*
X234533750Y-85193000D01*
X235933000Y-85193000D01*
X235933000Y-83793750D01*
X236187000Y-83793750D01*
X236187000Y-85193000D01*
X236207000Y-85193000D01*
X236207000Y-85447000D01*
X236187000Y-85447000D01*
X236187000Y-86846250D01*
X236345750Y-87005000D01*
X237110000Y-87008072D01*
X237234482Y-86995812D01*
X237354180Y-86959502D01*
X237464494Y-86900537D01*
X237561185Y-86821185D01*
X237640537Y-86724494D01*
X237699502Y-86614180D01*
X237735812Y-86494482D01*
X237748072Y-86370000D01*
X237745818Y-85809039D01*
X245078096Y-85809039D01*
X245118754Y-85943087D01*
X245238963Y-86197420D01*
X245406481Y-86423414D01*
X245614869Y-86612385D01*
X245856119Y-86757070D01*
X246120960Y-86851909D01*
X246343000Y-86730624D01*
X246343000Y-85587000D01*
X246597000Y-85587000D01*
X246597000Y-86730624D01*
X246819040Y-86851909D01*
X247083881Y-86757070D01*
X247325131Y-86612385D01*
X247533519Y-86423414D01*
X247701037Y-86197420D01*
X247821246Y-85943087D01*
X247861904Y-85809039D01*
X247739915Y-85587000D01*
X246597000Y-85587000D01*
X246343000Y-85587000D01*
X245200085Y-85587000D01*
X245078096Y-85809039D01*
X237745818Y-85809039D01*
X237745000Y-85605750D01*
X237586252Y-85447002D01*
X237745000Y-85447002D01*
X237745000Y-85334396D01*
X237805241Y-85394637D01*
X238040273Y-85551680D01*
X238301426Y-85659853D01*
X238578665Y-85715000D01*
X238861335Y-85715000D01*
X239138574Y-85659853D01*
X239399727Y-85551680D01*
X239634759Y-85394637D01*
X239834637Y-85194759D01*
X239991680Y-84959727D01*
X240099853Y-84698574D01*
X240155000Y-84421335D01*
X240155000Y-84138665D01*
X242365000Y-84138665D01*
X242365000Y-84421335D01*
X242420147Y-84698574D01*
X242528320Y-84959727D01*
X242685363Y-85194759D01*
X242885241Y-85394637D01*
X243120273Y-85551680D01*
X243381426Y-85659853D01*
X243658665Y-85715000D01*
X243941335Y-85715000D01*
X244218574Y-85659853D01*
X244479727Y-85551680D01*
X244714759Y-85394637D01*
X244914637Y-85194759D01*
X244970628Y-85110961D01*
X245078096Y-85110961D01*
X245200085Y-85333000D01*
X246343000Y-85333000D01*
X246343000Y-84189376D01*
X246597000Y-84189376D01*
X246597000Y-85333000D01*
X247739915Y-85333000D01*
X247747790Y-85318665D01*
X250115000Y-85318665D01*
X250115000Y-85601335D01*
X250170147Y-85878574D01*
X250278320Y-86139727D01*
X250435363Y-86374759D01*
X250635241Y-86574637D01*
X250870273Y-86731680D01*
X251131426Y-86839853D01*
X251408665Y-86895000D01*
X251691335Y-86895000D01*
X251968574Y-86839853D01*
X252229727Y-86731680D01*
X252464759Y-86574637D01*
X252664637Y-86374759D01*
X252821680Y-86139727D01*
X252929853Y-85878574D01*
X252985000Y-85601335D01*
X252985000Y-85318665D01*
X252929853Y-85041426D01*
X252821680Y-84780273D01*
X252664637Y-84545241D01*
X252464759Y-84345363D01*
X252229727Y-84188320D01*
X251968574Y-84080147D01*
X251691335Y-84025000D01*
X251408665Y-84025000D01*
X251131426Y-84080147D01*
X250870273Y-84188320D01*
X250635241Y-84345363D01*
X250435363Y-84545241D01*
X250278320Y-84780273D01*
X250170147Y-85041426D01*
X250115000Y-85318665D01*
X247747790Y-85318665D01*
X247861904Y-85110961D01*
X247821246Y-84976913D01*
X247701037Y-84722580D01*
X247533519Y-84496586D01*
X247325131Y-84307615D01*
X247083881Y-84162930D01*
X246819040Y-84068091D01*
X246597000Y-84189376D01*
X246343000Y-84189376D01*
X246120960Y-84068091D01*
X245856119Y-84162930D01*
X245614869Y-84307615D01*
X245406481Y-84496586D01*
X245238963Y-84722580D01*
X245118754Y-84976913D01*
X245078096Y-85110961D01*
X244970628Y-85110961D01*
X245071680Y-84959727D01*
X245179853Y-84698574D01*
X245235000Y-84421335D01*
X245235000Y-84138665D01*
X245179853Y-83861426D01*
X245071680Y-83600273D01*
X244914637Y-83365241D01*
X244739395Y-83189999D01*
X253041928Y-83189999D01*
X253041928Y-84790001D01*
X253058992Y-84963255D01*
X253109528Y-85129851D01*
X253191595Y-85283387D01*
X253302038Y-85417962D01*
X253436613Y-85528405D01*
X253590149Y-85610472D01*
X253756745Y-85661008D01*
X253929999Y-85678072D01*
X255530001Y-85678072D01*
X255703255Y-85661008D01*
X255869851Y-85610472D01*
X256023387Y-85528405D01*
X256055567Y-85501995D01*
X256080498Y-85584180D01*
X256139463Y-85694494D01*
X256218815Y-85791185D01*
X256315506Y-85870537D01*
X256425820Y-85929502D01*
X256545518Y-85965812D01*
X256670000Y-85978072D01*
X258270000Y-85978072D01*
X258394482Y-85965812D01*
X258514180Y-85929502D01*
X258624494Y-85870537D01*
X258721185Y-85791185D01*
X258800537Y-85694494D01*
X258859502Y-85584180D01*
X258895812Y-85464482D01*
X258908072Y-85340000D01*
X258908072Y-84889039D01*
X263698096Y-84889039D01*
X263738754Y-85023087D01*
X263858963Y-85277420D01*
X264026481Y-85503414D01*
X264234869Y-85692385D01*
X264476119Y-85837070D01*
X264740960Y-85931909D01*
X264963000Y-85810624D01*
X264963000Y-84667000D01*
X265217000Y-84667000D01*
X265217000Y-85810624D01*
X265439040Y-85931909D01*
X265703881Y-85837070D01*
X265945131Y-85692385D01*
X266153519Y-85503414D01*
X266321037Y-85277420D01*
X266441246Y-85023087D01*
X266481904Y-84889039D01*
X266359915Y-84667000D01*
X265217000Y-84667000D01*
X264963000Y-84667000D01*
X263820085Y-84667000D01*
X263698096Y-84889039D01*
X258908072Y-84889039D01*
X258908072Y-84190961D01*
X263698096Y-84190961D01*
X263820085Y-84413000D01*
X264963000Y-84413000D01*
X264963000Y-83269376D01*
X265217000Y-83269376D01*
X265217000Y-84413000D01*
X266359915Y-84413000D01*
X266481904Y-84190961D01*
X266441246Y-84056913D01*
X266321037Y-83802580D01*
X266153519Y-83576586D01*
X265945131Y-83387615D01*
X265703881Y-83242930D01*
X265439040Y-83148091D01*
X265217000Y-83269376D01*
X264963000Y-83269376D01*
X264740960Y-83148091D01*
X264476119Y-83242930D01*
X264234869Y-83387615D01*
X264026481Y-83576586D01*
X263858963Y-83802580D01*
X263738754Y-84056913D01*
X263698096Y-84190961D01*
X258908072Y-84190961D01*
X258908072Y-83740000D01*
X258895812Y-83615518D01*
X258859502Y-83495820D01*
X258800537Y-83385506D01*
X258721185Y-83288815D01*
X258624494Y-83209463D01*
X258514180Y-83150498D01*
X258394482Y-83114188D01*
X258270000Y-83101928D01*
X256670000Y-83101928D01*
X256545518Y-83114188D01*
X256425820Y-83150498D01*
X256414764Y-83156408D01*
X256401008Y-83016745D01*
X256350472Y-82850149D01*
X256268405Y-82696613D01*
X256157962Y-82562038D01*
X256023387Y-82451595D01*
X255869851Y-82369528D01*
X255703255Y-82318992D01*
X255530001Y-82301928D01*
X253929999Y-82301928D01*
X253756745Y-82318992D01*
X253590149Y-82369528D01*
X253436613Y-82451595D01*
X253302038Y-82562038D01*
X253191595Y-82696613D01*
X253109528Y-82850149D01*
X253058992Y-83016745D01*
X253041928Y-83189999D01*
X244739395Y-83189999D01*
X244714759Y-83165363D01*
X244479727Y-83008320D01*
X244218574Y-82900147D01*
X243941335Y-82845000D01*
X243658665Y-82845000D01*
X243381426Y-82900147D01*
X243120273Y-83008320D01*
X242885241Y-83165363D01*
X242685363Y-83365241D01*
X242528320Y-83600273D01*
X242420147Y-83861426D01*
X242365000Y-84138665D01*
X240155000Y-84138665D01*
X240099853Y-83861426D01*
X239991680Y-83600273D01*
X239834637Y-83365241D01*
X239634759Y-83165363D01*
X239399727Y-83008320D01*
X239138574Y-82900147D01*
X238861335Y-82845000D01*
X238578665Y-82845000D01*
X238301426Y-82900147D01*
X238040273Y-83008320D01*
X237805241Y-83165363D01*
X237605363Y-83365241D01*
X237448320Y-83600273D01*
X237404049Y-83707154D01*
X237354180Y-83680498D01*
X237234482Y-83644188D01*
X237110000Y-83631928D01*
X236345750Y-83635000D01*
X236187000Y-83793750D01*
X235933000Y-83793750D01*
X235774250Y-83635000D01*
X235010000Y-83631928D01*
X234885518Y-83644188D01*
X234765820Y-83680498D01*
X234655506Y-83739463D01*
X234558815Y-83818815D01*
X234479463Y-83915506D01*
X234420498Y-84025820D01*
X234384188Y-84145518D01*
X234371928Y-84270000D01*
X233013386Y-84270000D01*
X235387086Y-82090000D01*
X265544571Y-82090000D01*
X267020000Y-83741841D01*
G37*
%TD.AperFunction*%
%TD*%
M02*
