%TF.GenerationSoftware,KiCad,Pcbnew,5.1.9*%
%TF.CreationDate,2021-04-19T23:32:21+02:00*%
%TF.ProjectId,ts908,74733930-382e-46b6-9963-61645f706362,rev?*%
%TF.SameCoordinates,Original*%
%TF.FileFunction,Legend,Top*%
%TF.FilePolarity,Positive*%
%FSLAX46Y46*%
G04 Gerber Fmt 4.6, Leading zero omitted, Abs format (unit mm)*
G04 Created by KiCad (PCBNEW 5.1.9) date 2021-04-19 23:32:21*
%MOMM*%
%LPD*%
G01*
G04 APERTURE LIST*
%ADD10C,0.010000*%
%ADD11C,0.120000*%
%ADD12C,0.150000*%
G04 APERTURE END LIST*
D10*
%TO.C,G\u002A\u002A\u002A*%
G36*
X229942979Y-116796092D02*
G01*
X230041940Y-116729781D01*
X230176000Y-116722000D01*
X230355908Y-116742979D01*
X230422219Y-116841940D01*
X230430000Y-116976000D01*
X230409021Y-117155908D01*
X230310060Y-117222218D01*
X230176000Y-117230000D01*
X229996092Y-117209021D01*
X229929782Y-117110060D01*
X229922000Y-116976000D01*
X229942979Y-116796092D01*
G37*
X229942979Y-116796092D02*
X230041940Y-116729781D01*
X230176000Y-116722000D01*
X230355908Y-116742979D01*
X230422219Y-116841940D01*
X230430000Y-116976000D01*
X230409021Y-117155908D01*
X230310060Y-117222218D01*
X230176000Y-117230000D01*
X229996092Y-117209021D01*
X229929782Y-117110060D01*
X229922000Y-116976000D01*
X229942979Y-116796092D01*
G36*
X229942979Y-119844092D02*
G01*
X230041940Y-119777781D01*
X230176000Y-119770000D01*
X230355908Y-119790979D01*
X230422219Y-119889940D01*
X230430000Y-120024000D01*
X230409021Y-120203908D01*
X230310060Y-120270218D01*
X230176000Y-120278000D01*
X229996092Y-120257021D01*
X229929782Y-120158060D01*
X229922000Y-120024000D01*
X229942979Y-119844092D01*
G37*
X229942979Y-119844092D02*
X230041940Y-119777781D01*
X230176000Y-119770000D01*
X230355908Y-119790979D01*
X230422219Y-119889940D01*
X230430000Y-120024000D01*
X230409021Y-120203908D01*
X230310060Y-120270218D01*
X230176000Y-120278000D01*
X229996092Y-120257021D01*
X229929782Y-120158060D01*
X229922000Y-120024000D01*
X229942979Y-119844092D01*
G36*
X232695763Y-117401793D02*
G01*
X232716000Y-117399333D01*
X232798207Y-117463762D01*
X232800667Y-117484000D01*
X232736238Y-117566206D01*
X232716000Y-117568666D01*
X232633794Y-117504237D01*
X232631334Y-117484000D01*
X232695763Y-117401793D01*
G37*
X232695763Y-117401793D02*
X232716000Y-117399333D01*
X232798207Y-117463762D01*
X232800667Y-117484000D01*
X232736238Y-117566206D01*
X232716000Y-117568666D01*
X232633794Y-117504237D01*
X232631334Y-117484000D01*
X232695763Y-117401793D01*
G36*
X232990979Y-119844092D02*
G01*
X233089940Y-119777781D01*
X233224000Y-119770000D01*
X233403908Y-119790979D01*
X233470219Y-119889940D01*
X233478000Y-120024000D01*
X233457021Y-120203908D01*
X233358060Y-120270218D01*
X233224000Y-120278000D01*
X233044092Y-120257021D01*
X232977782Y-120158060D01*
X232970000Y-120024000D01*
X232990979Y-119844092D01*
G37*
X232990979Y-119844092D02*
X233089940Y-119777781D01*
X233224000Y-119770000D01*
X233403908Y-119790979D01*
X233470219Y-119889940D01*
X233478000Y-120024000D01*
X233457021Y-120203908D01*
X233358060Y-120270218D01*
X233224000Y-120278000D01*
X233044092Y-120257021D01*
X232977782Y-120158060D01*
X232970000Y-120024000D01*
X232990979Y-119844092D01*
G36*
X230768667Y-116383333D02*
G01*
X230768667Y-117568666D01*
X229752667Y-117568666D01*
X229752667Y-117399333D01*
X230599334Y-117399333D01*
X230599334Y-116552666D01*
X229752667Y-116552666D01*
X229752667Y-117399333D01*
X229752667Y-117568666D01*
X229583334Y-117568666D01*
X229583334Y-116383333D01*
X230768667Y-116383333D01*
G37*
X230768667Y-116383333D02*
X230768667Y-117568666D01*
X229752667Y-117568666D01*
X229752667Y-117399333D01*
X230599334Y-117399333D01*
X230599334Y-116552666D01*
X229752667Y-116552666D01*
X229752667Y-117399333D01*
X229752667Y-117568666D01*
X229583334Y-117568666D01*
X229583334Y-116383333D01*
X230768667Y-116383333D01*
G36*
X230768667Y-119431333D02*
G01*
X230768667Y-120616666D01*
X229752667Y-120616666D01*
X229752667Y-120447333D01*
X230599334Y-120447333D01*
X230599334Y-119600666D01*
X229752667Y-119600666D01*
X229752667Y-120447333D01*
X229752667Y-120616666D01*
X229583334Y-120616666D01*
X229583334Y-119431333D01*
X230768667Y-119431333D01*
G37*
X230768667Y-119431333D02*
X230768667Y-120616666D01*
X229752667Y-120616666D01*
X229752667Y-120447333D01*
X230599334Y-120447333D01*
X230599334Y-119600666D01*
X229752667Y-119600666D01*
X229752667Y-120447333D01*
X229752667Y-120616666D01*
X229583334Y-120616666D01*
X229583334Y-119431333D01*
X230768667Y-119431333D01*
G36*
X231002429Y-116724460D02*
G01*
X231022667Y-116722000D01*
X231104873Y-116786429D01*
X231107334Y-116806666D01*
X231042904Y-116888873D01*
X231022667Y-116891333D01*
X230940460Y-116826904D01*
X230938000Y-116806666D01*
X231002429Y-116724460D01*
G37*
X231002429Y-116724460D02*
X231022667Y-116722000D01*
X231104873Y-116786429D01*
X231107334Y-116806666D01*
X231042904Y-116888873D01*
X231022667Y-116891333D01*
X230940460Y-116826904D01*
X230938000Y-116806666D01*
X231002429Y-116724460D01*
G36*
X229617523Y-118042224D02*
G01*
X229700791Y-117863299D01*
X229710334Y-117852905D01*
X229821527Y-117772801D01*
X229926126Y-117817921D01*
X229984744Y-117873315D01*
X230074341Y-117996434D01*
X230027078Y-118055752D01*
X229957090Y-118147256D01*
X229925206Y-118314094D01*
X229934258Y-118482853D01*
X229987080Y-118580118D01*
X230006667Y-118584666D01*
X230077956Y-118648366D01*
X230085213Y-118784824D01*
X230033226Y-118912084D01*
X229985500Y-118947020D01*
X229923273Y-119016849D01*
X229938036Y-119047722D01*
X230027748Y-119034397D01*
X230180042Y-118924157D01*
X230231964Y-118875067D01*
X230371657Y-118705553D01*
X230379534Y-118613167D01*
X230364095Y-118605031D01*
X230289536Y-118502279D01*
X230263564Y-118305233D01*
X230284595Y-118081330D01*
X230351046Y-117898006D01*
X230381619Y-117858952D01*
X230532712Y-117763782D01*
X230682532Y-117742264D01*
X230765760Y-117800523D01*
X230768667Y-117822666D01*
X230704238Y-117904873D01*
X230684000Y-117907333D01*
X230601794Y-117971762D01*
X230599334Y-117992000D01*
X230670246Y-118060790D01*
X230768667Y-118076666D01*
X230906247Y-118112123D01*
X230938000Y-118161333D01*
X231008913Y-118230123D01*
X231107334Y-118246000D01*
X231244914Y-118281456D01*
X231276667Y-118330666D01*
X231203094Y-118390114D01*
X231025827Y-118415327D01*
X231022667Y-118415333D01*
X230838778Y-118444761D01*
X230766406Y-118512506D01*
X230829666Y-118587764D01*
X230873744Y-118605581D01*
X230910580Y-118673705D01*
X230843070Y-118779182D01*
X230720286Y-118873193D01*
X230720286Y-118754000D01*
X230770251Y-118703420D01*
X230731293Y-118604687D01*
X230662834Y-118549389D01*
X230600569Y-118493786D01*
X230662834Y-118450611D01*
X230764056Y-118354524D01*
X230717416Y-118270028D01*
X230599334Y-118246000D01*
X230462307Y-118303422D01*
X230438422Y-118442873D01*
X230533831Y-118615129D01*
X230550953Y-118633047D01*
X230671570Y-118732649D01*
X230720286Y-118754000D01*
X230720286Y-118873193D01*
X230714969Y-118877265D01*
X230570030Y-118923207D01*
X230563048Y-118923333D01*
X230446548Y-118967232D01*
X230430000Y-119008000D01*
X230359407Y-119077758D01*
X230267722Y-119092666D01*
X230108410Y-119141477D01*
X230056056Y-119198500D01*
X230000453Y-119260764D01*
X229957278Y-119198500D01*
X229840882Y-119109456D01*
X229745611Y-119092666D01*
X229609196Y-119029428D01*
X229583334Y-118923333D01*
X229643202Y-118781829D01*
X229752667Y-118754000D01*
X229890247Y-118718544D01*
X229922000Y-118669333D01*
X229851088Y-118600543D01*
X229752667Y-118584666D01*
X229636876Y-118552299D01*
X229589448Y-118425230D01*
X229583334Y-118282286D01*
X229617523Y-118042224D01*
G37*
X229617523Y-118042224D02*
X229700791Y-117863299D01*
X229710334Y-117852905D01*
X229821527Y-117772801D01*
X229926126Y-117817921D01*
X229984744Y-117873315D01*
X230074341Y-117996434D01*
X230027078Y-118055752D01*
X229957090Y-118147256D01*
X229925206Y-118314094D01*
X229934258Y-118482853D01*
X229987080Y-118580118D01*
X230006667Y-118584666D01*
X230077956Y-118648366D01*
X230085213Y-118784824D01*
X230033226Y-118912084D01*
X229985500Y-118947020D01*
X229923273Y-119016849D01*
X229938036Y-119047722D01*
X230027748Y-119034397D01*
X230180042Y-118924157D01*
X230231964Y-118875067D01*
X230371657Y-118705553D01*
X230379534Y-118613167D01*
X230364095Y-118605031D01*
X230289536Y-118502279D01*
X230263564Y-118305233D01*
X230284595Y-118081330D01*
X230351046Y-117898006D01*
X230381619Y-117858952D01*
X230532712Y-117763782D01*
X230682532Y-117742264D01*
X230765760Y-117800523D01*
X230768667Y-117822666D01*
X230704238Y-117904873D01*
X230684000Y-117907333D01*
X230601794Y-117971762D01*
X230599334Y-117992000D01*
X230670246Y-118060790D01*
X230768667Y-118076666D01*
X230906247Y-118112123D01*
X230938000Y-118161333D01*
X231008913Y-118230123D01*
X231107334Y-118246000D01*
X231244914Y-118281456D01*
X231276667Y-118330666D01*
X231203094Y-118390114D01*
X231025827Y-118415327D01*
X231022667Y-118415333D01*
X230838778Y-118444761D01*
X230766406Y-118512506D01*
X230829666Y-118587764D01*
X230873744Y-118605581D01*
X230910580Y-118673705D01*
X230843070Y-118779182D01*
X230720286Y-118873193D01*
X230720286Y-118754000D01*
X230770251Y-118703420D01*
X230731293Y-118604687D01*
X230662834Y-118549389D01*
X230600569Y-118493786D01*
X230662834Y-118450611D01*
X230764056Y-118354524D01*
X230717416Y-118270028D01*
X230599334Y-118246000D01*
X230462307Y-118303422D01*
X230438422Y-118442873D01*
X230533831Y-118615129D01*
X230550953Y-118633047D01*
X230671570Y-118732649D01*
X230720286Y-118754000D01*
X230720286Y-118873193D01*
X230714969Y-118877265D01*
X230570030Y-118923207D01*
X230563048Y-118923333D01*
X230446548Y-118967232D01*
X230430000Y-119008000D01*
X230359407Y-119077758D01*
X230267722Y-119092666D01*
X230108410Y-119141477D01*
X230056056Y-119198500D01*
X230000453Y-119260764D01*
X229957278Y-119198500D01*
X229840882Y-119109456D01*
X229745611Y-119092666D01*
X229609196Y-119029428D01*
X229583334Y-118923333D01*
X229643202Y-118781829D01*
X229752667Y-118754000D01*
X229890247Y-118718544D01*
X229922000Y-118669333D01*
X229851088Y-118600543D01*
X229752667Y-118584666D01*
X229636876Y-118552299D01*
X229589448Y-118425230D01*
X229583334Y-118282286D01*
X229617523Y-118042224D01*
G36*
X230962524Y-120184325D02*
G01*
X231021613Y-120108686D01*
X231022667Y-120108666D01*
X231104873Y-120173096D01*
X231107334Y-120193333D01*
X231171763Y-120275540D01*
X231192000Y-120278000D01*
X231260790Y-120207087D01*
X231276667Y-120108666D01*
X231312123Y-119971086D01*
X231361334Y-119939333D01*
X231438475Y-119997527D01*
X231423372Y-120139523D01*
X231328991Y-120316443D01*
X231232180Y-120426166D01*
X231058264Y-120575024D01*
X230970546Y-120593239D01*
X230940413Y-120474634D01*
X230938000Y-120362666D01*
X230962524Y-120184325D01*
G37*
X230962524Y-120184325D02*
X231021613Y-120108686D01*
X231022667Y-120108666D01*
X231104873Y-120173096D01*
X231107334Y-120193333D01*
X231171763Y-120275540D01*
X231192000Y-120278000D01*
X231260790Y-120207087D01*
X231276667Y-120108666D01*
X231312123Y-119971086D01*
X231361334Y-119939333D01*
X231438475Y-119997527D01*
X231423372Y-120139523D01*
X231328991Y-120316443D01*
X231232180Y-120426166D01*
X231058264Y-120575024D01*
X230970546Y-120593239D01*
X230940413Y-120474634D01*
X230938000Y-120362666D01*
X230962524Y-120184325D01*
G36*
X231510429Y-120449793D02*
G01*
X231530667Y-120447333D01*
X231612873Y-120511762D01*
X231615334Y-120532000D01*
X231550904Y-120614206D01*
X231530667Y-120616666D01*
X231448460Y-120552237D01*
X231446000Y-120532000D01*
X231510429Y-120449793D01*
G37*
X231510429Y-120449793D02*
X231530667Y-120447333D01*
X231612873Y-120511762D01*
X231615334Y-120532000D01*
X231550904Y-120614206D01*
X231530667Y-120616666D01*
X231448460Y-120552237D01*
X231446000Y-120532000D01*
X231510429Y-120449793D01*
G36*
X231171329Y-116396756D02*
G01*
X231309787Y-116389699D01*
X231442411Y-116442285D01*
X231481278Y-116489166D01*
X231536881Y-116551431D01*
X231580056Y-116489166D01*
X231700886Y-116403194D01*
X231898111Y-116390604D01*
X232096459Y-116449474D01*
X232171714Y-116504286D01*
X232261454Y-116601585D01*
X232266057Y-116675863D01*
X232171252Y-116783347D01*
X232078847Y-116870166D01*
X231889949Y-117005904D01*
X231723798Y-117059390D01*
X231625527Y-117020322D01*
X231615334Y-116976000D01*
X231686246Y-116907210D01*
X231784667Y-116891333D01*
X231926171Y-116831465D01*
X231954000Y-116722000D01*
X231918544Y-116584419D01*
X231869334Y-116552666D01*
X231787127Y-116617096D01*
X231784667Y-116637333D01*
X231713754Y-116706123D01*
X231615334Y-116722000D01*
X231477753Y-116757456D01*
X231446000Y-116806666D01*
X231381571Y-116888873D01*
X231361334Y-116891333D01*
X231292543Y-116820421D01*
X231276667Y-116722000D01*
X231241211Y-116584419D01*
X231192000Y-116552666D01*
X231109794Y-116488237D01*
X231107334Y-116468000D01*
X231171329Y-116396756D01*
G37*
X231171329Y-116396756D02*
X231309787Y-116389699D01*
X231442411Y-116442285D01*
X231481278Y-116489166D01*
X231536881Y-116551431D01*
X231580056Y-116489166D01*
X231700886Y-116403194D01*
X231898111Y-116390604D01*
X232096459Y-116449474D01*
X232171714Y-116504286D01*
X232261454Y-116601585D01*
X232266057Y-116675863D01*
X232171252Y-116783347D01*
X232078847Y-116870166D01*
X231889949Y-117005904D01*
X231723798Y-117059390D01*
X231625527Y-117020322D01*
X231615334Y-116976000D01*
X231686246Y-116907210D01*
X231784667Y-116891333D01*
X231926171Y-116831465D01*
X231954000Y-116722000D01*
X231918544Y-116584419D01*
X231869334Y-116552666D01*
X231787127Y-116617096D01*
X231784667Y-116637333D01*
X231713754Y-116706123D01*
X231615334Y-116722000D01*
X231477753Y-116757456D01*
X231446000Y-116806666D01*
X231381571Y-116888873D01*
X231361334Y-116891333D01*
X231292543Y-116820421D01*
X231276667Y-116722000D01*
X231241211Y-116584419D01*
X231192000Y-116552666D01*
X231109794Y-116488237D01*
X231107334Y-116468000D01*
X231171329Y-116396756D01*
G36*
X230672741Y-119117241D02*
G01*
X230846278Y-119092666D01*
X231037282Y-119060099D01*
X231136166Y-118986833D01*
X231193744Y-118932027D01*
X231265617Y-119005548D01*
X231365369Y-119082265D01*
X231412637Y-119069585D01*
X231399236Y-118979506D01*
X231283637Y-118844783D01*
X231276667Y-118838667D01*
X231159402Y-118702805D01*
X231145232Y-118607844D01*
X231147684Y-118605296D01*
X231229782Y-118608444D01*
X231252980Y-118648166D01*
X231356343Y-118717940D01*
X231568346Y-118752737D01*
X231622389Y-118754000D01*
X231841128Y-118768853D01*
X231936535Y-118828578D01*
X231954000Y-118923333D01*
X231989456Y-119060914D01*
X232038667Y-119092666D01*
X232091685Y-119167779D01*
X232121175Y-119355418D01*
X232123334Y-119431333D01*
X232104555Y-119643407D01*
X232057646Y-119761364D01*
X232038667Y-119770000D01*
X231979220Y-119696427D01*
X231954007Y-119519160D01*
X231954000Y-119516000D01*
X231918830Y-119318256D01*
X231820953Y-119262000D01*
X231700000Y-119300310D01*
X231700000Y-119092666D01*
X231782207Y-119028237D01*
X231784667Y-119008000D01*
X231720238Y-118925793D01*
X231700000Y-118923333D01*
X231617794Y-118987762D01*
X231615334Y-119008000D01*
X231679763Y-119090206D01*
X231700000Y-119092666D01*
X231700000Y-119300310D01*
X231674266Y-119308461D01*
X231539236Y-119414067D01*
X231469546Y-119528151D01*
X231482858Y-119581080D01*
X231567013Y-119571676D01*
X231615333Y-119516000D01*
X231710200Y-119443435D01*
X231756445Y-119459555D01*
X231755633Y-119551197D01*
X231704984Y-119597587D01*
X231634706Y-119673934D01*
X231695897Y-119777242D01*
X231722555Y-119804650D01*
X231870162Y-119912898D01*
X231954000Y-119939333D01*
X232112500Y-119869958D01*
X232247207Y-119711578D01*
X232292667Y-119564381D01*
X232336566Y-119447881D01*
X232377334Y-119431333D01*
X232432031Y-119504862D01*
X232458716Y-119686056D01*
X232458807Y-119915820D01*
X232433721Y-120135063D01*
X232384877Y-120284693D01*
X232356167Y-120313278D01*
X232293903Y-120368881D01*
X232356167Y-120412055D01*
X232449241Y-120502126D01*
X232445330Y-120593003D01*
X232384389Y-120616666D01*
X232285673Y-120550577D01*
X232263835Y-120510833D01*
X232206256Y-120456027D01*
X232134383Y-120529548D01*
X232031715Y-120600728D01*
X231979770Y-120581457D01*
X231978022Y-120495007D01*
X232017500Y-120471020D01*
X232122283Y-120395820D01*
X232083427Y-120322066D01*
X231924158Y-120280014D01*
X231869334Y-120278000D01*
X231685445Y-120248572D01*
X231613073Y-120180827D01*
X231676333Y-120105569D01*
X231720411Y-120087752D01*
X231769034Y-120026578D01*
X231684125Y-119911363D01*
X231524876Y-119804155D01*
X231371015Y-119772340D01*
X231281920Y-119824182D01*
X231276667Y-119854666D01*
X231205754Y-119923457D01*
X231192000Y-119925675D01*
X231192000Y-119600666D01*
X231260790Y-119529754D01*
X231276667Y-119431333D01*
X231241211Y-119293753D01*
X231192000Y-119262000D01*
X231123210Y-119332912D01*
X231107334Y-119431333D01*
X231142790Y-119568914D01*
X231192000Y-119600666D01*
X231192000Y-119925675D01*
X231107334Y-119939333D01*
X230996549Y-119910933D01*
X230947587Y-119796144D01*
X230938000Y-119600666D01*
X230923800Y-119379098D01*
X230866406Y-119281174D01*
X230768667Y-119262000D01*
X230631086Y-119226544D01*
X230599334Y-119177333D01*
X230672741Y-119117241D01*
G37*
X230672741Y-119117241D02*
X230846278Y-119092666D01*
X231037282Y-119060099D01*
X231136166Y-118986833D01*
X231193744Y-118932027D01*
X231265617Y-119005548D01*
X231365369Y-119082265D01*
X231412637Y-119069585D01*
X231399236Y-118979506D01*
X231283637Y-118844783D01*
X231276667Y-118838667D01*
X231159402Y-118702805D01*
X231145232Y-118607844D01*
X231147684Y-118605296D01*
X231229782Y-118608444D01*
X231252980Y-118648166D01*
X231356343Y-118717940D01*
X231568346Y-118752737D01*
X231622389Y-118754000D01*
X231841128Y-118768853D01*
X231936535Y-118828578D01*
X231954000Y-118923333D01*
X231989456Y-119060914D01*
X232038667Y-119092666D01*
X232091685Y-119167779D01*
X232121175Y-119355418D01*
X232123334Y-119431333D01*
X232104555Y-119643407D01*
X232057646Y-119761364D01*
X232038667Y-119770000D01*
X231979220Y-119696427D01*
X231954007Y-119519160D01*
X231954000Y-119516000D01*
X231918830Y-119318256D01*
X231820953Y-119262000D01*
X231700000Y-119300310D01*
X231700000Y-119092666D01*
X231782207Y-119028237D01*
X231784667Y-119008000D01*
X231720238Y-118925793D01*
X231700000Y-118923333D01*
X231617794Y-118987762D01*
X231615334Y-119008000D01*
X231679763Y-119090206D01*
X231700000Y-119092666D01*
X231700000Y-119300310D01*
X231674266Y-119308461D01*
X231539236Y-119414067D01*
X231469546Y-119528151D01*
X231482858Y-119581080D01*
X231567013Y-119571676D01*
X231615333Y-119516000D01*
X231710200Y-119443435D01*
X231756445Y-119459555D01*
X231755633Y-119551197D01*
X231704984Y-119597587D01*
X231634706Y-119673934D01*
X231695897Y-119777242D01*
X231722555Y-119804650D01*
X231870162Y-119912898D01*
X231954000Y-119939333D01*
X232112500Y-119869958D01*
X232247207Y-119711578D01*
X232292667Y-119564381D01*
X232336566Y-119447881D01*
X232377334Y-119431333D01*
X232432031Y-119504862D01*
X232458716Y-119686056D01*
X232458807Y-119915820D01*
X232433721Y-120135063D01*
X232384877Y-120284693D01*
X232356167Y-120313278D01*
X232293903Y-120368881D01*
X232356167Y-120412055D01*
X232449241Y-120502126D01*
X232445330Y-120593003D01*
X232384389Y-120616666D01*
X232285673Y-120550577D01*
X232263835Y-120510833D01*
X232206256Y-120456027D01*
X232134383Y-120529548D01*
X232031715Y-120600728D01*
X231979770Y-120581457D01*
X231978022Y-120495007D01*
X232017500Y-120471020D01*
X232122283Y-120395820D01*
X232083427Y-120322066D01*
X231924158Y-120280014D01*
X231869334Y-120278000D01*
X231685445Y-120248572D01*
X231613073Y-120180827D01*
X231676333Y-120105569D01*
X231720411Y-120087752D01*
X231769034Y-120026578D01*
X231684125Y-119911363D01*
X231524876Y-119804155D01*
X231371015Y-119772340D01*
X231281920Y-119824182D01*
X231276667Y-119854666D01*
X231205754Y-119923457D01*
X231192000Y-119925675D01*
X231192000Y-119600666D01*
X231260790Y-119529754D01*
X231276667Y-119431333D01*
X231241211Y-119293753D01*
X231192000Y-119262000D01*
X231123210Y-119332912D01*
X231107334Y-119431333D01*
X231142790Y-119568914D01*
X231192000Y-119600666D01*
X231192000Y-119925675D01*
X231107334Y-119939333D01*
X230996549Y-119910933D01*
X230947587Y-119796144D01*
X230938000Y-119600666D01*
X230923800Y-119379098D01*
X230866406Y-119281174D01*
X230768667Y-119262000D01*
X230631086Y-119226544D01*
X230599334Y-119177333D01*
X230672741Y-119117241D01*
G36*
X232501916Y-116428720D02*
G01*
X232650433Y-116385080D01*
X232716000Y-116383333D01*
X232914662Y-116407693D01*
X232953971Y-116484958D01*
X232843353Y-116616166D01*
X232663233Y-116713751D01*
X232520230Y-116689919D01*
X232462000Y-116552666D01*
X232501916Y-116428720D01*
G37*
X232501916Y-116428720D02*
X232650433Y-116385080D01*
X232716000Y-116383333D01*
X232914662Y-116407693D01*
X232953971Y-116484958D01*
X232843353Y-116616166D01*
X232663233Y-116713751D01*
X232520230Y-116689919D01*
X232462000Y-116552666D01*
X232501916Y-116428720D01*
G36*
X233345524Y-116402920D02*
G01*
X233432502Y-116411759D01*
X233489050Y-116470452D01*
X233571176Y-116545455D01*
X233618501Y-116489166D01*
X233706929Y-116387896D01*
X233790289Y-116431053D01*
X233816667Y-116552666D01*
X233761058Y-116692693D01*
X233683619Y-116722000D01*
X233536933Y-116675539D01*
X233401902Y-116569933D01*
X233332213Y-116455848D01*
X233345524Y-116402920D01*
G37*
X233345524Y-116402920D02*
X233432502Y-116411759D01*
X233489050Y-116470452D01*
X233571176Y-116545455D01*
X233618501Y-116489166D01*
X233706929Y-116387896D01*
X233790289Y-116431053D01*
X233816667Y-116552666D01*
X233761058Y-116692693D01*
X233683619Y-116722000D01*
X233536933Y-116675539D01*
X233401902Y-116569933D01*
X233332213Y-116455848D01*
X233345524Y-116402920D01*
G36*
X230965668Y-117466055D02*
G01*
X231065857Y-117401184D01*
X231100278Y-117399333D01*
X231253270Y-117351243D01*
X231300353Y-117293500D01*
X231374508Y-117238690D01*
X231413242Y-117262758D01*
X231423985Y-117350424D01*
X231382500Y-117375647D01*
X231282759Y-117478630D01*
X231287624Y-117622081D01*
X231383020Y-117725686D01*
X231446000Y-117738000D01*
X231587504Y-117678131D01*
X231615334Y-117568666D01*
X231675202Y-117427162D01*
X231784667Y-117399333D01*
X231922247Y-117363877D01*
X231954000Y-117314666D01*
X232018429Y-117232460D01*
X232038667Y-117230000D01*
X232107457Y-117300912D01*
X232123334Y-117399333D01*
X232158790Y-117536914D01*
X232208000Y-117568666D01*
X232279194Y-117504967D01*
X232286661Y-117368867D01*
X232235082Y-117242866D01*
X232187589Y-117209085D01*
X232138966Y-117147912D01*
X232223875Y-117032696D01*
X232437436Y-116925727D01*
X232752286Y-116891333D01*
X232981594Y-116874764D01*
X233120394Y-116832773D01*
X233139334Y-116806666D01*
X233203763Y-116724460D01*
X233224000Y-116722000D01*
X233292790Y-116792912D01*
X233308667Y-116891333D01*
X233344123Y-117028914D01*
X233393334Y-117060666D01*
X233475540Y-116996237D01*
X233478000Y-116976000D01*
X233542429Y-116893793D01*
X233562667Y-116891333D01*
X233631457Y-116962246D01*
X233647334Y-117060666D01*
X233682790Y-117198247D01*
X233732000Y-117230000D01*
X233803244Y-117293996D01*
X233810301Y-117432453D01*
X233757715Y-117565077D01*
X233710834Y-117603944D01*
X233648569Y-117659547D01*
X233710834Y-117702722D01*
X233789862Y-117801326D01*
X233815326Y-117946696D01*
X233781161Y-118058478D01*
X233739056Y-118076666D01*
X233637002Y-118011469D01*
X233612056Y-117970833D01*
X233556453Y-117908569D01*
X233513278Y-117970833D01*
X233417191Y-118072056D01*
X233332695Y-118025416D01*
X233308667Y-117907333D01*
X233344123Y-117769753D01*
X233393334Y-117738000D01*
X233462124Y-117667087D01*
X233478000Y-117568666D01*
X233513456Y-117431086D01*
X233562667Y-117399333D01*
X233644873Y-117334904D01*
X233647334Y-117314666D01*
X233585626Y-117239446D01*
X233444051Y-117245247D01*
X233287928Y-117325944D01*
X233260286Y-117350952D01*
X233166105Y-117526634D01*
X233139334Y-117689619D01*
X233101971Y-117858608D01*
X232971255Y-117907331D01*
X232970000Y-117907333D01*
X232832420Y-117942789D01*
X232800667Y-117992000D01*
X232729754Y-118060790D01*
X232716000Y-118063008D01*
X232716000Y-117738000D01*
X232895908Y-117717021D01*
X232962219Y-117618060D01*
X232970000Y-117484000D01*
X232949021Y-117304092D01*
X232850060Y-117237781D01*
X232716000Y-117230000D01*
X232536092Y-117250979D01*
X232469782Y-117349940D01*
X232462000Y-117484000D01*
X232482979Y-117663908D01*
X232581940Y-117730218D01*
X232716000Y-117738000D01*
X232716000Y-118063008D01*
X232631334Y-118076666D01*
X232502436Y-118140060D01*
X232458217Y-118276697D01*
X232512751Y-118406263D01*
X232567834Y-118439020D01*
X232622643Y-118513174D01*
X232598576Y-118551909D01*
X232510909Y-118562651D01*
X232485687Y-118521166D01*
X232403440Y-118419875D01*
X232321124Y-118460121D01*
X232292667Y-118584666D01*
X232328123Y-118722247D01*
X232377334Y-118754000D01*
X232446124Y-118824912D01*
X232462000Y-118923333D01*
X232497456Y-119060914D01*
X232546667Y-119092666D01*
X232615457Y-119021754D01*
X232631334Y-118923333D01*
X232691202Y-118781829D01*
X232800667Y-118754000D01*
X232938247Y-118789456D01*
X232970000Y-118838666D01*
X233040913Y-118907457D01*
X233139334Y-118923333D01*
X233276914Y-118958789D01*
X233308667Y-119008000D01*
X233379579Y-119076790D01*
X233478000Y-119092666D01*
X233615581Y-119057210D01*
X233647334Y-119008000D01*
X233576421Y-118939210D01*
X233478000Y-118923333D01*
X233336795Y-118882468D01*
X233319543Y-118797345D01*
X233413744Y-118733085D01*
X233462367Y-118671912D01*
X233377459Y-118556696D01*
X233228746Y-118433529D01*
X233156091Y-118452270D01*
X233139334Y-118584666D01*
X233114632Y-118730162D01*
X233029154Y-118725729D01*
X232921619Y-118633047D01*
X232839586Y-118487222D01*
X232803626Y-118301438D01*
X232818088Y-118142371D01*
X232885334Y-118076666D01*
X232967540Y-118141096D01*
X232970000Y-118161333D01*
X233040593Y-118231091D01*
X233132278Y-118246000D01*
X233291590Y-118294810D01*
X233343945Y-118351833D01*
X233399548Y-118414097D01*
X233442722Y-118351833D01*
X233559119Y-118262789D01*
X233654389Y-118246000D01*
X233778829Y-118309475D01*
X233818686Y-118448074D01*
X233762227Y-118584060D01*
X233710834Y-118619944D01*
X233648569Y-118675547D01*
X233710834Y-118718722D01*
X233787202Y-118830773D01*
X233816667Y-119015055D01*
X233793912Y-119191821D01*
X233689620Y-119255542D01*
X233569722Y-119262000D01*
X233376246Y-119229252D01*
X233273389Y-119156166D01*
X233217786Y-119093902D01*
X233174611Y-119156166D01*
X233059973Y-119223871D01*
X232819234Y-119259094D01*
X232708945Y-119262000D01*
X232460505Y-119255083D01*
X232337550Y-119219085D01*
X232296345Y-119131131D01*
X232292667Y-119044286D01*
X232231149Y-118799248D01*
X232074983Y-118630203D01*
X231917714Y-118584666D01*
X231801215Y-118540768D01*
X231784667Y-118500000D01*
X231713754Y-118431210D01*
X231615334Y-118415333D01*
X231477753Y-118379877D01*
X231446000Y-118330666D01*
X231516913Y-118261876D01*
X231615334Y-118246000D01*
X231752914Y-118210544D01*
X231784667Y-118161333D01*
X231848367Y-118090139D01*
X231984466Y-118082673D01*
X232110467Y-118134251D01*
X232144248Y-118181744D01*
X232206781Y-118228261D01*
X232326685Y-118139411D01*
X232426430Y-118018499D01*
X232400040Y-117923038D01*
X232326685Y-117844589D01*
X232203566Y-117754992D01*
X232144248Y-117802256D01*
X232065213Y-117902965D01*
X231983534Y-117863880D01*
X231954000Y-117738000D01*
X231918544Y-117600419D01*
X231869334Y-117568666D01*
X231809886Y-117642239D01*
X231784673Y-117819506D01*
X231784667Y-117822666D01*
X231760143Y-118001008D01*
X231701054Y-118076647D01*
X231700000Y-118076666D01*
X231617794Y-118012237D01*
X231615334Y-117992000D01*
X231540221Y-117938981D01*
X231352582Y-117909492D01*
X231276667Y-117907333D01*
X231059511Y-117897303D01*
X230962976Y-117842948D01*
X230938534Y-117707875D01*
X230938000Y-117653333D01*
X230965668Y-117466055D01*
G37*
X230965668Y-117466055D02*
X231065857Y-117401184D01*
X231100278Y-117399333D01*
X231253270Y-117351243D01*
X231300353Y-117293500D01*
X231374508Y-117238690D01*
X231413242Y-117262758D01*
X231423985Y-117350424D01*
X231382500Y-117375647D01*
X231282759Y-117478630D01*
X231287624Y-117622081D01*
X231383020Y-117725686D01*
X231446000Y-117738000D01*
X231587504Y-117678131D01*
X231615334Y-117568666D01*
X231675202Y-117427162D01*
X231784667Y-117399333D01*
X231922247Y-117363877D01*
X231954000Y-117314666D01*
X232018429Y-117232460D01*
X232038667Y-117230000D01*
X232107457Y-117300912D01*
X232123334Y-117399333D01*
X232158790Y-117536914D01*
X232208000Y-117568666D01*
X232279194Y-117504967D01*
X232286661Y-117368867D01*
X232235082Y-117242866D01*
X232187589Y-117209085D01*
X232138966Y-117147912D01*
X232223875Y-117032696D01*
X232437436Y-116925727D01*
X232752286Y-116891333D01*
X232981594Y-116874764D01*
X233120394Y-116832773D01*
X233139334Y-116806666D01*
X233203763Y-116724460D01*
X233224000Y-116722000D01*
X233292790Y-116792912D01*
X233308667Y-116891333D01*
X233344123Y-117028914D01*
X233393334Y-117060666D01*
X233475540Y-116996237D01*
X233478000Y-116976000D01*
X233542429Y-116893793D01*
X233562667Y-116891333D01*
X233631457Y-116962246D01*
X233647334Y-117060666D01*
X233682790Y-117198247D01*
X233732000Y-117230000D01*
X233803244Y-117293996D01*
X233810301Y-117432453D01*
X233757715Y-117565077D01*
X233710834Y-117603944D01*
X233648569Y-117659547D01*
X233710834Y-117702722D01*
X233789862Y-117801326D01*
X233815326Y-117946696D01*
X233781161Y-118058478D01*
X233739056Y-118076666D01*
X233637002Y-118011469D01*
X233612056Y-117970833D01*
X233556453Y-117908569D01*
X233513278Y-117970833D01*
X233417191Y-118072056D01*
X233332695Y-118025416D01*
X233308667Y-117907333D01*
X233344123Y-117769753D01*
X233393334Y-117738000D01*
X233462124Y-117667087D01*
X233478000Y-117568666D01*
X233513456Y-117431086D01*
X233562667Y-117399333D01*
X233644873Y-117334904D01*
X233647334Y-117314666D01*
X233585626Y-117239446D01*
X233444051Y-117245247D01*
X233287928Y-117325944D01*
X233260286Y-117350952D01*
X233166105Y-117526634D01*
X233139334Y-117689619D01*
X233101971Y-117858608D01*
X232971255Y-117907331D01*
X232970000Y-117907333D01*
X232832420Y-117942789D01*
X232800667Y-117992000D01*
X232729754Y-118060790D01*
X232716000Y-118063008D01*
X232716000Y-117738000D01*
X232895908Y-117717021D01*
X232962219Y-117618060D01*
X232970000Y-117484000D01*
X232949021Y-117304092D01*
X232850060Y-117237781D01*
X232716000Y-117230000D01*
X232536092Y-117250979D01*
X232469782Y-117349940D01*
X232462000Y-117484000D01*
X232482979Y-117663908D01*
X232581940Y-117730218D01*
X232716000Y-117738000D01*
X232716000Y-118063008D01*
X232631334Y-118076666D01*
X232502436Y-118140060D01*
X232458217Y-118276697D01*
X232512751Y-118406263D01*
X232567834Y-118439020D01*
X232622643Y-118513174D01*
X232598576Y-118551909D01*
X232510909Y-118562651D01*
X232485687Y-118521166D01*
X232403440Y-118419875D01*
X232321124Y-118460121D01*
X232292667Y-118584666D01*
X232328123Y-118722247D01*
X232377334Y-118754000D01*
X232446124Y-118824912D01*
X232462000Y-118923333D01*
X232497456Y-119060914D01*
X232546667Y-119092666D01*
X232615457Y-119021754D01*
X232631334Y-118923333D01*
X232691202Y-118781829D01*
X232800667Y-118754000D01*
X232938247Y-118789456D01*
X232970000Y-118838666D01*
X233040913Y-118907457D01*
X233139334Y-118923333D01*
X233276914Y-118958789D01*
X233308667Y-119008000D01*
X233379579Y-119076790D01*
X233478000Y-119092666D01*
X233615581Y-119057210D01*
X233647334Y-119008000D01*
X233576421Y-118939210D01*
X233478000Y-118923333D01*
X233336795Y-118882468D01*
X233319543Y-118797345D01*
X233413744Y-118733085D01*
X233462367Y-118671912D01*
X233377459Y-118556696D01*
X233228746Y-118433529D01*
X233156091Y-118452270D01*
X233139334Y-118584666D01*
X233114632Y-118730162D01*
X233029154Y-118725729D01*
X232921619Y-118633047D01*
X232839586Y-118487222D01*
X232803626Y-118301438D01*
X232818088Y-118142371D01*
X232885334Y-118076666D01*
X232967540Y-118141096D01*
X232970000Y-118161333D01*
X233040593Y-118231091D01*
X233132278Y-118246000D01*
X233291590Y-118294810D01*
X233343945Y-118351833D01*
X233399548Y-118414097D01*
X233442722Y-118351833D01*
X233559119Y-118262789D01*
X233654389Y-118246000D01*
X233778829Y-118309475D01*
X233818686Y-118448074D01*
X233762227Y-118584060D01*
X233710834Y-118619944D01*
X233648569Y-118675547D01*
X233710834Y-118718722D01*
X233787202Y-118830773D01*
X233816667Y-119015055D01*
X233793912Y-119191821D01*
X233689620Y-119255542D01*
X233569722Y-119262000D01*
X233376246Y-119229252D01*
X233273389Y-119156166D01*
X233217786Y-119093902D01*
X233174611Y-119156166D01*
X233059973Y-119223871D01*
X232819234Y-119259094D01*
X232708945Y-119262000D01*
X232460505Y-119255083D01*
X232337550Y-119219085D01*
X232296345Y-119131131D01*
X232292667Y-119044286D01*
X232231149Y-118799248D01*
X232074983Y-118630203D01*
X231917714Y-118584666D01*
X231801215Y-118540768D01*
X231784667Y-118500000D01*
X231713754Y-118431210D01*
X231615334Y-118415333D01*
X231477753Y-118379877D01*
X231446000Y-118330666D01*
X231516913Y-118261876D01*
X231615334Y-118246000D01*
X231752914Y-118210544D01*
X231784667Y-118161333D01*
X231848367Y-118090139D01*
X231984466Y-118082673D01*
X232110467Y-118134251D01*
X232144248Y-118181744D01*
X232206781Y-118228261D01*
X232326685Y-118139411D01*
X232426430Y-118018499D01*
X232400040Y-117923038D01*
X232326685Y-117844589D01*
X232203566Y-117754992D01*
X232144248Y-117802256D01*
X232065213Y-117902965D01*
X231983534Y-117863880D01*
X231954000Y-117738000D01*
X231918544Y-117600419D01*
X231869334Y-117568666D01*
X231809886Y-117642239D01*
X231784673Y-117819506D01*
X231784667Y-117822666D01*
X231760143Y-118001008D01*
X231701054Y-118076647D01*
X231700000Y-118076666D01*
X231617794Y-118012237D01*
X231615334Y-117992000D01*
X231540221Y-117938981D01*
X231352582Y-117909492D01*
X231276667Y-117907333D01*
X231059511Y-117897303D01*
X230962976Y-117842948D01*
X230938534Y-117707875D01*
X230938000Y-117653333D01*
X230965668Y-117466055D01*
G36*
X233816667Y-119431333D02*
G01*
X233816667Y-120616666D01*
X232800667Y-120616666D01*
X232800667Y-120447333D01*
X233647334Y-120447333D01*
X233647334Y-119600666D01*
X232800667Y-119600666D01*
X232800667Y-120447333D01*
X232800667Y-120616666D01*
X232631334Y-120616666D01*
X232631334Y-119431333D01*
X233816667Y-119431333D01*
G37*
X233816667Y-119431333D02*
X233816667Y-120616666D01*
X232800667Y-120616666D01*
X232800667Y-120447333D01*
X233647334Y-120447333D01*
X233647334Y-119600666D01*
X232800667Y-119600666D01*
X232800667Y-120447333D01*
X232800667Y-120616666D01*
X232631334Y-120616666D01*
X232631334Y-119431333D01*
X233816667Y-119431333D01*
G36*
X231217333Y-123501000D02*
G01*
X231217333Y-123289333D01*
X232423833Y-123289333D01*
X232423833Y-123501000D01*
X232826000Y-123501000D01*
X232826000Y-124771000D01*
X231217333Y-124771000D01*
X231217333Y-124305333D01*
X232423833Y-124305333D01*
X232423833Y-123733833D01*
X231217333Y-123733833D01*
X231217333Y-124305333D01*
X231217333Y-124771000D01*
X230815166Y-124771000D01*
X230815166Y-123501000D01*
X231217333Y-123501000D01*
G37*
X231217333Y-123501000D02*
X231217333Y-123289333D01*
X232423833Y-123289333D01*
X232423833Y-123501000D01*
X232826000Y-123501000D01*
X232826000Y-124771000D01*
X231217333Y-124771000D01*
X231217333Y-124305333D01*
X232423833Y-124305333D01*
X232423833Y-123733833D01*
X231217333Y-123733833D01*
X231217333Y-124305333D01*
X231217333Y-124771000D01*
X230815166Y-124771000D01*
X230815166Y-123501000D01*
X231217333Y-123501000D01*
G36*
X231217333Y-125130833D02*
G01*
X231217333Y-124919167D01*
X231619500Y-124919167D01*
X231619500Y-125130833D01*
X232021666Y-125130833D01*
X232021666Y-124919167D01*
X232826000Y-124919167D01*
X232826000Y-125384833D01*
X232021666Y-125384833D01*
X232021666Y-125956333D01*
X232826000Y-125956333D01*
X232826000Y-126400833D01*
X231217333Y-126400833D01*
X231217333Y-125956333D01*
X231619500Y-125956333D01*
X231619500Y-125384833D01*
X231217333Y-125384833D01*
X231217333Y-125956333D01*
X231217333Y-126400833D01*
X230815166Y-126400833D01*
X230815166Y-125130833D01*
X231217333Y-125130833D01*
G37*
X231217333Y-125130833D02*
X231217333Y-124919167D01*
X231619500Y-124919167D01*
X231619500Y-125130833D01*
X232021666Y-125130833D01*
X232021666Y-124919167D01*
X232826000Y-124919167D01*
X232826000Y-125384833D01*
X232021666Y-125384833D01*
X232021666Y-125956333D01*
X232826000Y-125956333D01*
X232826000Y-126400833D01*
X231217333Y-126400833D01*
X231217333Y-125956333D01*
X231619500Y-125956333D01*
X231619500Y-125384833D01*
X231217333Y-125384833D01*
X231217333Y-125956333D01*
X231217333Y-126400833D01*
X230815166Y-126400833D01*
X230815166Y-125130833D01*
X231217333Y-125130833D01*
G36*
X231217333Y-126760667D02*
G01*
X231217333Y-126570167D01*
X232423833Y-126570167D01*
X232423833Y-126760667D01*
X232826000Y-126760667D01*
X232826000Y-128030667D01*
X231217333Y-128030667D01*
X231217333Y-127586167D01*
X232423833Y-127586167D01*
X232423833Y-127014667D01*
X231217333Y-127014667D01*
X231217333Y-127586167D01*
X231217333Y-128030667D01*
X230815166Y-128030667D01*
X230815166Y-126760667D01*
X231217333Y-126760667D01*
G37*
X231217333Y-126760667D02*
X231217333Y-126570167D01*
X232423833Y-126570167D01*
X232423833Y-126760667D01*
X232826000Y-126760667D01*
X232826000Y-128030667D01*
X231217333Y-128030667D01*
X231217333Y-127586167D01*
X232423833Y-127586167D01*
X232423833Y-127014667D01*
X231217333Y-127014667D01*
X231217333Y-127586167D01*
X231217333Y-128030667D01*
X230815166Y-128030667D01*
X230815166Y-126760667D01*
X231217333Y-126760667D01*
D11*
%TO.C,C8*%
X261645000Y-114730000D02*
X264490000Y-114730000D01*
X256950000Y-114730000D02*
X259795000Y-114730000D01*
X261645000Y-125970000D02*
X264490000Y-125970000D01*
X256950000Y-125970000D02*
X259795000Y-125970000D01*
X264490000Y-125970000D02*
X264490000Y-114730000D01*
X256950000Y-125970000D02*
X256950000Y-114730000D01*
%TO.C,U1*%
X249150000Y-105340000D02*
X247500000Y-105340000D01*
X247500000Y-105340000D02*
X247500000Y-115620000D01*
X247500000Y-115620000D02*
X252800000Y-115620000D01*
X252800000Y-115620000D02*
X252800000Y-105340000D01*
X252800000Y-105340000D02*
X251150000Y-105340000D01*
X251150000Y-105340000D02*
G75*
G02*
X249150000Y-105340000I-1000000J0D01*
G01*
%TO.C,R2*%
X250180000Y-85460000D02*
X247570000Y-85460000D01*
X252920000Y-85460000D02*
G75*
G03*
X252920000Y-85460000I-1370000J0D01*
G01*
%TO.C,C6*%
X240650000Y-119080000D02*
X240650000Y-129320000D01*
X235410000Y-119080000D02*
X235410000Y-129320000D01*
X240650000Y-119080000D02*
X235410000Y-119080000D01*
X240650000Y-129320000D02*
X235410000Y-129320000D01*
%TO.C,R19*%
X240530000Y-134190000D02*
G75*
G03*
X240530000Y-134190000I-1370000J0D01*
G01*
X237790000Y-134190000D02*
X235180000Y-134190000D01*
%TO.C,Q2*%
X252320000Y-94780000D02*
X252320000Y-91180000D01*
X252308478Y-91141522D02*
G75*
G03*
X247870000Y-92980000I-1838478J-1838478D01*
G01*
X252308478Y-94818478D02*
G75*
G02*
X247870000Y-92980000I-1838478J1838478D01*
G01*
%TO.C,R13*%
X249620000Y-88630000D02*
X247010000Y-88630000D01*
X252360000Y-88630000D02*
G75*
G03*
X252360000Y-88630000I-1370000J0D01*
G01*
%TO.C,R8*%
X247750000Y-103505000D02*
G75*
G03*
X247750000Y-103505000I-1370000J0D01*
G01*
X247750000Y-103505000D02*
X250360000Y-103505000D01*
%TO.C,R5*%
X251940000Y-117435000D02*
G75*
G03*
X251940000Y-117435000I-1370000J0D01*
G01*
X251940000Y-117435000D02*
X254550000Y-117435000D01*
%TO.C,C11*%
X236800000Y-99160000D02*
G75*
G03*
X236800000Y-99160000I-2620000J0D01*
G01*
X234180000Y-98120000D02*
X234180000Y-96580000D01*
X234180000Y-101740000D02*
X234180000Y-100200000D01*
X234140000Y-98120000D02*
X234140000Y-96580000D01*
X234140000Y-101740000D02*
X234140000Y-100200000D01*
X234100000Y-101739000D02*
X234100000Y-100200000D01*
X234100000Y-98120000D02*
X234100000Y-96581000D01*
X234060000Y-101738000D02*
X234060000Y-100200000D01*
X234060000Y-98120000D02*
X234060000Y-96582000D01*
X234020000Y-101736000D02*
X234020000Y-100200000D01*
X234020000Y-98120000D02*
X234020000Y-96584000D01*
X233980000Y-101733000D02*
X233980000Y-100200000D01*
X233980000Y-98120000D02*
X233980000Y-96587000D01*
X233940000Y-101729000D02*
X233940000Y-100200000D01*
X233940000Y-98120000D02*
X233940000Y-96591000D01*
X233900000Y-101725000D02*
X233900000Y-100200000D01*
X233900000Y-98120000D02*
X233900000Y-96595000D01*
X233860000Y-101721000D02*
X233860000Y-100200000D01*
X233860000Y-98120000D02*
X233860000Y-96599000D01*
X233820000Y-101716000D02*
X233820000Y-100200000D01*
X233820000Y-98120000D02*
X233820000Y-96604000D01*
X233780000Y-101710000D02*
X233780000Y-100200000D01*
X233780000Y-98120000D02*
X233780000Y-96610000D01*
X233740000Y-101703000D02*
X233740000Y-100200000D01*
X233740000Y-98120000D02*
X233740000Y-96617000D01*
X233700000Y-101696000D02*
X233700000Y-100200000D01*
X233700000Y-98120000D02*
X233700000Y-96624000D01*
X233660000Y-101688000D02*
X233660000Y-100200000D01*
X233660000Y-98120000D02*
X233660000Y-96632000D01*
X233620000Y-101680000D02*
X233620000Y-100200000D01*
X233620000Y-98120000D02*
X233620000Y-96640000D01*
X233580000Y-101671000D02*
X233580000Y-100200000D01*
X233580000Y-98120000D02*
X233580000Y-96649000D01*
X233540000Y-101661000D02*
X233540000Y-100200000D01*
X233540000Y-98120000D02*
X233540000Y-96659000D01*
X233500000Y-101651000D02*
X233500000Y-100200000D01*
X233500000Y-98120000D02*
X233500000Y-96669000D01*
X233459000Y-101640000D02*
X233459000Y-100200000D01*
X233459000Y-98120000D02*
X233459000Y-96680000D01*
X233419000Y-101628000D02*
X233419000Y-100200000D01*
X233419000Y-98120000D02*
X233419000Y-96692000D01*
X233379000Y-101615000D02*
X233379000Y-100200000D01*
X233379000Y-98120000D02*
X233379000Y-96705000D01*
X233339000Y-101602000D02*
X233339000Y-100200000D01*
X233339000Y-98120000D02*
X233339000Y-96718000D01*
X233299000Y-101588000D02*
X233299000Y-100200000D01*
X233299000Y-98120000D02*
X233299000Y-96732000D01*
X233259000Y-101574000D02*
X233259000Y-100200000D01*
X233259000Y-98120000D02*
X233259000Y-96746000D01*
X233219000Y-101558000D02*
X233219000Y-100200000D01*
X233219000Y-98120000D02*
X233219000Y-96762000D01*
X233179000Y-101542000D02*
X233179000Y-100200000D01*
X233179000Y-98120000D02*
X233179000Y-96778000D01*
X233139000Y-101525000D02*
X233139000Y-100200000D01*
X233139000Y-98120000D02*
X233139000Y-96795000D01*
X233099000Y-101508000D02*
X233099000Y-100200000D01*
X233099000Y-98120000D02*
X233099000Y-96812000D01*
X233059000Y-101489000D02*
X233059000Y-100200000D01*
X233059000Y-98120000D02*
X233059000Y-96831000D01*
X233019000Y-101470000D02*
X233019000Y-100200000D01*
X233019000Y-98120000D02*
X233019000Y-96850000D01*
X232979000Y-101450000D02*
X232979000Y-100200000D01*
X232979000Y-98120000D02*
X232979000Y-96870000D01*
X232939000Y-101428000D02*
X232939000Y-100200000D01*
X232939000Y-98120000D02*
X232939000Y-96892000D01*
X232899000Y-101407000D02*
X232899000Y-100200000D01*
X232899000Y-98120000D02*
X232899000Y-96913000D01*
X232859000Y-101384000D02*
X232859000Y-100200000D01*
X232859000Y-98120000D02*
X232859000Y-96936000D01*
X232819000Y-101360000D02*
X232819000Y-100200000D01*
X232819000Y-98120000D02*
X232819000Y-96960000D01*
X232779000Y-101335000D02*
X232779000Y-100200000D01*
X232779000Y-98120000D02*
X232779000Y-96985000D01*
X232739000Y-101309000D02*
X232739000Y-100200000D01*
X232739000Y-98120000D02*
X232739000Y-97011000D01*
X232699000Y-101282000D02*
X232699000Y-100200000D01*
X232699000Y-98120000D02*
X232699000Y-97038000D01*
X232659000Y-101255000D02*
X232659000Y-100200000D01*
X232659000Y-98120000D02*
X232659000Y-97065000D01*
X232619000Y-101225000D02*
X232619000Y-100200000D01*
X232619000Y-98120000D02*
X232619000Y-97095000D01*
X232579000Y-101195000D02*
X232579000Y-100200000D01*
X232579000Y-98120000D02*
X232579000Y-97125000D01*
X232539000Y-101164000D02*
X232539000Y-100200000D01*
X232539000Y-98120000D02*
X232539000Y-97156000D01*
X232499000Y-101131000D02*
X232499000Y-100200000D01*
X232499000Y-98120000D02*
X232499000Y-97189000D01*
X232459000Y-101097000D02*
X232459000Y-100200000D01*
X232459000Y-98120000D02*
X232459000Y-97223000D01*
X232419000Y-101061000D02*
X232419000Y-100200000D01*
X232419000Y-98120000D02*
X232419000Y-97259000D01*
X232379000Y-101024000D02*
X232379000Y-100200000D01*
X232379000Y-98120000D02*
X232379000Y-97296000D01*
X232339000Y-100986000D02*
X232339000Y-100200000D01*
X232339000Y-98120000D02*
X232339000Y-97334000D01*
X232299000Y-100945000D02*
X232299000Y-100200000D01*
X232299000Y-98120000D02*
X232299000Y-97375000D01*
X232259000Y-100903000D02*
X232259000Y-100200000D01*
X232259000Y-98120000D02*
X232259000Y-97417000D01*
X232219000Y-100859000D02*
X232219000Y-100200000D01*
X232219000Y-98120000D02*
X232219000Y-97461000D01*
X232179000Y-100813000D02*
X232179000Y-100200000D01*
X232179000Y-98120000D02*
X232179000Y-97507000D01*
X232139000Y-100765000D02*
X232139000Y-97555000D01*
X232099000Y-100714000D02*
X232099000Y-97606000D01*
X232059000Y-100660000D02*
X232059000Y-97660000D01*
X232019000Y-100603000D02*
X232019000Y-97717000D01*
X231979000Y-100543000D02*
X231979000Y-97777000D01*
X231939000Y-100479000D02*
X231939000Y-97841000D01*
X231899000Y-100411000D02*
X231899000Y-97909000D01*
X231859000Y-100338000D02*
X231859000Y-97982000D01*
X231819000Y-100258000D02*
X231819000Y-98062000D01*
X231779000Y-100171000D02*
X231779000Y-98149000D01*
X231739000Y-100075000D02*
X231739000Y-98245000D01*
X231699000Y-99965000D02*
X231699000Y-98355000D01*
X231659000Y-99837000D02*
X231659000Y-98483000D01*
X231619000Y-99678000D02*
X231619000Y-98642000D01*
X231579000Y-99444000D02*
X231579000Y-98876000D01*
X236984775Y-100635000D02*
X236484775Y-100635000D01*
X236734775Y-100885000D02*
X236734775Y-100385000D01*
%TO.C,C2*%
X237634775Y-95315000D02*
X237634775Y-94815000D01*
X237884775Y-95065000D02*
X237384775Y-95065000D01*
X232479000Y-93874000D02*
X232479000Y-93306000D01*
X232519000Y-94108000D02*
X232519000Y-93072000D01*
X232559000Y-94267000D02*
X232559000Y-92913000D01*
X232599000Y-94395000D02*
X232599000Y-92785000D01*
X232639000Y-94505000D02*
X232639000Y-92675000D01*
X232679000Y-94601000D02*
X232679000Y-92579000D01*
X232719000Y-94688000D02*
X232719000Y-92492000D01*
X232759000Y-94768000D02*
X232759000Y-92412000D01*
X232799000Y-94841000D02*
X232799000Y-92339000D01*
X232839000Y-94909000D02*
X232839000Y-92271000D01*
X232879000Y-94973000D02*
X232879000Y-92207000D01*
X232919000Y-95033000D02*
X232919000Y-92147000D01*
X232959000Y-95090000D02*
X232959000Y-92090000D01*
X232999000Y-95144000D02*
X232999000Y-92036000D01*
X233039000Y-95195000D02*
X233039000Y-91985000D01*
X233079000Y-92550000D02*
X233079000Y-91937000D01*
X233079000Y-95243000D02*
X233079000Y-94630000D01*
X233119000Y-92550000D02*
X233119000Y-91891000D01*
X233119000Y-95289000D02*
X233119000Y-94630000D01*
X233159000Y-92550000D02*
X233159000Y-91847000D01*
X233159000Y-95333000D02*
X233159000Y-94630000D01*
X233199000Y-92550000D02*
X233199000Y-91805000D01*
X233199000Y-95375000D02*
X233199000Y-94630000D01*
X233239000Y-92550000D02*
X233239000Y-91764000D01*
X233239000Y-95416000D02*
X233239000Y-94630000D01*
X233279000Y-92550000D02*
X233279000Y-91726000D01*
X233279000Y-95454000D02*
X233279000Y-94630000D01*
X233319000Y-92550000D02*
X233319000Y-91689000D01*
X233319000Y-95491000D02*
X233319000Y-94630000D01*
X233359000Y-92550000D02*
X233359000Y-91653000D01*
X233359000Y-95527000D02*
X233359000Y-94630000D01*
X233399000Y-92550000D02*
X233399000Y-91619000D01*
X233399000Y-95561000D02*
X233399000Y-94630000D01*
X233439000Y-92550000D02*
X233439000Y-91586000D01*
X233439000Y-95594000D02*
X233439000Y-94630000D01*
X233479000Y-92550000D02*
X233479000Y-91555000D01*
X233479000Y-95625000D02*
X233479000Y-94630000D01*
X233519000Y-92550000D02*
X233519000Y-91525000D01*
X233519000Y-95655000D02*
X233519000Y-94630000D01*
X233559000Y-92550000D02*
X233559000Y-91495000D01*
X233559000Y-95685000D02*
X233559000Y-94630000D01*
X233599000Y-92550000D02*
X233599000Y-91468000D01*
X233599000Y-95712000D02*
X233599000Y-94630000D01*
X233639000Y-92550000D02*
X233639000Y-91441000D01*
X233639000Y-95739000D02*
X233639000Y-94630000D01*
X233679000Y-92550000D02*
X233679000Y-91415000D01*
X233679000Y-95765000D02*
X233679000Y-94630000D01*
X233719000Y-92550000D02*
X233719000Y-91390000D01*
X233719000Y-95790000D02*
X233719000Y-94630000D01*
X233759000Y-92550000D02*
X233759000Y-91366000D01*
X233759000Y-95814000D02*
X233759000Y-94630000D01*
X233799000Y-92550000D02*
X233799000Y-91343000D01*
X233799000Y-95837000D02*
X233799000Y-94630000D01*
X233839000Y-92550000D02*
X233839000Y-91322000D01*
X233839000Y-95858000D02*
X233839000Y-94630000D01*
X233879000Y-92550000D02*
X233879000Y-91300000D01*
X233879000Y-95880000D02*
X233879000Y-94630000D01*
X233919000Y-92550000D02*
X233919000Y-91280000D01*
X233919000Y-95900000D02*
X233919000Y-94630000D01*
X233959000Y-92550000D02*
X233959000Y-91261000D01*
X233959000Y-95919000D02*
X233959000Y-94630000D01*
X233999000Y-92550000D02*
X233999000Y-91242000D01*
X233999000Y-95938000D02*
X233999000Y-94630000D01*
X234039000Y-92550000D02*
X234039000Y-91225000D01*
X234039000Y-95955000D02*
X234039000Y-94630000D01*
X234079000Y-92550000D02*
X234079000Y-91208000D01*
X234079000Y-95972000D02*
X234079000Y-94630000D01*
X234119000Y-92550000D02*
X234119000Y-91192000D01*
X234119000Y-95988000D02*
X234119000Y-94630000D01*
X234159000Y-92550000D02*
X234159000Y-91176000D01*
X234159000Y-96004000D02*
X234159000Y-94630000D01*
X234199000Y-92550000D02*
X234199000Y-91162000D01*
X234199000Y-96018000D02*
X234199000Y-94630000D01*
X234239000Y-92550000D02*
X234239000Y-91148000D01*
X234239000Y-96032000D02*
X234239000Y-94630000D01*
X234279000Y-92550000D02*
X234279000Y-91135000D01*
X234279000Y-96045000D02*
X234279000Y-94630000D01*
X234319000Y-92550000D02*
X234319000Y-91122000D01*
X234319000Y-96058000D02*
X234319000Y-94630000D01*
X234359000Y-92550000D02*
X234359000Y-91110000D01*
X234359000Y-96070000D02*
X234359000Y-94630000D01*
X234400000Y-92550000D02*
X234400000Y-91099000D01*
X234400000Y-96081000D02*
X234400000Y-94630000D01*
X234440000Y-92550000D02*
X234440000Y-91089000D01*
X234440000Y-96091000D02*
X234440000Y-94630000D01*
X234480000Y-92550000D02*
X234480000Y-91079000D01*
X234480000Y-96101000D02*
X234480000Y-94630000D01*
X234520000Y-92550000D02*
X234520000Y-91070000D01*
X234520000Y-96110000D02*
X234520000Y-94630000D01*
X234560000Y-92550000D02*
X234560000Y-91062000D01*
X234560000Y-96118000D02*
X234560000Y-94630000D01*
X234600000Y-92550000D02*
X234600000Y-91054000D01*
X234600000Y-96126000D02*
X234600000Y-94630000D01*
X234640000Y-92550000D02*
X234640000Y-91047000D01*
X234640000Y-96133000D02*
X234640000Y-94630000D01*
X234680000Y-92550000D02*
X234680000Y-91040000D01*
X234680000Y-96140000D02*
X234680000Y-94630000D01*
X234720000Y-92550000D02*
X234720000Y-91034000D01*
X234720000Y-96146000D02*
X234720000Y-94630000D01*
X234760000Y-92550000D02*
X234760000Y-91029000D01*
X234760000Y-96151000D02*
X234760000Y-94630000D01*
X234800000Y-92550000D02*
X234800000Y-91025000D01*
X234800000Y-96155000D02*
X234800000Y-94630000D01*
X234840000Y-92550000D02*
X234840000Y-91021000D01*
X234840000Y-96159000D02*
X234840000Y-94630000D01*
X234880000Y-92550000D02*
X234880000Y-91017000D01*
X234880000Y-96163000D02*
X234880000Y-94630000D01*
X234920000Y-92550000D02*
X234920000Y-91014000D01*
X234920000Y-96166000D02*
X234920000Y-94630000D01*
X234960000Y-92550000D02*
X234960000Y-91012000D01*
X234960000Y-96168000D02*
X234960000Y-94630000D01*
X235000000Y-92550000D02*
X235000000Y-91011000D01*
X235000000Y-96169000D02*
X235000000Y-94630000D01*
X235040000Y-96170000D02*
X235040000Y-94630000D01*
X235040000Y-92550000D02*
X235040000Y-91010000D01*
X235080000Y-96170000D02*
X235080000Y-94630000D01*
X235080000Y-92550000D02*
X235080000Y-91010000D01*
X237700000Y-93590000D02*
G75*
G03*
X237700000Y-93590000I-2620000J0D01*
G01*
%TO.C,C4*%
X248790000Y-118700000D02*
G75*
G03*
X248790000Y-118700000I-2620000J0D01*
G01*
X247210000Y-118700000D02*
X248750000Y-118700000D01*
X243590000Y-118700000D02*
X245130000Y-118700000D01*
X247210000Y-118660000D02*
X248750000Y-118660000D01*
X243590000Y-118660000D02*
X245130000Y-118660000D01*
X243591000Y-118620000D02*
X245130000Y-118620000D01*
X247210000Y-118620000D02*
X248749000Y-118620000D01*
X243592000Y-118580000D02*
X245130000Y-118580000D01*
X247210000Y-118580000D02*
X248748000Y-118580000D01*
X243594000Y-118540000D02*
X245130000Y-118540000D01*
X247210000Y-118540000D02*
X248746000Y-118540000D01*
X243597000Y-118500000D02*
X245130000Y-118500000D01*
X247210000Y-118500000D02*
X248743000Y-118500000D01*
X243601000Y-118460000D02*
X245130000Y-118460000D01*
X247210000Y-118460000D02*
X248739000Y-118460000D01*
X243605000Y-118420000D02*
X245130000Y-118420000D01*
X247210000Y-118420000D02*
X248735000Y-118420000D01*
X243609000Y-118380000D02*
X245130000Y-118380000D01*
X247210000Y-118380000D02*
X248731000Y-118380000D01*
X243614000Y-118340000D02*
X245130000Y-118340000D01*
X247210000Y-118340000D02*
X248726000Y-118340000D01*
X243620000Y-118300000D02*
X245130000Y-118300000D01*
X247210000Y-118300000D02*
X248720000Y-118300000D01*
X243627000Y-118260000D02*
X245130000Y-118260000D01*
X247210000Y-118260000D02*
X248713000Y-118260000D01*
X243634000Y-118220000D02*
X245130000Y-118220000D01*
X247210000Y-118220000D02*
X248706000Y-118220000D01*
X243642000Y-118180000D02*
X245130000Y-118180000D01*
X247210000Y-118180000D02*
X248698000Y-118180000D01*
X243650000Y-118140000D02*
X245130000Y-118140000D01*
X247210000Y-118140000D02*
X248690000Y-118140000D01*
X243659000Y-118100000D02*
X245130000Y-118100000D01*
X247210000Y-118100000D02*
X248681000Y-118100000D01*
X243669000Y-118060000D02*
X245130000Y-118060000D01*
X247210000Y-118060000D02*
X248671000Y-118060000D01*
X243679000Y-118020000D02*
X245130000Y-118020000D01*
X247210000Y-118020000D02*
X248661000Y-118020000D01*
X243690000Y-117979000D02*
X245130000Y-117979000D01*
X247210000Y-117979000D02*
X248650000Y-117979000D01*
X243702000Y-117939000D02*
X245130000Y-117939000D01*
X247210000Y-117939000D02*
X248638000Y-117939000D01*
X243715000Y-117899000D02*
X245130000Y-117899000D01*
X247210000Y-117899000D02*
X248625000Y-117899000D01*
X243728000Y-117859000D02*
X245130000Y-117859000D01*
X247210000Y-117859000D02*
X248612000Y-117859000D01*
X243742000Y-117819000D02*
X245130000Y-117819000D01*
X247210000Y-117819000D02*
X248598000Y-117819000D01*
X243756000Y-117779000D02*
X245130000Y-117779000D01*
X247210000Y-117779000D02*
X248584000Y-117779000D01*
X243772000Y-117739000D02*
X245130000Y-117739000D01*
X247210000Y-117739000D02*
X248568000Y-117739000D01*
X243788000Y-117699000D02*
X245130000Y-117699000D01*
X247210000Y-117699000D02*
X248552000Y-117699000D01*
X243805000Y-117659000D02*
X245130000Y-117659000D01*
X247210000Y-117659000D02*
X248535000Y-117659000D01*
X243822000Y-117619000D02*
X245130000Y-117619000D01*
X247210000Y-117619000D02*
X248518000Y-117619000D01*
X243841000Y-117579000D02*
X245130000Y-117579000D01*
X247210000Y-117579000D02*
X248499000Y-117579000D01*
X243860000Y-117539000D02*
X245130000Y-117539000D01*
X247210000Y-117539000D02*
X248480000Y-117539000D01*
X243880000Y-117499000D02*
X245130000Y-117499000D01*
X247210000Y-117499000D02*
X248460000Y-117499000D01*
X243902000Y-117459000D02*
X245130000Y-117459000D01*
X247210000Y-117459000D02*
X248438000Y-117459000D01*
X243923000Y-117419000D02*
X245130000Y-117419000D01*
X247210000Y-117419000D02*
X248417000Y-117419000D01*
X243946000Y-117379000D02*
X245130000Y-117379000D01*
X247210000Y-117379000D02*
X248394000Y-117379000D01*
X243970000Y-117339000D02*
X245130000Y-117339000D01*
X247210000Y-117339000D02*
X248370000Y-117339000D01*
X243995000Y-117299000D02*
X245130000Y-117299000D01*
X247210000Y-117299000D02*
X248345000Y-117299000D01*
X244021000Y-117259000D02*
X245130000Y-117259000D01*
X247210000Y-117259000D02*
X248319000Y-117259000D01*
X244048000Y-117219000D02*
X245130000Y-117219000D01*
X247210000Y-117219000D02*
X248292000Y-117219000D01*
X244075000Y-117179000D02*
X245130000Y-117179000D01*
X247210000Y-117179000D02*
X248265000Y-117179000D01*
X244105000Y-117139000D02*
X245130000Y-117139000D01*
X247210000Y-117139000D02*
X248235000Y-117139000D01*
X244135000Y-117099000D02*
X245130000Y-117099000D01*
X247210000Y-117099000D02*
X248205000Y-117099000D01*
X244166000Y-117059000D02*
X245130000Y-117059000D01*
X247210000Y-117059000D02*
X248174000Y-117059000D01*
X244199000Y-117019000D02*
X245130000Y-117019000D01*
X247210000Y-117019000D02*
X248141000Y-117019000D01*
X244233000Y-116979000D02*
X245130000Y-116979000D01*
X247210000Y-116979000D02*
X248107000Y-116979000D01*
X244269000Y-116939000D02*
X245130000Y-116939000D01*
X247210000Y-116939000D02*
X248071000Y-116939000D01*
X244306000Y-116899000D02*
X245130000Y-116899000D01*
X247210000Y-116899000D02*
X248034000Y-116899000D01*
X244344000Y-116859000D02*
X245130000Y-116859000D01*
X247210000Y-116859000D02*
X247996000Y-116859000D01*
X244385000Y-116819000D02*
X245130000Y-116819000D01*
X247210000Y-116819000D02*
X247955000Y-116819000D01*
X244427000Y-116779000D02*
X245130000Y-116779000D01*
X247210000Y-116779000D02*
X247913000Y-116779000D01*
X244471000Y-116739000D02*
X245130000Y-116739000D01*
X247210000Y-116739000D02*
X247869000Y-116739000D01*
X244517000Y-116699000D02*
X245130000Y-116699000D01*
X247210000Y-116699000D02*
X247823000Y-116699000D01*
X244565000Y-116659000D02*
X247775000Y-116659000D01*
X244616000Y-116619000D02*
X247724000Y-116619000D01*
X244670000Y-116579000D02*
X247670000Y-116579000D01*
X244727000Y-116539000D02*
X247613000Y-116539000D01*
X244787000Y-116499000D02*
X247553000Y-116499000D01*
X244851000Y-116459000D02*
X247489000Y-116459000D01*
X244919000Y-116419000D02*
X247421000Y-116419000D01*
X244992000Y-116379000D02*
X247348000Y-116379000D01*
X245072000Y-116339000D02*
X247268000Y-116339000D01*
X245159000Y-116299000D02*
X247181000Y-116299000D01*
X245255000Y-116259000D02*
X247085000Y-116259000D01*
X245365000Y-116219000D02*
X246975000Y-116219000D01*
X245493000Y-116179000D02*
X246847000Y-116179000D01*
X245652000Y-116139000D02*
X246688000Y-116139000D01*
X245886000Y-116099000D02*
X246454000Y-116099000D01*
X244695000Y-121504775D02*
X244695000Y-121004775D01*
X244445000Y-121254775D02*
X244945000Y-121254775D01*
%TO.C,C9*%
X266910000Y-103750000D02*
G75*
G03*
X266910000Y-103750000I-2620000J0D01*
G01*
X264290000Y-104790000D02*
X264290000Y-106330000D01*
X264290000Y-101170000D02*
X264290000Y-102710000D01*
X264330000Y-104790000D02*
X264330000Y-106330000D01*
X264330000Y-101170000D02*
X264330000Y-102710000D01*
X264370000Y-101171000D02*
X264370000Y-102710000D01*
X264370000Y-104790000D02*
X264370000Y-106329000D01*
X264410000Y-101172000D02*
X264410000Y-102710000D01*
X264410000Y-104790000D02*
X264410000Y-106328000D01*
X264450000Y-101174000D02*
X264450000Y-102710000D01*
X264450000Y-104790000D02*
X264450000Y-106326000D01*
X264490000Y-101177000D02*
X264490000Y-102710000D01*
X264490000Y-104790000D02*
X264490000Y-106323000D01*
X264530000Y-101181000D02*
X264530000Y-102710000D01*
X264530000Y-104790000D02*
X264530000Y-106319000D01*
X264570000Y-101185000D02*
X264570000Y-102710000D01*
X264570000Y-104790000D02*
X264570000Y-106315000D01*
X264610000Y-101189000D02*
X264610000Y-102710000D01*
X264610000Y-104790000D02*
X264610000Y-106311000D01*
X264650000Y-101194000D02*
X264650000Y-102710000D01*
X264650000Y-104790000D02*
X264650000Y-106306000D01*
X264690000Y-101200000D02*
X264690000Y-102710000D01*
X264690000Y-104790000D02*
X264690000Y-106300000D01*
X264730000Y-101207000D02*
X264730000Y-102710000D01*
X264730000Y-104790000D02*
X264730000Y-106293000D01*
X264770000Y-101214000D02*
X264770000Y-102710000D01*
X264770000Y-104790000D02*
X264770000Y-106286000D01*
X264810000Y-101222000D02*
X264810000Y-102710000D01*
X264810000Y-104790000D02*
X264810000Y-106278000D01*
X264850000Y-101230000D02*
X264850000Y-102710000D01*
X264850000Y-104790000D02*
X264850000Y-106270000D01*
X264890000Y-101239000D02*
X264890000Y-102710000D01*
X264890000Y-104790000D02*
X264890000Y-106261000D01*
X264930000Y-101249000D02*
X264930000Y-102710000D01*
X264930000Y-104790000D02*
X264930000Y-106251000D01*
X264970000Y-101259000D02*
X264970000Y-102710000D01*
X264970000Y-104790000D02*
X264970000Y-106241000D01*
X265011000Y-101270000D02*
X265011000Y-102710000D01*
X265011000Y-104790000D02*
X265011000Y-106230000D01*
X265051000Y-101282000D02*
X265051000Y-102710000D01*
X265051000Y-104790000D02*
X265051000Y-106218000D01*
X265091000Y-101295000D02*
X265091000Y-102710000D01*
X265091000Y-104790000D02*
X265091000Y-106205000D01*
X265131000Y-101308000D02*
X265131000Y-102710000D01*
X265131000Y-104790000D02*
X265131000Y-106192000D01*
X265171000Y-101322000D02*
X265171000Y-102710000D01*
X265171000Y-104790000D02*
X265171000Y-106178000D01*
X265211000Y-101336000D02*
X265211000Y-102710000D01*
X265211000Y-104790000D02*
X265211000Y-106164000D01*
X265251000Y-101352000D02*
X265251000Y-102710000D01*
X265251000Y-104790000D02*
X265251000Y-106148000D01*
X265291000Y-101368000D02*
X265291000Y-102710000D01*
X265291000Y-104790000D02*
X265291000Y-106132000D01*
X265331000Y-101385000D02*
X265331000Y-102710000D01*
X265331000Y-104790000D02*
X265331000Y-106115000D01*
X265371000Y-101402000D02*
X265371000Y-102710000D01*
X265371000Y-104790000D02*
X265371000Y-106098000D01*
X265411000Y-101421000D02*
X265411000Y-102710000D01*
X265411000Y-104790000D02*
X265411000Y-106079000D01*
X265451000Y-101440000D02*
X265451000Y-102710000D01*
X265451000Y-104790000D02*
X265451000Y-106060000D01*
X265491000Y-101460000D02*
X265491000Y-102710000D01*
X265491000Y-104790000D02*
X265491000Y-106040000D01*
X265531000Y-101482000D02*
X265531000Y-102710000D01*
X265531000Y-104790000D02*
X265531000Y-106018000D01*
X265571000Y-101503000D02*
X265571000Y-102710000D01*
X265571000Y-104790000D02*
X265571000Y-105997000D01*
X265611000Y-101526000D02*
X265611000Y-102710000D01*
X265611000Y-104790000D02*
X265611000Y-105974000D01*
X265651000Y-101550000D02*
X265651000Y-102710000D01*
X265651000Y-104790000D02*
X265651000Y-105950000D01*
X265691000Y-101575000D02*
X265691000Y-102710000D01*
X265691000Y-104790000D02*
X265691000Y-105925000D01*
X265731000Y-101601000D02*
X265731000Y-102710000D01*
X265731000Y-104790000D02*
X265731000Y-105899000D01*
X265771000Y-101628000D02*
X265771000Y-102710000D01*
X265771000Y-104790000D02*
X265771000Y-105872000D01*
X265811000Y-101655000D02*
X265811000Y-102710000D01*
X265811000Y-104790000D02*
X265811000Y-105845000D01*
X265851000Y-101685000D02*
X265851000Y-102710000D01*
X265851000Y-104790000D02*
X265851000Y-105815000D01*
X265891000Y-101715000D02*
X265891000Y-102710000D01*
X265891000Y-104790000D02*
X265891000Y-105785000D01*
X265931000Y-101746000D02*
X265931000Y-102710000D01*
X265931000Y-104790000D02*
X265931000Y-105754000D01*
X265971000Y-101779000D02*
X265971000Y-102710000D01*
X265971000Y-104790000D02*
X265971000Y-105721000D01*
X266011000Y-101813000D02*
X266011000Y-102710000D01*
X266011000Y-104790000D02*
X266011000Y-105687000D01*
X266051000Y-101849000D02*
X266051000Y-102710000D01*
X266051000Y-104790000D02*
X266051000Y-105651000D01*
X266091000Y-101886000D02*
X266091000Y-102710000D01*
X266091000Y-104790000D02*
X266091000Y-105614000D01*
X266131000Y-101924000D02*
X266131000Y-102710000D01*
X266131000Y-104790000D02*
X266131000Y-105576000D01*
X266171000Y-101965000D02*
X266171000Y-102710000D01*
X266171000Y-104790000D02*
X266171000Y-105535000D01*
X266211000Y-102007000D02*
X266211000Y-102710000D01*
X266211000Y-104790000D02*
X266211000Y-105493000D01*
X266251000Y-102051000D02*
X266251000Y-102710000D01*
X266251000Y-104790000D02*
X266251000Y-105449000D01*
X266291000Y-102097000D02*
X266291000Y-102710000D01*
X266291000Y-104790000D02*
X266291000Y-105403000D01*
X266331000Y-102145000D02*
X266331000Y-105355000D01*
X266371000Y-102196000D02*
X266371000Y-105304000D01*
X266411000Y-102250000D02*
X266411000Y-105250000D01*
X266451000Y-102307000D02*
X266451000Y-105193000D01*
X266491000Y-102367000D02*
X266491000Y-105133000D01*
X266531000Y-102431000D02*
X266531000Y-105069000D01*
X266571000Y-102499000D02*
X266571000Y-105001000D01*
X266611000Y-102572000D02*
X266611000Y-104928000D01*
X266651000Y-102652000D02*
X266651000Y-104848000D01*
X266691000Y-102739000D02*
X266691000Y-104761000D01*
X266731000Y-102835000D02*
X266731000Y-104665000D01*
X266771000Y-102945000D02*
X266771000Y-104555000D01*
X266811000Y-103073000D02*
X266811000Y-104427000D01*
X266851000Y-103232000D02*
X266851000Y-104268000D01*
X266891000Y-103466000D02*
X266891000Y-104034000D01*
%TO.C,C1*%
X244630000Y-88580000D02*
G75*
G03*
X244630000Y-88580000I-2620000J0D01*
G01*
X242010000Y-87540000D02*
X242010000Y-86000000D01*
X242010000Y-91160000D02*
X242010000Y-89620000D01*
X241970000Y-87540000D02*
X241970000Y-86000000D01*
X241970000Y-91160000D02*
X241970000Y-89620000D01*
X241930000Y-91159000D02*
X241930000Y-89620000D01*
X241930000Y-87540000D02*
X241930000Y-86001000D01*
X241890000Y-91158000D02*
X241890000Y-89620000D01*
X241890000Y-87540000D02*
X241890000Y-86002000D01*
X241850000Y-91156000D02*
X241850000Y-89620000D01*
X241850000Y-87540000D02*
X241850000Y-86004000D01*
X241810000Y-91153000D02*
X241810000Y-89620000D01*
X241810000Y-87540000D02*
X241810000Y-86007000D01*
X241770000Y-91149000D02*
X241770000Y-89620000D01*
X241770000Y-87540000D02*
X241770000Y-86011000D01*
X241730000Y-91145000D02*
X241730000Y-89620000D01*
X241730000Y-87540000D02*
X241730000Y-86015000D01*
X241690000Y-91141000D02*
X241690000Y-89620000D01*
X241690000Y-87540000D02*
X241690000Y-86019000D01*
X241650000Y-91136000D02*
X241650000Y-89620000D01*
X241650000Y-87540000D02*
X241650000Y-86024000D01*
X241610000Y-91130000D02*
X241610000Y-89620000D01*
X241610000Y-87540000D02*
X241610000Y-86030000D01*
X241570000Y-91123000D02*
X241570000Y-89620000D01*
X241570000Y-87540000D02*
X241570000Y-86037000D01*
X241530000Y-91116000D02*
X241530000Y-89620000D01*
X241530000Y-87540000D02*
X241530000Y-86044000D01*
X241490000Y-91108000D02*
X241490000Y-89620000D01*
X241490000Y-87540000D02*
X241490000Y-86052000D01*
X241450000Y-91100000D02*
X241450000Y-89620000D01*
X241450000Y-87540000D02*
X241450000Y-86060000D01*
X241410000Y-91091000D02*
X241410000Y-89620000D01*
X241410000Y-87540000D02*
X241410000Y-86069000D01*
X241370000Y-91081000D02*
X241370000Y-89620000D01*
X241370000Y-87540000D02*
X241370000Y-86079000D01*
X241330000Y-91071000D02*
X241330000Y-89620000D01*
X241330000Y-87540000D02*
X241330000Y-86089000D01*
X241289000Y-91060000D02*
X241289000Y-89620000D01*
X241289000Y-87540000D02*
X241289000Y-86100000D01*
X241249000Y-91048000D02*
X241249000Y-89620000D01*
X241249000Y-87540000D02*
X241249000Y-86112000D01*
X241209000Y-91035000D02*
X241209000Y-89620000D01*
X241209000Y-87540000D02*
X241209000Y-86125000D01*
X241169000Y-91022000D02*
X241169000Y-89620000D01*
X241169000Y-87540000D02*
X241169000Y-86138000D01*
X241129000Y-91008000D02*
X241129000Y-89620000D01*
X241129000Y-87540000D02*
X241129000Y-86152000D01*
X241089000Y-90994000D02*
X241089000Y-89620000D01*
X241089000Y-87540000D02*
X241089000Y-86166000D01*
X241049000Y-90978000D02*
X241049000Y-89620000D01*
X241049000Y-87540000D02*
X241049000Y-86182000D01*
X241009000Y-90962000D02*
X241009000Y-89620000D01*
X241009000Y-87540000D02*
X241009000Y-86198000D01*
X240969000Y-90945000D02*
X240969000Y-89620000D01*
X240969000Y-87540000D02*
X240969000Y-86215000D01*
X240929000Y-90928000D02*
X240929000Y-89620000D01*
X240929000Y-87540000D02*
X240929000Y-86232000D01*
X240889000Y-90909000D02*
X240889000Y-89620000D01*
X240889000Y-87540000D02*
X240889000Y-86251000D01*
X240849000Y-90890000D02*
X240849000Y-89620000D01*
X240849000Y-87540000D02*
X240849000Y-86270000D01*
X240809000Y-90870000D02*
X240809000Y-89620000D01*
X240809000Y-87540000D02*
X240809000Y-86290000D01*
X240769000Y-90848000D02*
X240769000Y-89620000D01*
X240769000Y-87540000D02*
X240769000Y-86312000D01*
X240729000Y-90827000D02*
X240729000Y-89620000D01*
X240729000Y-87540000D02*
X240729000Y-86333000D01*
X240689000Y-90804000D02*
X240689000Y-89620000D01*
X240689000Y-87540000D02*
X240689000Y-86356000D01*
X240649000Y-90780000D02*
X240649000Y-89620000D01*
X240649000Y-87540000D02*
X240649000Y-86380000D01*
X240609000Y-90755000D02*
X240609000Y-89620000D01*
X240609000Y-87540000D02*
X240609000Y-86405000D01*
X240569000Y-90729000D02*
X240569000Y-89620000D01*
X240569000Y-87540000D02*
X240569000Y-86431000D01*
X240529000Y-90702000D02*
X240529000Y-89620000D01*
X240529000Y-87540000D02*
X240529000Y-86458000D01*
X240489000Y-90675000D02*
X240489000Y-89620000D01*
X240489000Y-87540000D02*
X240489000Y-86485000D01*
X240449000Y-90645000D02*
X240449000Y-89620000D01*
X240449000Y-87540000D02*
X240449000Y-86515000D01*
X240409000Y-90615000D02*
X240409000Y-89620000D01*
X240409000Y-87540000D02*
X240409000Y-86545000D01*
X240369000Y-90584000D02*
X240369000Y-89620000D01*
X240369000Y-87540000D02*
X240369000Y-86576000D01*
X240329000Y-90551000D02*
X240329000Y-89620000D01*
X240329000Y-87540000D02*
X240329000Y-86609000D01*
X240289000Y-90517000D02*
X240289000Y-89620000D01*
X240289000Y-87540000D02*
X240289000Y-86643000D01*
X240249000Y-90481000D02*
X240249000Y-89620000D01*
X240249000Y-87540000D02*
X240249000Y-86679000D01*
X240209000Y-90444000D02*
X240209000Y-89620000D01*
X240209000Y-87540000D02*
X240209000Y-86716000D01*
X240169000Y-90406000D02*
X240169000Y-89620000D01*
X240169000Y-87540000D02*
X240169000Y-86754000D01*
X240129000Y-90365000D02*
X240129000Y-89620000D01*
X240129000Y-87540000D02*
X240129000Y-86795000D01*
X240089000Y-90323000D02*
X240089000Y-89620000D01*
X240089000Y-87540000D02*
X240089000Y-86837000D01*
X240049000Y-90279000D02*
X240049000Y-89620000D01*
X240049000Y-87540000D02*
X240049000Y-86881000D01*
X240009000Y-90233000D02*
X240009000Y-89620000D01*
X240009000Y-87540000D02*
X240009000Y-86927000D01*
X239969000Y-90185000D02*
X239969000Y-86975000D01*
X239929000Y-90134000D02*
X239929000Y-87026000D01*
X239889000Y-90080000D02*
X239889000Y-87080000D01*
X239849000Y-90023000D02*
X239849000Y-87137000D01*
X239809000Y-89963000D02*
X239809000Y-87197000D01*
X239769000Y-89899000D02*
X239769000Y-87261000D01*
X239729000Y-89831000D02*
X239729000Y-87329000D01*
X239689000Y-89758000D02*
X239689000Y-87402000D01*
X239649000Y-89678000D02*
X239649000Y-87482000D01*
X239609000Y-89591000D02*
X239609000Y-87569000D01*
X239569000Y-89495000D02*
X239569000Y-87665000D01*
X239529000Y-89385000D02*
X239529000Y-87775000D01*
X239489000Y-89257000D02*
X239489000Y-87903000D01*
X239449000Y-89098000D02*
X239449000Y-88062000D01*
X239409000Y-88864000D02*
X239409000Y-88296000D01*
X244814775Y-90055000D02*
X244314775Y-90055000D01*
X244564775Y-90305000D02*
X244564775Y-89805000D01*
%TO.C,C7*%
X257465000Y-92500000D02*
X260310000Y-92500000D01*
X252770000Y-92500000D02*
X255615000Y-92500000D01*
X257465000Y-103740000D02*
X260310000Y-103740000D01*
X252770000Y-103740000D02*
X255615000Y-103740000D01*
X260310000Y-103740000D02*
X260310000Y-92500000D01*
X252770000Y-103740000D02*
X252770000Y-92500000D01*
%TO.C,R16*%
X240850000Y-92730000D02*
G75*
G03*
X240850000Y-92730000I-1370000J0D01*
G01*
X239480000Y-94100000D02*
X239480000Y-96710000D01*
%TO.C,R18*%
X235890000Y-131040000D02*
G75*
G03*
X235890000Y-131040000I-1370000J0D01*
G01*
X235890000Y-131040000D02*
X238500000Y-131040000D01*
%TO.C,Q1*%
X244350000Y-122480000D02*
X244350000Y-126080000D01*
X244361522Y-126118478D02*
G75*
G03*
X248800000Y-124280000I1838478J1838478D01*
G01*
X244361522Y-122441522D02*
G75*
G02*
X248800000Y-124280000I1838478J-1838478D01*
G01*
%TO.C,R7*%
X243910000Y-126790000D02*
G75*
G03*
X243910000Y-126790000I-1370000J0D01*
G01*
X242540000Y-125420000D02*
X242540000Y-122810000D01*
%TO.C,R15*%
X244610000Y-100490000D02*
G75*
G03*
X244610000Y-100490000I-1370000J0D01*
G01*
X241870000Y-100490000D02*
X239260000Y-100490000D01*
%TO.C,R1*%
X245170000Y-84280000D02*
G75*
G03*
X245170000Y-84280000I-1370000J0D01*
G01*
X242430000Y-84280000D02*
X239820000Y-84280000D01*
%TO.C,D3*%
X237480000Y-109010000D02*
X234540000Y-109010000D01*
X234540000Y-109010000D02*
X234540000Y-114450000D01*
X234540000Y-114450000D02*
X237480000Y-114450000D01*
X237480000Y-114450000D02*
X237480000Y-109010000D01*
X236010000Y-107990000D02*
X236010000Y-109010000D01*
X236010000Y-115470000D02*
X236010000Y-114450000D01*
X237480000Y-109910000D02*
X234540000Y-109910000D01*
X237480000Y-110030000D02*
X234540000Y-110030000D01*
X237480000Y-109790000D02*
X234540000Y-109790000D01*
%TO.C,R3*%
X251940000Y-126960000D02*
G75*
G03*
X251940000Y-126960000I-1370000J0D01*
G01*
X251940000Y-126960000D02*
X254550000Y-126960000D01*
%TO.C,R10*%
X262130000Y-112680000D02*
G75*
G03*
X262130000Y-112680000I-1370000J0D01*
G01*
X262130000Y-112680000D02*
X264740000Y-112680000D01*
%TO.C,C5*%
X244990000Y-108730000D02*
X244990000Y-115970000D01*
X241250000Y-108730000D02*
X241250000Y-115970000D01*
X244990000Y-108730000D02*
X241250000Y-108730000D01*
X244990000Y-115970000D02*
X241250000Y-115970000D01*
%TO.C,R4*%
X251940000Y-123785000D02*
G75*
G03*
X251940000Y-123785000I-1370000J0D01*
G01*
X251940000Y-123785000D02*
X254550000Y-123785000D01*
%TO.C,D1*%
X259160000Y-83420000D02*
X259160000Y-85660000D01*
X259160000Y-85660000D02*
X263400000Y-85660000D01*
X263400000Y-85660000D02*
X263400000Y-83420000D01*
X263400000Y-83420000D02*
X259160000Y-83420000D01*
X258510000Y-84540000D02*
X259160000Y-84540000D01*
X264050000Y-84540000D02*
X263400000Y-84540000D01*
X259880000Y-83420000D02*
X259880000Y-85660000D01*
X260000000Y-83420000D02*
X260000000Y-85660000D01*
X259760000Y-83420000D02*
X259760000Y-85660000D01*
%TO.C,R11*%
X257980000Y-109510000D02*
G75*
G03*
X257980000Y-109510000I-1370000J0D01*
G01*
X257980000Y-109510000D02*
X260590000Y-109510000D01*
%TO.C,C10*%
X253290000Y-86030000D02*
X260730000Y-86030000D01*
X253290000Y-91770000D02*
X260730000Y-91770000D01*
X253290000Y-86030000D02*
X253290000Y-91770000D01*
X260730000Y-86030000D02*
X260730000Y-91770000D01*
%TO.C,C3*%
X244720000Y-128710000D02*
X257960000Y-128710000D01*
X244720000Y-135450000D02*
X257960000Y-135450000D01*
X244720000Y-128710000D02*
X244720000Y-135450000D01*
X257960000Y-128710000D02*
X257960000Y-135450000D01*
%TO.C,R6*%
X233080000Y-103650000D02*
G75*
G03*
X233080000Y-103650000I-1370000J0D01*
G01*
X233080000Y-103650000D02*
X235690000Y-103650000D01*
%TO.C,R12*%
X263430000Y-99410000D02*
G75*
G03*
X263430000Y-99410000I-1370000J0D01*
G01*
X262060000Y-98040000D02*
X262060000Y-95430000D01*
%TO.C,R9*%
X247750000Y-100330000D02*
G75*
G03*
X247750000Y-100330000I-1370000J0D01*
G01*
X247750000Y-100330000D02*
X250360000Y-100330000D01*
%TO.C,R14*%
X252360000Y-97260000D02*
G75*
G03*
X252360000Y-97260000I-1370000J0D01*
G01*
X249620000Y-97260000D02*
X247010000Y-97260000D01*
%TO.C,R17*%
X251940000Y-120610000D02*
G75*
G03*
X251940000Y-120610000I-1370000J0D01*
G01*
X251940000Y-120610000D02*
X254550000Y-120610000D01*
%TO.C,D2*%
X237930000Y-115080000D02*
X240870000Y-115080000D01*
X240870000Y-115080000D02*
X240870000Y-109640000D01*
X240870000Y-109640000D02*
X237930000Y-109640000D01*
X237930000Y-109640000D02*
X237930000Y-115080000D01*
X239400000Y-116100000D02*
X239400000Y-115080000D01*
X239400000Y-108620000D02*
X239400000Y-109640000D01*
X237930000Y-114180000D02*
X240870000Y-114180000D01*
X237930000Y-114060000D02*
X240870000Y-114060000D01*
X237930000Y-114300000D02*
X240870000Y-114300000D01*
%TO.C,C8*%
D12*
X261077142Y-120436666D02*
X261124761Y-120484285D01*
X261172380Y-120627142D01*
X261172380Y-120722380D01*
X261124761Y-120865238D01*
X261029523Y-120960476D01*
X260934285Y-121008095D01*
X260743809Y-121055714D01*
X260600952Y-121055714D01*
X260410476Y-121008095D01*
X260315238Y-120960476D01*
X260220000Y-120865238D01*
X260172380Y-120722380D01*
X260172380Y-120627142D01*
X260220000Y-120484285D01*
X260267619Y-120436666D01*
X260600952Y-119865238D02*
X260553333Y-119960476D01*
X260505714Y-120008095D01*
X260410476Y-120055714D01*
X260362857Y-120055714D01*
X260267619Y-120008095D01*
X260220000Y-119960476D01*
X260172380Y-119865238D01*
X260172380Y-119674761D01*
X260220000Y-119579523D01*
X260267619Y-119531904D01*
X260362857Y-119484285D01*
X260410476Y-119484285D01*
X260505714Y-119531904D01*
X260553333Y-119579523D01*
X260600952Y-119674761D01*
X260600952Y-119865238D01*
X260648571Y-119960476D01*
X260696190Y-120008095D01*
X260791428Y-120055714D01*
X260981904Y-120055714D01*
X261077142Y-120008095D01*
X261124761Y-119960476D01*
X261172380Y-119865238D01*
X261172380Y-119674761D01*
X261124761Y-119579523D01*
X261077142Y-119531904D01*
X260981904Y-119484285D01*
X260791428Y-119484285D01*
X260696190Y-119531904D01*
X260648571Y-119579523D01*
X260600952Y-119674761D01*
%TO.C,P1*%
X230462380Y-107558095D02*
X229462380Y-107558095D01*
X229462380Y-107177142D01*
X229510000Y-107081904D01*
X229557619Y-107034285D01*
X229652857Y-106986666D01*
X229795714Y-106986666D01*
X229890952Y-107034285D01*
X229938571Y-107081904D01*
X229986190Y-107177142D01*
X229986190Y-107558095D01*
X230462380Y-106034285D02*
X230462380Y-106605714D01*
X230462380Y-106320000D02*
X229462380Y-106320000D01*
X229605238Y-106415238D01*
X229700476Y-106510476D01*
X229748095Y-106605714D01*
%TO.C,U1*%
X249388095Y-109932380D02*
X249388095Y-110741904D01*
X249435714Y-110837142D01*
X249483333Y-110884761D01*
X249578571Y-110932380D01*
X249769047Y-110932380D01*
X249864285Y-110884761D01*
X249911904Y-110837142D01*
X249959523Y-110741904D01*
X249959523Y-109932380D01*
X250959523Y-110932380D02*
X250388095Y-110932380D01*
X250673809Y-110932380D02*
X250673809Y-109932380D01*
X250578571Y-110075238D01*
X250483333Y-110170476D01*
X250388095Y-110218095D01*
%TO.C,R2*%
X248653333Y-85152380D02*
X248320000Y-84676190D01*
X248081904Y-85152380D02*
X248081904Y-84152380D01*
X248462857Y-84152380D01*
X248558095Y-84200000D01*
X248605714Y-84247619D01*
X248653333Y-84342857D01*
X248653333Y-84485714D01*
X248605714Y-84580952D01*
X248558095Y-84628571D01*
X248462857Y-84676190D01*
X248081904Y-84676190D01*
X249034285Y-84247619D02*
X249081904Y-84200000D01*
X249177142Y-84152380D01*
X249415238Y-84152380D01*
X249510476Y-84200000D01*
X249558095Y-84247619D01*
X249605714Y-84342857D01*
X249605714Y-84438095D01*
X249558095Y-84580952D01*
X248986666Y-85152380D01*
X249605714Y-85152380D01*
%TO.C,C6*%
X238387142Y-124366666D02*
X238434761Y-124414285D01*
X238482380Y-124557142D01*
X238482380Y-124652380D01*
X238434761Y-124795238D01*
X238339523Y-124890476D01*
X238244285Y-124938095D01*
X238053809Y-124985714D01*
X237910952Y-124985714D01*
X237720476Y-124938095D01*
X237625238Y-124890476D01*
X237530000Y-124795238D01*
X237482380Y-124652380D01*
X237482380Y-124557142D01*
X237530000Y-124414285D01*
X237577619Y-124366666D01*
X237482380Y-123509523D02*
X237482380Y-123700000D01*
X237530000Y-123795238D01*
X237577619Y-123842857D01*
X237720476Y-123938095D01*
X237910952Y-123985714D01*
X238291904Y-123985714D01*
X238387142Y-123938095D01*
X238434761Y-123890476D01*
X238482380Y-123795238D01*
X238482380Y-123604761D01*
X238434761Y-123509523D01*
X238387142Y-123461904D01*
X238291904Y-123414285D01*
X238053809Y-123414285D01*
X237958571Y-123461904D01*
X237910952Y-123509523D01*
X237863333Y-123604761D01*
X237863333Y-123795238D01*
X237910952Y-123890476D01*
X237958571Y-123938095D01*
X238053809Y-123985714D01*
%TO.C,S3*%
X245748095Y-92364761D02*
X245890952Y-92412380D01*
X246129047Y-92412380D01*
X246224285Y-92364761D01*
X246271904Y-92317142D01*
X246319523Y-92221904D01*
X246319523Y-92126666D01*
X246271904Y-92031428D01*
X246224285Y-91983809D01*
X246129047Y-91936190D01*
X245938571Y-91888571D01*
X245843333Y-91840952D01*
X245795714Y-91793333D01*
X245748095Y-91698095D01*
X245748095Y-91602857D01*
X245795714Y-91507619D01*
X245843333Y-91460000D01*
X245938571Y-91412380D01*
X246176666Y-91412380D01*
X246319523Y-91460000D01*
X246652857Y-91412380D02*
X247271904Y-91412380D01*
X246938571Y-91793333D01*
X247081428Y-91793333D01*
X247176666Y-91840952D01*
X247224285Y-91888571D01*
X247271904Y-91983809D01*
X247271904Y-92221904D01*
X247224285Y-92317142D01*
X247176666Y-92364761D01*
X247081428Y-92412380D01*
X246795714Y-92412380D01*
X246700476Y-92364761D01*
X246652857Y-92317142D01*
%TO.C,R19*%
X236037142Y-133882380D02*
X235703809Y-133406190D01*
X235465714Y-133882380D02*
X235465714Y-132882380D01*
X235846666Y-132882380D01*
X235941904Y-132930000D01*
X235989523Y-132977619D01*
X236037142Y-133072857D01*
X236037142Y-133215714D01*
X235989523Y-133310952D01*
X235941904Y-133358571D01*
X235846666Y-133406190D01*
X235465714Y-133406190D01*
X236989523Y-133882380D02*
X236418095Y-133882380D01*
X236703809Y-133882380D02*
X236703809Y-132882380D01*
X236608571Y-133025238D01*
X236513333Y-133120476D01*
X236418095Y-133168095D01*
X237465714Y-133882380D02*
X237656190Y-133882380D01*
X237751428Y-133834761D01*
X237799047Y-133787142D01*
X237894285Y-133644285D01*
X237941904Y-133453809D01*
X237941904Y-133072857D01*
X237894285Y-132977619D01*
X237846666Y-132930000D01*
X237751428Y-132882380D01*
X237560952Y-132882380D01*
X237465714Y-132930000D01*
X237418095Y-132977619D01*
X237370476Y-133072857D01*
X237370476Y-133310952D01*
X237418095Y-133406190D01*
X237465714Y-133453809D01*
X237560952Y-133501428D01*
X237751428Y-133501428D01*
X237846666Y-133453809D01*
X237894285Y-133406190D01*
X237941904Y-133310952D01*
%TO.C,P5*%
X242561904Y-109482380D02*
X242561904Y-108482380D01*
X242942857Y-108482380D01*
X243038095Y-108530000D01*
X243085714Y-108577619D01*
X243133333Y-108672857D01*
X243133333Y-108815714D01*
X243085714Y-108910952D01*
X243038095Y-108958571D01*
X242942857Y-109006190D01*
X242561904Y-109006190D01*
X244038095Y-108482380D02*
X243561904Y-108482380D01*
X243514285Y-108958571D01*
X243561904Y-108910952D01*
X243657142Y-108863333D01*
X243895238Y-108863333D01*
X243990476Y-108910952D01*
X244038095Y-108958571D01*
X244085714Y-109053809D01*
X244085714Y-109291904D01*
X244038095Y-109387142D01*
X243990476Y-109434761D01*
X243895238Y-109482380D01*
X243657142Y-109482380D01*
X243561904Y-109434761D01*
X243514285Y-109387142D01*
%TO.C,Q2*%
X249297619Y-93115238D02*
X249250000Y-93210476D01*
X249154761Y-93305714D01*
X249011904Y-93448571D01*
X248964285Y-93543809D01*
X248964285Y-93639047D01*
X249202380Y-93591428D02*
X249154761Y-93686666D01*
X249059523Y-93781904D01*
X248869047Y-93829523D01*
X248535714Y-93829523D01*
X248345238Y-93781904D01*
X248250000Y-93686666D01*
X248202380Y-93591428D01*
X248202380Y-93400952D01*
X248250000Y-93305714D01*
X248345238Y-93210476D01*
X248535714Y-93162857D01*
X248869047Y-93162857D01*
X249059523Y-93210476D01*
X249154761Y-93305714D01*
X249202380Y-93400952D01*
X249202380Y-93591428D01*
X248297619Y-92781904D02*
X248250000Y-92734285D01*
X248202380Y-92639047D01*
X248202380Y-92400952D01*
X248250000Y-92305714D01*
X248297619Y-92258095D01*
X248392857Y-92210476D01*
X248488095Y-92210476D01*
X248630952Y-92258095D01*
X249202380Y-92829523D01*
X249202380Y-92210476D01*
%TO.C,R13*%
X247837142Y-88312380D02*
X247503809Y-87836190D01*
X247265714Y-88312380D02*
X247265714Y-87312380D01*
X247646666Y-87312380D01*
X247741904Y-87360000D01*
X247789523Y-87407619D01*
X247837142Y-87502857D01*
X247837142Y-87645714D01*
X247789523Y-87740952D01*
X247741904Y-87788571D01*
X247646666Y-87836190D01*
X247265714Y-87836190D01*
X248789523Y-88312380D02*
X248218095Y-88312380D01*
X248503809Y-88312380D02*
X248503809Y-87312380D01*
X248408571Y-87455238D01*
X248313333Y-87550476D01*
X248218095Y-87598095D01*
X249122857Y-87312380D02*
X249741904Y-87312380D01*
X249408571Y-87693333D01*
X249551428Y-87693333D01*
X249646666Y-87740952D01*
X249694285Y-87788571D01*
X249741904Y-87883809D01*
X249741904Y-88121904D01*
X249694285Y-88217142D01*
X249646666Y-88264761D01*
X249551428Y-88312380D01*
X249265714Y-88312380D01*
X249170476Y-88264761D01*
X249122857Y-88217142D01*
%TO.C,R8*%
X248903333Y-103222380D02*
X248570000Y-102746190D01*
X248331904Y-103222380D02*
X248331904Y-102222380D01*
X248712857Y-102222380D01*
X248808095Y-102270000D01*
X248855714Y-102317619D01*
X248903333Y-102412857D01*
X248903333Y-102555714D01*
X248855714Y-102650952D01*
X248808095Y-102698571D01*
X248712857Y-102746190D01*
X248331904Y-102746190D01*
X249474761Y-102650952D02*
X249379523Y-102603333D01*
X249331904Y-102555714D01*
X249284285Y-102460476D01*
X249284285Y-102412857D01*
X249331904Y-102317619D01*
X249379523Y-102270000D01*
X249474761Y-102222380D01*
X249665238Y-102222380D01*
X249760476Y-102270000D01*
X249808095Y-102317619D01*
X249855714Y-102412857D01*
X249855714Y-102460476D01*
X249808095Y-102555714D01*
X249760476Y-102603333D01*
X249665238Y-102650952D01*
X249474761Y-102650952D01*
X249379523Y-102698571D01*
X249331904Y-102746190D01*
X249284285Y-102841428D01*
X249284285Y-103031904D01*
X249331904Y-103127142D01*
X249379523Y-103174761D01*
X249474761Y-103222380D01*
X249665238Y-103222380D01*
X249760476Y-103174761D01*
X249808095Y-103127142D01*
X249855714Y-103031904D01*
X249855714Y-102841428D01*
X249808095Y-102746190D01*
X249760476Y-102698571D01*
X249665238Y-102650952D01*
%TO.C,R5*%
X253083333Y-117222380D02*
X252750000Y-116746190D01*
X252511904Y-117222380D02*
X252511904Y-116222380D01*
X252892857Y-116222380D01*
X252988095Y-116270000D01*
X253035714Y-116317619D01*
X253083333Y-116412857D01*
X253083333Y-116555714D01*
X253035714Y-116650952D01*
X252988095Y-116698571D01*
X252892857Y-116746190D01*
X252511904Y-116746190D01*
X253988095Y-116222380D02*
X253511904Y-116222380D01*
X253464285Y-116698571D01*
X253511904Y-116650952D01*
X253607142Y-116603333D01*
X253845238Y-116603333D01*
X253940476Y-116650952D01*
X253988095Y-116698571D01*
X254035714Y-116793809D01*
X254035714Y-117031904D01*
X253988095Y-117127142D01*
X253940476Y-117174761D01*
X253845238Y-117222380D01*
X253607142Y-117222380D01*
X253511904Y-117174761D01*
X253464285Y-117127142D01*
%TO.C,C11*%
X230867142Y-99822857D02*
X230914761Y-99870476D01*
X230962380Y-100013333D01*
X230962380Y-100108571D01*
X230914761Y-100251428D01*
X230819523Y-100346666D01*
X230724285Y-100394285D01*
X230533809Y-100441904D01*
X230390952Y-100441904D01*
X230200476Y-100394285D01*
X230105238Y-100346666D01*
X230010000Y-100251428D01*
X229962380Y-100108571D01*
X229962380Y-100013333D01*
X230010000Y-99870476D01*
X230057619Y-99822857D01*
X230962380Y-98870476D02*
X230962380Y-99441904D01*
X230962380Y-99156190D02*
X229962380Y-99156190D01*
X230105238Y-99251428D01*
X230200476Y-99346666D01*
X230248095Y-99441904D01*
X230962380Y-97918095D02*
X230962380Y-98489523D01*
X230962380Y-98203809D02*
X229962380Y-98203809D01*
X230105238Y-98299047D01*
X230200476Y-98394285D01*
X230248095Y-98489523D01*
%TO.C,C2*%
X232103333Y-96487142D02*
X232055714Y-96534761D01*
X231912857Y-96582380D01*
X231817619Y-96582380D01*
X231674761Y-96534761D01*
X231579523Y-96439523D01*
X231531904Y-96344285D01*
X231484285Y-96153809D01*
X231484285Y-96010952D01*
X231531904Y-95820476D01*
X231579523Y-95725238D01*
X231674761Y-95630000D01*
X231817619Y-95582380D01*
X231912857Y-95582380D01*
X232055714Y-95630000D01*
X232103333Y-95677619D01*
X232484285Y-95677619D02*
X232531904Y-95630000D01*
X232627142Y-95582380D01*
X232865238Y-95582380D01*
X232960476Y-95630000D01*
X233008095Y-95677619D01*
X233055714Y-95772857D01*
X233055714Y-95868095D01*
X233008095Y-96010952D01*
X232436666Y-96582380D01*
X233055714Y-96582380D01*
%TO.C,C4*%
X242263333Y-119477142D02*
X242215714Y-119524761D01*
X242072857Y-119572380D01*
X241977619Y-119572380D01*
X241834761Y-119524761D01*
X241739523Y-119429523D01*
X241691904Y-119334285D01*
X241644285Y-119143809D01*
X241644285Y-119000952D01*
X241691904Y-118810476D01*
X241739523Y-118715238D01*
X241834761Y-118620000D01*
X241977619Y-118572380D01*
X242072857Y-118572380D01*
X242215714Y-118620000D01*
X242263333Y-118667619D01*
X243120476Y-118905714D02*
X243120476Y-119572380D01*
X242882380Y-118524761D02*
X242644285Y-119239047D01*
X243263333Y-119239047D01*
%TO.C,C9*%
X264793333Y-100777142D02*
X264745714Y-100824761D01*
X264602857Y-100872380D01*
X264507619Y-100872380D01*
X264364761Y-100824761D01*
X264269523Y-100729523D01*
X264221904Y-100634285D01*
X264174285Y-100443809D01*
X264174285Y-100300952D01*
X264221904Y-100110476D01*
X264269523Y-100015238D01*
X264364761Y-99920000D01*
X264507619Y-99872380D01*
X264602857Y-99872380D01*
X264745714Y-99920000D01*
X264793333Y-99967619D01*
X265269523Y-100872380D02*
X265460000Y-100872380D01*
X265555238Y-100824761D01*
X265602857Y-100777142D01*
X265698095Y-100634285D01*
X265745714Y-100443809D01*
X265745714Y-100062857D01*
X265698095Y-99967619D01*
X265650476Y-99920000D01*
X265555238Y-99872380D01*
X265364761Y-99872380D01*
X265269523Y-99920000D01*
X265221904Y-99967619D01*
X265174285Y-100062857D01*
X265174285Y-100300952D01*
X265221904Y-100396190D01*
X265269523Y-100443809D01*
X265364761Y-100491428D01*
X265555238Y-100491428D01*
X265650476Y-100443809D01*
X265698095Y-100396190D01*
X265745714Y-100300952D01*
%TO.C,C1*%
X238883333Y-86817142D02*
X238835714Y-86864761D01*
X238692857Y-86912380D01*
X238597619Y-86912380D01*
X238454761Y-86864761D01*
X238359523Y-86769523D01*
X238311904Y-86674285D01*
X238264285Y-86483809D01*
X238264285Y-86340952D01*
X238311904Y-86150476D01*
X238359523Y-86055238D01*
X238454761Y-85960000D01*
X238597619Y-85912380D01*
X238692857Y-85912380D01*
X238835714Y-85960000D01*
X238883333Y-86007619D01*
X239835714Y-86912380D02*
X239264285Y-86912380D01*
X239550000Y-86912380D02*
X239550000Y-85912380D01*
X239454761Y-86055238D01*
X239359523Y-86150476D01*
X239264285Y-86198095D01*
%TO.C,C7*%
X256897142Y-98206666D02*
X256944761Y-98254285D01*
X256992380Y-98397142D01*
X256992380Y-98492380D01*
X256944761Y-98635238D01*
X256849523Y-98730476D01*
X256754285Y-98778095D01*
X256563809Y-98825714D01*
X256420952Y-98825714D01*
X256230476Y-98778095D01*
X256135238Y-98730476D01*
X256040000Y-98635238D01*
X255992380Y-98492380D01*
X255992380Y-98397142D01*
X256040000Y-98254285D01*
X256087619Y-98206666D01*
X255992380Y-97873333D02*
X255992380Y-97206666D01*
X256992380Y-97635238D01*
%TO.C,S1*%
X259923095Y-130784761D02*
X260065952Y-130832380D01*
X260304047Y-130832380D01*
X260399285Y-130784761D01*
X260446904Y-130737142D01*
X260494523Y-130641904D01*
X260494523Y-130546666D01*
X260446904Y-130451428D01*
X260399285Y-130403809D01*
X260304047Y-130356190D01*
X260113571Y-130308571D01*
X260018333Y-130260952D01*
X259970714Y-130213333D01*
X259923095Y-130118095D01*
X259923095Y-130022857D01*
X259970714Y-129927619D01*
X260018333Y-129880000D01*
X260113571Y-129832380D01*
X260351666Y-129832380D01*
X260494523Y-129880000D01*
X261446904Y-130832380D02*
X260875476Y-130832380D01*
X261161190Y-130832380D02*
X261161190Y-129832380D01*
X261065952Y-129975238D01*
X260970714Y-130070476D01*
X260875476Y-130118095D01*
%TO.C,R16*%
X239102380Y-96062857D02*
X238626190Y-96396190D01*
X239102380Y-96634285D02*
X238102380Y-96634285D01*
X238102380Y-96253333D01*
X238150000Y-96158095D01*
X238197619Y-96110476D01*
X238292857Y-96062857D01*
X238435714Y-96062857D01*
X238530952Y-96110476D01*
X238578571Y-96158095D01*
X238626190Y-96253333D01*
X238626190Y-96634285D01*
X239102380Y-95110476D02*
X239102380Y-95681904D01*
X239102380Y-95396190D02*
X238102380Y-95396190D01*
X238245238Y-95491428D01*
X238340476Y-95586666D01*
X238388095Y-95681904D01*
X238102380Y-94253333D02*
X238102380Y-94443809D01*
X238150000Y-94539047D01*
X238197619Y-94586666D01*
X238340476Y-94681904D01*
X238530952Y-94729523D01*
X238911904Y-94729523D01*
X239007142Y-94681904D01*
X239054761Y-94634285D01*
X239102380Y-94539047D01*
X239102380Y-94348571D01*
X239054761Y-94253333D01*
X239007142Y-94205714D01*
X238911904Y-94158095D01*
X238673809Y-94158095D01*
X238578571Y-94205714D01*
X238530952Y-94253333D01*
X238483333Y-94348571D01*
X238483333Y-94539047D01*
X238530952Y-94634285D01*
X238578571Y-94681904D01*
X238673809Y-94729523D01*
%TO.C,R18*%
X236437142Y-130712380D02*
X236103809Y-130236190D01*
X235865714Y-130712380D02*
X235865714Y-129712380D01*
X236246666Y-129712380D01*
X236341904Y-129760000D01*
X236389523Y-129807619D01*
X236437142Y-129902857D01*
X236437142Y-130045714D01*
X236389523Y-130140952D01*
X236341904Y-130188571D01*
X236246666Y-130236190D01*
X235865714Y-130236190D01*
X237389523Y-130712380D02*
X236818095Y-130712380D01*
X237103809Y-130712380D02*
X237103809Y-129712380D01*
X237008571Y-129855238D01*
X236913333Y-129950476D01*
X236818095Y-129998095D01*
X237960952Y-130140952D02*
X237865714Y-130093333D01*
X237818095Y-130045714D01*
X237770476Y-129950476D01*
X237770476Y-129902857D01*
X237818095Y-129807619D01*
X237865714Y-129760000D01*
X237960952Y-129712380D01*
X238151428Y-129712380D01*
X238246666Y-129760000D01*
X238294285Y-129807619D01*
X238341904Y-129902857D01*
X238341904Y-129950476D01*
X238294285Y-130045714D01*
X238246666Y-130093333D01*
X238151428Y-130140952D01*
X237960952Y-130140952D01*
X237865714Y-130188571D01*
X237818095Y-130236190D01*
X237770476Y-130331428D01*
X237770476Y-130521904D01*
X237818095Y-130617142D01*
X237865714Y-130664761D01*
X237960952Y-130712380D01*
X238151428Y-130712380D01*
X238246666Y-130664761D01*
X238294285Y-130617142D01*
X238341904Y-130521904D01*
X238341904Y-130331428D01*
X238294285Y-130236190D01*
X238246666Y-130188571D01*
X238151428Y-130140952D01*
%TO.C,Q1*%
X248497619Y-124235238D02*
X248450000Y-124330476D01*
X248354761Y-124425714D01*
X248211904Y-124568571D01*
X248164285Y-124663809D01*
X248164285Y-124759047D01*
X248402380Y-124711428D02*
X248354761Y-124806666D01*
X248259523Y-124901904D01*
X248069047Y-124949523D01*
X247735714Y-124949523D01*
X247545238Y-124901904D01*
X247450000Y-124806666D01*
X247402380Y-124711428D01*
X247402380Y-124520952D01*
X247450000Y-124425714D01*
X247545238Y-124330476D01*
X247735714Y-124282857D01*
X248069047Y-124282857D01*
X248259523Y-124330476D01*
X248354761Y-124425714D01*
X248402380Y-124520952D01*
X248402380Y-124711428D01*
X248402380Y-123330476D02*
X248402380Y-123901904D01*
X248402380Y-123616190D02*
X247402380Y-123616190D01*
X247545238Y-123711428D01*
X247640476Y-123806666D01*
X247688095Y-123901904D01*
%TO.C,P3*%
X258192380Y-106858095D02*
X257192380Y-106858095D01*
X257192380Y-106477142D01*
X257240000Y-106381904D01*
X257287619Y-106334285D01*
X257382857Y-106286666D01*
X257525714Y-106286666D01*
X257620952Y-106334285D01*
X257668571Y-106381904D01*
X257716190Y-106477142D01*
X257716190Y-106858095D01*
X257192380Y-105953333D02*
X257192380Y-105334285D01*
X257573333Y-105667619D01*
X257573333Y-105524761D01*
X257620952Y-105429523D01*
X257668571Y-105381904D01*
X257763809Y-105334285D01*
X258001904Y-105334285D01*
X258097142Y-105381904D01*
X258144761Y-105429523D01*
X258192380Y-105524761D01*
X258192380Y-105810476D01*
X258144761Y-105905714D01*
X258097142Y-105953333D01*
%TO.C,S7*%
X242098095Y-135854761D02*
X242240952Y-135902380D01*
X242479047Y-135902380D01*
X242574285Y-135854761D01*
X242621904Y-135807142D01*
X242669523Y-135711904D01*
X242669523Y-135616666D01*
X242621904Y-135521428D01*
X242574285Y-135473809D01*
X242479047Y-135426190D01*
X242288571Y-135378571D01*
X242193333Y-135330952D01*
X242145714Y-135283333D01*
X242098095Y-135188095D01*
X242098095Y-135092857D01*
X242145714Y-134997619D01*
X242193333Y-134950000D01*
X242288571Y-134902380D01*
X242526666Y-134902380D01*
X242669523Y-134950000D01*
X243002857Y-134902380D02*
X243669523Y-134902380D01*
X243240952Y-135902380D01*
%TO.C,R7*%
X242162380Y-124336666D02*
X241686190Y-124670000D01*
X242162380Y-124908095D02*
X241162380Y-124908095D01*
X241162380Y-124527142D01*
X241210000Y-124431904D01*
X241257619Y-124384285D01*
X241352857Y-124336666D01*
X241495714Y-124336666D01*
X241590952Y-124384285D01*
X241638571Y-124431904D01*
X241686190Y-124527142D01*
X241686190Y-124908095D01*
X241162380Y-124003333D02*
X241162380Y-123336666D01*
X242162380Y-123765238D01*
%TO.C,S4*%
X241414761Y-97071904D02*
X241462380Y-96929047D01*
X241462380Y-96690952D01*
X241414761Y-96595714D01*
X241367142Y-96548095D01*
X241271904Y-96500476D01*
X241176666Y-96500476D01*
X241081428Y-96548095D01*
X241033809Y-96595714D01*
X240986190Y-96690952D01*
X240938571Y-96881428D01*
X240890952Y-96976666D01*
X240843333Y-97024285D01*
X240748095Y-97071904D01*
X240652857Y-97071904D01*
X240557619Y-97024285D01*
X240510000Y-96976666D01*
X240462380Y-96881428D01*
X240462380Y-96643333D01*
X240510000Y-96500476D01*
X240795714Y-95643333D02*
X241462380Y-95643333D01*
X240414761Y-95881428D02*
X241129047Y-96119523D01*
X241129047Y-95500476D01*
%TO.C,R15*%
X240067142Y-100242380D02*
X239733809Y-99766190D01*
X239495714Y-100242380D02*
X239495714Y-99242380D01*
X239876666Y-99242380D01*
X239971904Y-99290000D01*
X240019523Y-99337619D01*
X240067142Y-99432857D01*
X240067142Y-99575714D01*
X240019523Y-99670952D01*
X239971904Y-99718571D01*
X239876666Y-99766190D01*
X239495714Y-99766190D01*
X241019523Y-100242380D02*
X240448095Y-100242380D01*
X240733809Y-100242380D02*
X240733809Y-99242380D01*
X240638571Y-99385238D01*
X240543333Y-99480476D01*
X240448095Y-99528095D01*
X241924285Y-99242380D02*
X241448095Y-99242380D01*
X241400476Y-99718571D01*
X241448095Y-99670952D01*
X241543333Y-99623333D01*
X241781428Y-99623333D01*
X241876666Y-99670952D01*
X241924285Y-99718571D01*
X241971904Y-99813809D01*
X241971904Y-100051904D01*
X241924285Y-100147142D01*
X241876666Y-100194761D01*
X241781428Y-100242380D01*
X241543333Y-100242380D01*
X241448095Y-100194761D01*
X241400476Y-100147142D01*
%TO.C,S2*%
X238758095Y-102394761D02*
X238900952Y-102442380D01*
X239139047Y-102442380D01*
X239234285Y-102394761D01*
X239281904Y-102347142D01*
X239329523Y-102251904D01*
X239329523Y-102156666D01*
X239281904Y-102061428D01*
X239234285Y-102013809D01*
X239139047Y-101966190D01*
X238948571Y-101918571D01*
X238853333Y-101870952D01*
X238805714Y-101823333D01*
X238758095Y-101728095D01*
X238758095Y-101632857D01*
X238805714Y-101537619D01*
X238853333Y-101490000D01*
X238948571Y-101442380D01*
X239186666Y-101442380D01*
X239329523Y-101490000D01*
X239710476Y-101537619D02*
X239758095Y-101490000D01*
X239853333Y-101442380D01*
X240091428Y-101442380D01*
X240186666Y-101490000D01*
X240234285Y-101537619D01*
X240281904Y-101632857D01*
X240281904Y-101728095D01*
X240234285Y-101870952D01*
X239662857Y-102442380D01*
X240281904Y-102442380D01*
%TO.C,9V1*%
X253202380Y-84115238D02*
X253202380Y-83924761D01*
X253154761Y-83829523D01*
X253107142Y-83781904D01*
X252964285Y-83686666D01*
X252773809Y-83639047D01*
X252392857Y-83639047D01*
X252297619Y-83686666D01*
X252250000Y-83734285D01*
X252202380Y-83829523D01*
X252202380Y-84020000D01*
X252250000Y-84115238D01*
X252297619Y-84162857D01*
X252392857Y-84210476D01*
X252630952Y-84210476D01*
X252726190Y-84162857D01*
X252773809Y-84115238D01*
X252821428Y-84020000D01*
X252821428Y-83829523D01*
X252773809Y-83734285D01*
X252726190Y-83686666D01*
X252630952Y-83639047D01*
X252202380Y-83353333D02*
X253202380Y-83020000D01*
X252202380Y-82686666D01*
X253202380Y-81829523D02*
X253202380Y-82400952D01*
X253202380Y-82115238D02*
X252202380Y-82115238D01*
X252345238Y-82210476D01*
X252440476Y-82305714D01*
X252488095Y-82400952D01*
%TO.C,R1*%
X241003333Y-84022380D02*
X240670000Y-83546190D01*
X240431904Y-84022380D02*
X240431904Y-83022380D01*
X240812857Y-83022380D01*
X240908095Y-83070000D01*
X240955714Y-83117619D01*
X241003333Y-83212857D01*
X241003333Y-83355714D01*
X240955714Y-83450952D01*
X240908095Y-83498571D01*
X240812857Y-83546190D01*
X240431904Y-83546190D01*
X241955714Y-84022380D02*
X241384285Y-84022380D01*
X241670000Y-84022380D02*
X241670000Y-83022380D01*
X241574761Y-83165238D01*
X241479523Y-83260476D01*
X241384285Y-83308095D01*
%TO.C,D3*%
X235221904Y-112522380D02*
X235221904Y-111522380D01*
X235460000Y-111522380D01*
X235602857Y-111570000D01*
X235698095Y-111665238D01*
X235745714Y-111760476D01*
X235793333Y-111950952D01*
X235793333Y-112093809D01*
X235745714Y-112284285D01*
X235698095Y-112379523D01*
X235602857Y-112474761D01*
X235460000Y-112522380D01*
X235221904Y-112522380D01*
X236126666Y-111522380D02*
X236745714Y-111522380D01*
X236412380Y-111903333D01*
X236555238Y-111903333D01*
X236650476Y-111950952D01*
X236698095Y-111998571D01*
X236745714Y-112093809D01*
X236745714Y-112331904D01*
X236698095Y-112427142D01*
X236650476Y-112474761D01*
X236555238Y-112522380D01*
X236269523Y-112522380D01*
X236174285Y-112474761D01*
X236126666Y-112427142D01*
%TO.C,S8*%
X244538095Y-128224761D02*
X244680952Y-128272380D01*
X244919047Y-128272380D01*
X245014285Y-128224761D01*
X245061904Y-128177142D01*
X245109523Y-128081904D01*
X245109523Y-127986666D01*
X245061904Y-127891428D01*
X245014285Y-127843809D01*
X244919047Y-127796190D01*
X244728571Y-127748571D01*
X244633333Y-127700952D01*
X244585714Y-127653333D01*
X244538095Y-127558095D01*
X244538095Y-127462857D01*
X244585714Y-127367619D01*
X244633333Y-127320000D01*
X244728571Y-127272380D01*
X244966666Y-127272380D01*
X245109523Y-127320000D01*
X245680952Y-127700952D02*
X245585714Y-127653333D01*
X245538095Y-127605714D01*
X245490476Y-127510476D01*
X245490476Y-127462857D01*
X245538095Y-127367619D01*
X245585714Y-127320000D01*
X245680952Y-127272380D01*
X245871428Y-127272380D01*
X245966666Y-127320000D01*
X246014285Y-127367619D01*
X246061904Y-127462857D01*
X246061904Y-127510476D01*
X246014285Y-127605714D01*
X245966666Y-127653333D01*
X245871428Y-127700952D01*
X245680952Y-127700952D01*
X245585714Y-127748571D01*
X245538095Y-127796190D01*
X245490476Y-127891428D01*
X245490476Y-128081904D01*
X245538095Y-128177142D01*
X245585714Y-128224761D01*
X245680952Y-128272380D01*
X245871428Y-128272380D01*
X245966666Y-128224761D01*
X246014285Y-128177142D01*
X246061904Y-128081904D01*
X246061904Y-127891428D01*
X246014285Y-127796190D01*
X245966666Y-127748571D01*
X245871428Y-127700952D01*
%TO.C,R3*%
X252993333Y-126622380D02*
X252660000Y-126146190D01*
X252421904Y-126622380D02*
X252421904Y-125622380D01*
X252802857Y-125622380D01*
X252898095Y-125670000D01*
X252945714Y-125717619D01*
X252993333Y-125812857D01*
X252993333Y-125955714D01*
X252945714Y-126050952D01*
X252898095Y-126098571D01*
X252802857Y-126146190D01*
X252421904Y-126146190D01*
X253326666Y-125622380D02*
X253945714Y-125622380D01*
X253612380Y-126003333D01*
X253755238Y-126003333D01*
X253850476Y-126050952D01*
X253898095Y-126098571D01*
X253945714Y-126193809D01*
X253945714Y-126431904D01*
X253898095Y-126527142D01*
X253850476Y-126574761D01*
X253755238Y-126622380D01*
X253469523Y-126622380D01*
X253374285Y-126574761D01*
X253326666Y-126527142D01*
%TO.C,GND1*%
X233140000Y-86548095D02*
X233092380Y-86643333D01*
X233092380Y-86786190D01*
X233140000Y-86929047D01*
X233235238Y-87024285D01*
X233330476Y-87071904D01*
X233520952Y-87119523D01*
X233663809Y-87119523D01*
X233854285Y-87071904D01*
X233949523Y-87024285D01*
X234044761Y-86929047D01*
X234092380Y-86786190D01*
X234092380Y-86690952D01*
X234044761Y-86548095D01*
X233997142Y-86500476D01*
X233663809Y-86500476D01*
X233663809Y-86690952D01*
X234092380Y-86071904D02*
X233092380Y-86071904D01*
X234092380Y-85500476D01*
X233092380Y-85500476D01*
X234092380Y-85024285D02*
X233092380Y-85024285D01*
X233092380Y-84786190D01*
X233140000Y-84643333D01*
X233235238Y-84548095D01*
X233330476Y-84500476D01*
X233520952Y-84452857D01*
X233663809Y-84452857D01*
X233854285Y-84500476D01*
X233949523Y-84548095D01*
X234044761Y-84643333D01*
X234092380Y-84786190D01*
X234092380Y-85024285D01*
X234092380Y-83500476D02*
X234092380Y-84071904D01*
X234092380Y-83786190D02*
X233092380Y-83786190D01*
X233235238Y-83881428D01*
X233330476Y-83976666D01*
X233378095Y-84071904D01*
%TO.C,P7*%
X265212380Y-88408095D02*
X264212380Y-88408095D01*
X264212380Y-88027142D01*
X264260000Y-87931904D01*
X264307619Y-87884285D01*
X264402857Y-87836666D01*
X264545714Y-87836666D01*
X264640952Y-87884285D01*
X264688571Y-87931904D01*
X264736190Y-88027142D01*
X264736190Y-88408095D01*
X264212380Y-87503333D02*
X264212380Y-86836666D01*
X265212380Y-87265238D01*
%TO.C,R10*%
X262567142Y-112382380D02*
X262233809Y-111906190D01*
X261995714Y-112382380D02*
X261995714Y-111382380D01*
X262376666Y-111382380D01*
X262471904Y-111430000D01*
X262519523Y-111477619D01*
X262567142Y-111572857D01*
X262567142Y-111715714D01*
X262519523Y-111810952D01*
X262471904Y-111858571D01*
X262376666Y-111906190D01*
X261995714Y-111906190D01*
X263519523Y-112382380D02*
X262948095Y-112382380D01*
X263233809Y-112382380D02*
X263233809Y-111382380D01*
X263138571Y-111525238D01*
X263043333Y-111620476D01*
X262948095Y-111668095D01*
X264138571Y-111382380D02*
X264233809Y-111382380D01*
X264329047Y-111430000D01*
X264376666Y-111477619D01*
X264424285Y-111572857D01*
X264471904Y-111763333D01*
X264471904Y-112001428D01*
X264424285Y-112191904D01*
X264376666Y-112287142D01*
X264329047Y-112334761D01*
X264233809Y-112382380D01*
X264138571Y-112382380D01*
X264043333Y-112334761D01*
X263995714Y-112287142D01*
X263948095Y-112191904D01*
X263900476Y-112001428D01*
X263900476Y-111763333D01*
X263948095Y-111572857D01*
X263995714Y-111477619D01*
X264043333Y-111430000D01*
X264138571Y-111382380D01*
%TO.C,S5*%
X242718095Y-92344761D02*
X242860952Y-92392380D01*
X243099047Y-92392380D01*
X243194285Y-92344761D01*
X243241904Y-92297142D01*
X243289523Y-92201904D01*
X243289523Y-92106666D01*
X243241904Y-92011428D01*
X243194285Y-91963809D01*
X243099047Y-91916190D01*
X242908571Y-91868571D01*
X242813333Y-91820952D01*
X242765714Y-91773333D01*
X242718095Y-91678095D01*
X242718095Y-91582857D01*
X242765714Y-91487619D01*
X242813333Y-91440000D01*
X242908571Y-91392380D01*
X243146666Y-91392380D01*
X243289523Y-91440000D01*
X244194285Y-91392380D02*
X243718095Y-91392380D01*
X243670476Y-91868571D01*
X243718095Y-91820952D01*
X243813333Y-91773333D01*
X244051428Y-91773333D01*
X244146666Y-91820952D01*
X244194285Y-91868571D01*
X244241904Y-91963809D01*
X244241904Y-92201904D01*
X244194285Y-92297142D01*
X244146666Y-92344761D01*
X244051428Y-92392380D01*
X243813333Y-92392380D01*
X243718095Y-92344761D01*
X243670476Y-92297142D01*
%TO.C,C5*%
X241813333Y-117007142D02*
X241765714Y-117054761D01*
X241622857Y-117102380D01*
X241527619Y-117102380D01*
X241384761Y-117054761D01*
X241289523Y-116959523D01*
X241241904Y-116864285D01*
X241194285Y-116673809D01*
X241194285Y-116530952D01*
X241241904Y-116340476D01*
X241289523Y-116245238D01*
X241384761Y-116150000D01*
X241527619Y-116102380D01*
X241622857Y-116102380D01*
X241765714Y-116150000D01*
X241813333Y-116197619D01*
X242718095Y-116102380D02*
X242241904Y-116102380D01*
X242194285Y-116578571D01*
X242241904Y-116530952D01*
X242337142Y-116483333D01*
X242575238Y-116483333D01*
X242670476Y-116530952D01*
X242718095Y-116578571D01*
X242765714Y-116673809D01*
X242765714Y-116911904D01*
X242718095Y-117007142D01*
X242670476Y-117054761D01*
X242575238Y-117102380D01*
X242337142Y-117102380D01*
X242241904Y-117054761D01*
X242194285Y-117007142D01*
%TO.C,R4*%
X253033333Y-123502380D02*
X252700000Y-123026190D01*
X252461904Y-123502380D02*
X252461904Y-122502380D01*
X252842857Y-122502380D01*
X252938095Y-122550000D01*
X252985714Y-122597619D01*
X253033333Y-122692857D01*
X253033333Y-122835714D01*
X252985714Y-122930952D01*
X252938095Y-122978571D01*
X252842857Y-123026190D01*
X252461904Y-123026190D01*
X253890476Y-122835714D02*
X253890476Y-123502380D01*
X253652380Y-122454761D02*
X253414285Y-123169047D01*
X254033333Y-123169047D01*
%TO.C,D1*%
X261176904Y-84992380D02*
X261176904Y-83992380D01*
X261415000Y-83992380D01*
X261557857Y-84040000D01*
X261653095Y-84135238D01*
X261700714Y-84230476D01*
X261748333Y-84420952D01*
X261748333Y-84563809D01*
X261700714Y-84754285D01*
X261653095Y-84849523D01*
X261557857Y-84944761D01*
X261415000Y-84992380D01*
X261176904Y-84992380D01*
X262700714Y-84992380D02*
X262129285Y-84992380D01*
X262415000Y-84992380D02*
X262415000Y-83992380D01*
X262319761Y-84135238D01*
X262224523Y-84230476D01*
X262129285Y-84278095D01*
%TO.C,P2*%
X231711904Y-112772380D02*
X231711904Y-111772380D01*
X232092857Y-111772380D01*
X232188095Y-111820000D01*
X232235714Y-111867619D01*
X232283333Y-111962857D01*
X232283333Y-112105714D01*
X232235714Y-112200952D01*
X232188095Y-112248571D01*
X232092857Y-112296190D01*
X231711904Y-112296190D01*
X232664285Y-111867619D02*
X232711904Y-111820000D01*
X232807142Y-111772380D01*
X233045238Y-111772380D01*
X233140476Y-111820000D01*
X233188095Y-111867619D01*
X233235714Y-111962857D01*
X233235714Y-112058095D01*
X233188095Y-112200952D01*
X232616666Y-112772380D01*
X233235714Y-112772380D01*
%TO.C,P8*%
X235612380Y-89698095D02*
X234612380Y-89698095D01*
X234612380Y-89317142D01*
X234660000Y-89221904D01*
X234707619Y-89174285D01*
X234802857Y-89126666D01*
X234945714Y-89126666D01*
X235040952Y-89174285D01*
X235088571Y-89221904D01*
X235136190Y-89317142D01*
X235136190Y-89698095D01*
X235040952Y-88555238D02*
X234993333Y-88650476D01*
X234945714Y-88698095D01*
X234850476Y-88745714D01*
X234802857Y-88745714D01*
X234707619Y-88698095D01*
X234660000Y-88650476D01*
X234612380Y-88555238D01*
X234612380Y-88364761D01*
X234660000Y-88269523D01*
X234707619Y-88221904D01*
X234802857Y-88174285D01*
X234850476Y-88174285D01*
X234945714Y-88221904D01*
X234993333Y-88269523D01*
X235040952Y-88364761D01*
X235040952Y-88555238D01*
X235088571Y-88650476D01*
X235136190Y-88698095D01*
X235231428Y-88745714D01*
X235421904Y-88745714D01*
X235517142Y-88698095D01*
X235564761Y-88650476D01*
X235612380Y-88555238D01*
X235612380Y-88364761D01*
X235564761Y-88269523D01*
X235517142Y-88221904D01*
X235421904Y-88174285D01*
X235231428Y-88174285D01*
X235136190Y-88221904D01*
X235088571Y-88269523D01*
X235040952Y-88364761D01*
%TO.C,R11*%
X258557142Y-109152380D02*
X258223809Y-108676190D01*
X257985714Y-109152380D02*
X257985714Y-108152380D01*
X258366666Y-108152380D01*
X258461904Y-108200000D01*
X258509523Y-108247619D01*
X258557142Y-108342857D01*
X258557142Y-108485714D01*
X258509523Y-108580952D01*
X258461904Y-108628571D01*
X258366666Y-108676190D01*
X257985714Y-108676190D01*
X259509523Y-109152380D02*
X258938095Y-109152380D01*
X259223809Y-109152380D02*
X259223809Y-108152380D01*
X259128571Y-108295238D01*
X259033333Y-108390476D01*
X258938095Y-108438095D01*
X260461904Y-109152380D02*
X259890476Y-109152380D01*
X260176190Y-109152380D02*
X260176190Y-108152380D01*
X260080952Y-108295238D01*
X259985714Y-108390476D01*
X259890476Y-108438095D01*
%TO.C,C10*%
X256367142Y-89257142D02*
X256319523Y-89304761D01*
X256176666Y-89352380D01*
X256081428Y-89352380D01*
X255938571Y-89304761D01*
X255843333Y-89209523D01*
X255795714Y-89114285D01*
X255748095Y-88923809D01*
X255748095Y-88780952D01*
X255795714Y-88590476D01*
X255843333Y-88495238D01*
X255938571Y-88400000D01*
X256081428Y-88352380D01*
X256176666Y-88352380D01*
X256319523Y-88400000D01*
X256367142Y-88447619D01*
X257319523Y-89352380D02*
X256748095Y-89352380D01*
X257033809Y-89352380D02*
X257033809Y-88352380D01*
X256938571Y-88495238D01*
X256843333Y-88590476D01*
X256748095Y-88638095D01*
X257938571Y-88352380D02*
X258033809Y-88352380D01*
X258129047Y-88400000D01*
X258176666Y-88447619D01*
X258224285Y-88542857D01*
X258271904Y-88733333D01*
X258271904Y-88971428D01*
X258224285Y-89161904D01*
X258176666Y-89257142D01*
X258129047Y-89304761D01*
X258033809Y-89352380D01*
X257938571Y-89352380D01*
X257843333Y-89304761D01*
X257795714Y-89257142D01*
X257748095Y-89161904D01*
X257700476Y-88971428D01*
X257700476Y-88733333D01*
X257748095Y-88542857D01*
X257795714Y-88447619D01*
X257843333Y-88400000D01*
X257938571Y-88352380D01*
%TO.C,C3*%
X251173333Y-132437142D02*
X251125714Y-132484761D01*
X250982857Y-132532380D01*
X250887619Y-132532380D01*
X250744761Y-132484761D01*
X250649523Y-132389523D01*
X250601904Y-132294285D01*
X250554285Y-132103809D01*
X250554285Y-131960952D01*
X250601904Y-131770476D01*
X250649523Y-131675238D01*
X250744761Y-131580000D01*
X250887619Y-131532380D01*
X250982857Y-131532380D01*
X251125714Y-131580000D01*
X251173333Y-131627619D01*
X251506666Y-131532380D02*
X252125714Y-131532380D01*
X251792380Y-131913333D01*
X251935238Y-131913333D01*
X252030476Y-131960952D01*
X252078095Y-132008571D01*
X252125714Y-132103809D01*
X252125714Y-132341904D01*
X252078095Y-132437142D01*
X252030476Y-132484761D01*
X251935238Y-132532380D01*
X251649523Y-132532380D01*
X251554285Y-132484761D01*
X251506666Y-132437142D01*
%TO.C,R6*%
X234203333Y-103352380D02*
X233870000Y-102876190D01*
X233631904Y-103352380D02*
X233631904Y-102352380D01*
X234012857Y-102352380D01*
X234108095Y-102400000D01*
X234155714Y-102447619D01*
X234203333Y-102542857D01*
X234203333Y-102685714D01*
X234155714Y-102780952D01*
X234108095Y-102828571D01*
X234012857Y-102876190D01*
X233631904Y-102876190D01*
X235060476Y-102352380D02*
X234870000Y-102352380D01*
X234774761Y-102400000D01*
X234727142Y-102447619D01*
X234631904Y-102590476D01*
X234584285Y-102780952D01*
X234584285Y-103161904D01*
X234631904Y-103257142D01*
X234679523Y-103304761D01*
X234774761Y-103352380D01*
X234965238Y-103352380D01*
X235060476Y-103304761D01*
X235108095Y-103257142D01*
X235155714Y-103161904D01*
X235155714Y-102923809D01*
X235108095Y-102828571D01*
X235060476Y-102780952D01*
X234965238Y-102733333D01*
X234774761Y-102733333D01*
X234679523Y-102780952D01*
X234631904Y-102828571D01*
X234584285Y-102923809D01*
%TO.C,P4*%
X258011904Y-111212380D02*
X258011904Y-110212380D01*
X258392857Y-110212380D01*
X258488095Y-110260000D01*
X258535714Y-110307619D01*
X258583333Y-110402857D01*
X258583333Y-110545714D01*
X258535714Y-110640952D01*
X258488095Y-110688571D01*
X258392857Y-110736190D01*
X258011904Y-110736190D01*
X259440476Y-110545714D02*
X259440476Y-111212380D01*
X259202380Y-110164761D02*
X258964285Y-110879047D01*
X259583333Y-110879047D01*
%TO.C,R12*%
X261692380Y-97462857D02*
X261216190Y-97796190D01*
X261692380Y-98034285D02*
X260692380Y-98034285D01*
X260692380Y-97653333D01*
X260740000Y-97558095D01*
X260787619Y-97510476D01*
X260882857Y-97462857D01*
X261025714Y-97462857D01*
X261120952Y-97510476D01*
X261168571Y-97558095D01*
X261216190Y-97653333D01*
X261216190Y-98034285D01*
X261692380Y-96510476D02*
X261692380Y-97081904D01*
X261692380Y-96796190D02*
X260692380Y-96796190D01*
X260835238Y-96891428D01*
X260930476Y-96986666D01*
X260978095Y-97081904D01*
X260787619Y-96129523D02*
X260740000Y-96081904D01*
X260692380Y-95986666D01*
X260692380Y-95748571D01*
X260740000Y-95653333D01*
X260787619Y-95605714D01*
X260882857Y-95558095D01*
X260978095Y-95558095D01*
X261120952Y-95605714D01*
X261692380Y-96177142D01*
X261692380Y-95558095D01*
%TO.C,P6*%
X265152380Y-91958095D02*
X264152380Y-91958095D01*
X264152380Y-91577142D01*
X264200000Y-91481904D01*
X264247619Y-91434285D01*
X264342857Y-91386666D01*
X264485714Y-91386666D01*
X264580952Y-91434285D01*
X264628571Y-91481904D01*
X264676190Y-91577142D01*
X264676190Y-91958095D01*
X264152380Y-90529523D02*
X264152380Y-90720000D01*
X264200000Y-90815238D01*
X264247619Y-90862857D01*
X264390476Y-90958095D01*
X264580952Y-91005714D01*
X264961904Y-91005714D01*
X265057142Y-90958095D01*
X265104761Y-90910476D01*
X265152380Y-90815238D01*
X265152380Y-90624761D01*
X265104761Y-90529523D01*
X265057142Y-90481904D01*
X264961904Y-90434285D01*
X264723809Y-90434285D01*
X264628571Y-90481904D01*
X264580952Y-90529523D01*
X264533333Y-90624761D01*
X264533333Y-90815238D01*
X264580952Y-90910476D01*
X264628571Y-90958095D01*
X264723809Y-91005714D01*
%TO.C,S6*%
X244168095Y-102214761D02*
X244310952Y-102262380D01*
X244549047Y-102262380D01*
X244644285Y-102214761D01*
X244691904Y-102167142D01*
X244739523Y-102071904D01*
X244739523Y-101976666D01*
X244691904Y-101881428D01*
X244644285Y-101833809D01*
X244549047Y-101786190D01*
X244358571Y-101738571D01*
X244263333Y-101690952D01*
X244215714Y-101643333D01*
X244168095Y-101548095D01*
X244168095Y-101452857D01*
X244215714Y-101357619D01*
X244263333Y-101310000D01*
X244358571Y-101262380D01*
X244596666Y-101262380D01*
X244739523Y-101310000D01*
X245596666Y-101262380D02*
X245406190Y-101262380D01*
X245310952Y-101310000D01*
X245263333Y-101357619D01*
X245168095Y-101500476D01*
X245120476Y-101690952D01*
X245120476Y-102071904D01*
X245168095Y-102167142D01*
X245215714Y-102214761D01*
X245310952Y-102262380D01*
X245501428Y-102262380D01*
X245596666Y-102214761D01*
X245644285Y-102167142D01*
X245691904Y-102071904D01*
X245691904Y-101833809D01*
X245644285Y-101738571D01*
X245596666Y-101690952D01*
X245501428Y-101643333D01*
X245310952Y-101643333D01*
X245215714Y-101690952D01*
X245168095Y-101738571D01*
X245120476Y-101833809D01*
%TO.C,R9*%
X248843333Y-99992380D02*
X248510000Y-99516190D01*
X248271904Y-99992380D02*
X248271904Y-98992380D01*
X248652857Y-98992380D01*
X248748095Y-99040000D01*
X248795714Y-99087619D01*
X248843333Y-99182857D01*
X248843333Y-99325714D01*
X248795714Y-99420952D01*
X248748095Y-99468571D01*
X248652857Y-99516190D01*
X248271904Y-99516190D01*
X249319523Y-99992380D02*
X249510000Y-99992380D01*
X249605238Y-99944761D01*
X249652857Y-99897142D01*
X249748095Y-99754285D01*
X249795714Y-99563809D01*
X249795714Y-99182857D01*
X249748095Y-99087619D01*
X249700476Y-99040000D01*
X249605238Y-98992380D01*
X249414761Y-98992380D01*
X249319523Y-99040000D01*
X249271904Y-99087619D01*
X249224285Y-99182857D01*
X249224285Y-99420952D01*
X249271904Y-99516190D01*
X249319523Y-99563809D01*
X249414761Y-99611428D01*
X249605238Y-99611428D01*
X249700476Y-99563809D01*
X249748095Y-99516190D01*
X249795714Y-99420952D01*
%TO.C,R14*%
X247807142Y-96982380D02*
X247473809Y-96506190D01*
X247235714Y-96982380D02*
X247235714Y-95982380D01*
X247616666Y-95982380D01*
X247711904Y-96030000D01*
X247759523Y-96077619D01*
X247807142Y-96172857D01*
X247807142Y-96315714D01*
X247759523Y-96410952D01*
X247711904Y-96458571D01*
X247616666Y-96506190D01*
X247235714Y-96506190D01*
X248759523Y-96982380D02*
X248188095Y-96982380D01*
X248473809Y-96982380D02*
X248473809Y-95982380D01*
X248378571Y-96125238D01*
X248283333Y-96220476D01*
X248188095Y-96268095D01*
X249616666Y-96315714D02*
X249616666Y-96982380D01*
X249378571Y-95934761D02*
X249140476Y-96649047D01*
X249759523Y-96649047D01*
%TO.C,R17*%
X252607142Y-120222380D02*
X252273809Y-119746190D01*
X252035714Y-120222380D02*
X252035714Y-119222380D01*
X252416666Y-119222380D01*
X252511904Y-119270000D01*
X252559523Y-119317619D01*
X252607142Y-119412857D01*
X252607142Y-119555714D01*
X252559523Y-119650952D01*
X252511904Y-119698571D01*
X252416666Y-119746190D01*
X252035714Y-119746190D01*
X253559523Y-120222380D02*
X252988095Y-120222380D01*
X253273809Y-120222380D02*
X253273809Y-119222380D01*
X253178571Y-119365238D01*
X253083333Y-119460476D01*
X252988095Y-119508095D01*
X253892857Y-119222380D02*
X254559523Y-119222380D01*
X254130952Y-120222380D01*
%TO.C,D2*%
X238571904Y-112572380D02*
X238571904Y-111572380D01*
X238810000Y-111572380D01*
X238952857Y-111620000D01*
X239048095Y-111715238D01*
X239095714Y-111810476D01*
X239143333Y-112000952D01*
X239143333Y-112143809D01*
X239095714Y-112334285D01*
X239048095Y-112429523D01*
X238952857Y-112524761D01*
X238810000Y-112572380D01*
X238571904Y-112572380D01*
X239524285Y-111667619D02*
X239571904Y-111620000D01*
X239667142Y-111572380D01*
X239905238Y-111572380D01*
X240000476Y-111620000D01*
X240048095Y-111667619D01*
X240095714Y-111762857D01*
X240095714Y-111858095D01*
X240048095Y-112000952D01*
X239476666Y-112572380D01*
X240095714Y-112572380D01*
%TD*%
M02*
