M48
; DRILL file {KiCad 5.1.9} date Sat Apr 17 23:29:53 2021
; FORMAT={-:-/ absolute / inch / decimal}
; #@! TF.CreationDate,2021-04-17T23:29:53+02:00
; #@! TF.GenerationSoftware,Kicad,Pcbnew,5.1.9
FMAT,2
INCH
T1C0.0295
T2C0.0315
T3C0.0433
%
G90
G05
T1
X9.675Y-4.875
X9.675Y-4.925
X9.675Y-4.975
X9.85Y-3.6
X9.85Y-3.65
X9.85Y-3.7
T2
X9.075Y-4.125
X9.0963Y-3.65
X9.0963Y-3.9
X9.175Y-3.65
X9.175Y-3.9
X9.2Y-5.325
X9.225Y-5.2
X9.275Y-4.125
X9.35Y-3.625
X9.35Y-3.825
X9.35Y-4.8242
X9.35Y-5.0211
X9.375Y-3.95
X9.4Y-5.325
X9.425Y-5.2
X9.4713Y-3.45
X9.525Y-4.85
X9.525Y-5.05
X9.55Y-3.275
X9.55Y-3.45
X9.55Y-4.3742
X9.55Y-4.4726
X9.575Y-3.95
X9.575Y-4.6463
X9.575Y-4.725
X9.675Y-3.475
X9.7Y-3.825
X9.7Y-3.95
X9.7Y-4.075
X9.7Y-4.25
X9.7Y-4.35
X9.7Y-4.45
X9.7Y-4.55
X9.7492Y-5.25
X9.75Y-3.275
X9.85Y-4.675
X9.85Y-4.8
X9.85Y-4.925
X9.85Y-5.05
X9.875Y-3.475
X9.9Y-3.825
X9.9Y-3.95
X9.9Y-4.075
X10.0Y-3.5
X10.0Y-4.25
X10.0Y-4.35
X10.0Y-4.45
X10.0Y-4.55
X10.025Y-3.3
X10.0445Y-5.25
X10.05Y-4.675
X10.05Y-4.8
X10.05Y-4.925
X10.05Y-5.05
X10.125Y-3.6813
X10.125Y-4.075
X10.125Y-4.4
X10.1969Y-3.5
X10.25Y-4.6313
X10.25Y-5.025
X10.275Y-4.525
X10.325Y-3.3
X10.325Y-4.4
X10.35Y-3.75
X10.35Y-3.95
X10.35Y-4.225
X10.4287Y-4.225
X10.475Y-4.525
T3
X9.1Y-4.25
X9.1Y-4.375
X9.25Y-4.25
X9.25Y-4.65
X9.3Y-3.475
X9.325Y-3.325
X9.4Y-4.1
X9.4Y-4.25
X9.4Y-4.65
X9.5Y-3.65
X9.5Y-3.8
X9.55Y-4.075
X9.55Y-5.2
X9.55Y-5.325
X9.575Y-4.2
X9.675Y-3.675
X9.9Y-3.3
X10.125Y-4.25
X10.125Y-4.525
X10.25Y-5.15
X10.325Y-3.475
X10.35Y-3.625
T0
M30
