%TF.GenerationSoftware,KiCad,Pcbnew,5.1.9*%
%TF.CreationDate,2021-04-17T23:29:50+02:00*%
%TF.ProjectId,ts908,74733930-382e-46b6-9963-61645f706362,rev?*%
%TF.SameCoordinates,Original*%
%TF.FileFunction,Legend,Top*%
%TF.FilePolarity,Positive*%
%FSLAX46Y46*%
G04 Gerber Fmt 4.6, Leading zero omitted, Abs format (unit mm)*
G04 Created by KiCad (PCBNEW 5.1.9) date 2021-04-17 23:29:50*
%MOMM*%
%LPD*%
G01*
G04 APERTURE LIST*
%ADD10C,0.120000*%
%ADD11C,0.150000*%
G04 APERTURE END LIST*
D10*
%TO.C,C6*%
X240110000Y-119915000D02*
X240110000Y-130155000D01*
X234870000Y-119915000D02*
X234870000Y-130155000D01*
X240110000Y-119915000D02*
X234870000Y-119915000D01*
X240110000Y-130155000D02*
X234870000Y-130155000D01*
%TO.C,R16B1*%
X240130000Y-135255000D02*
G75*
G03*
X240130000Y-135255000I-1370000J0D01*
G01*
X237390000Y-135255000D02*
X234780000Y-135255000D01*
%TO.C,Q2*%
X252040000Y-94510000D02*
X252040000Y-90910000D01*
X252028478Y-90871522D02*
G75*
G03*
X247590000Y-92710000I-1838478J-1838478D01*
G01*
X252028478Y-94548478D02*
G75*
G02*
X247590000Y-92710000I-1838478J1838478D01*
G01*
%TO.C,R13*%
X252195000Y-88265000D02*
G75*
G03*
X252195000Y-88265000I-1370000J0D01*
G01*
X249455000Y-88265000D02*
X246845000Y-88265000D01*
%TO.C,R8*%
X247750000Y-103505000D02*
G75*
G03*
X247750000Y-103505000I-1370000J0D01*
G01*
X247750000Y-103505000D02*
X250360000Y-103505000D01*
%TO.C,R5*%
X251560000Y-118745000D02*
G75*
G03*
X251560000Y-118745000I-1370000J0D01*
G01*
X251560000Y-118745000D02*
X254170000Y-118745000D01*
%TO.C,C11*%
X234665000Y-99060000D02*
G75*
G03*
X234665000Y-99060000I-2620000J0D01*
G01*
X232045000Y-98020000D02*
X232045000Y-96480000D01*
X232045000Y-101640000D02*
X232045000Y-100100000D01*
X232005000Y-98020000D02*
X232005000Y-96480000D01*
X232005000Y-101640000D02*
X232005000Y-100100000D01*
X231965000Y-101639000D02*
X231965000Y-100100000D01*
X231965000Y-98020000D02*
X231965000Y-96481000D01*
X231925000Y-101638000D02*
X231925000Y-100100000D01*
X231925000Y-98020000D02*
X231925000Y-96482000D01*
X231885000Y-101636000D02*
X231885000Y-100100000D01*
X231885000Y-98020000D02*
X231885000Y-96484000D01*
X231845000Y-101633000D02*
X231845000Y-100100000D01*
X231845000Y-98020000D02*
X231845000Y-96487000D01*
X231805000Y-101629000D02*
X231805000Y-100100000D01*
X231805000Y-98020000D02*
X231805000Y-96491000D01*
X231765000Y-101625000D02*
X231765000Y-100100000D01*
X231765000Y-98020000D02*
X231765000Y-96495000D01*
X231725000Y-101621000D02*
X231725000Y-100100000D01*
X231725000Y-98020000D02*
X231725000Y-96499000D01*
X231685000Y-101616000D02*
X231685000Y-100100000D01*
X231685000Y-98020000D02*
X231685000Y-96504000D01*
X231645000Y-101610000D02*
X231645000Y-100100000D01*
X231645000Y-98020000D02*
X231645000Y-96510000D01*
X231605000Y-101603000D02*
X231605000Y-100100000D01*
X231605000Y-98020000D02*
X231605000Y-96517000D01*
X231565000Y-101596000D02*
X231565000Y-100100000D01*
X231565000Y-98020000D02*
X231565000Y-96524000D01*
X231525000Y-101588000D02*
X231525000Y-100100000D01*
X231525000Y-98020000D02*
X231525000Y-96532000D01*
X231485000Y-101580000D02*
X231485000Y-100100000D01*
X231485000Y-98020000D02*
X231485000Y-96540000D01*
X231445000Y-101571000D02*
X231445000Y-100100000D01*
X231445000Y-98020000D02*
X231445000Y-96549000D01*
X231405000Y-101561000D02*
X231405000Y-100100000D01*
X231405000Y-98020000D02*
X231405000Y-96559000D01*
X231365000Y-101551000D02*
X231365000Y-100100000D01*
X231365000Y-98020000D02*
X231365000Y-96569000D01*
X231324000Y-101540000D02*
X231324000Y-100100000D01*
X231324000Y-98020000D02*
X231324000Y-96580000D01*
X231284000Y-101528000D02*
X231284000Y-100100000D01*
X231284000Y-98020000D02*
X231284000Y-96592000D01*
X231244000Y-101515000D02*
X231244000Y-100100000D01*
X231244000Y-98020000D02*
X231244000Y-96605000D01*
X231204000Y-101502000D02*
X231204000Y-100100000D01*
X231204000Y-98020000D02*
X231204000Y-96618000D01*
X231164000Y-101488000D02*
X231164000Y-100100000D01*
X231164000Y-98020000D02*
X231164000Y-96632000D01*
X231124000Y-101474000D02*
X231124000Y-100100000D01*
X231124000Y-98020000D02*
X231124000Y-96646000D01*
X231084000Y-101458000D02*
X231084000Y-100100000D01*
X231084000Y-98020000D02*
X231084000Y-96662000D01*
X231044000Y-101442000D02*
X231044000Y-100100000D01*
X231044000Y-98020000D02*
X231044000Y-96678000D01*
X231004000Y-101425000D02*
X231004000Y-100100000D01*
X231004000Y-98020000D02*
X231004000Y-96695000D01*
X230964000Y-101408000D02*
X230964000Y-100100000D01*
X230964000Y-98020000D02*
X230964000Y-96712000D01*
X230924000Y-101389000D02*
X230924000Y-100100000D01*
X230924000Y-98020000D02*
X230924000Y-96731000D01*
X230884000Y-101370000D02*
X230884000Y-100100000D01*
X230884000Y-98020000D02*
X230884000Y-96750000D01*
X230844000Y-101350000D02*
X230844000Y-100100000D01*
X230844000Y-98020000D02*
X230844000Y-96770000D01*
X230804000Y-101328000D02*
X230804000Y-100100000D01*
X230804000Y-98020000D02*
X230804000Y-96792000D01*
X230764000Y-101307000D02*
X230764000Y-100100000D01*
X230764000Y-98020000D02*
X230764000Y-96813000D01*
X230724000Y-101284000D02*
X230724000Y-100100000D01*
X230724000Y-98020000D02*
X230724000Y-96836000D01*
X230684000Y-101260000D02*
X230684000Y-100100000D01*
X230684000Y-98020000D02*
X230684000Y-96860000D01*
X230644000Y-101235000D02*
X230644000Y-100100000D01*
X230644000Y-98020000D02*
X230644000Y-96885000D01*
X230604000Y-101209000D02*
X230604000Y-100100000D01*
X230604000Y-98020000D02*
X230604000Y-96911000D01*
X230564000Y-101182000D02*
X230564000Y-100100000D01*
X230564000Y-98020000D02*
X230564000Y-96938000D01*
X230524000Y-101155000D02*
X230524000Y-100100000D01*
X230524000Y-98020000D02*
X230524000Y-96965000D01*
X230484000Y-101125000D02*
X230484000Y-100100000D01*
X230484000Y-98020000D02*
X230484000Y-96995000D01*
X230444000Y-101095000D02*
X230444000Y-100100000D01*
X230444000Y-98020000D02*
X230444000Y-97025000D01*
X230404000Y-101064000D02*
X230404000Y-100100000D01*
X230404000Y-98020000D02*
X230404000Y-97056000D01*
X230364000Y-101031000D02*
X230364000Y-100100000D01*
X230364000Y-98020000D02*
X230364000Y-97089000D01*
X230324000Y-100997000D02*
X230324000Y-100100000D01*
X230324000Y-98020000D02*
X230324000Y-97123000D01*
X230284000Y-100961000D02*
X230284000Y-100100000D01*
X230284000Y-98020000D02*
X230284000Y-97159000D01*
X230244000Y-100924000D02*
X230244000Y-100100000D01*
X230244000Y-98020000D02*
X230244000Y-97196000D01*
X230204000Y-100886000D02*
X230204000Y-100100000D01*
X230204000Y-98020000D02*
X230204000Y-97234000D01*
X230164000Y-100845000D02*
X230164000Y-100100000D01*
X230164000Y-98020000D02*
X230164000Y-97275000D01*
X230124000Y-100803000D02*
X230124000Y-100100000D01*
X230124000Y-98020000D02*
X230124000Y-97317000D01*
X230084000Y-100759000D02*
X230084000Y-100100000D01*
X230084000Y-98020000D02*
X230084000Y-97361000D01*
X230044000Y-100713000D02*
X230044000Y-100100000D01*
X230044000Y-98020000D02*
X230044000Y-97407000D01*
X230004000Y-100665000D02*
X230004000Y-97455000D01*
X229964000Y-100614000D02*
X229964000Y-97506000D01*
X229924000Y-100560000D02*
X229924000Y-97560000D01*
X229884000Y-100503000D02*
X229884000Y-97617000D01*
X229844000Y-100443000D02*
X229844000Y-97677000D01*
X229804000Y-100379000D02*
X229804000Y-97741000D01*
X229764000Y-100311000D02*
X229764000Y-97809000D01*
X229724000Y-100238000D02*
X229724000Y-97882000D01*
X229684000Y-100158000D02*
X229684000Y-97962000D01*
X229644000Y-100071000D02*
X229644000Y-98049000D01*
X229604000Y-99975000D02*
X229604000Y-98145000D01*
X229564000Y-99865000D02*
X229564000Y-98255000D01*
X229524000Y-99737000D02*
X229524000Y-98383000D01*
X229484000Y-99578000D02*
X229484000Y-98542000D01*
X229444000Y-99344000D02*
X229444000Y-98776000D01*
X234849775Y-100535000D02*
X234349775Y-100535000D01*
X234599775Y-100785000D02*
X234599775Y-100285000D01*
%TO.C,C2*%
X234599775Y-94435000D02*
X234599775Y-93935000D01*
X234849775Y-94185000D02*
X234349775Y-94185000D01*
X229444000Y-92994000D02*
X229444000Y-92426000D01*
X229484000Y-93228000D02*
X229484000Y-92192000D01*
X229524000Y-93387000D02*
X229524000Y-92033000D01*
X229564000Y-93515000D02*
X229564000Y-91905000D01*
X229604000Y-93625000D02*
X229604000Y-91795000D01*
X229644000Y-93721000D02*
X229644000Y-91699000D01*
X229684000Y-93808000D02*
X229684000Y-91612000D01*
X229724000Y-93888000D02*
X229724000Y-91532000D01*
X229764000Y-93961000D02*
X229764000Y-91459000D01*
X229804000Y-94029000D02*
X229804000Y-91391000D01*
X229844000Y-94093000D02*
X229844000Y-91327000D01*
X229884000Y-94153000D02*
X229884000Y-91267000D01*
X229924000Y-94210000D02*
X229924000Y-91210000D01*
X229964000Y-94264000D02*
X229964000Y-91156000D01*
X230004000Y-94315000D02*
X230004000Y-91105000D01*
X230044000Y-91670000D02*
X230044000Y-91057000D01*
X230044000Y-94363000D02*
X230044000Y-93750000D01*
X230084000Y-91670000D02*
X230084000Y-91011000D01*
X230084000Y-94409000D02*
X230084000Y-93750000D01*
X230124000Y-91670000D02*
X230124000Y-90967000D01*
X230124000Y-94453000D02*
X230124000Y-93750000D01*
X230164000Y-91670000D02*
X230164000Y-90925000D01*
X230164000Y-94495000D02*
X230164000Y-93750000D01*
X230204000Y-91670000D02*
X230204000Y-90884000D01*
X230204000Y-94536000D02*
X230204000Y-93750000D01*
X230244000Y-91670000D02*
X230244000Y-90846000D01*
X230244000Y-94574000D02*
X230244000Y-93750000D01*
X230284000Y-91670000D02*
X230284000Y-90809000D01*
X230284000Y-94611000D02*
X230284000Y-93750000D01*
X230324000Y-91670000D02*
X230324000Y-90773000D01*
X230324000Y-94647000D02*
X230324000Y-93750000D01*
X230364000Y-91670000D02*
X230364000Y-90739000D01*
X230364000Y-94681000D02*
X230364000Y-93750000D01*
X230404000Y-91670000D02*
X230404000Y-90706000D01*
X230404000Y-94714000D02*
X230404000Y-93750000D01*
X230444000Y-91670000D02*
X230444000Y-90675000D01*
X230444000Y-94745000D02*
X230444000Y-93750000D01*
X230484000Y-91670000D02*
X230484000Y-90645000D01*
X230484000Y-94775000D02*
X230484000Y-93750000D01*
X230524000Y-91670000D02*
X230524000Y-90615000D01*
X230524000Y-94805000D02*
X230524000Y-93750000D01*
X230564000Y-91670000D02*
X230564000Y-90588000D01*
X230564000Y-94832000D02*
X230564000Y-93750000D01*
X230604000Y-91670000D02*
X230604000Y-90561000D01*
X230604000Y-94859000D02*
X230604000Y-93750000D01*
X230644000Y-91670000D02*
X230644000Y-90535000D01*
X230644000Y-94885000D02*
X230644000Y-93750000D01*
X230684000Y-91670000D02*
X230684000Y-90510000D01*
X230684000Y-94910000D02*
X230684000Y-93750000D01*
X230724000Y-91670000D02*
X230724000Y-90486000D01*
X230724000Y-94934000D02*
X230724000Y-93750000D01*
X230764000Y-91670000D02*
X230764000Y-90463000D01*
X230764000Y-94957000D02*
X230764000Y-93750000D01*
X230804000Y-91670000D02*
X230804000Y-90442000D01*
X230804000Y-94978000D02*
X230804000Y-93750000D01*
X230844000Y-91670000D02*
X230844000Y-90420000D01*
X230844000Y-95000000D02*
X230844000Y-93750000D01*
X230884000Y-91670000D02*
X230884000Y-90400000D01*
X230884000Y-95020000D02*
X230884000Y-93750000D01*
X230924000Y-91670000D02*
X230924000Y-90381000D01*
X230924000Y-95039000D02*
X230924000Y-93750000D01*
X230964000Y-91670000D02*
X230964000Y-90362000D01*
X230964000Y-95058000D02*
X230964000Y-93750000D01*
X231004000Y-91670000D02*
X231004000Y-90345000D01*
X231004000Y-95075000D02*
X231004000Y-93750000D01*
X231044000Y-91670000D02*
X231044000Y-90328000D01*
X231044000Y-95092000D02*
X231044000Y-93750000D01*
X231084000Y-91670000D02*
X231084000Y-90312000D01*
X231084000Y-95108000D02*
X231084000Y-93750000D01*
X231124000Y-91670000D02*
X231124000Y-90296000D01*
X231124000Y-95124000D02*
X231124000Y-93750000D01*
X231164000Y-91670000D02*
X231164000Y-90282000D01*
X231164000Y-95138000D02*
X231164000Y-93750000D01*
X231204000Y-91670000D02*
X231204000Y-90268000D01*
X231204000Y-95152000D02*
X231204000Y-93750000D01*
X231244000Y-91670000D02*
X231244000Y-90255000D01*
X231244000Y-95165000D02*
X231244000Y-93750000D01*
X231284000Y-91670000D02*
X231284000Y-90242000D01*
X231284000Y-95178000D02*
X231284000Y-93750000D01*
X231324000Y-91670000D02*
X231324000Y-90230000D01*
X231324000Y-95190000D02*
X231324000Y-93750000D01*
X231365000Y-91670000D02*
X231365000Y-90219000D01*
X231365000Y-95201000D02*
X231365000Y-93750000D01*
X231405000Y-91670000D02*
X231405000Y-90209000D01*
X231405000Y-95211000D02*
X231405000Y-93750000D01*
X231445000Y-91670000D02*
X231445000Y-90199000D01*
X231445000Y-95221000D02*
X231445000Y-93750000D01*
X231485000Y-91670000D02*
X231485000Y-90190000D01*
X231485000Y-95230000D02*
X231485000Y-93750000D01*
X231525000Y-91670000D02*
X231525000Y-90182000D01*
X231525000Y-95238000D02*
X231525000Y-93750000D01*
X231565000Y-91670000D02*
X231565000Y-90174000D01*
X231565000Y-95246000D02*
X231565000Y-93750000D01*
X231605000Y-91670000D02*
X231605000Y-90167000D01*
X231605000Y-95253000D02*
X231605000Y-93750000D01*
X231645000Y-91670000D02*
X231645000Y-90160000D01*
X231645000Y-95260000D02*
X231645000Y-93750000D01*
X231685000Y-91670000D02*
X231685000Y-90154000D01*
X231685000Y-95266000D02*
X231685000Y-93750000D01*
X231725000Y-91670000D02*
X231725000Y-90149000D01*
X231725000Y-95271000D02*
X231725000Y-93750000D01*
X231765000Y-91670000D02*
X231765000Y-90145000D01*
X231765000Y-95275000D02*
X231765000Y-93750000D01*
X231805000Y-91670000D02*
X231805000Y-90141000D01*
X231805000Y-95279000D02*
X231805000Y-93750000D01*
X231845000Y-91670000D02*
X231845000Y-90137000D01*
X231845000Y-95283000D02*
X231845000Y-93750000D01*
X231885000Y-91670000D02*
X231885000Y-90134000D01*
X231885000Y-95286000D02*
X231885000Y-93750000D01*
X231925000Y-91670000D02*
X231925000Y-90132000D01*
X231925000Y-95288000D02*
X231925000Y-93750000D01*
X231965000Y-91670000D02*
X231965000Y-90131000D01*
X231965000Y-95289000D02*
X231965000Y-93750000D01*
X232005000Y-95290000D02*
X232005000Y-93750000D01*
X232005000Y-91670000D02*
X232005000Y-90130000D01*
X232045000Y-95290000D02*
X232045000Y-93750000D01*
X232045000Y-91670000D02*
X232045000Y-90130000D01*
X234665000Y-92710000D02*
G75*
G03*
X234665000Y-92710000I-2620000J0D01*
G01*
%TO.C,C4*%
X245825000Y-119015000D02*
G75*
G03*
X245825000Y-119015000I-2620000J0D01*
G01*
X244245000Y-119015000D02*
X245785000Y-119015000D01*
X240625000Y-119015000D02*
X242165000Y-119015000D01*
X244245000Y-118975000D02*
X245785000Y-118975000D01*
X240625000Y-118975000D02*
X242165000Y-118975000D01*
X240626000Y-118935000D02*
X242165000Y-118935000D01*
X244245000Y-118935000D02*
X245784000Y-118935000D01*
X240627000Y-118895000D02*
X242165000Y-118895000D01*
X244245000Y-118895000D02*
X245783000Y-118895000D01*
X240629000Y-118855000D02*
X242165000Y-118855000D01*
X244245000Y-118855000D02*
X245781000Y-118855000D01*
X240632000Y-118815000D02*
X242165000Y-118815000D01*
X244245000Y-118815000D02*
X245778000Y-118815000D01*
X240636000Y-118775000D02*
X242165000Y-118775000D01*
X244245000Y-118775000D02*
X245774000Y-118775000D01*
X240640000Y-118735000D02*
X242165000Y-118735000D01*
X244245000Y-118735000D02*
X245770000Y-118735000D01*
X240644000Y-118695000D02*
X242165000Y-118695000D01*
X244245000Y-118695000D02*
X245766000Y-118695000D01*
X240649000Y-118655000D02*
X242165000Y-118655000D01*
X244245000Y-118655000D02*
X245761000Y-118655000D01*
X240655000Y-118615000D02*
X242165000Y-118615000D01*
X244245000Y-118615000D02*
X245755000Y-118615000D01*
X240662000Y-118575000D02*
X242165000Y-118575000D01*
X244245000Y-118575000D02*
X245748000Y-118575000D01*
X240669000Y-118535000D02*
X242165000Y-118535000D01*
X244245000Y-118535000D02*
X245741000Y-118535000D01*
X240677000Y-118495000D02*
X242165000Y-118495000D01*
X244245000Y-118495000D02*
X245733000Y-118495000D01*
X240685000Y-118455000D02*
X242165000Y-118455000D01*
X244245000Y-118455000D02*
X245725000Y-118455000D01*
X240694000Y-118415000D02*
X242165000Y-118415000D01*
X244245000Y-118415000D02*
X245716000Y-118415000D01*
X240704000Y-118375000D02*
X242165000Y-118375000D01*
X244245000Y-118375000D02*
X245706000Y-118375000D01*
X240714000Y-118335000D02*
X242165000Y-118335000D01*
X244245000Y-118335000D02*
X245696000Y-118335000D01*
X240725000Y-118294000D02*
X242165000Y-118294000D01*
X244245000Y-118294000D02*
X245685000Y-118294000D01*
X240737000Y-118254000D02*
X242165000Y-118254000D01*
X244245000Y-118254000D02*
X245673000Y-118254000D01*
X240750000Y-118214000D02*
X242165000Y-118214000D01*
X244245000Y-118214000D02*
X245660000Y-118214000D01*
X240763000Y-118174000D02*
X242165000Y-118174000D01*
X244245000Y-118174000D02*
X245647000Y-118174000D01*
X240777000Y-118134000D02*
X242165000Y-118134000D01*
X244245000Y-118134000D02*
X245633000Y-118134000D01*
X240791000Y-118094000D02*
X242165000Y-118094000D01*
X244245000Y-118094000D02*
X245619000Y-118094000D01*
X240807000Y-118054000D02*
X242165000Y-118054000D01*
X244245000Y-118054000D02*
X245603000Y-118054000D01*
X240823000Y-118014000D02*
X242165000Y-118014000D01*
X244245000Y-118014000D02*
X245587000Y-118014000D01*
X240840000Y-117974000D02*
X242165000Y-117974000D01*
X244245000Y-117974000D02*
X245570000Y-117974000D01*
X240857000Y-117934000D02*
X242165000Y-117934000D01*
X244245000Y-117934000D02*
X245553000Y-117934000D01*
X240876000Y-117894000D02*
X242165000Y-117894000D01*
X244245000Y-117894000D02*
X245534000Y-117894000D01*
X240895000Y-117854000D02*
X242165000Y-117854000D01*
X244245000Y-117854000D02*
X245515000Y-117854000D01*
X240915000Y-117814000D02*
X242165000Y-117814000D01*
X244245000Y-117814000D02*
X245495000Y-117814000D01*
X240937000Y-117774000D02*
X242165000Y-117774000D01*
X244245000Y-117774000D02*
X245473000Y-117774000D01*
X240958000Y-117734000D02*
X242165000Y-117734000D01*
X244245000Y-117734000D02*
X245452000Y-117734000D01*
X240981000Y-117694000D02*
X242165000Y-117694000D01*
X244245000Y-117694000D02*
X245429000Y-117694000D01*
X241005000Y-117654000D02*
X242165000Y-117654000D01*
X244245000Y-117654000D02*
X245405000Y-117654000D01*
X241030000Y-117614000D02*
X242165000Y-117614000D01*
X244245000Y-117614000D02*
X245380000Y-117614000D01*
X241056000Y-117574000D02*
X242165000Y-117574000D01*
X244245000Y-117574000D02*
X245354000Y-117574000D01*
X241083000Y-117534000D02*
X242165000Y-117534000D01*
X244245000Y-117534000D02*
X245327000Y-117534000D01*
X241110000Y-117494000D02*
X242165000Y-117494000D01*
X244245000Y-117494000D02*
X245300000Y-117494000D01*
X241140000Y-117454000D02*
X242165000Y-117454000D01*
X244245000Y-117454000D02*
X245270000Y-117454000D01*
X241170000Y-117414000D02*
X242165000Y-117414000D01*
X244245000Y-117414000D02*
X245240000Y-117414000D01*
X241201000Y-117374000D02*
X242165000Y-117374000D01*
X244245000Y-117374000D02*
X245209000Y-117374000D01*
X241234000Y-117334000D02*
X242165000Y-117334000D01*
X244245000Y-117334000D02*
X245176000Y-117334000D01*
X241268000Y-117294000D02*
X242165000Y-117294000D01*
X244245000Y-117294000D02*
X245142000Y-117294000D01*
X241304000Y-117254000D02*
X242165000Y-117254000D01*
X244245000Y-117254000D02*
X245106000Y-117254000D01*
X241341000Y-117214000D02*
X242165000Y-117214000D01*
X244245000Y-117214000D02*
X245069000Y-117214000D01*
X241379000Y-117174000D02*
X242165000Y-117174000D01*
X244245000Y-117174000D02*
X245031000Y-117174000D01*
X241420000Y-117134000D02*
X242165000Y-117134000D01*
X244245000Y-117134000D02*
X244990000Y-117134000D01*
X241462000Y-117094000D02*
X242165000Y-117094000D01*
X244245000Y-117094000D02*
X244948000Y-117094000D01*
X241506000Y-117054000D02*
X242165000Y-117054000D01*
X244245000Y-117054000D02*
X244904000Y-117054000D01*
X241552000Y-117014000D02*
X242165000Y-117014000D01*
X244245000Y-117014000D02*
X244858000Y-117014000D01*
X241600000Y-116974000D02*
X244810000Y-116974000D01*
X241651000Y-116934000D02*
X244759000Y-116934000D01*
X241705000Y-116894000D02*
X244705000Y-116894000D01*
X241762000Y-116854000D02*
X244648000Y-116854000D01*
X241822000Y-116814000D02*
X244588000Y-116814000D01*
X241886000Y-116774000D02*
X244524000Y-116774000D01*
X241954000Y-116734000D02*
X244456000Y-116734000D01*
X242027000Y-116694000D02*
X244383000Y-116694000D01*
X242107000Y-116654000D02*
X244303000Y-116654000D01*
X242194000Y-116614000D02*
X244216000Y-116614000D01*
X242290000Y-116574000D02*
X244120000Y-116574000D01*
X242400000Y-116534000D02*
X244010000Y-116534000D01*
X242528000Y-116494000D02*
X243882000Y-116494000D01*
X242687000Y-116454000D02*
X243723000Y-116454000D01*
X242921000Y-116414000D02*
X243489000Y-116414000D01*
X241730000Y-121819775D02*
X241730000Y-121319775D01*
X241480000Y-121569775D02*
X241980000Y-121569775D01*
%TO.C,C9*%
X266510000Y-107315000D02*
G75*
G03*
X266510000Y-107315000I-2620000J0D01*
G01*
X263890000Y-108355000D02*
X263890000Y-109895000D01*
X263890000Y-104735000D02*
X263890000Y-106275000D01*
X263930000Y-108355000D02*
X263930000Y-109895000D01*
X263930000Y-104735000D02*
X263930000Y-106275000D01*
X263970000Y-104736000D02*
X263970000Y-106275000D01*
X263970000Y-108355000D02*
X263970000Y-109894000D01*
X264010000Y-104737000D02*
X264010000Y-106275000D01*
X264010000Y-108355000D02*
X264010000Y-109893000D01*
X264050000Y-104739000D02*
X264050000Y-106275000D01*
X264050000Y-108355000D02*
X264050000Y-109891000D01*
X264090000Y-104742000D02*
X264090000Y-106275000D01*
X264090000Y-108355000D02*
X264090000Y-109888000D01*
X264130000Y-104746000D02*
X264130000Y-106275000D01*
X264130000Y-108355000D02*
X264130000Y-109884000D01*
X264170000Y-104750000D02*
X264170000Y-106275000D01*
X264170000Y-108355000D02*
X264170000Y-109880000D01*
X264210000Y-104754000D02*
X264210000Y-106275000D01*
X264210000Y-108355000D02*
X264210000Y-109876000D01*
X264250000Y-104759000D02*
X264250000Y-106275000D01*
X264250000Y-108355000D02*
X264250000Y-109871000D01*
X264290000Y-104765000D02*
X264290000Y-106275000D01*
X264290000Y-108355000D02*
X264290000Y-109865000D01*
X264330000Y-104772000D02*
X264330000Y-106275000D01*
X264330000Y-108355000D02*
X264330000Y-109858000D01*
X264370000Y-104779000D02*
X264370000Y-106275000D01*
X264370000Y-108355000D02*
X264370000Y-109851000D01*
X264410000Y-104787000D02*
X264410000Y-106275000D01*
X264410000Y-108355000D02*
X264410000Y-109843000D01*
X264450000Y-104795000D02*
X264450000Y-106275000D01*
X264450000Y-108355000D02*
X264450000Y-109835000D01*
X264490000Y-104804000D02*
X264490000Y-106275000D01*
X264490000Y-108355000D02*
X264490000Y-109826000D01*
X264530000Y-104814000D02*
X264530000Y-106275000D01*
X264530000Y-108355000D02*
X264530000Y-109816000D01*
X264570000Y-104824000D02*
X264570000Y-106275000D01*
X264570000Y-108355000D02*
X264570000Y-109806000D01*
X264611000Y-104835000D02*
X264611000Y-106275000D01*
X264611000Y-108355000D02*
X264611000Y-109795000D01*
X264651000Y-104847000D02*
X264651000Y-106275000D01*
X264651000Y-108355000D02*
X264651000Y-109783000D01*
X264691000Y-104860000D02*
X264691000Y-106275000D01*
X264691000Y-108355000D02*
X264691000Y-109770000D01*
X264731000Y-104873000D02*
X264731000Y-106275000D01*
X264731000Y-108355000D02*
X264731000Y-109757000D01*
X264771000Y-104887000D02*
X264771000Y-106275000D01*
X264771000Y-108355000D02*
X264771000Y-109743000D01*
X264811000Y-104901000D02*
X264811000Y-106275000D01*
X264811000Y-108355000D02*
X264811000Y-109729000D01*
X264851000Y-104917000D02*
X264851000Y-106275000D01*
X264851000Y-108355000D02*
X264851000Y-109713000D01*
X264891000Y-104933000D02*
X264891000Y-106275000D01*
X264891000Y-108355000D02*
X264891000Y-109697000D01*
X264931000Y-104950000D02*
X264931000Y-106275000D01*
X264931000Y-108355000D02*
X264931000Y-109680000D01*
X264971000Y-104967000D02*
X264971000Y-106275000D01*
X264971000Y-108355000D02*
X264971000Y-109663000D01*
X265011000Y-104986000D02*
X265011000Y-106275000D01*
X265011000Y-108355000D02*
X265011000Y-109644000D01*
X265051000Y-105005000D02*
X265051000Y-106275000D01*
X265051000Y-108355000D02*
X265051000Y-109625000D01*
X265091000Y-105025000D02*
X265091000Y-106275000D01*
X265091000Y-108355000D02*
X265091000Y-109605000D01*
X265131000Y-105047000D02*
X265131000Y-106275000D01*
X265131000Y-108355000D02*
X265131000Y-109583000D01*
X265171000Y-105068000D02*
X265171000Y-106275000D01*
X265171000Y-108355000D02*
X265171000Y-109562000D01*
X265211000Y-105091000D02*
X265211000Y-106275000D01*
X265211000Y-108355000D02*
X265211000Y-109539000D01*
X265251000Y-105115000D02*
X265251000Y-106275000D01*
X265251000Y-108355000D02*
X265251000Y-109515000D01*
X265291000Y-105140000D02*
X265291000Y-106275000D01*
X265291000Y-108355000D02*
X265291000Y-109490000D01*
X265331000Y-105166000D02*
X265331000Y-106275000D01*
X265331000Y-108355000D02*
X265331000Y-109464000D01*
X265371000Y-105193000D02*
X265371000Y-106275000D01*
X265371000Y-108355000D02*
X265371000Y-109437000D01*
X265411000Y-105220000D02*
X265411000Y-106275000D01*
X265411000Y-108355000D02*
X265411000Y-109410000D01*
X265451000Y-105250000D02*
X265451000Y-106275000D01*
X265451000Y-108355000D02*
X265451000Y-109380000D01*
X265491000Y-105280000D02*
X265491000Y-106275000D01*
X265491000Y-108355000D02*
X265491000Y-109350000D01*
X265531000Y-105311000D02*
X265531000Y-106275000D01*
X265531000Y-108355000D02*
X265531000Y-109319000D01*
X265571000Y-105344000D02*
X265571000Y-106275000D01*
X265571000Y-108355000D02*
X265571000Y-109286000D01*
X265611000Y-105378000D02*
X265611000Y-106275000D01*
X265611000Y-108355000D02*
X265611000Y-109252000D01*
X265651000Y-105414000D02*
X265651000Y-106275000D01*
X265651000Y-108355000D02*
X265651000Y-109216000D01*
X265691000Y-105451000D02*
X265691000Y-106275000D01*
X265691000Y-108355000D02*
X265691000Y-109179000D01*
X265731000Y-105489000D02*
X265731000Y-106275000D01*
X265731000Y-108355000D02*
X265731000Y-109141000D01*
X265771000Y-105530000D02*
X265771000Y-106275000D01*
X265771000Y-108355000D02*
X265771000Y-109100000D01*
X265811000Y-105572000D02*
X265811000Y-106275000D01*
X265811000Y-108355000D02*
X265811000Y-109058000D01*
X265851000Y-105616000D02*
X265851000Y-106275000D01*
X265851000Y-108355000D02*
X265851000Y-109014000D01*
X265891000Y-105662000D02*
X265891000Y-106275000D01*
X265891000Y-108355000D02*
X265891000Y-108968000D01*
X265931000Y-105710000D02*
X265931000Y-108920000D01*
X265971000Y-105761000D02*
X265971000Y-108869000D01*
X266011000Y-105815000D02*
X266011000Y-108815000D01*
X266051000Y-105872000D02*
X266051000Y-108758000D01*
X266091000Y-105932000D02*
X266091000Y-108698000D01*
X266131000Y-105996000D02*
X266131000Y-108634000D01*
X266171000Y-106064000D02*
X266171000Y-108566000D01*
X266211000Y-106137000D02*
X266211000Y-108493000D01*
X266251000Y-106217000D02*
X266251000Y-108413000D01*
X266291000Y-106304000D02*
X266291000Y-108326000D01*
X266331000Y-106400000D02*
X266331000Y-108230000D01*
X266371000Y-106510000D02*
X266371000Y-108120000D01*
X266411000Y-106638000D02*
X266411000Y-107992000D01*
X266451000Y-106797000D02*
X266451000Y-107833000D01*
X266491000Y-107031000D02*
X266491000Y-107599000D01*
%TO.C,C1*%
X244124775Y-89355000D02*
X244124775Y-88855000D01*
X244374775Y-89105000D02*
X243874775Y-89105000D01*
X238969000Y-87914000D02*
X238969000Y-87346000D01*
X239009000Y-88148000D02*
X239009000Y-87112000D01*
X239049000Y-88307000D02*
X239049000Y-86953000D01*
X239089000Y-88435000D02*
X239089000Y-86825000D01*
X239129000Y-88545000D02*
X239129000Y-86715000D01*
X239169000Y-88641000D02*
X239169000Y-86619000D01*
X239209000Y-88728000D02*
X239209000Y-86532000D01*
X239249000Y-88808000D02*
X239249000Y-86452000D01*
X239289000Y-88881000D02*
X239289000Y-86379000D01*
X239329000Y-88949000D02*
X239329000Y-86311000D01*
X239369000Y-89013000D02*
X239369000Y-86247000D01*
X239409000Y-89073000D02*
X239409000Y-86187000D01*
X239449000Y-89130000D02*
X239449000Y-86130000D01*
X239489000Y-89184000D02*
X239489000Y-86076000D01*
X239529000Y-89235000D02*
X239529000Y-86025000D01*
X239569000Y-86590000D02*
X239569000Y-85977000D01*
X239569000Y-89283000D02*
X239569000Y-88670000D01*
X239609000Y-86590000D02*
X239609000Y-85931000D01*
X239609000Y-89329000D02*
X239609000Y-88670000D01*
X239649000Y-86590000D02*
X239649000Y-85887000D01*
X239649000Y-89373000D02*
X239649000Y-88670000D01*
X239689000Y-86590000D02*
X239689000Y-85845000D01*
X239689000Y-89415000D02*
X239689000Y-88670000D01*
X239729000Y-86590000D02*
X239729000Y-85804000D01*
X239729000Y-89456000D02*
X239729000Y-88670000D01*
X239769000Y-86590000D02*
X239769000Y-85766000D01*
X239769000Y-89494000D02*
X239769000Y-88670000D01*
X239809000Y-86590000D02*
X239809000Y-85729000D01*
X239809000Y-89531000D02*
X239809000Y-88670000D01*
X239849000Y-86590000D02*
X239849000Y-85693000D01*
X239849000Y-89567000D02*
X239849000Y-88670000D01*
X239889000Y-86590000D02*
X239889000Y-85659000D01*
X239889000Y-89601000D02*
X239889000Y-88670000D01*
X239929000Y-86590000D02*
X239929000Y-85626000D01*
X239929000Y-89634000D02*
X239929000Y-88670000D01*
X239969000Y-86590000D02*
X239969000Y-85595000D01*
X239969000Y-89665000D02*
X239969000Y-88670000D01*
X240009000Y-86590000D02*
X240009000Y-85565000D01*
X240009000Y-89695000D02*
X240009000Y-88670000D01*
X240049000Y-86590000D02*
X240049000Y-85535000D01*
X240049000Y-89725000D02*
X240049000Y-88670000D01*
X240089000Y-86590000D02*
X240089000Y-85508000D01*
X240089000Y-89752000D02*
X240089000Y-88670000D01*
X240129000Y-86590000D02*
X240129000Y-85481000D01*
X240129000Y-89779000D02*
X240129000Y-88670000D01*
X240169000Y-86590000D02*
X240169000Y-85455000D01*
X240169000Y-89805000D02*
X240169000Y-88670000D01*
X240209000Y-86590000D02*
X240209000Y-85430000D01*
X240209000Y-89830000D02*
X240209000Y-88670000D01*
X240249000Y-86590000D02*
X240249000Y-85406000D01*
X240249000Y-89854000D02*
X240249000Y-88670000D01*
X240289000Y-86590000D02*
X240289000Y-85383000D01*
X240289000Y-89877000D02*
X240289000Y-88670000D01*
X240329000Y-86590000D02*
X240329000Y-85362000D01*
X240329000Y-89898000D02*
X240329000Y-88670000D01*
X240369000Y-86590000D02*
X240369000Y-85340000D01*
X240369000Y-89920000D02*
X240369000Y-88670000D01*
X240409000Y-86590000D02*
X240409000Y-85320000D01*
X240409000Y-89940000D02*
X240409000Y-88670000D01*
X240449000Y-86590000D02*
X240449000Y-85301000D01*
X240449000Y-89959000D02*
X240449000Y-88670000D01*
X240489000Y-86590000D02*
X240489000Y-85282000D01*
X240489000Y-89978000D02*
X240489000Y-88670000D01*
X240529000Y-86590000D02*
X240529000Y-85265000D01*
X240529000Y-89995000D02*
X240529000Y-88670000D01*
X240569000Y-86590000D02*
X240569000Y-85248000D01*
X240569000Y-90012000D02*
X240569000Y-88670000D01*
X240609000Y-86590000D02*
X240609000Y-85232000D01*
X240609000Y-90028000D02*
X240609000Y-88670000D01*
X240649000Y-86590000D02*
X240649000Y-85216000D01*
X240649000Y-90044000D02*
X240649000Y-88670000D01*
X240689000Y-86590000D02*
X240689000Y-85202000D01*
X240689000Y-90058000D02*
X240689000Y-88670000D01*
X240729000Y-86590000D02*
X240729000Y-85188000D01*
X240729000Y-90072000D02*
X240729000Y-88670000D01*
X240769000Y-86590000D02*
X240769000Y-85175000D01*
X240769000Y-90085000D02*
X240769000Y-88670000D01*
X240809000Y-86590000D02*
X240809000Y-85162000D01*
X240809000Y-90098000D02*
X240809000Y-88670000D01*
X240849000Y-86590000D02*
X240849000Y-85150000D01*
X240849000Y-90110000D02*
X240849000Y-88670000D01*
X240890000Y-86590000D02*
X240890000Y-85139000D01*
X240890000Y-90121000D02*
X240890000Y-88670000D01*
X240930000Y-86590000D02*
X240930000Y-85129000D01*
X240930000Y-90131000D02*
X240930000Y-88670000D01*
X240970000Y-86590000D02*
X240970000Y-85119000D01*
X240970000Y-90141000D02*
X240970000Y-88670000D01*
X241010000Y-86590000D02*
X241010000Y-85110000D01*
X241010000Y-90150000D02*
X241010000Y-88670000D01*
X241050000Y-86590000D02*
X241050000Y-85102000D01*
X241050000Y-90158000D02*
X241050000Y-88670000D01*
X241090000Y-86590000D02*
X241090000Y-85094000D01*
X241090000Y-90166000D02*
X241090000Y-88670000D01*
X241130000Y-86590000D02*
X241130000Y-85087000D01*
X241130000Y-90173000D02*
X241130000Y-88670000D01*
X241170000Y-86590000D02*
X241170000Y-85080000D01*
X241170000Y-90180000D02*
X241170000Y-88670000D01*
X241210000Y-86590000D02*
X241210000Y-85074000D01*
X241210000Y-90186000D02*
X241210000Y-88670000D01*
X241250000Y-86590000D02*
X241250000Y-85069000D01*
X241250000Y-90191000D02*
X241250000Y-88670000D01*
X241290000Y-86590000D02*
X241290000Y-85065000D01*
X241290000Y-90195000D02*
X241290000Y-88670000D01*
X241330000Y-86590000D02*
X241330000Y-85061000D01*
X241330000Y-90199000D02*
X241330000Y-88670000D01*
X241370000Y-86590000D02*
X241370000Y-85057000D01*
X241370000Y-90203000D02*
X241370000Y-88670000D01*
X241410000Y-86590000D02*
X241410000Y-85054000D01*
X241410000Y-90206000D02*
X241410000Y-88670000D01*
X241450000Y-86590000D02*
X241450000Y-85052000D01*
X241450000Y-90208000D02*
X241450000Y-88670000D01*
X241490000Y-86590000D02*
X241490000Y-85051000D01*
X241490000Y-90209000D02*
X241490000Y-88670000D01*
X241530000Y-90210000D02*
X241530000Y-88670000D01*
X241530000Y-86590000D02*
X241530000Y-85050000D01*
X241570000Y-90210000D02*
X241570000Y-88670000D01*
X241570000Y-86590000D02*
X241570000Y-85050000D01*
X244190000Y-87630000D02*
G75*
G03*
X244190000Y-87630000I-2620000J0D01*
G01*
%TO.C,C7*%
X258100000Y-92885000D02*
X260945000Y-92885000D01*
X253405000Y-92885000D02*
X256250000Y-92885000D01*
X258100000Y-104125000D02*
X260945000Y-104125000D01*
X253405000Y-104125000D02*
X256250000Y-104125000D01*
X260945000Y-104125000D02*
X260945000Y-92885000D01*
X253405000Y-104125000D02*
X253405000Y-92885000D01*
%TO.C,R15B1*%
X238860000Y-92075000D02*
G75*
G03*
X238860000Y-92075000I-1370000J0D01*
G01*
X237490000Y-93445000D02*
X237490000Y-96055000D01*
%TO.C,R16A1*%
X235685000Y-132080000D02*
G75*
G03*
X235685000Y-132080000I-1370000J0D01*
G01*
X235685000Y-132080000D02*
X238295000Y-132080000D01*
%TO.C,Q1*%
X243895000Y-123295000D02*
X243895000Y-126895000D01*
X243906522Y-126933478D02*
G75*
G03*
X248345000Y-125095000I1838478J1838478D01*
G01*
X243906522Y-123256522D02*
G75*
G02*
X248345000Y-125095000I1838478J-1838478D01*
G01*
%TO.C,R7*%
X243305000Y-128270000D02*
G75*
G03*
X243305000Y-128270000I-1370000J0D01*
G01*
X241935000Y-126900000D02*
X241935000Y-124290000D01*
%TO.C,R15A1*%
X244575000Y-100330000D02*
G75*
G03*
X244575000Y-100330000I-1370000J0D01*
G01*
X241835000Y-100330000D02*
X239225000Y-100330000D01*
%TO.C,R1*%
X249020000Y-83185000D02*
G75*
G03*
X249020000Y-83185000I-1370000J0D01*
G01*
X246280000Y-83185000D02*
X243670000Y-83185000D01*
%TO.C,D3*%
X236420000Y-110310000D02*
X233480000Y-110310000D01*
X233480000Y-110310000D02*
X233480000Y-115750000D01*
X233480000Y-115750000D02*
X236420000Y-115750000D01*
X236420000Y-115750000D02*
X236420000Y-110310000D01*
X234950000Y-109290000D02*
X234950000Y-110310000D01*
X234950000Y-116770000D02*
X234950000Y-115750000D01*
X236420000Y-111210000D02*
X233480000Y-111210000D01*
X236420000Y-111330000D02*
X233480000Y-111330000D01*
X236420000Y-111090000D02*
X233480000Y-111090000D01*
%TO.C,R3*%
X251560000Y-128270000D02*
G75*
G03*
X251560000Y-128270000I-1370000J0D01*
G01*
X251560000Y-128270000D02*
X254170000Y-128270000D01*
%TO.C,R10*%
X262355000Y-114935000D02*
G75*
G03*
X262355000Y-114935000I-1370000J0D01*
G01*
X262355000Y-114935000D02*
X264965000Y-114935000D01*
%TO.C,C5*%
X244440000Y-108735000D02*
X244440000Y-115975000D01*
X240700000Y-108735000D02*
X240700000Y-115975000D01*
X244440000Y-108735000D02*
X240700000Y-108735000D01*
X244440000Y-115975000D02*
X240700000Y-115975000D01*
%TO.C,R4*%
X251560000Y-125095000D02*
G75*
G03*
X251560000Y-125095000I-1370000J0D01*
G01*
X251560000Y-125095000D02*
X254170000Y-125095000D01*
%TO.C,D1*%
X256325000Y-82700000D02*
X256325000Y-84940000D01*
X256325000Y-84940000D02*
X260565000Y-84940000D01*
X260565000Y-84940000D02*
X260565000Y-82700000D01*
X260565000Y-82700000D02*
X256325000Y-82700000D01*
X255675000Y-83820000D02*
X256325000Y-83820000D01*
X261215000Y-83820000D02*
X260565000Y-83820000D01*
X257045000Y-82700000D02*
X257045000Y-84940000D01*
X257165000Y-82700000D02*
X257165000Y-84940000D01*
X256925000Y-82700000D02*
X256925000Y-84940000D01*
%TO.C,R11*%
X258545000Y-111760000D02*
G75*
G03*
X258545000Y-111760000I-1370000J0D01*
G01*
X258545000Y-111760000D02*
X261155000Y-111760000D01*
%TO.C,U1*%
X249190000Y-106620000D02*
X247540000Y-106620000D01*
X247540000Y-106620000D02*
X247540000Y-116900000D01*
X247540000Y-116900000D02*
X252840000Y-116900000D01*
X252840000Y-116900000D02*
X252840000Y-106620000D01*
X252840000Y-106620000D02*
X251190000Y-106620000D01*
X251190000Y-106620000D02*
G75*
G02*
X249190000Y-106620000I-1000000J0D01*
G01*
%TO.C,C10*%
X252780000Y-86030000D02*
X260220000Y-86030000D01*
X252780000Y-91770000D02*
X260220000Y-91770000D01*
X252780000Y-86030000D02*
X252780000Y-91770000D01*
X260220000Y-86030000D02*
X260220000Y-91770000D01*
%TO.C,C3*%
X244760000Y-129980000D02*
X258000000Y-129980000D01*
X244760000Y-136720000D02*
X258000000Y-136720000D01*
X244760000Y-129980000D02*
X244760000Y-136720000D01*
X258000000Y-129980000D02*
X258000000Y-136720000D01*
%TO.C,R6*%
X236955000Y-104775000D02*
G75*
G03*
X236955000Y-104775000I-1370000J0D01*
G01*
X234215000Y-104775000D02*
X231605000Y-104775000D01*
%TO.C,R12*%
X264260000Y-100330000D02*
G75*
G03*
X264260000Y-100330000I-1370000J0D01*
G01*
X262890000Y-98960000D02*
X262890000Y-96350000D01*
%TO.C,R9*%
X247750000Y-100330000D02*
G75*
G03*
X247750000Y-100330000I-1370000J0D01*
G01*
X247750000Y-100330000D02*
X250360000Y-100330000D01*
%TO.C,R14*%
X252830000Y-97155000D02*
G75*
G03*
X252830000Y-97155000I-1370000J0D01*
G01*
X250090000Y-97155000D02*
X247480000Y-97155000D01*
%TO.C,R17*%
X251560000Y-121920000D02*
G75*
G03*
X251560000Y-121920000I-1370000J0D01*
G01*
X251560000Y-121920000D02*
X254170000Y-121920000D01*
%TO.C,C8*%
X261275000Y-117015000D02*
X264120000Y-117015000D01*
X256580000Y-117015000D02*
X259425000Y-117015000D01*
X261275000Y-128255000D02*
X264120000Y-128255000D01*
X256580000Y-128255000D02*
X259425000Y-128255000D01*
X264120000Y-128255000D02*
X264120000Y-117015000D01*
X256580000Y-128255000D02*
X256580000Y-117015000D01*
%TO.C,D2*%
X237290000Y-115750000D02*
X240230000Y-115750000D01*
X240230000Y-115750000D02*
X240230000Y-110310000D01*
X240230000Y-110310000D02*
X237290000Y-110310000D01*
X237290000Y-110310000D02*
X237290000Y-115750000D01*
X238760000Y-116770000D02*
X238760000Y-115750000D01*
X238760000Y-109290000D02*
X238760000Y-110310000D01*
X237290000Y-114850000D02*
X240230000Y-114850000D01*
X237290000Y-114730000D02*
X240230000Y-114730000D01*
X237290000Y-114970000D02*
X240230000Y-114970000D01*
%TO.C,C6*%
D11*
X237847142Y-125201666D02*
X237894761Y-125249285D01*
X237942380Y-125392142D01*
X237942380Y-125487380D01*
X237894761Y-125630238D01*
X237799523Y-125725476D01*
X237704285Y-125773095D01*
X237513809Y-125820714D01*
X237370952Y-125820714D01*
X237180476Y-125773095D01*
X237085238Y-125725476D01*
X236990000Y-125630238D01*
X236942380Y-125487380D01*
X236942380Y-125392142D01*
X236990000Y-125249285D01*
X237037619Y-125201666D01*
X236942380Y-124344523D02*
X236942380Y-124535000D01*
X236990000Y-124630238D01*
X237037619Y-124677857D01*
X237180476Y-124773095D01*
X237370952Y-124820714D01*
X237751904Y-124820714D01*
X237847142Y-124773095D01*
X237894761Y-124725476D01*
X237942380Y-124630238D01*
X237942380Y-124439761D01*
X237894761Y-124344523D01*
X237847142Y-124296904D01*
X237751904Y-124249285D01*
X237513809Y-124249285D01*
X237418571Y-124296904D01*
X237370952Y-124344523D01*
X237323333Y-124439761D01*
X237323333Y-124630238D01*
X237370952Y-124725476D01*
X237418571Y-124773095D01*
X237513809Y-124820714D01*
%TO.C,DPDT-1*%
X244276904Y-95702380D02*
X244276904Y-94702380D01*
X244515000Y-94702380D01*
X244657857Y-94750000D01*
X244753095Y-94845238D01*
X244800714Y-94940476D01*
X244848333Y-95130952D01*
X244848333Y-95273809D01*
X244800714Y-95464285D01*
X244753095Y-95559523D01*
X244657857Y-95654761D01*
X244515000Y-95702380D01*
X244276904Y-95702380D01*
X245276904Y-95702380D02*
X245276904Y-94702380D01*
X245657857Y-94702380D01*
X245753095Y-94750000D01*
X245800714Y-94797619D01*
X245848333Y-94892857D01*
X245848333Y-95035714D01*
X245800714Y-95130952D01*
X245753095Y-95178571D01*
X245657857Y-95226190D01*
X245276904Y-95226190D01*
X246276904Y-95702380D02*
X246276904Y-94702380D01*
X246515000Y-94702380D01*
X246657857Y-94750000D01*
X246753095Y-94845238D01*
X246800714Y-94940476D01*
X246848333Y-95130952D01*
X246848333Y-95273809D01*
X246800714Y-95464285D01*
X246753095Y-95559523D01*
X246657857Y-95654761D01*
X246515000Y-95702380D01*
X246276904Y-95702380D01*
X247134047Y-94702380D02*
X247705476Y-94702380D01*
X247419761Y-95702380D02*
X247419761Y-94702380D01*
X248038809Y-95321428D02*
X248800714Y-95321428D01*
X249800714Y-95702380D02*
X249229285Y-95702380D01*
X249515000Y-95702380D02*
X249515000Y-94702380D01*
X249419761Y-94845238D01*
X249324523Y-94940476D01*
X249229285Y-94988095D01*
%TO.C,R16B1*%
X236672380Y-135604047D02*
X236196190Y-135937380D01*
X236672380Y-136175476D02*
X235672380Y-136175476D01*
X235672380Y-135794523D01*
X235720000Y-135699285D01*
X235767619Y-135651666D01*
X235862857Y-135604047D01*
X236005714Y-135604047D01*
X236100952Y-135651666D01*
X236148571Y-135699285D01*
X236196190Y-135794523D01*
X236196190Y-136175476D01*
X236672380Y-134651666D02*
X236672380Y-135223095D01*
X236672380Y-134937380D02*
X235672380Y-134937380D01*
X235815238Y-135032619D01*
X235910476Y-135127857D01*
X235958095Y-135223095D01*
X235672380Y-133794523D02*
X235672380Y-133985000D01*
X235720000Y-134080238D01*
X235767619Y-134127857D01*
X235910476Y-134223095D01*
X236100952Y-134270714D01*
X236481904Y-134270714D01*
X236577142Y-134223095D01*
X236624761Y-134175476D01*
X236672380Y-134080238D01*
X236672380Y-133889761D01*
X236624761Y-133794523D01*
X236577142Y-133746904D01*
X236481904Y-133699285D01*
X236243809Y-133699285D01*
X236148571Y-133746904D01*
X236100952Y-133794523D01*
X236053333Y-133889761D01*
X236053333Y-134080238D01*
X236100952Y-134175476D01*
X236148571Y-134223095D01*
X236243809Y-134270714D01*
X236148571Y-132937380D02*
X236196190Y-132794523D01*
X236243809Y-132746904D01*
X236339047Y-132699285D01*
X236481904Y-132699285D01*
X236577142Y-132746904D01*
X236624761Y-132794523D01*
X236672380Y-132889761D01*
X236672380Y-133270714D01*
X235672380Y-133270714D01*
X235672380Y-132937380D01*
X235720000Y-132842142D01*
X235767619Y-132794523D01*
X235862857Y-132746904D01*
X235958095Y-132746904D01*
X236053333Y-132794523D01*
X236100952Y-132842142D01*
X236148571Y-132937380D01*
X236148571Y-133270714D01*
X236672380Y-131746904D02*
X236672380Y-132318333D01*
X236672380Y-132032619D02*
X235672380Y-132032619D01*
X235815238Y-132127857D01*
X235910476Y-132223095D01*
X235958095Y-132318333D01*
%TO.C,H3T1*%
X240950952Y-109037380D02*
X240950952Y-108037380D01*
X240950952Y-108513571D02*
X241522380Y-108513571D01*
X241522380Y-109037380D02*
X241522380Y-108037380D01*
X241903333Y-108037380D02*
X242522380Y-108037380D01*
X242189047Y-108418333D01*
X242331904Y-108418333D01*
X242427142Y-108465952D01*
X242474761Y-108513571D01*
X242522380Y-108608809D01*
X242522380Y-108846904D01*
X242474761Y-108942142D01*
X242427142Y-108989761D01*
X242331904Y-109037380D01*
X242046190Y-109037380D01*
X241950952Y-108989761D01*
X241903333Y-108942142D01*
X242808095Y-108037380D02*
X243379523Y-108037380D01*
X243093809Y-109037380D02*
X243093809Y-108037380D01*
X244236666Y-109037380D02*
X243665238Y-109037380D01*
X243950952Y-109037380D02*
X243950952Y-108037380D01*
X243855714Y-108180238D01*
X243760476Y-108275476D01*
X243665238Y-108323095D01*
%TO.C,Q2*%
X252642619Y-92805238D02*
X252595000Y-92900476D01*
X252499761Y-92995714D01*
X252356904Y-93138571D01*
X252309285Y-93233809D01*
X252309285Y-93329047D01*
X252547380Y-93281428D02*
X252499761Y-93376666D01*
X252404523Y-93471904D01*
X252214047Y-93519523D01*
X251880714Y-93519523D01*
X251690238Y-93471904D01*
X251595000Y-93376666D01*
X251547380Y-93281428D01*
X251547380Y-93090952D01*
X251595000Y-92995714D01*
X251690238Y-92900476D01*
X251880714Y-92852857D01*
X252214047Y-92852857D01*
X252404523Y-92900476D01*
X252499761Y-92995714D01*
X252547380Y-93090952D01*
X252547380Y-93281428D01*
X251642619Y-92471904D02*
X251595000Y-92424285D01*
X251547380Y-92329047D01*
X251547380Y-92090952D01*
X251595000Y-91995714D01*
X251642619Y-91948095D01*
X251737857Y-91900476D01*
X251833095Y-91900476D01*
X251975952Y-91948095D01*
X252547380Y-92519523D01*
X252547380Y-91900476D01*
%TO.C,R13*%
X247642142Y-88717380D02*
X247308809Y-88241190D01*
X247070714Y-88717380D02*
X247070714Y-87717380D01*
X247451666Y-87717380D01*
X247546904Y-87765000D01*
X247594523Y-87812619D01*
X247642142Y-87907857D01*
X247642142Y-88050714D01*
X247594523Y-88145952D01*
X247546904Y-88193571D01*
X247451666Y-88241190D01*
X247070714Y-88241190D01*
X248594523Y-88717380D02*
X248023095Y-88717380D01*
X248308809Y-88717380D02*
X248308809Y-87717380D01*
X248213571Y-87860238D01*
X248118333Y-87955476D01*
X248023095Y-88003095D01*
X248927857Y-87717380D02*
X249546904Y-87717380D01*
X249213571Y-88098333D01*
X249356428Y-88098333D01*
X249451666Y-88145952D01*
X249499285Y-88193571D01*
X249546904Y-88288809D01*
X249546904Y-88526904D01*
X249499285Y-88622142D01*
X249451666Y-88669761D01*
X249356428Y-88717380D01*
X249070714Y-88717380D01*
X248975476Y-88669761D01*
X248927857Y-88622142D01*
%TO.C,R8*%
X243673333Y-102687380D02*
X243340000Y-102211190D01*
X243101904Y-102687380D02*
X243101904Y-101687380D01*
X243482857Y-101687380D01*
X243578095Y-101735000D01*
X243625714Y-101782619D01*
X243673333Y-101877857D01*
X243673333Y-102020714D01*
X243625714Y-102115952D01*
X243578095Y-102163571D01*
X243482857Y-102211190D01*
X243101904Y-102211190D01*
X244244761Y-102115952D02*
X244149523Y-102068333D01*
X244101904Y-102020714D01*
X244054285Y-101925476D01*
X244054285Y-101877857D01*
X244101904Y-101782619D01*
X244149523Y-101735000D01*
X244244761Y-101687380D01*
X244435238Y-101687380D01*
X244530476Y-101735000D01*
X244578095Y-101782619D01*
X244625714Y-101877857D01*
X244625714Y-101925476D01*
X244578095Y-102020714D01*
X244530476Y-102068333D01*
X244435238Y-102115952D01*
X244244761Y-102115952D01*
X244149523Y-102163571D01*
X244101904Y-102211190D01*
X244054285Y-102306428D01*
X244054285Y-102496904D01*
X244101904Y-102592142D01*
X244149523Y-102639761D01*
X244244761Y-102687380D01*
X244435238Y-102687380D01*
X244530476Y-102639761D01*
X244578095Y-102592142D01*
X244625714Y-102496904D01*
X244625714Y-102306428D01*
X244578095Y-102211190D01*
X244530476Y-102163571D01*
X244435238Y-102115952D01*
%TO.C,R5*%
X252563333Y-119197380D02*
X252230000Y-118721190D01*
X251991904Y-119197380D02*
X251991904Y-118197380D01*
X252372857Y-118197380D01*
X252468095Y-118245000D01*
X252515714Y-118292619D01*
X252563333Y-118387857D01*
X252563333Y-118530714D01*
X252515714Y-118625952D01*
X252468095Y-118673571D01*
X252372857Y-118721190D01*
X251991904Y-118721190D01*
X253468095Y-118197380D02*
X252991904Y-118197380D01*
X252944285Y-118673571D01*
X252991904Y-118625952D01*
X253087142Y-118578333D01*
X253325238Y-118578333D01*
X253420476Y-118625952D01*
X253468095Y-118673571D01*
X253515714Y-118768809D01*
X253515714Y-119006904D01*
X253468095Y-119102142D01*
X253420476Y-119149761D01*
X253325238Y-119197380D01*
X253087142Y-119197380D01*
X252991904Y-119149761D01*
X252944285Y-119102142D01*
%TO.C,C11*%
X228592142Y-101957142D02*
X228544523Y-102004761D01*
X228401666Y-102052380D01*
X228306428Y-102052380D01*
X228163571Y-102004761D01*
X228068333Y-101909523D01*
X228020714Y-101814285D01*
X227973095Y-101623809D01*
X227973095Y-101480952D01*
X228020714Y-101290476D01*
X228068333Y-101195238D01*
X228163571Y-101100000D01*
X228306428Y-101052380D01*
X228401666Y-101052380D01*
X228544523Y-101100000D01*
X228592142Y-101147619D01*
X229544523Y-102052380D02*
X228973095Y-102052380D01*
X229258809Y-102052380D02*
X229258809Y-101052380D01*
X229163571Y-101195238D01*
X229068333Y-101290476D01*
X228973095Y-101338095D01*
X230496904Y-102052380D02*
X229925476Y-102052380D01*
X230211190Y-102052380D02*
X230211190Y-101052380D01*
X230115952Y-101195238D01*
X230020714Y-101290476D01*
X229925476Y-101338095D01*
%TO.C,C2*%
X229068333Y-95607142D02*
X229020714Y-95654761D01*
X228877857Y-95702380D01*
X228782619Y-95702380D01*
X228639761Y-95654761D01*
X228544523Y-95559523D01*
X228496904Y-95464285D01*
X228449285Y-95273809D01*
X228449285Y-95130952D01*
X228496904Y-94940476D01*
X228544523Y-94845238D01*
X228639761Y-94750000D01*
X228782619Y-94702380D01*
X228877857Y-94702380D01*
X229020714Y-94750000D01*
X229068333Y-94797619D01*
X229449285Y-94797619D02*
X229496904Y-94750000D01*
X229592142Y-94702380D01*
X229830238Y-94702380D01*
X229925476Y-94750000D01*
X229973095Y-94797619D01*
X230020714Y-94892857D01*
X230020714Y-94988095D01*
X229973095Y-95130952D01*
X229401666Y-95702380D01*
X230020714Y-95702380D01*
%TO.C,C4*%
X246848333Y-118467142D02*
X246800714Y-118514761D01*
X246657857Y-118562380D01*
X246562619Y-118562380D01*
X246419761Y-118514761D01*
X246324523Y-118419523D01*
X246276904Y-118324285D01*
X246229285Y-118133809D01*
X246229285Y-117990952D01*
X246276904Y-117800476D01*
X246324523Y-117705238D01*
X246419761Y-117610000D01*
X246562619Y-117562380D01*
X246657857Y-117562380D01*
X246800714Y-117610000D01*
X246848333Y-117657619D01*
X247705476Y-117895714D02*
X247705476Y-118562380D01*
X247467380Y-117514761D02*
X247229285Y-118229047D01*
X247848333Y-118229047D01*
%TO.C,C9*%
X267057142Y-110021666D02*
X267104761Y-110069285D01*
X267152380Y-110212142D01*
X267152380Y-110307380D01*
X267104761Y-110450238D01*
X267009523Y-110545476D01*
X266914285Y-110593095D01*
X266723809Y-110640714D01*
X266580952Y-110640714D01*
X266390476Y-110593095D01*
X266295238Y-110545476D01*
X266200000Y-110450238D01*
X266152380Y-110307380D01*
X266152380Y-110212142D01*
X266200000Y-110069285D01*
X266247619Y-110021666D01*
X267152380Y-109545476D02*
X267152380Y-109355000D01*
X267104761Y-109259761D01*
X267057142Y-109212142D01*
X266914285Y-109116904D01*
X266723809Y-109069285D01*
X266342857Y-109069285D01*
X266247619Y-109116904D01*
X266200000Y-109164523D01*
X266152380Y-109259761D01*
X266152380Y-109450238D01*
X266200000Y-109545476D01*
X266247619Y-109593095D01*
X266342857Y-109640714D01*
X266580952Y-109640714D01*
X266676190Y-109593095D01*
X266723809Y-109545476D01*
X266771428Y-109450238D01*
X266771428Y-109259761D01*
X266723809Y-109164523D01*
X266676190Y-109116904D01*
X266580952Y-109069285D01*
%TO.C,C1*%
X244308333Y-86082142D02*
X244260714Y-86129761D01*
X244117857Y-86177380D01*
X244022619Y-86177380D01*
X243879761Y-86129761D01*
X243784523Y-86034523D01*
X243736904Y-85939285D01*
X243689285Y-85748809D01*
X243689285Y-85605952D01*
X243736904Y-85415476D01*
X243784523Y-85320238D01*
X243879761Y-85225000D01*
X244022619Y-85177380D01*
X244117857Y-85177380D01*
X244260714Y-85225000D01*
X244308333Y-85272619D01*
X245260714Y-86177380D02*
X244689285Y-86177380D01*
X244975000Y-86177380D02*
X244975000Y-85177380D01*
X244879761Y-85320238D01*
X244784523Y-85415476D01*
X244689285Y-85463095D01*
%TO.C,C7*%
X257532142Y-98591666D02*
X257579761Y-98639285D01*
X257627380Y-98782142D01*
X257627380Y-98877380D01*
X257579761Y-99020238D01*
X257484523Y-99115476D01*
X257389285Y-99163095D01*
X257198809Y-99210714D01*
X257055952Y-99210714D01*
X256865476Y-99163095D01*
X256770238Y-99115476D01*
X256675000Y-99020238D01*
X256627380Y-98877380D01*
X256627380Y-98782142D01*
X256675000Y-98639285D01*
X256722619Y-98591666D01*
X256627380Y-98258333D02*
X256627380Y-97591666D01*
X257627380Y-98020238D01*
%TO.C,RIGHT1*%
X259175476Y-133512380D02*
X258842142Y-133036190D01*
X258604047Y-133512380D02*
X258604047Y-132512380D01*
X258985000Y-132512380D01*
X259080238Y-132560000D01*
X259127857Y-132607619D01*
X259175476Y-132702857D01*
X259175476Y-132845714D01*
X259127857Y-132940952D01*
X259080238Y-132988571D01*
X258985000Y-133036190D01*
X258604047Y-133036190D01*
X259604047Y-133512380D02*
X259604047Y-132512380D01*
X260604047Y-132560000D02*
X260508809Y-132512380D01*
X260365952Y-132512380D01*
X260223095Y-132560000D01*
X260127857Y-132655238D01*
X260080238Y-132750476D01*
X260032619Y-132940952D01*
X260032619Y-133083809D01*
X260080238Y-133274285D01*
X260127857Y-133369523D01*
X260223095Y-133464761D01*
X260365952Y-133512380D01*
X260461190Y-133512380D01*
X260604047Y-133464761D01*
X260651666Y-133417142D01*
X260651666Y-133083809D01*
X260461190Y-133083809D01*
X261080238Y-133512380D02*
X261080238Y-132512380D01*
X261080238Y-132988571D02*
X261651666Y-132988571D01*
X261651666Y-133512380D02*
X261651666Y-132512380D01*
X261985000Y-132512380D02*
X262556428Y-132512380D01*
X262270714Y-133512380D02*
X262270714Y-132512380D01*
X263413571Y-133512380D02*
X262842142Y-133512380D01*
X263127857Y-133512380D02*
X263127857Y-132512380D01*
X263032619Y-132655238D01*
X262937380Y-132750476D01*
X262842142Y-132798095D01*
%TO.C,R15B1*%
X236037380Y-96234047D02*
X235561190Y-96567380D01*
X236037380Y-96805476D02*
X235037380Y-96805476D01*
X235037380Y-96424523D01*
X235085000Y-96329285D01*
X235132619Y-96281666D01*
X235227857Y-96234047D01*
X235370714Y-96234047D01*
X235465952Y-96281666D01*
X235513571Y-96329285D01*
X235561190Y-96424523D01*
X235561190Y-96805476D01*
X236037380Y-95281666D02*
X236037380Y-95853095D01*
X236037380Y-95567380D02*
X235037380Y-95567380D01*
X235180238Y-95662619D01*
X235275476Y-95757857D01*
X235323095Y-95853095D01*
X235037380Y-94376904D02*
X235037380Y-94853095D01*
X235513571Y-94900714D01*
X235465952Y-94853095D01*
X235418333Y-94757857D01*
X235418333Y-94519761D01*
X235465952Y-94424523D01*
X235513571Y-94376904D01*
X235608809Y-94329285D01*
X235846904Y-94329285D01*
X235942142Y-94376904D01*
X235989761Y-94424523D01*
X236037380Y-94519761D01*
X236037380Y-94757857D01*
X235989761Y-94853095D01*
X235942142Y-94900714D01*
X235513571Y-93567380D02*
X235561190Y-93424523D01*
X235608809Y-93376904D01*
X235704047Y-93329285D01*
X235846904Y-93329285D01*
X235942142Y-93376904D01*
X235989761Y-93424523D01*
X236037380Y-93519761D01*
X236037380Y-93900714D01*
X235037380Y-93900714D01*
X235037380Y-93567380D01*
X235085000Y-93472142D01*
X235132619Y-93424523D01*
X235227857Y-93376904D01*
X235323095Y-93376904D01*
X235418333Y-93424523D01*
X235465952Y-93472142D01*
X235513571Y-93567380D01*
X235513571Y-93900714D01*
X236037380Y-92376904D02*
X236037380Y-92948333D01*
X236037380Y-92662619D02*
X235037380Y-92662619D01*
X235180238Y-92757857D01*
X235275476Y-92853095D01*
X235323095Y-92948333D01*
%TO.C,R16A1*%
X232862380Y-132357619D02*
X232386190Y-132690952D01*
X232862380Y-132929047D02*
X231862380Y-132929047D01*
X231862380Y-132548095D01*
X231910000Y-132452857D01*
X231957619Y-132405238D01*
X232052857Y-132357619D01*
X232195714Y-132357619D01*
X232290952Y-132405238D01*
X232338571Y-132452857D01*
X232386190Y-132548095D01*
X232386190Y-132929047D01*
X232862380Y-131405238D02*
X232862380Y-131976666D01*
X232862380Y-131690952D02*
X231862380Y-131690952D01*
X232005238Y-131786190D01*
X232100476Y-131881428D01*
X232148095Y-131976666D01*
X231862380Y-130548095D02*
X231862380Y-130738571D01*
X231910000Y-130833809D01*
X231957619Y-130881428D01*
X232100476Y-130976666D01*
X232290952Y-131024285D01*
X232671904Y-131024285D01*
X232767142Y-130976666D01*
X232814761Y-130929047D01*
X232862380Y-130833809D01*
X232862380Y-130643333D01*
X232814761Y-130548095D01*
X232767142Y-130500476D01*
X232671904Y-130452857D01*
X232433809Y-130452857D01*
X232338571Y-130500476D01*
X232290952Y-130548095D01*
X232243333Y-130643333D01*
X232243333Y-130833809D01*
X232290952Y-130929047D01*
X232338571Y-130976666D01*
X232433809Y-131024285D01*
X232576666Y-130071904D02*
X232576666Y-129595714D01*
X232862380Y-130167142D02*
X231862380Y-129833809D01*
X232862380Y-129500476D01*
X232862380Y-128643333D02*
X232862380Y-129214761D01*
X232862380Y-128929047D02*
X231862380Y-128929047D01*
X232005238Y-129024285D01*
X232100476Y-129119523D01*
X232148095Y-129214761D01*
%TO.C,Q1*%
X247562619Y-121380238D02*
X247515000Y-121475476D01*
X247419761Y-121570714D01*
X247276904Y-121713571D01*
X247229285Y-121808809D01*
X247229285Y-121904047D01*
X247467380Y-121856428D02*
X247419761Y-121951666D01*
X247324523Y-122046904D01*
X247134047Y-122094523D01*
X246800714Y-122094523D01*
X246610238Y-122046904D01*
X246515000Y-121951666D01*
X246467380Y-121856428D01*
X246467380Y-121665952D01*
X246515000Y-121570714D01*
X246610238Y-121475476D01*
X246800714Y-121427857D01*
X247134047Y-121427857D01*
X247324523Y-121475476D01*
X247419761Y-121570714D01*
X247467380Y-121665952D01*
X247467380Y-121856428D01*
X247467380Y-120475476D02*
X247467380Y-121046904D01*
X247467380Y-120761190D02*
X246467380Y-120761190D01*
X246610238Y-120856428D01*
X246705476Y-120951666D01*
X246753095Y-121046904D01*
%TO.C,H1T1*%
X260167380Y-108299047D02*
X259167380Y-108299047D01*
X259643571Y-108299047D02*
X259643571Y-107727619D01*
X260167380Y-107727619D02*
X259167380Y-107727619D01*
X260167380Y-106727619D02*
X260167380Y-107299047D01*
X260167380Y-107013333D02*
X259167380Y-107013333D01*
X259310238Y-107108571D01*
X259405476Y-107203809D01*
X259453095Y-107299047D01*
X259167380Y-106441904D02*
X259167380Y-105870476D01*
X260167380Y-106156190D02*
X259167380Y-106156190D01*
X260167380Y-105013333D02*
X260167380Y-105584761D01*
X260167380Y-105299047D02*
X259167380Y-105299047D01*
X259310238Y-105394285D01*
X259405476Y-105489523D01*
X259453095Y-105584761D01*
%TO.C,DPDT-2*%
X246197380Y-136723095D02*
X245197380Y-136723095D01*
X245197380Y-136485000D01*
X245245000Y-136342142D01*
X245340238Y-136246904D01*
X245435476Y-136199285D01*
X245625952Y-136151666D01*
X245768809Y-136151666D01*
X245959285Y-136199285D01*
X246054523Y-136246904D01*
X246149761Y-136342142D01*
X246197380Y-136485000D01*
X246197380Y-136723095D01*
X246197380Y-135723095D02*
X245197380Y-135723095D01*
X245197380Y-135342142D01*
X245245000Y-135246904D01*
X245292619Y-135199285D01*
X245387857Y-135151666D01*
X245530714Y-135151666D01*
X245625952Y-135199285D01*
X245673571Y-135246904D01*
X245721190Y-135342142D01*
X245721190Y-135723095D01*
X246197380Y-134723095D02*
X245197380Y-134723095D01*
X245197380Y-134485000D01*
X245245000Y-134342142D01*
X245340238Y-134246904D01*
X245435476Y-134199285D01*
X245625952Y-134151666D01*
X245768809Y-134151666D01*
X245959285Y-134199285D01*
X246054523Y-134246904D01*
X246149761Y-134342142D01*
X246197380Y-134485000D01*
X246197380Y-134723095D01*
X245197380Y-133865952D02*
X245197380Y-133294523D01*
X246197380Y-133580238D02*
X245197380Y-133580238D01*
X245816428Y-132961190D02*
X245816428Y-132199285D01*
X245292619Y-131770714D02*
X245245000Y-131723095D01*
X245197380Y-131627857D01*
X245197380Y-131389761D01*
X245245000Y-131294523D01*
X245292619Y-131246904D01*
X245387857Y-131199285D01*
X245483095Y-131199285D01*
X245625952Y-131246904D01*
X246197380Y-131818333D01*
X246197380Y-131199285D01*
%TO.C,R7*%
X242387380Y-125896666D02*
X241911190Y-126230000D01*
X242387380Y-126468095D02*
X241387380Y-126468095D01*
X241387380Y-126087142D01*
X241435000Y-125991904D01*
X241482619Y-125944285D01*
X241577857Y-125896666D01*
X241720714Y-125896666D01*
X241815952Y-125944285D01*
X241863571Y-125991904D01*
X241911190Y-126087142D01*
X241911190Y-126468095D01*
X241387380Y-125563333D02*
X241387380Y-124896666D01*
X242387380Y-125325238D01*
%TO.C,LEFT-D1*%
X239847380Y-98432619D02*
X239847380Y-98908809D01*
X238847380Y-98908809D01*
X239323571Y-98099285D02*
X239323571Y-97765952D01*
X239847380Y-97623095D02*
X239847380Y-98099285D01*
X238847380Y-98099285D01*
X238847380Y-97623095D01*
X239323571Y-96861190D02*
X239323571Y-97194523D01*
X239847380Y-97194523D02*
X238847380Y-97194523D01*
X238847380Y-96718333D01*
X238847380Y-96480238D02*
X238847380Y-95908809D01*
X239847380Y-96194523D02*
X238847380Y-96194523D01*
X239466428Y-95575476D02*
X239466428Y-94813571D01*
X239847380Y-94337380D02*
X238847380Y-94337380D01*
X238847380Y-94099285D01*
X238895000Y-93956428D01*
X238990238Y-93861190D01*
X239085476Y-93813571D01*
X239275952Y-93765952D01*
X239418809Y-93765952D01*
X239609285Y-93813571D01*
X239704523Y-93861190D01*
X239799761Y-93956428D01*
X239847380Y-94099285D01*
X239847380Y-94337380D01*
X239847380Y-92813571D02*
X239847380Y-93385000D01*
X239847380Y-93099285D02*
X238847380Y-93099285D01*
X238990238Y-93194523D01*
X239085476Y-93289761D01*
X239133095Y-93385000D01*
%TO.C,R15A1*%
X239117380Y-100782380D02*
X238784047Y-100306190D01*
X238545952Y-100782380D02*
X238545952Y-99782380D01*
X238926904Y-99782380D01*
X239022142Y-99830000D01*
X239069761Y-99877619D01*
X239117380Y-99972857D01*
X239117380Y-100115714D01*
X239069761Y-100210952D01*
X239022142Y-100258571D01*
X238926904Y-100306190D01*
X238545952Y-100306190D01*
X240069761Y-100782380D02*
X239498333Y-100782380D01*
X239784047Y-100782380D02*
X239784047Y-99782380D01*
X239688809Y-99925238D01*
X239593571Y-100020476D01*
X239498333Y-100068095D01*
X240974523Y-99782380D02*
X240498333Y-99782380D01*
X240450714Y-100258571D01*
X240498333Y-100210952D01*
X240593571Y-100163333D01*
X240831666Y-100163333D01*
X240926904Y-100210952D01*
X240974523Y-100258571D01*
X241022142Y-100353809D01*
X241022142Y-100591904D01*
X240974523Y-100687142D01*
X240926904Y-100734761D01*
X240831666Y-100782380D01*
X240593571Y-100782380D01*
X240498333Y-100734761D01*
X240450714Y-100687142D01*
X241403095Y-100496666D02*
X241879285Y-100496666D01*
X241307857Y-100782380D02*
X241641190Y-99782380D01*
X241974523Y-100782380D01*
X242831666Y-100782380D02*
X242260238Y-100782380D01*
X242545952Y-100782380D02*
X242545952Y-99782380D01*
X242450714Y-99925238D01*
X242355476Y-100020476D01*
X242260238Y-100068095D01*
%TO.C,RIGHT2*%
X237307380Y-105949523D02*
X236831190Y-106282857D01*
X237307380Y-106520952D02*
X236307380Y-106520952D01*
X236307380Y-106140000D01*
X236355000Y-106044761D01*
X236402619Y-105997142D01*
X236497857Y-105949523D01*
X236640714Y-105949523D01*
X236735952Y-105997142D01*
X236783571Y-106044761D01*
X236831190Y-106140000D01*
X236831190Y-106520952D01*
X237307380Y-105520952D02*
X236307380Y-105520952D01*
X236355000Y-104520952D02*
X236307380Y-104616190D01*
X236307380Y-104759047D01*
X236355000Y-104901904D01*
X236450238Y-104997142D01*
X236545476Y-105044761D01*
X236735952Y-105092380D01*
X236878809Y-105092380D01*
X237069285Y-105044761D01*
X237164523Y-104997142D01*
X237259761Y-104901904D01*
X237307380Y-104759047D01*
X237307380Y-104663809D01*
X237259761Y-104520952D01*
X237212142Y-104473333D01*
X236878809Y-104473333D01*
X236878809Y-104663809D01*
X237307380Y-104044761D02*
X236307380Y-104044761D01*
X236783571Y-104044761D02*
X236783571Y-103473333D01*
X237307380Y-103473333D02*
X236307380Y-103473333D01*
X236307380Y-103140000D02*
X236307380Y-102568571D01*
X237307380Y-102854285D02*
X236307380Y-102854285D01*
X236402619Y-102282857D02*
X236355000Y-102235238D01*
X236307380Y-102140000D01*
X236307380Y-101901904D01*
X236355000Y-101806666D01*
X236402619Y-101759047D01*
X236497857Y-101711428D01*
X236593095Y-101711428D01*
X236735952Y-101759047D01*
X237307380Y-102330476D01*
X237307380Y-101711428D01*
%TO.C,TIP1*%
X249325000Y-85177380D02*
X249896428Y-85177380D01*
X249610714Y-86177380D02*
X249610714Y-85177380D01*
X250229761Y-86177380D02*
X250229761Y-85177380D01*
X250705952Y-86177380D02*
X250705952Y-85177380D01*
X251086904Y-85177380D01*
X251182142Y-85225000D01*
X251229761Y-85272619D01*
X251277380Y-85367857D01*
X251277380Y-85510714D01*
X251229761Y-85605952D01*
X251182142Y-85653571D01*
X251086904Y-85701190D01*
X250705952Y-85701190D01*
X252229761Y-86177380D02*
X251658333Y-86177380D01*
X251944047Y-86177380D02*
X251944047Y-85177380D01*
X251848809Y-85320238D01*
X251753571Y-85415476D01*
X251658333Y-85463095D01*
%TO.C,R1*%
X244943333Y-83637380D02*
X244610000Y-83161190D01*
X244371904Y-83637380D02*
X244371904Y-82637380D01*
X244752857Y-82637380D01*
X244848095Y-82685000D01*
X244895714Y-82732619D01*
X244943333Y-82827857D01*
X244943333Y-82970714D01*
X244895714Y-83065952D01*
X244848095Y-83113571D01*
X244752857Y-83161190D01*
X244371904Y-83161190D01*
X245895714Y-83637380D02*
X245324285Y-83637380D01*
X245610000Y-83637380D02*
X245610000Y-82637380D01*
X245514761Y-82780238D01*
X245419523Y-82875476D01*
X245324285Y-82923095D01*
%TO.C,D3*%
X234211904Y-114117380D02*
X234211904Y-113117380D01*
X234450000Y-113117380D01*
X234592857Y-113165000D01*
X234688095Y-113260238D01*
X234735714Y-113355476D01*
X234783333Y-113545952D01*
X234783333Y-113688809D01*
X234735714Y-113879285D01*
X234688095Y-113974523D01*
X234592857Y-114069761D01*
X234450000Y-114117380D01*
X234211904Y-114117380D01*
X235116666Y-113117380D02*
X235735714Y-113117380D01*
X235402380Y-113498333D01*
X235545238Y-113498333D01*
X235640476Y-113545952D01*
X235688095Y-113593571D01*
X235735714Y-113688809D01*
X235735714Y-113926904D01*
X235688095Y-114022142D01*
X235640476Y-114069761D01*
X235545238Y-114117380D01*
X235259523Y-114117380D01*
X235164285Y-114069761D01*
X235116666Y-114022142D01*
X234132380Y-106306904D02*
X233132380Y-106306904D01*
X234132380Y-105735476D02*
X233560952Y-106164047D01*
X233132380Y-105735476D02*
X233703809Y-106306904D01*
%TO.C,DPDT2*%
X240450952Y-130627380D02*
X240450952Y-129627380D01*
X240689047Y-129627380D01*
X240831904Y-129675000D01*
X240927142Y-129770238D01*
X240974761Y-129865476D01*
X241022380Y-130055952D01*
X241022380Y-130198809D01*
X240974761Y-130389285D01*
X240927142Y-130484523D01*
X240831904Y-130579761D01*
X240689047Y-130627380D01*
X240450952Y-130627380D01*
X241450952Y-130627380D02*
X241450952Y-129627380D01*
X241831904Y-129627380D01*
X241927142Y-129675000D01*
X241974761Y-129722619D01*
X242022380Y-129817857D01*
X242022380Y-129960714D01*
X241974761Y-130055952D01*
X241927142Y-130103571D01*
X241831904Y-130151190D01*
X241450952Y-130151190D01*
X242450952Y-130627380D02*
X242450952Y-129627380D01*
X242689047Y-129627380D01*
X242831904Y-129675000D01*
X242927142Y-129770238D01*
X242974761Y-129865476D01*
X243022380Y-130055952D01*
X243022380Y-130198809D01*
X242974761Y-130389285D01*
X242927142Y-130484523D01*
X242831904Y-130579761D01*
X242689047Y-130627380D01*
X242450952Y-130627380D01*
X243308095Y-129627380D02*
X243879523Y-129627380D01*
X243593809Y-130627380D02*
X243593809Y-129627380D01*
X244165238Y-129722619D02*
X244212857Y-129675000D01*
X244308095Y-129627380D01*
X244546190Y-129627380D01*
X244641428Y-129675000D01*
X244689047Y-129722619D01*
X244736666Y-129817857D01*
X244736666Y-129913095D01*
X244689047Y-130055952D01*
X244117619Y-130627380D01*
X244736666Y-130627380D01*
%TO.C,R3*%
X252563333Y-128722380D02*
X252230000Y-128246190D01*
X251991904Y-128722380D02*
X251991904Y-127722380D01*
X252372857Y-127722380D01*
X252468095Y-127770000D01*
X252515714Y-127817619D01*
X252563333Y-127912857D01*
X252563333Y-128055714D01*
X252515714Y-128150952D01*
X252468095Y-128198571D01*
X252372857Y-128246190D01*
X251991904Y-128246190D01*
X252896666Y-127722380D02*
X253515714Y-127722380D01*
X253182380Y-128103333D01*
X253325238Y-128103333D01*
X253420476Y-128150952D01*
X253468095Y-128198571D01*
X253515714Y-128293809D01*
X253515714Y-128531904D01*
X253468095Y-128627142D01*
X253420476Y-128674761D01*
X253325238Y-128722380D01*
X253039523Y-128722380D01*
X252944285Y-128674761D01*
X252896666Y-128627142D01*
%TO.C,SLEEVE1*%
X235807619Y-82954761D02*
X235950476Y-83002380D01*
X236188571Y-83002380D01*
X236283809Y-82954761D01*
X236331428Y-82907142D01*
X236379047Y-82811904D01*
X236379047Y-82716666D01*
X236331428Y-82621428D01*
X236283809Y-82573809D01*
X236188571Y-82526190D01*
X235998095Y-82478571D01*
X235902857Y-82430952D01*
X235855238Y-82383333D01*
X235807619Y-82288095D01*
X235807619Y-82192857D01*
X235855238Y-82097619D01*
X235902857Y-82050000D01*
X235998095Y-82002380D01*
X236236190Y-82002380D01*
X236379047Y-82050000D01*
X237283809Y-83002380D02*
X236807619Y-83002380D01*
X236807619Y-82002380D01*
X237617142Y-82478571D02*
X237950476Y-82478571D01*
X238093333Y-83002380D02*
X237617142Y-83002380D01*
X237617142Y-82002380D01*
X238093333Y-82002380D01*
X238521904Y-82478571D02*
X238855238Y-82478571D01*
X238998095Y-83002380D02*
X238521904Y-83002380D01*
X238521904Y-82002380D01*
X238998095Y-82002380D01*
X239283809Y-82002380D02*
X239617142Y-83002380D01*
X239950476Y-82002380D01*
X240283809Y-82478571D02*
X240617142Y-82478571D01*
X240760000Y-83002380D02*
X240283809Y-83002380D01*
X240283809Y-82002380D01*
X240760000Y-82002380D01*
X241712380Y-83002380D02*
X241140952Y-83002380D01*
X241426666Y-83002380D02*
X241426666Y-82002380D01*
X241331428Y-82145238D01*
X241236190Y-82240476D01*
X241140952Y-82288095D01*
%TO.C,H3D1*%
X229052380Y-113498095D02*
X228052380Y-113498095D01*
X228528571Y-113498095D02*
X228528571Y-112926666D01*
X229052380Y-112926666D02*
X228052380Y-112926666D01*
X228052380Y-112545714D02*
X228052380Y-111926666D01*
X228433333Y-112260000D01*
X228433333Y-112117142D01*
X228480952Y-112021904D01*
X228528571Y-111974285D01*
X228623809Y-111926666D01*
X228861904Y-111926666D01*
X228957142Y-111974285D01*
X229004761Y-112021904D01*
X229052380Y-112117142D01*
X229052380Y-112402857D01*
X229004761Y-112498095D01*
X228957142Y-112545714D01*
X229052380Y-111498095D02*
X228052380Y-111498095D01*
X228052380Y-111260000D01*
X228100000Y-111117142D01*
X228195238Y-111021904D01*
X228290476Y-110974285D01*
X228480952Y-110926666D01*
X228623809Y-110926666D01*
X228814285Y-110974285D01*
X228909523Y-111021904D01*
X229004761Y-111117142D01*
X229052380Y-111260000D01*
X229052380Y-111498095D01*
X229052380Y-109974285D02*
X229052380Y-110545714D01*
X229052380Y-110260000D02*
X228052380Y-110260000D01*
X228195238Y-110355238D01*
X228290476Y-110450476D01*
X228338095Y-110545714D01*
%TO.C,H2V1*%
X265247380Y-89296666D02*
X264247380Y-89296666D01*
X264723571Y-89296666D02*
X264723571Y-88725238D01*
X265247380Y-88725238D02*
X264247380Y-88725238D01*
X264342619Y-88296666D02*
X264295000Y-88249047D01*
X264247380Y-88153809D01*
X264247380Y-87915714D01*
X264295000Y-87820476D01*
X264342619Y-87772857D01*
X264437857Y-87725238D01*
X264533095Y-87725238D01*
X264675952Y-87772857D01*
X265247380Y-88344285D01*
X265247380Y-87725238D01*
X264247380Y-87439523D02*
X265247380Y-87106190D01*
X264247380Y-86772857D01*
X265247380Y-85915714D02*
X265247380Y-86487142D01*
X265247380Y-86201428D02*
X264247380Y-86201428D01*
X264390238Y-86296666D01*
X264485476Y-86391904D01*
X264533095Y-86487142D01*
%TO.C,R10*%
X262882142Y-115387380D02*
X262548809Y-114911190D01*
X262310714Y-115387380D02*
X262310714Y-114387380D01*
X262691666Y-114387380D01*
X262786904Y-114435000D01*
X262834523Y-114482619D01*
X262882142Y-114577857D01*
X262882142Y-114720714D01*
X262834523Y-114815952D01*
X262786904Y-114863571D01*
X262691666Y-114911190D01*
X262310714Y-114911190D01*
X263834523Y-115387380D02*
X263263095Y-115387380D01*
X263548809Y-115387380D02*
X263548809Y-114387380D01*
X263453571Y-114530238D01*
X263358333Y-114625476D01*
X263263095Y-114673095D01*
X264453571Y-114387380D02*
X264548809Y-114387380D01*
X264644047Y-114435000D01*
X264691666Y-114482619D01*
X264739285Y-114577857D01*
X264786904Y-114768333D01*
X264786904Y-115006428D01*
X264739285Y-115196904D01*
X264691666Y-115292142D01*
X264644047Y-115339761D01*
X264548809Y-115387380D01*
X264453571Y-115387380D01*
X264358333Y-115339761D01*
X264310714Y-115292142D01*
X264263095Y-115196904D01*
X264215476Y-115006428D01*
X264215476Y-114768333D01*
X264263095Y-114577857D01*
X264310714Y-114482619D01*
X264358333Y-114435000D01*
X264453571Y-114387380D01*
%TO.C,RIGHT-D1*%
X243657380Y-95638571D02*
X243181190Y-95971904D01*
X243657380Y-96210000D02*
X242657380Y-96210000D01*
X242657380Y-95829047D01*
X242705000Y-95733809D01*
X242752619Y-95686190D01*
X242847857Y-95638571D01*
X242990714Y-95638571D01*
X243085952Y-95686190D01*
X243133571Y-95733809D01*
X243181190Y-95829047D01*
X243181190Y-96210000D01*
X243657380Y-95210000D02*
X242657380Y-95210000D01*
X242705000Y-94210000D02*
X242657380Y-94305238D01*
X242657380Y-94448095D01*
X242705000Y-94590952D01*
X242800238Y-94686190D01*
X242895476Y-94733809D01*
X243085952Y-94781428D01*
X243228809Y-94781428D01*
X243419285Y-94733809D01*
X243514523Y-94686190D01*
X243609761Y-94590952D01*
X243657380Y-94448095D01*
X243657380Y-94352857D01*
X243609761Y-94210000D01*
X243562142Y-94162380D01*
X243228809Y-94162380D01*
X243228809Y-94352857D01*
X243657380Y-93733809D02*
X242657380Y-93733809D01*
X243133571Y-93733809D02*
X243133571Y-93162380D01*
X243657380Y-93162380D02*
X242657380Y-93162380D01*
X242657380Y-92829047D02*
X242657380Y-92257619D01*
X243657380Y-92543333D02*
X242657380Y-92543333D01*
X243276428Y-91924285D02*
X243276428Y-91162380D01*
X243657380Y-90686190D02*
X242657380Y-90686190D01*
X242657380Y-90448095D01*
X242705000Y-90305238D01*
X242800238Y-90210000D01*
X242895476Y-90162380D01*
X243085952Y-90114761D01*
X243228809Y-90114761D01*
X243419285Y-90162380D01*
X243514523Y-90210000D01*
X243609761Y-90305238D01*
X243657380Y-90448095D01*
X243657380Y-90686190D01*
X243657380Y-89162380D02*
X243657380Y-89733809D01*
X243657380Y-89448095D02*
X242657380Y-89448095D01*
X242800238Y-89543333D01*
X242895476Y-89638571D01*
X242943095Y-89733809D01*
%TO.C,C5*%
X242403333Y-115292142D02*
X242355714Y-115339761D01*
X242212857Y-115387380D01*
X242117619Y-115387380D01*
X241974761Y-115339761D01*
X241879523Y-115244523D01*
X241831904Y-115149285D01*
X241784285Y-114958809D01*
X241784285Y-114815952D01*
X241831904Y-114625476D01*
X241879523Y-114530238D01*
X241974761Y-114435000D01*
X242117619Y-114387380D01*
X242212857Y-114387380D01*
X242355714Y-114435000D01*
X242403333Y-114482619D01*
X243308095Y-114387380D02*
X242831904Y-114387380D01*
X242784285Y-114863571D01*
X242831904Y-114815952D01*
X242927142Y-114768333D01*
X243165238Y-114768333D01*
X243260476Y-114815952D01*
X243308095Y-114863571D01*
X243355714Y-114958809D01*
X243355714Y-115196904D01*
X243308095Y-115292142D01*
X243260476Y-115339761D01*
X243165238Y-115387380D01*
X242927142Y-115387380D01*
X242831904Y-115339761D01*
X242784285Y-115292142D01*
%TO.C,R4*%
X252563333Y-125547380D02*
X252230000Y-125071190D01*
X251991904Y-125547380D02*
X251991904Y-124547380D01*
X252372857Y-124547380D01*
X252468095Y-124595000D01*
X252515714Y-124642619D01*
X252563333Y-124737857D01*
X252563333Y-124880714D01*
X252515714Y-124975952D01*
X252468095Y-125023571D01*
X252372857Y-125071190D01*
X251991904Y-125071190D01*
X253420476Y-124880714D02*
X253420476Y-125547380D01*
X253182380Y-124499761D02*
X252944285Y-125214047D01*
X253563333Y-125214047D01*
%TO.C,D1*%
X258341904Y-84272380D02*
X258341904Y-83272380D01*
X258580000Y-83272380D01*
X258722857Y-83320000D01*
X258818095Y-83415238D01*
X258865714Y-83510476D01*
X258913333Y-83700952D01*
X258913333Y-83843809D01*
X258865714Y-84034285D01*
X258818095Y-84129523D01*
X258722857Y-84224761D01*
X258580000Y-84272380D01*
X258341904Y-84272380D01*
X259865714Y-84272380D02*
X259294285Y-84272380D01*
X259580000Y-84272380D02*
X259580000Y-83272380D01*
X259484761Y-83415238D01*
X259389523Y-83510476D01*
X259294285Y-83558095D01*
X254373095Y-82367380D02*
X254373095Y-81367380D01*
X254944523Y-82367380D02*
X254515952Y-81795952D01*
X254944523Y-81367380D02*
X254373095Y-81938809D01*
%TO.C,H2D1*%
X229052380Y-109053095D02*
X228052380Y-109053095D01*
X228528571Y-109053095D02*
X228528571Y-108481666D01*
X229052380Y-108481666D02*
X228052380Y-108481666D01*
X228147619Y-108053095D02*
X228100000Y-108005476D01*
X228052380Y-107910238D01*
X228052380Y-107672142D01*
X228100000Y-107576904D01*
X228147619Y-107529285D01*
X228242857Y-107481666D01*
X228338095Y-107481666D01*
X228480952Y-107529285D01*
X229052380Y-108100714D01*
X229052380Y-107481666D01*
X229052380Y-107053095D02*
X228052380Y-107053095D01*
X228052380Y-106815000D01*
X228100000Y-106672142D01*
X228195238Y-106576904D01*
X228290476Y-106529285D01*
X228480952Y-106481666D01*
X228623809Y-106481666D01*
X228814285Y-106529285D01*
X228909523Y-106576904D01*
X229004761Y-106672142D01*
X229052380Y-106815000D01*
X229052380Y-107053095D01*
X229052380Y-105529285D02*
X229052380Y-106100714D01*
X229052380Y-105815000D02*
X228052380Y-105815000D01*
X228195238Y-105910238D01*
X228290476Y-106005476D01*
X228338095Y-106100714D01*
%TO.C,H3V1*%
X238922380Y-89931666D02*
X237922380Y-89931666D01*
X238398571Y-89931666D02*
X238398571Y-89360238D01*
X238922380Y-89360238D02*
X237922380Y-89360238D01*
X237922380Y-88979285D02*
X237922380Y-88360238D01*
X238303333Y-88693571D01*
X238303333Y-88550714D01*
X238350952Y-88455476D01*
X238398571Y-88407857D01*
X238493809Y-88360238D01*
X238731904Y-88360238D01*
X238827142Y-88407857D01*
X238874761Y-88455476D01*
X238922380Y-88550714D01*
X238922380Y-88836428D01*
X238874761Y-88931666D01*
X238827142Y-88979285D01*
X237922380Y-88074523D02*
X238922380Y-87741190D01*
X237922380Y-87407857D01*
X238922380Y-86550714D02*
X238922380Y-87122142D01*
X238922380Y-86836428D02*
X237922380Y-86836428D01*
X238065238Y-86931666D01*
X238160476Y-87026904D01*
X238208095Y-87122142D01*
%TO.C,R11*%
X259707142Y-112212380D02*
X259373809Y-111736190D01*
X259135714Y-112212380D02*
X259135714Y-111212380D01*
X259516666Y-111212380D01*
X259611904Y-111260000D01*
X259659523Y-111307619D01*
X259707142Y-111402857D01*
X259707142Y-111545714D01*
X259659523Y-111640952D01*
X259611904Y-111688571D01*
X259516666Y-111736190D01*
X259135714Y-111736190D01*
X260659523Y-112212380D02*
X260088095Y-112212380D01*
X260373809Y-112212380D02*
X260373809Y-111212380D01*
X260278571Y-111355238D01*
X260183333Y-111450476D01*
X260088095Y-111498095D01*
X261611904Y-112212380D02*
X261040476Y-112212380D01*
X261326190Y-112212380D02*
X261326190Y-111212380D01*
X261230952Y-111355238D01*
X261135714Y-111450476D01*
X261040476Y-111498095D01*
%TO.C,U1*%
X249428095Y-111212380D02*
X249428095Y-112021904D01*
X249475714Y-112117142D01*
X249523333Y-112164761D01*
X249618571Y-112212380D01*
X249809047Y-112212380D01*
X249904285Y-112164761D01*
X249951904Y-112117142D01*
X249999523Y-112021904D01*
X249999523Y-111212380D01*
X250999523Y-112212380D02*
X250428095Y-112212380D01*
X250713809Y-112212380D02*
X250713809Y-111212380D01*
X250618571Y-111355238D01*
X250523333Y-111450476D01*
X250428095Y-111498095D01*
%TO.C,C10*%
X255857142Y-89257142D02*
X255809523Y-89304761D01*
X255666666Y-89352380D01*
X255571428Y-89352380D01*
X255428571Y-89304761D01*
X255333333Y-89209523D01*
X255285714Y-89114285D01*
X255238095Y-88923809D01*
X255238095Y-88780952D01*
X255285714Y-88590476D01*
X255333333Y-88495238D01*
X255428571Y-88400000D01*
X255571428Y-88352380D01*
X255666666Y-88352380D01*
X255809523Y-88400000D01*
X255857142Y-88447619D01*
X256809523Y-89352380D02*
X256238095Y-89352380D01*
X256523809Y-89352380D02*
X256523809Y-88352380D01*
X256428571Y-88495238D01*
X256333333Y-88590476D01*
X256238095Y-88638095D01*
X257428571Y-88352380D02*
X257523809Y-88352380D01*
X257619047Y-88400000D01*
X257666666Y-88447619D01*
X257714285Y-88542857D01*
X257761904Y-88733333D01*
X257761904Y-88971428D01*
X257714285Y-89161904D01*
X257666666Y-89257142D01*
X257619047Y-89304761D01*
X257523809Y-89352380D01*
X257428571Y-89352380D01*
X257333333Y-89304761D01*
X257285714Y-89257142D01*
X257238095Y-89161904D01*
X257190476Y-88971428D01*
X257190476Y-88733333D01*
X257238095Y-88542857D01*
X257285714Y-88447619D01*
X257333333Y-88400000D01*
X257428571Y-88352380D01*
%TO.C,C3*%
X251213333Y-133707142D02*
X251165714Y-133754761D01*
X251022857Y-133802380D01*
X250927619Y-133802380D01*
X250784761Y-133754761D01*
X250689523Y-133659523D01*
X250641904Y-133564285D01*
X250594285Y-133373809D01*
X250594285Y-133230952D01*
X250641904Y-133040476D01*
X250689523Y-132945238D01*
X250784761Y-132850000D01*
X250927619Y-132802380D01*
X251022857Y-132802380D01*
X251165714Y-132850000D01*
X251213333Y-132897619D01*
X251546666Y-132802380D02*
X252165714Y-132802380D01*
X251832380Y-133183333D01*
X251975238Y-133183333D01*
X252070476Y-133230952D01*
X252118095Y-133278571D01*
X252165714Y-133373809D01*
X252165714Y-133611904D01*
X252118095Y-133707142D01*
X252070476Y-133754761D01*
X251975238Y-133802380D01*
X251689523Y-133802380D01*
X251594285Y-133754761D01*
X251546666Y-133707142D01*
%TO.C,R6*%
X231608333Y-103322380D02*
X231275000Y-102846190D01*
X231036904Y-103322380D02*
X231036904Y-102322380D01*
X231417857Y-102322380D01*
X231513095Y-102370000D01*
X231560714Y-102417619D01*
X231608333Y-102512857D01*
X231608333Y-102655714D01*
X231560714Y-102750952D01*
X231513095Y-102798571D01*
X231417857Y-102846190D01*
X231036904Y-102846190D01*
X232465476Y-102322380D02*
X232275000Y-102322380D01*
X232179761Y-102370000D01*
X232132142Y-102417619D01*
X232036904Y-102560476D01*
X231989285Y-102750952D01*
X231989285Y-103131904D01*
X232036904Y-103227142D01*
X232084523Y-103274761D01*
X232179761Y-103322380D01*
X232370238Y-103322380D01*
X232465476Y-103274761D01*
X232513095Y-103227142D01*
X232560714Y-103131904D01*
X232560714Y-102893809D01*
X232513095Y-102798571D01*
X232465476Y-102750952D01*
X232370238Y-102703333D01*
X232179761Y-102703333D01*
X232084523Y-102750952D01*
X232036904Y-102798571D01*
X231989285Y-102893809D01*
%TO.C,H2T1*%
X254960952Y-117467380D02*
X254960952Y-116467380D01*
X254960952Y-116943571D02*
X255532380Y-116943571D01*
X255532380Y-117467380D02*
X255532380Y-116467380D01*
X255960952Y-116562619D02*
X256008571Y-116515000D01*
X256103809Y-116467380D01*
X256341904Y-116467380D01*
X256437142Y-116515000D01*
X256484761Y-116562619D01*
X256532380Y-116657857D01*
X256532380Y-116753095D01*
X256484761Y-116895952D01*
X255913333Y-117467380D01*
X256532380Y-117467380D01*
X256818095Y-116467380D02*
X257389523Y-116467380D01*
X257103809Y-117467380D02*
X257103809Y-116467380D01*
X258246666Y-117467380D02*
X257675238Y-117467380D01*
X257960952Y-117467380D02*
X257960952Y-116467380D01*
X257865714Y-116610238D01*
X257770476Y-116705476D01*
X257675238Y-116753095D01*
%TO.C,R12*%
X265882380Y-98432857D02*
X265406190Y-98766190D01*
X265882380Y-99004285D02*
X264882380Y-99004285D01*
X264882380Y-98623333D01*
X264930000Y-98528095D01*
X264977619Y-98480476D01*
X265072857Y-98432857D01*
X265215714Y-98432857D01*
X265310952Y-98480476D01*
X265358571Y-98528095D01*
X265406190Y-98623333D01*
X265406190Y-99004285D01*
X265882380Y-97480476D02*
X265882380Y-98051904D01*
X265882380Y-97766190D02*
X264882380Y-97766190D01*
X265025238Y-97861428D01*
X265120476Y-97956666D01*
X265168095Y-98051904D01*
X264977619Y-97099523D02*
X264930000Y-97051904D01*
X264882380Y-96956666D01*
X264882380Y-96718571D01*
X264930000Y-96623333D01*
X264977619Y-96575714D01*
X265072857Y-96528095D01*
X265168095Y-96528095D01*
X265310952Y-96575714D01*
X265882380Y-97147142D01*
X265882380Y-96528095D01*
%TO.C,H1V1*%
X265882380Y-93741666D02*
X264882380Y-93741666D01*
X265358571Y-93741666D02*
X265358571Y-93170238D01*
X265882380Y-93170238D02*
X264882380Y-93170238D01*
X265882380Y-92170238D02*
X265882380Y-92741666D01*
X265882380Y-92455952D02*
X264882380Y-92455952D01*
X265025238Y-92551190D01*
X265120476Y-92646428D01*
X265168095Y-92741666D01*
X264882380Y-91884523D02*
X265882380Y-91551190D01*
X264882380Y-91217857D01*
X265882380Y-90360714D02*
X265882380Y-90932142D01*
X265882380Y-90646428D02*
X264882380Y-90646428D01*
X265025238Y-90741666D01*
X265120476Y-90836904D01*
X265168095Y-90932142D01*
%TO.C,COMMON-D2*%
X241110000Y-105767142D02*
X241062380Y-105814761D01*
X240919523Y-105862380D01*
X240824285Y-105862380D01*
X240681428Y-105814761D01*
X240586190Y-105719523D01*
X240538571Y-105624285D01*
X240490952Y-105433809D01*
X240490952Y-105290952D01*
X240538571Y-105100476D01*
X240586190Y-105005238D01*
X240681428Y-104910000D01*
X240824285Y-104862380D01*
X240919523Y-104862380D01*
X241062380Y-104910000D01*
X241110000Y-104957619D01*
X241729047Y-104862380D02*
X241919523Y-104862380D01*
X242014761Y-104910000D01*
X242110000Y-105005238D01*
X242157619Y-105195714D01*
X242157619Y-105529047D01*
X242110000Y-105719523D01*
X242014761Y-105814761D01*
X241919523Y-105862380D01*
X241729047Y-105862380D01*
X241633809Y-105814761D01*
X241538571Y-105719523D01*
X241490952Y-105529047D01*
X241490952Y-105195714D01*
X241538571Y-105005238D01*
X241633809Y-104910000D01*
X241729047Y-104862380D01*
X242586190Y-105862380D02*
X242586190Y-104862380D01*
X242919523Y-105576666D01*
X243252857Y-104862380D01*
X243252857Y-105862380D01*
X243729047Y-105862380D02*
X243729047Y-104862380D01*
X244062380Y-105576666D01*
X244395714Y-104862380D01*
X244395714Y-105862380D01*
X245062380Y-104862380D02*
X245252857Y-104862380D01*
X245348095Y-104910000D01*
X245443333Y-105005238D01*
X245490952Y-105195714D01*
X245490952Y-105529047D01*
X245443333Y-105719523D01*
X245348095Y-105814761D01*
X245252857Y-105862380D01*
X245062380Y-105862380D01*
X244967142Y-105814761D01*
X244871904Y-105719523D01*
X244824285Y-105529047D01*
X244824285Y-105195714D01*
X244871904Y-105005238D01*
X244967142Y-104910000D01*
X245062380Y-104862380D01*
X245919523Y-105862380D02*
X245919523Y-104862380D01*
X246490952Y-105862380D01*
X246490952Y-104862380D01*
X246967142Y-105481428D02*
X247729047Y-105481428D01*
X248205238Y-105862380D02*
X248205238Y-104862380D01*
X248443333Y-104862380D01*
X248586190Y-104910000D01*
X248681428Y-105005238D01*
X248729047Y-105100476D01*
X248776666Y-105290952D01*
X248776666Y-105433809D01*
X248729047Y-105624285D01*
X248681428Y-105719523D01*
X248586190Y-105814761D01*
X248443333Y-105862380D01*
X248205238Y-105862380D01*
X249157619Y-104957619D02*
X249205238Y-104910000D01*
X249300476Y-104862380D01*
X249538571Y-104862380D01*
X249633809Y-104910000D01*
X249681428Y-104957619D01*
X249729047Y-105052857D01*
X249729047Y-105148095D01*
X249681428Y-105290952D01*
X249110000Y-105862380D01*
X249729047Y-105862380D01*
%TO.C,R9*%
X243673333Y-100782380D02*
X243340000Y-100306190D01*
X243101904Y-100782380D02*
X243101904Y-99782380D01*
X243482857Y-99782380D01*
X243578095Y-99830000D01*
X243625714Y-99877619D01*
X243673333Y-99972857D01*
X243673333Y-100115714D01*
X243625714Y-100210952D01*
X243578095Y-100258571D01*
X243482857Y-100306190D01*
X243101904Y-100306190D01*
X244149523Y-100782380D02*
X244340000Y-100782380D01*
X244435238Y-100734761D01*
X244482857Y-100687142D01*
X244578095Y-100544285D01*
X244625714Y-100353809D01*
X244625714Y-99972857D01*
X244578095Y-99877619D01*
X244530476Y-99830000D01*
X244435238Y-99782380D01*
X244244761Y-99782380D01*
X244149523Y-99830000D01*
X244101904Y-99877619D01*
X244054285Y-99972857D01*
X244054285Y-100210952D01*
X244101904Y-100306190D01*
X244149523Y-100353809D01*
X244244761Y-100401428D01*
X244435238Y-100401428D01*
X244530476Y-100353809D01*
X244578095Y-100306190D01*
X244625714Y-100210952D01*
%TO.C,R14*%
X248277142Y-97607380D02*
X247943809Y-97131190D01*
X247705714Y-97607380D02*
X247705714Y-96607380D01*
X248086666Y-96607380D01*
X248181904Y-96655000D01*
X248229523Y-96702619D01*
X248277142Y-96797857D01*
X248277142Y-96940714D01*
X248229523Y-97035952D01*
X248181904Y-97083571D01*
X248086666Y-97131190D01*
X247705714Y-97131190D01*
X249229523Y-97607380D02*
X248658095Y-97607380D01*
X248943809Y-97607380D02*
X248943809Y-96607380D01*
X248848571Y-96750238D01*
X248753333Y-96845476D01*
X248658095Y-96893095D01*
X250086666Y-96940714D02*
X250086666Y-97607380D01*
X249848571Y-96559761D02*
X249610476Y-97274047D01*
X250229523Y-97274047D01*
%TO.C,R17*%
X252087142Y-122372380D02*
X251753809Y-121896190D01*
X251515714Y-122372380D02*
X251515714Y-121372380D01*
X251896666Y-121372380D01*
X251991904Y-121420000D01*
X252039523Y-121467619D01*
X252087142Y-121562857D01*
X252087142Y-121705714D01*
X252039523Y-121800952D01*
X251991904Y-121848571D01*
X251896666Y-121896190D01*
X251515714Y-121896190D01*
X253039523Y-122372380D02*
X252468095Y-122372380D01*
X252753809Y-122372380D02*
X252753809Y-121372380D01*
X252658571Y-121515238D01*
X252563333Y-121610476D01*
X252468095Y-121658095D01*
X253372857Y-121372380D02*
X254039523Y-121372380D01*
X253610952Y-122372380D01*
%TO.C,C8*%
X260707142Y-122721666D02*
X260754761Y-122769285D01*
X260802380Y-122912142D01*
X260802380Y-123007380D01*
X260754761Y-123150238D01*
X260659523Y-123245476D01*
X260564285Y-123293095D01*
X260373809Y-123340714D01*
X260230952Y-123340714D01*
X260040476Y-123293095D01*
X259945238Y-123245476D01*
X259850000Y-123150238D01*
X259802380Y-123007380D01*
X259802380Y-122912142D01*
X259850000Y-122769285D01*
X259897619Y-122721666D01*
X260230952Y-122150238D02*
X260183333Y-122245476D01*
X260135714Y-122293095D01*
X260040476Y-122340714D01*
X259992857Y-122340714D01*
X259897619Y-122293095D01*
X259850000Y-122245476D01*
X259802380Y-122150238D01*
X259802380Y-121959761D01*
X259850000Y-121864523D01*
X259897619Y-121816904D01*
X259992857Y-121769285D01*
X260040476Y-121769285D01*
X260135714Y-121816904D01*
X260183333Y-121864523D01*
X260230952Y-121959761D01*
X260230952Y-122150238D01*
X260278571Y-122245476D01*
X260326190Y-122293095D01*
X260421428Y-122340714D01*
X260611904Y-122340714D01*
X260707142Y-122293095D01*
X260754761Y-122245476D01*
X260802380Y-122150238D01*
X260802380Y-121959761D01*
X260754761Y-121864523D01*
X260707142Y-121816904D01*
X260611904Y-121769285D01*
X260421428Y-121769285D01*
X260326190Y-121816904D01*
X260278571Y-121864523D01*
X260230952Y-121959761D01*
%TO.C,D2*%
X238021904Y-112847380D02*
X238021904Y-111847380D01*
X238260000Y-111847380D01*
X238402857Y-111895000D01*
X238498095Y-111990238D01*
X238545714Y-112085476D01*
X238593333Y-112275952D01*
X238593333Y-112418809D01*
X238545714Y-112609285D01*
X238498095Y-112704523D01*
X238402857Y-112799761D01*
X238260000Y-112847380D01*
X238021904Y-112847380D01*
X238974285Y-111942619D02*
X239021904Y-111895000D01*
X239117142Y-111847380D01*
X239355238Y-111847380D01*
X239450476Y-111895000D01*
X239498095Y-111942619D01*
X239545714Y-112037857D01*
X239545714Y-112133095D01*
X239498095Y-112275952D01*
X238926666Y-112847380D01*
X239545714Y-112847380D01*
X239212380Y-120276904D02*
X238212380Y-120276904D01*
X239212380Y-119705476D02*
X238640952Y-120134047D01*
X238212380Y-119705476D02*
X238783809Y-120276904D01*
%TD*%
M02*
