M48
; DRILL file {KiCad 5.1.9} date Tue Apr 20 15:01:45 2021
; FORMAT={-:-/ absolute / inch / decimal}
; #@! TF.CreationDate,2021-04-20T15:01:45+02:00
; #@! TF.GenerationSoftware,Kicad,Pcbnew,5.1.9
FMAT,2
INCH
T1C0.0295
T2C0.0315
T3C0.0433
%
G90
G05
T1
X9.6929Y-4.8429
X9.6929Y-4.8929
X9.6929Y-4.9429
X9.861Y-3.6106
X9.861Y-3.6606
X9.861Y-3.7106
T2
X9.1224Y-4.0807
X9.1803Y-3.9039
X9.2157Y-3.6846
X9.2157Y-5.2831
X9.2331Y-5.1591
X9.2591Y-3.9039
X9.2945Y-3.6846
X9.3224Y-4.0807
X9.3713Y-4.7913
X9.3713Y-4.9882
X9.3764Y-3.9563
X9.3984Y-3.3181
X9.4157Y-5.2831
X9.4283Y-3.6508
X9.4283Y-3.8508
X9.4331Y-5.1591
X9.4886Y-3.4874
X9.5488Y-4.7917
X9.5488Y-4.9917
X9.5673Y-3.4874
X9.5717Y-4.374
X9.5717Y-4.4724
X9.5764Y-3.9563
X9.5984Y-3.3181
X9.6815Y-3.4894
X9.6815Y-3.8291
X9.6917Y-4.6339
X9.6917Y-4.7126
X9.6984Y-4.1996
X9.6984Y-4.2996
X9.6984Y-4.3996
X9.6984Y-4.4996
X9.7Y-3.95
X9.7Y-4.075
X9.7035Y-3.3646
X9.7476Y-5.2
X9.865Y-4.6234
X9.865Y-4.7484
X9.865Y-4.8734
X9.865Y-4.9984
X9.8815Y-3.4894
X9.8815Y-3.8291
X9.9Y-3.95
X9.9Y-4.075
X9.9035Y-3.3646
X9.9984Y-4.1996
X9.9984Y-4.2996
X9.9984Y-4.3996
X9.9984Y-4.4996
X10.0201Y-3.5
X10.0429Y-5.2
X10.065Y-4.6234
X10.065Y-4.7484
X10.065Y-4.8734
X10.065Y-4.9984
X10.1Y-3.6661
X10.1Y-4.0598
X10.1028Y-4.3114
X10.1366Y-3.3283
X10.2169Y-3.5
X10.2646Y-4.5413
X10.2646Y-4.935
X10.2661Y-4.4362
X10.3028Y-4.3114
X10.3173Y-3.7138
X10.3173Y-3.9138
X10.3657Y-4.0846
X10.4366Y-3.3283
X10.4445Y-4.0846
X10.4661Y-4.4362
T3
X9.1531Y-4.2047
X9.1535Y-4.3307
X9.2917Y-4.1988
X9.2917Y-4.5988
X9.2937Y-3.3591
X9.352Y-3.5043
X9.4252Y-4.2236
X9.4252Y-4.6236
X9.4303Y-4.0917
X9.5539Y-5.1161
X9.5539Y-5.2411
X9.5622Y-3.6961
X9.5642Y-3.8311
X9.5661Y-4.0823
X9.5787Y-4.2094
X9.689Y-3.6953
X10.0287Y-3.3067
X10.1319Y-4.435
X10.2268Y-4.1776
X10.2382Y-5.0445
X10.3362Y-3.4516
X10.337Y-3.5965
T0
M30
