%TF.GenerationSoftware,KiCad,Pcbnew,5.1.9*%
%TF.CreationDate,2021-04-17T23:29:50+02:00*%
%TF.ProjectId,ts908,74733930-382e-46b6-9963-61645f706362,rev?*%
%TF.SameCoordinates,Original*%
%TF.FileFunction,Soldermask,Bot*%
%TF.FilePolarity,Negative*%
%FSLAX46Y46*%
G04 Gerber Fmt 4.6, Leading zero omitted, Abs format (unit mm)*
G04 Created by KiCad (PCBNEW 5.1.9) date 2021-04-17 23:29:50*
%MOMM*%
%LPD*%
G01*
G04 APERTURE LIST*
%ADD10C,1.600000*%
%ADD11O,1.600000X1.600000*%
%ADD12R,1.500000X1.050000*%
%ADD13O,1.500000X1.050000*%
%ADD14R,1.600000X1.600000*%
%ADD15O,2.200000X2.200000*%
%ADD16R,2.200000X2.200000*%
G04 APERTURE END LIST*
D10*
%TO.C,C6*%
X237490000Y-127535000D03*
X237490000Y-122535000D03*
%TD*%
%TO.C,DPDT-1*%
G36*
G01*
X244944999Y-92295000D02*
X246545001Y-92295000D01*
G75*
G02*
X246795000Y-92544999I0J-249999D01*
G01*
X246795000Y-94145001D01*
G75*
G02*
X246545001Y-94395000I-249999J0D01*
G01*
X244944999Y-94395000D01*
G75*
G02*
X244695000Y-94145001I0J249999D01*
G01*
X244695000Y-92544999D01*
G75*
G02*
X244944999Y-92295000I249999J0D01*
G01*
G37*
%TD*%
D11*
%TO.C,R16B1*%
X233680000Y-135255000D03*
D10*
X238760000Y-135255000D03*
%TD*%
%TO.C,H3T1*%
G36*
G01*
X242155000Y-107480001D02*
X242155000Y-105879999D01*
G75*
G02*
X242404999Y-105630000I249999J0D01*
G01*
X244005001Y-105630000D01*
G75*
G02*
X244255000Y-105879999I0J-249999D01*
G01*
X244255000Y-107480001D01*
G75*
G02*
X244005001Y-107730000I-249999J0D01*
G01*
X242404999Y-107730000D01*
G75*
G02*
X242155000Y-107480001I0J249999D01*
G01*
G37*
%TD*%
D12*
%TO.C,Q2*%
X250190000Y-93980000D03*
D13*
X250190000Y-91440000D03*
X250190000Y-92710000D03*
%TD*%
D11*
%TO.C,R13*%
X245745000Y-88265000D03*
D10*
X250825000Y-88265000D03*
%TD*%
D11*
%TO.C,R8*%
X251460000Y-103505000D03*
D10*
X246380000Y-103505000D03*
%TD*%
D11*
%TO.C,R5*%
X255270000Y-118745000D03*
D10*
X250190000Y-118745000D03*
%TD*%
%TO.C,C11*%
X231045000Y-99060000D03*
D14*
X233045000Y-99060000D03*
%TD*%
%TO.C,C2*%
X233045000Y-92710000D03*
D10*
X231045000Y-92710000D03*
%TD*%
%TO.C,C4*%
X243205000Y-118015000D03*
D14*
X243205000Y-120015000D03*
%TD*%
D10*
%TO.C,C9*%
X264890000Y-107315000D03*
D14*
X262890000Y-107315000D03*
%TD*%
D10*
%TO.C,C1*%
X240570000Y-87630000D03*
D14*
X242570000Y-87630000D03*
%TD*%
D10*
%TO.C,C7*%
X257175000Y-93505000D03*
X257175000Y-103505000D03*
%TD*%
%TO.C,RIGHT1*%
G36*
G01*
X261400000Y-130009999D02*
X261400000Y-131610001D01*
G75*
G02*
X261150001Y-131860000I-249999J0D01*
G01*
X259549999Y-131860000D01*
G75*
G02*
X259300000Y-131610001I0J249999D01*
G01*
X259300000Y-130009999D01*
G75*
G02*
X259549999Y-129760000I249999J0D01*
G01*
X261150001Y-129760000D01*
G75*
G02*
X261400000Y-130009999I0J-249999D01*
G01*
G37*
%TD*%
D11*
%TO.C,R15B1*%
X237490000Y-97155000D03*
D10*
X237490000Y-92075000D03*
%TD*%
D11*
%TO.C,R16A1*%
X239395000Y-132080000D03*
D10*
X234315000Y-132080000D03*
%TD*%
D12*
%TO.C,Q1*%
X245745000Y-123825000D03*
D13*
X245745000Y-126365000D03*
X245745000Y-125095000D03*
%TD*%
%TO.C,H1T1*%
G36*
G01*
X257975001Y-109000000D02*
X256374999Y-109000000D01*
G75*
G02*
X256125000Y-108750001I0J249999D01*
G01*
X256125000Y-107149999D01*
G75*
G02*
X256374999Y-106900000I249999J0D01*
G01*
X257975001Y-106900000D01*
G75*
G02*
X258225000Y-107149999I0J-249999D01*
G01*
X258225000Y-108750001D01*
G75*
G02*
X257975001Y-109000000I-249999J0D01*
G01*
G37*
%TD*%
%TO.C,DPDT-2*%
G36*
G01*
X241520000Y-136055001D02*
X241520000Y-134454999D01*
G75*
G02*
X241769999Y-134205000I249999J0D01*
G01*
X243370001Y-134205000D01*
G75*
G02*
X243620000Y-134454999I0J-249999D01*
G01*
X243620000Y-136055001D01*
G75*
G02*
X243370001Y-136305000I-249999J0D01*
G01*
X241769999Y-136305000D01*
G75*
G02*
X241520000Y-136055001I0J249999D01*
G01*
G37*
%TD*%
D11*
%TO.C,R7*%
X241935000Y-123190000D03*
D10*
X241935000Y-128270000D03*
%TD*%
%TO.C,LEFT-D1*%
G36*
G01*
X242100001Y-97570000D02*
X240499999Y-97570000D01*
G75*
G02*
X240250000Y-97320001I0J249999D01*
G01*
X240250000Y-95719999D01*
G75*
G02*
X240499999Y-95470000I249999J0D01*
G01*
X242100001Y-95470000D01*
G75*
G02*
X242350000Y-95719999I0J-249999D01*
G01*
X242350000Y-97320001D01*
G75*
G02*
X242100001Y-97570000I-249999J0D01*
G01*
G37*
%TD*%
D11*
%TO.C,R15A1*%
X238125000Y-100330000D03*
D10*
X243205000Y-100330000D03*
%TD*%
%TO.C,RIGHT2*%
G36*
G01*
X239560001Y-105190000D02*
X237959999Y-105190000D01*
G75*
G02*
X237710000Y-104940001I0J249999D01*
G01*
X237710000Y-103339999D01*
G75*
G02*
X237959999Y-103090000I249999J0D01*
G01*
X239560001Y-103090000D01*
G75*
G02*
X239810000Y-103339999I0J-249999D01*
G01*
X239810000Y-104940001D01*
G75*
G02*
X239560001Y-105190000I-249999J0D01*
G01*
G37*
%TD*%
%TO.C,TIP1*%
G36*
G01*
X250410000Y-84620001D02*
X250410000Y-83019999D01*
G75*
G02*
X250659999Y-82770000I249999J0D01*
G01*
X252260001Y-82770000D01*
G75*
G02*
X252510000Y-83019999I0J-249999D01*
G01*
X252510000Y-84620001D01*
G75*
G02*
X252260001Y-84870000I-249999J0D01*
G01*
X250659999Y-84870000D01*
G75*
G02*
X250410000Y-84620001I0J249999D01*
G01*
G37*
%TD*%
D11*
%TO.C,R1*%
X242570000Y-83185000D03*
D10*
X247650000Y-83185000D03*
%TD*%
D15*
%TO.C,D3*%
X234950000Y-118110000D03*
D16*
X234950000Y-107950000D03*
%TD*%
%TO.C,DPDT2*%
G36*
G01*
X241520000Y-132880001D02*
X241520000Y-131279999D01*
G75*
G02*
X241769999Y-131030000I249999J0D01*
G01*
X243370001Y-131030000D01*
G75*
G02*
X243620000Y-131279999I0J-249999D01*
G01*
X243620000Y-132880001D01*
G75*
G02*
X243370001Y-133130000I-249999J0D01*
G01*
X241769999Y-133130000D01*
G75*
G02*
X241520000Y-132880001I0J249999D01*
G01*
G37*
%TD*%
D11*
%TO.C,R3*%
X255270000Y-128270000D03*
D10*
X250190000Y-128270000D03*
%TD*%
%TO.C,SLEEVE1*%
G36*
G01*
X235805000Y-85255001D02*
X235805000Y-83654999D01*
G75*
G02*
X236054999Y-83405000I249999J0D01*
G01*
X237655001Y-83405000D01*
G75*
G02*
X237905000Y-83654999I0J-249999D01*
G01*
X237905000Y-85255001D01*
G75*
G02*
X237655001Y-85505000I-249999J0D01*
G01*
X236054999Y-85505000D01*
G75*
G02*
X235805000Y-85255001I0J249999D01*
G01*
G37*
%TD*%
%TO.C,H3D1*%
G36*
G01*
X230090000Y-111925001D02*
X230090000Y-110324999D01*
G75*
G02*
X230339999Y-110075000I249999J0D01*
G01*
X231940001Y-110075000D01*
G75*
G02*
X232190000Y-110324999I0J-249999D01*
G01*
X232190000Y-111925001D01*
G75*
G02*
X231940001Y-112175000I-249999J0D01*
G01*
X230339999Y-112175000D01*
G75*
G02*
X230090000Y-111925001I0J249999D01*
G01*
G37*
%TD*%
%TO.C,H2V1*%
G36*
G01*
X263055001Y-89315000D02*
X261454999Y-89315000D01*
G75*
G02*
X261205000Y-89065001I0J249999D01*
G01*
X261205000Y-87464999D01*
G75*
G02*
X261454999Y-87215000I249999J0D01*
G01*
X263055001Y-87215000D01*
G75*
G02*
X263305000Y-87464999I0J-249999D01*
G01*
X263305000Y-89065001D01*
G75*
G02*
X263055001Y-89315000I-249999J0D01*
G01*
G37*
%TD*%
D11*
%TO.C,R10*%
X266065000Y-114935000D03*
D10*
X260985000Y-114935000D03*
%TD*%
%TO.C,RIGHT-D1*%
G36*
G01*
X242100001Y-93760000D02*
X240499999Y-93760000D01*
G75*
G02*
X240250000Y-93510001I0J249999D01*
G01*
X240250000Y-91909999D01*
G75*
G02*
X240499999Y-91660000I249999J0D01*
G01*
X242100001Y-91660000D01*
G75*
G02*
X242350000Y-91909999I0J-249999D01*
G01*
X242350000Y-93510001D01*
G75*
G02*
X242100001Y-93760000I-249999J0D01*
G01*
G37*
%TD*%
%TO.C,C5*%
X242570000Y-113605000D03*
X242570000Y-111105000D03*
%TD*%
D11*
%TO.C,R4*%
X255270000Y-125095000D03*
D10*
X250190000Y-125095000D03*
%TD*%
D11*
%TO.C,D1*%
X262255000Y-83820000D03*
D14*
X254635000Y-83820000D03*
%TD*%
%TO.C,H2D1*%
G36*
G01*
X230090000Y-108750001D02*
X230090000Y-107149999D01*
G75*
G02*
X230339999Y-106900000I249999J0D01*
G01*
X231940001Y-106900000D01*
G75*
G02*
X232190000Y-107149999I0J-249999D01*
G01*
X232190000Y-108750001D01*
G75*
G02*
X231940001Y-109000000I-249999J0D01*
G01*
X230339999Y-109000000D01*
G75*
G02*
X230090000Y-108750001I0J249999D01*
G01*
G37*
%TD*%
%TO.C,H3V1*%
G36*
G01*
X235419999Y-87215000D02*
X237020001Y-87215000D01*
G75*
G02*
X237270000Y-87464999I0J-249999D01*
G01*
X237270000Y-89065001D01*
G75*
G02*
X237020001Y-89315000I-249999J0D01*
G01*
X235419999Y-89315000D01*
G75*
G02*
X235170000Y-89065001I0J249999D01*
G01*
X235170000Y-87464999D01*
G75*
G02*
X235419999Y-87215000I249999J0D01*
G01*
G37*
%TD*%
D11*
%TO.C,R11*%
X262255000Y-111760000D03*
D10*
X257175000Y-111760000D03*
%TD*%
D11*
%TO.C,U1*%
X254000000Y-107950000D03*
X246380000Y-115570000D03*
X254000000Y-110490000D03*
X246380000Y-113030000D03*
X254000000Y-113030000D03*
X246380000Y-110490000D03*
X254000000Y-115570000D03*
D14*
X246380000Y-107950000D03*
%TD*%
D10*
%TO.C,C10*%
X259000000Y-88900000D03*
X254000000Y-88900000D03*
%TD*%
%TO.C,C3*%
X255130000Y-133350000D03*
X247630000Y-133350000D03*
%TD*%
D11*
%TO.C,R6*%
X230505000Y-104775000D03*
D10*
X235585000Y-104775000D03*
%TD*%
%TO.C,H2T1*%
G36*
G01*
X256125000Y-115735001D02*
X256125000Y-114134999D01*
G75*
G02*
X256374999Y-113885000I249999J0D01*
G01*
X257975001Y-113885000D01*
G75*
G02*
X258225000Y-114134999I0J-249999D01*
G01*
X258225000Y-115735001D01*
G75*
G02*
X257975001Y-115985000I-249999J0D01*
G01*
X256374999Y-115985000D01*
G75*
G02*
X256125000Y-115735001I0J249999D01*
G01*
G37*
%TD*%
D11*
%TO.C,R12*%
X262890000Y-95250000D03*
D10*
X262890000Y-100330000D03*
%TD*%
%TO.C,H1V1*%
G36*
G01*
X263690001Y-93125000D02*
X262089999Y-93125000D01*
G75*
G02*
X261840000Y-92875001I0J249999D01*
G01*
X261840000Y-91274999D01*
G75*
G02*
X262089999Y-91025000I249999J0D01*
G01*
X263690001Y-91025000D01*
G75*
G02*
X263940000Y-91274999I0J-249999D01*
G01*
X263940000Y-92875001D01*
G75*
G02*
X263690001Y-93125000I-249999J0D01*
G01*
G37*
%TD*%
%TO.C,COMMON-D2*%
G36*
G01*
X243620000Y-102704999D02*
X243620000Y-104305001D01*
G75*
G02*
X243370001Y-104555000I-249999J0D01*
G01*
X241769999Y-104555000D01*
G75*
G02*
X241520000Y-104305001I0J249999D01*
G01*
X241520000Y-102704999D01*
G75*
G02*
X241769999Y-102455000I249999J0D01*
G01*
X243370001Y-102455000D01*
G75*
G02*
X243620000Y-102704999I0J-249999D01*
G01*
G37*
%TD*%
D11*
%TO.C,R9*%
X251460000Y-100330000D03*
D10*
X246380000Y-100330000D03*
%TD*%
D11*
%TO.C,R14*%
X246380000Y-97155000D03*
D10*
X251460000Y-97155000D03*
%TD*%
D11*
%TO.C,R17*%
X255270000Y-121920000D03*
D10*
X250190000Y-121920000D03*
%TD*%
%TO.C,C8*%
X260350000Y-117635000D03*
X260350000Y-127635000D03*
%TD*%
D15*
%TO.C,D2*%
X238760000Y-107950000D03*
D16*
X238760000Y-118110000D03*
%TD*%
M02*
