%TF.GenerationSoftware,KiCad,Pcbnew,5.1.9*%
%TF.CreationDate,2021-04-19T23:32:21+02:00*%
%TF.ProjectId,ts908,74733930-382e-46b6-9963-61645f706362,rev?*%
%TF.SameCoordinates,Original*%
%TF.FileFunction,Copper,L1,Top*%
%TF.FilePolarity,Positive*%
%FSLAX46Y46*%
G04 Gerber Fmt 4.6, Leading zero omitted, Abs format (unit mm)*
G04 Created by KiCad (PCBNEW 5.1.9) date 2021-04-19 23:32:21*
%MOMM*%
%LPD*%
G01*
G04 APERTURE LIST*
%TA.AperFunction,ComponentPad*%
%ADD10C,1.600000*%
%TD*%
%TA.AperFunction,ComponentPad*%
%ADD11O,1.600000X1.600000*%
%TD*%
%TA.AperFunction,ComponentPad*%
%ADD12R,1.600000X1.600000*%
%TD*%
%TA.AperFunction,ComponentPad*%
%ADD13R,1.500000X1.050000*%
%TD*%
%TA.AperFunction,ComponentPad*%
%ADD14O,1.500000X1.050000*%
%TD*%
%TA.AperFunction,ComponentPad*%
%ADD15O,2.200000X2.200000*%
%TD*%
%TA.AperFunction,ComponentPad*%
%ADD16R,2.200000X2.200000*%
%TD*%
%TA.AperFunction,Conductor*%
%ADD17C,0.250000*%
%TD*%
%TA.AperFunction,Conductor*%
%ADD18C,0.254000*%
%TD*%
%TA.AperFunction,Conductor*%
%ADD19C,0.100000*%
%TD*%
G04 APERTURE END LIST*
D10*
%TO.P,C8,2*%
%TO.N,Net-(C8-Pad2)*%
X260720000Y-115350000D03*
%TO.P,C8,1*%
%TO.N,Net-(C8-Pad1)*%
X260720000Y-125350000D03*
%TD*%
%TO.P,P1,1*%
%TO.N,Net-(P1-Pad1)*%
%TA.AperFunction,ComponentPad*%
G36*
G01*
X231440000Y-107600001D02*
X231440000Y-105999999D01*
G75*
G02*
X231689999Y-105750000I249999J0D01*
G01*
X233290001Y-105750000D01*
G75*
G02*
X233540000Y-105999999I0J-249999D01*
G01*
X233540000Y-107600001D01*
G75*
G02*
X233290001Y-107850000I-249999J0D01*
G01*
X231689999Y-107850000D01*
G75*
G02*
X231440000Y-107600001I0J249999D01*
G01*
G37*
%TD.AperFunction*%
%TD*%
D11*
%TO.P,U1,8*%
%TO.N,+9V*%
X253960000Y-106670000D03*
%TO.P,U1,4*%
%TO.N,GND*%
X246340000Y-114290000D03*
%TO.P,U1,7*%
%TO.N,Net-(C9-Pad2)*%
X253960000Y-109210000D03*
%TO.P,U1,3*%
%TO.N,Net-(C4-Pad2)*%
X246340000Y-111750000D03*
%TO.P,U1,6*%
%TO.N,Net-(P3-Pad1)*%
X253960000Y-111750000D03*
%TO.P,U1,2*%
%TO.N,Net-(C5-Pad2)*%
X246340000Y-109210000D03*
%TO.P,U1,5*%
%TO.N,Net-(C7-Pad1)*%
X253960000Y-114290000D03*
D12*
%TO.P,U1,1*%
%TO.N,Net-(C5-Pad1)*%
X246340000Y-106670000D03*
%TD*%
D10*
%TO.P,R2,1*%
%TO.N,VCC*%
X251550000Y-85460000D03*
D11*
%TO.P,R2,2*%
%TO.N,GND*%
X246470000Y-85460000D03*
%TD*%
D10*
%TO.P,C6,2*%
%TO.N,Net-(C6-Pad2)*%
X238030000Y-126700000D03*
%TO.P,C6,1*%
%TO.N,Net-(C5-Pad2)*%
X238030000Y-121700000D03*
%TD*%
%TO.P,S3,1*%
%TO.N,Net-(Q2-Pad1)*%
%TA.AperFunction,ComponentPad*%
G36*
G01*
X245299999Y-92810000D02*
X246900001Y-92810000D01*
G75*
G02*
X247150000Y-93059999I0J-249999D01*
G01*
X247150000Y-94660001D01*
G75*
G02*
X246900001Y-94910000I-249999J0D01*
G01*
X245299999Y-94910000D01*
G75*
G02*
X245050000Y-94660001I0J249999D01*
G01*
X245050000Y-93059999D01*
G75*
G02*
X245299999Y-92810000I249999J0D01*
G01*
G37*
%TD.AperFunction*%
%TD*%
D11*
%TO.P,R19,2*%
%TO.N,GND*%
X234080000Y-134190000D03*
D10*
%TO.P,R19,1*%
%TO.N,Net-(R19-Pad1)*%
X239160000Y-134190000D03*
%TD*%
%TO.P,P5,1*%
%TO.N,Net-(C7-Pad1)*%
%TA.AperFunction,ComponentPad*%
G36*
G01*
X242250000Y-107720001D02*
X242250000Y-106119999D01*
G75*
G02*
X242499999Y-105870000I249999J0D01*
G01*
X244100001Y-105870000D01*
G75*
G02*
X244350000Y-106119999I0J-249999D01*
G01*
X244350000Y-107720001D01*
G75*
G02*
X244100001Y-107970000I-249999J0D01*
G01*
X242499999Y-107970000D01*
G75*
G02*
X242250000Y-107720001I0J249999D01*
G01*
G37*
%TD.AperFunction*%
%TD*%
D13*
%TO.P,Q2,1*%
%TO.N,Net-(Q2-Pad1)*%
X250470000Y-94250000D03*
D14*
%TO.P,Q2,3*%
%TO.N,Net-(C10-Pad1)*%
X250470000Y-91710000D03*
%TO.P,Q2,2*%
%TO.N,+9V*%
X250470000Y-92980000D03*
%TD*%
D10*
%TO.P,R13,1*%
%TO.N,Net-(C10-Pad1)*%
X250990000Y-88630000D03*
D11*
%TO.P,R13,2*%
%TO.N,VCC*%
X245910000Y-88630000D03*
%TD*%
%TO.P,R8,2*%
%TO.N,Net-(C7-Pad1)*%
X251460000Y-103505000D03*
D10*
%TO.P,R8,1*%
%TO.N,Net-(C5-Pad1)*%
X246380000Y-103505000D03*
%TD*%
D11*
%TO.P,R5,2*%
%TO.N,VCC*%
X255650000Y-117435000D03*
D10*
%TO.P,R5,1*%
%TO.N,Net-(C4-Pad2)*%
X250570000Y-117435000D03*
%TD*%
%TO.P,C11,2*%
%TO.N,Net-(C11-Pad2)*%
X233180000Y-99160000D03*
D12*
%TO.P,C11,1*%
%TO.N,Net-(C11-Pad1)*%
X235180000Y-99160000D03*
%TD*%
%TO.P,C2,1*%
%TO.N,VCC*%
X236080000Y-93590000D03*
D10*
%TO.P,C2,2*%
%TO.N,GND*%
X234080000Y-93590000D03*
%TD*%
%TO.P,C4,2*%
%TO.N,Net-(C4-Pad2)*%
X246170000Y-117700000D03*
D12*
%TO.P,C4,1*%
%TO.N,Net-(C4-Pad1)*%
X246170000Y-119700000D03*
%TD*%
D10*
%TO.P,C9,2*%
%TO.N,Net-(C9-Pad2)*%
X265290000Y-103750000D03*
D12*
%TO.P,C9,1*%
%TO.N,Net-(C9-Pad1)*%
X263290000Y-103750000D03*
%TD*%
%TO.P,C1,1*%
%TO.N,+9V*%
X243010000Y-88580000D03*
D10*
%TO.P,C1,2*%
%TO.N,GND*%
X241010000Y-88580000D03*
%TD*%
%TO.P,C7,2*%
%TO.N,GND*%
X256540000Y-93120000D03*
%TO.P,C7,1*%
%TO.N,Net-(C7-Pad1)*%
X256540000Y-103120000D03*
%TD*%
%TO.P,S1,1*%
%TO.N,Net-(C3-Pad2)*%
%TA.AperFunction,ComponentPad*%
G36*
G01*
X261100000Y-127329999D02*
X261100000Y-128930001D01*
G75*
G02*
X260850001Y-129180000I-249999J0D01*
G01*
X259249999Y-129180000D01*
G75*
G02*
X259000000Y-128930001I0J249999D01*
G01*
X259000000Y-127329999D01*
G75*
G02*
X259249999Y-127080000I249999J0D01*
G01*
X260850001Y-127080000D01*
G75*
G02*
X261100000Y-127329999I0J-249999D01*
G01*
G37*
%TD.AperFunction*%
%TD*%
D11*
%TO.P,R16,2*%
%TO.N,Net-(R16-Pad2)*%
X239480000Y-97810000D03*
D10*
%TO.P,R16,1*%
%TO.N,Net-(C11-Pad1)*%
X239480000Y-92730000D03*
%TD*%
D11*
%TO.P,R18,2*%
%TO.N,Net-(R18-Pad2)*%
X239600000Y-131040000D03*
D10*
%TO.P,R18,1*%
%TO.N,GND*%
X234520000Y-131040000D03*
%TD*%
D13*
%TO.P,Q1,1*%
%TO.N,Net-(C4-Pad1)*%
X246200000Y-123010000D03*
D14*
%TO.P,Q1,3*%
%TO.N,Net-(Q1-Pad3)*%
X246200000Y-125550000D03*
%TO.P,Q1,2*%
%TO.N,+9V*%
X246200000Y-124280000D03*
%TD*%
%TO.P,P3,1*%
%TO.N,Net-(P3-Pad1)*%
%TA.AperFunction,ComponentPad*%
G36*
G01*
X260560001Y-107160000D02*
X258959999Y-107160000D01*
G75*
G02*
X258710000Y-106910001I0J249999D01*
G01*
X258710000Y-105309999D01*
G75*
G02*
X258959999Y-105060000I249999J0D01*
G01*
X260560001Y-105060000D01*
G75*
G02*
X260810000Y-105309999I0J-249999D01*
G01*
X260810000Y-106910001D01*
G75*
G02*
X260560001Y-107160000I-249999J0D01*
G01*
G37*
%TD.AperFunction*%
%TD*%
%TO.P,S7,1*%
%TO.N,Net-(R19-Pad1)*%
%TA.AperFunction,ComponentPad*%
G36*
G01*
X241620000Y-133925001D02*
X241620000Y-132324999D01*
G75*
G02*
X241869999Y-132075000I249999J0D01*
G01*
X243470001Y-132075000D01*
G75*
G02*
X243720000Y-132324999I0J-249999D01*
G01*
X243720000Y-133925001D01*
G75*
G02*
X243470001Y-134175000I-249999J0D01*
G01*
X241869999Y-134175000D01*
G75*
G02*
X241620000Y-133925001I0J249999D01*
G01*
G37*
%TD.AperFunction*%
%TD*%
D11*
%TO.P,R7,2*%
%TO.N,VCC*%
X242540000Y-121710000D03*
D10*
%TO.P,R7,1*%
%TO.N,Net-(C6-Pad2)*%
X242540000Y-126790000D03*
%TD*%
%TO.P,S4,1*%
%TO.N,Net-(R15-Pad1)*%
%TA.AperFunction,ComponentPad*%
G36*
G01*
X243980000Y-96509999D02*
X243980000Y-98110001D01*
G75*
G02*
X243730001Y-98360000I-249999J0D01*
G01*
X242129999Y-98360000D01*
G75*
G02*
X241880000Y-98110001I0J249999D01*
G01*
X241880000Y-96509999D01*
G75*
G02*
X242129999Y-96260000I249999J0D01*
G01*
X243730001Y-96260000D01*
G75*
G02*
X243980000Y-96509999I0J-249999D01*
G01*
G37*
%TD.AperFunction*%
%TD*%
D11*
%TO.P,R15,2*%
%TO.N,Net-(C11-Pad1)*%
X238160000Y-100490000D03*
D10*
%TO.P,R15,1*%
%TO.N,Net-(R15-Pad1)*%
X243240000Y-100490000D03*
%TD*%
%TO.P,S2,1*%
%TO.N,Net-(C11-Pad2)*%
%TA.AperFunction,ComponentPad*%
G36*
G01*
X240330001Y-104980000D02*
X238729999Y-104980000D01*
G75*
G02*
X238480000Y-104730001I0J249999D01*
G01*
X238480000Y-103129999D01*
G75*
G02*
X238729999Y-102880000I249999J0D01*
G01*
X240330001Y-102880000D01*
G75*
G02*
X240580000Y-103129999I0J-249999D01*
G01*
X240580000Y-104730001D01*
G75*
G02*
X240330001Y-104980000I-249999J0D01*
G01*
G37*
%TD.AperFunction*%
%TD*%
%TO.P,9V1,1*%
%TO.N,+9V*%
%TA.AperFunction,ComponentPad*%
G36*
G01*
X255530001Y-85040000D02*
X253929999Y-85040000D01*
G75*
G02*
X253680000Y-84790001I0J249999D01*
G01*
X253680000Y-83189999D01*
G75*
G02*
X253929999Y-82940000I249999J0D01*
G01*
X255530001Y-82940000D01*
G75*
G02*
X255780000Y-83189999I0J-249999D01*
G01*
X255780000Y-84790001D01*
G75*
G02*
X255530001Y-85040000I-249999J0D01*
G01*
G37*
%TD.AperFunction*%
%TD*%
D11*
%TO.P,R1,2*%
%TO.N,VCC*%
X238720000Y-84280000D03*
D10*
%TO.P,R1,1*%
%TO.N,+9V*%
X243800000Y-84280000D03*
%TD*%
D15*
%TO.P,D3,2*%
%TO.N,Net-(C5-Pad2)*%
X236010000Y-116810000D03*
D16*
%TO.P,D3,1*%
%TO.N,Net-(C5-Pad1)*%
X236010000Y-106650000D03*
%TD*%
%TO.P,S8,1*%
%TO.N,Net-(R18-Pad2)*%
%TA.AperFunction,ComponentPad*%
G36*
G01*
X241620000Y-130750001D02*
X241620000Y-129149999D01*
G75*
G02*
X241869999Y-128900000I249999J0D01*
G01*
X243470001Y-128900000D01*
G75*
G02*
X243720000Y-129149999I0J-249999D01*
G01*
X243720000Y-130750001D01*
G75*
G02*
X243470001Y-131000000I-249999J0D01*
G01*
X241869999Y-131000000D01*
G75*
G02*
X241620000Y-130750001I0J249999D01*
G01*
G37*
%TD.AperFunction*%
%TD*%
D11*
%TO.P,R3,2*%
%TO.N,Net-(C3-Pad1)*%
X255650000Y-126960000D03*
D10*
%TO.P,R3,1*%
%TO.N,Net-(Q1-Pad3)*%
X250570000Y-126960000D03*
%TD*%
%TO.P,GND1,1*%
%TO.N,GND*%
%TA.AperFunction,ComponentPad*%
G36*
G01*
X236860001Y-86370000D02*
X235259999Y-86370000D01*
G75*
G02*
X235010000Y-86120001I0J249999D01*
G01*
X235010000Y-84519999D01*
G75*
G02*
X235259999Y-84270000I249999J0D01*
G01*
X236860001Y-84270000D01*
G75*
G02*
X237110000Y-84519999I0J-249999D01*
G01*
X237110000Y-86120001D01*
G75*
G02*
X236860001Y-86370000I-249999J0D01*
G01*
G37*
%TD.AperFunction*%
%TD*%
%TO.P,P7,1*%
%TO.N,Net-(C10-Pad2)*%
%TA.AperFunction,ComponentPad*%
G36*
G01*
X263340001Y-88720000D02*
X261739999Y-88720000D01*
G75*
G02*
X261490000Y-88470001I0J249999D01*
G01*
X261490000Y-86869999D01*
G75*
G02*
X261739999Y-86620000I249999J0D01*
G01*
X263340001Y-86620000D01*
G75*
G02*
X263590000Y-86869999I0J-249999D01*
G01*
X263590000Y-88470001D01*
G75*
G02*
X263340001Y-88720000I-249999J0D01*
G01*
G37*
%TD.AperFunction*%
%TD*%
D11*
%TO.P,R10,2*%
%TO.N,GND*%
X265840000Y-112680000D03*
D10*
%TO.P,R10,1*%
%TO.N,Net-(C8-Pad2)*%
X260760000Y-112680000D03*
%TD*%
%TO.P,S5,1*%
%TO.N,Net-(R16-Pad2)*%
%TA.AperFunction,ComponentPad*%
G36*
G01*
X243680001Y-94930000D02*
X242079999Y-94930000D01*
G75*
G02*
X241830000Y-94680001I0J249999D01*
G01*
X241830000Y-93079999D01*
G75*
G02*
X242079999Y-92830000I249999J0D01*
G01*
X243680001Y-92830000D01*
G75*
G02*
X243930000Y-93079999I0J-249999D01*
G01*
X243930000Y-94680001D01*
G75*
G02*
X243680001Y-94930000I-249999J0D01*
G01*
G37*
%TD.AperFunction*%
%TD*%
%TO.P,C5,2*%
%TO.N,Net-(C5-Pad2)*%
X243120000Y-113600000D03*
%TO.P,C5,1*%
%TO.N,Net-(C5-Pad1)*%
X243120000Y-111100000D03*
%TD*%
D11*
%TO.P,R4,2*%
%TO.N,VCC*%
X255650000Y-123785000D03*
D10*
%TO.P,R4,1*%
%TO.N,Net-(Q1-Pad3)*%
X250570000Y-123785000D03*
%TD*%
D11*
%TO.P,D1,2*%
%TO.N,GND*%
X265090000Y-84540000D03*
D12*
%TO.P,D1,1*%
%TO.N,+9V*%
X257470000Y-84540000D03*
%TD*%
%TO.P,P2,1*%
%TO.N,Net-(C5-Pad1)*%
%TA.AperFunction,ComponentPad*%
G36*
G01*
X231450000Y-110800001D02*
X231450000Y-109199999D01*
G75*
G02*
X231699999Y-108950000I249999J0D01*
G01*
X233300001Y-108950000D01*
G75*
G02*
X233550000Y-109199999I0J-249999D01*
G01*
X233550000Y-110800001D01*
G75*
G02*
X233300001Y-111050000I-249999J0D01*
G01*
X231699999Y-111050000D01*
G75*
G02*
X231450000Y-110800001I0J249999D01*
G01*
G37*
%TD.AperFunction*%
%TD*%
%TO.P,P8,1*%
%TO.N,VCC*%
%TA.AperFunction,ComponentPad*%
G36*
G01*
X236739999Y-87960000D02*
X238340001Y-87960000D01*
G75*
G02*
X238590000Y-88209999I0J-249999D01*
G01*
X238590000Y-89810001D01*
G75*
G02*
X238340001Y-90060000I-249999J0D01*
G01*
X236739999Y-90060000D01*
G75*
G02*
X236490000Y-89810001I0J249999D01*
G01*
X236490000Y-88209999D01*
G75*
G02*
X236739999Y-87960000I249999J0D01*
G01*
G37*
%TD.AperFunction*%
%TD*%
D11*
%TO.P,R11,2*%
%TO.N,Net-(C9-Pad2)*%
X261690000Y-109510000D03*
D10*
%TO.P,R11,1*%
%TO.N,Net-(P3-Pad1)*%
X256610000Y-109510000D03*
%TD*%
%TO.P,C10,2*%
%TO.N,Net-(C10-Pad2)*%
X259510000Y-88900000D03*
%TO.P,C10,1*%
%TO.N,Net-(C10-Pad1)*%
X254510000Y-88900000D03*
%TD*%
%TO.P,C3,2*%
%TO.N,Net-(C3-Pad2)*%
X255090000Y-132080000D03*
%TO.P,C3,1*%
%TO.N,Net-(C3-Pad1)*%
X247590000Y-132080000D03*
%TD*%
D11*
%TO.P,R6,2*%
%TO.N,Net-(P1-Pad1)*%
X236790000Y-103650000D03*
D10*
%TO.P,R6,1*%
%TO.N,Net-(C5-Pad2)*%
X231710000Y-103650000D03*
%TD*%
%TO.P,P4,1*%
%TO.N,Net-(C8-Pad1)*%
%TA.AperFunction,ComponentPad*%
G36*
G01*
X256300000Y-113450001D02*
X256300000Y-111849999D01*
G75*
G02*
X256549999Y-111600000I249999J0D01*
G01*
X258150001Y-111600000D01*
G75*
G02*
X258400000Y-111849999I0J-249999D01*
G01*
X258400000Y-113450001D01*
G75*
G02*
X258150001Y-113700000I-249999J0D01*
G01*
X256549999Y-113700000D01*
G75*
G02*
X256300000Y-113450001I0J249999D01*
G01*
G37*
%TD.AperFunction*%
%TD*%
D11*
%TO.P,R12,2*%
%TO.N,Net-(P6-Pad1)*%
X262060000Y-94330000D03*
D10*
%TO.P,R12,1*%
%TO.N,Net-(C9-Pad1)*%
X262060000Y-99410000D03*
%TD*%
%TO.P,P6,1*%
%TO.N,Net-(P6-Pad1)*%
%TA.AperFunction,ComponentPad*%
G36*
G01*
X263360001Y-92400000D02*
X261759999Y-92400000D01*
G75*
G02*
X261510000Y-92150001I0J249999D01*
G01*
X261510000Y-90549999D01*
G75*
G02*
X261759999Y-90300000I249999J0D01*
G01*
X263360001Y-90300000D01*
G75*
G02*
X263610000Y-90549999I0J-249999D01*
G01*
X263610000Y-92150001D01*
G75*
G02*
X263360001Y-92400000I-249999J0D01*
G01*
G37*
%TD.AperFunction*%
%TD*%
%TO.P,S6,1*%
%TO.N,Net-(C11-Pad2)*%
%TA.AperFunction,ComponentPad*%
G36*
G01*
X244030000Y-102889999D02*
X244030000Y-104490001D01*
G75*
G02*
X243780001Y-104740000I-249999J0D01*
G01*
X242179999Y-104740000D01*
G75*
G02*
X241930000Y-104490001I0J249999D01*
G01*
X241930000Y-102889999D01*
G75*
G02*
X242179999Y-102640000I249999J0D01*
G01*
X243780001Y-102640000D01*
G75*
G02*
X244030000Y-102889999I0J-249999D01*
G01*
G37*
%TD.AperFunction*%
%TD*%
D11*
%TO.P,R9,2*%
%TO.N,Net-(C7-Pad1)*%
X251460000Y-100330000D03*
D10*
%TO.P,R9,1*%
%TO.N,VCC*%
X246380000Y-100330000D03*
%TD*%
D11*
%TO.P,R14,2*%
%TO.N,GND*%
X245910000Y-97260000D03*
D10*
%TO.P,R14,1*%
%TO.N,Net-(Q2-Pad1)*%
X250990000Y-97260000D03*
%TD*%
D11*
%TO.P,R17,2*%
%TO.N,GND*%
X255650000Y-120610000D03*
D10*
%TO.P,R17,1*%
%TO.N,Net-(C4-Pad1)*%
X250570000Y-120610000D03*
%TD*%
D15*
%TO.P,D2,2*%
%TO.N,Net-(C5-Pad1)*%
X239400000Y-107280000D03*
D16*
%TO.P,D2,1*%
%TO.N,Net-(C5-Pad2)*%
X239400000Y-117440000D03*
%TD*%
D17*
%TO.N,+9V*%
X243010000Y-85070000D02*
X243800000Y-84280000D01*
X243010000Y-88580000D02*
X243010000Y-85070000D01*
X250470000Y-92980000D02*
X249870000Y-92980000D01*
X256920000Y-83990000D02*
X257470000Y-84540000D01*
X254730000Y-83990000D02*
X256920000Y-83990000D01*
X251060002Y-92980000D02*
X250470000Y-92980000D01*
X258130000Y-100049998D02*
X251060002Y-92980000D01*
X246200000Y-124280000D02*
X246990000Y-124280000D01*
X246990000Y-124280000D02*
X249130000Y-122140000D01*
X249130000Y-122140000D02*
X251760000Y-122140000D01*
X251760000Y-122140000D02*
X253210000Y-120690000D01*
X253210000Y-120690000D02*
X253210000Y-117280000D01*
X253210000Y-117280000D02*
X255360000Y-115130000D01*
X255360000Y-115130000D02*
X255360000Y-113590000D01*
X255360000Y-113590000D02*
X254800000Y-113030000D01*
X254800000Y-113030000D02*
X253336410Y-113030000D01*
X253336410Y-113030000D02*
X252360000Y-112053590D01*
X252360000Y-108270000D02*
X253960000Y-106670000D01*
X252360000Y-112053590D02*
X252360000Y-108270000D01*
X244090000Y-83990000D02*
X243800000Y-84280000D01*
X254730000Y-83990000D02*
X244090000Y-83990000D01*
X250470000Y-92980000D02*
X253350000Y-92980000D01*
X257470000Y-88860000D02*
X257470000Y-84540000D01*
X253350000Y-92980000D02*
X257470000Y-88860000D01*
X253960000Y-106670000D02*
X256170000Y-104460000D01*
X256170000Y-104460000D02*
X257130000Y-104460000D01*
X258130000Y-103460000D02*
X258130000Y-103340000D01*
X257130000Y-104460000D02*
X258130000Y-103460000D01*
X258130000Y-103340000D02*
X258130000Y-100049998D01*
%TO.N,VCC*%
X255650000Y-117435000D02*
X257450000Y-119235000D01*
X257450000Y-121985000D02*
X255650000Y-123785000D01*
X257450000Y-119235000D02*
X257450000Y-121985000D01*
X248380000Y-88630000D02*
X251550000Y-85460000D01*
X245910000Y-88630000D02*
X248380000Y-88630000D01*
X246380000Y-100330000D02*
X248040000Y-98670000D01*
X248040000Y-98670000D02*
X248040000Y-96840000D01*
X248040000Y-96840000D02*
X246850000Y-95650000D01*
X246850000Y-95650000D02*
X245060000Y-95650000D01*
X245060000Y-95650000D02*
X244440000Y-95030000D01*
X244440000Y-95030000D02*
X244440000Y-92660000D01*
X239220000Y-90690000D02*
X237540000Y-89010000D01*
X242470000Y-90690000D02*
X239220000Y-90690000D01*
X236080000Y-90470000D02*
X237540000Y-89010000D01*
X236080000Y-93590000D02*
X236080000Y-90470000D01*
X237540000Y-85460000D02*
X238720000Y-84280000D01*
X237540000Y-89010000D02*
X237540000Y-85460000D01*
X243655000Y-90885000D02*
X243655000Y-91875000D01*
X245910000Y-88630000D02*
X243655000Y-90885000D01*
X243655000Y-91875000D02*
X242470000Y-90690000D01*
X244440000Y-92660000D02*
X243655000Y-91875000D01*
X242540000Y-123317095D02*
X244120000Y-124897095D01*
X242540000Y-121710000D02*
X242540000Y-123317095D01*
X244120000Y-124897095D02*
X244120000Y-126180000D01*
X244120000Y-126180000D02*
X247530000Y-129590000D01*
X247530000Y-129590000D02*
X251110000Y-129590000D01*
X251110000Y-129590000D02*
X253240000Y-127460000D01*
X253240000Y-126195000D02*
X255650000Y-123785000D01*
X253240000Y-127460000D02*
X253240000Y-126195000D01*
X242540000Y-121710000D02*
X239670000Y-124580000D01*
X239244998Y-124580000D02*
X229859991Y-115194993D01*
X239670000Y-124580000D02*
X239244998Y-124580000D01*
X229859991Y-97580009D02*
X231220000Y-96220000D01*
X233450000Y-96220000D02*
X236080000Y-93590000D01*
X231220000Y-96220000D02*
X233450000Y-96220000D01*
%TO.N,Net-(C3-Pad1)*%
X250530000Y-132080000D02*
X255650000Y-126960000D01*
X247590000Y-132080000D02*
X250530000Y-132080000D01*
%TO.N,Net-(C3-Pad2)*%
X259040000Y-128130000D02*
X255090000Y-132080000D01*
X260050000Y-128130000D02*
X259040000Y-128130000D01*
%TO.N,Net-(C4-Pad2)*%
X246435000Y-117435000D02*
X246170000Y-117700000D01*
X250570000Y-117435000D02*
X246435000Y-117435000D01*
X250570000Y-115980000D02*
X250570000Y-117435000D01*
X246340000Y-111750000D02*
X250570000Y-115980000D01*
%TO.N,Net-(C4-Pad1)*%
X247080000Y-120610000D02*
X246170000Y-119700000D01*
X250570000Y-120610000D02*
X247080000Y-120610000D01*
X246200000Y-119730000D02*
X246170000Y-119700000D01*
X246200000Y-123010000D02*
X246200000Y-119730000D01*
%TO.N,Net-(C5-Pad1)*%
X246340000Y-103545000D02*
X246380000Y-103505000D01*
X246340000Y-106670000D02*
X246340000Y-103545000D01*
X239400000Y-107380000D02*
X239400000Y-107280000D01*
X243120000Y-111100000D02*
X239400000Y-107380000D01*
X236640000Y-107280000D02*
X236010000Y-106650000D01*
X239400000Y-107280000D02*
X236640000Y-107280000D01*
X235850000Y-106650000D02*
X232500000Y-110000000D01*
X236010000Y-106650000D02*
X235850000Y-106650000D01*
X243120000Y-109890000D02*
X243120000Y-111100000D01*
X246340000Y-106670000D02*
X243120000Y-109890000D01*
%TO.N,Net-(C5-Pad2)*%
X238770000Y-116810000D02*
X239400000Y-117440000D01*
X236010000Y-116810000D02*
X238770000Y-116810000D01*
X239400000Y-120330000D02*
X238030000Y-121700000D01*
X239400000Y-117440000D02*
X239400000Y-120330000D01*
X239400000Y-117320000D02*
X243120000Y-113600000D01*
X239400000Y-117440000D02*
X239400000Y-117320000D01*
X243120000Y-113600000D02*
X244760000Y-111960000D01*
X244760000Y-110790000D02*
X246340000Y-109210000D01*
X244760000Y-111960000D02*
X244760000Y-110790000D01*
X231710000Y-103650000D02*
X230310000Y-105050000D01*
X230310000Y-105050000D02*
X230310000Y-111460000D01*
X235660000Y-116810000D02*
X236010000Y-116810000D01*
X230310000Y-111460000D02*
X235660000Y-116810000D01*
%TO.N,Net-(C6-Pad2)*%
X238120000Y-126790000D02*
X238030000Y-126700000D01*
X242540000Y-126790000D02*
X238120000Y-126790000D01*
%TO.N,Net-(C8-Pad2)*%
X260340000Y-114970000D02*
X260720000Y-115350000D01*
X260720000Y-112720000D02*
X260760000Y-112680000D01*
X260720000Y-115350000D02*
X260720000Y-112720000D01*
%TO.N,Net-(C8-Pad1)*%
X260720000Y-119650000D02*
X260720000Y-125350000D01*
X256950000Y-115880000D02*
X260720000Y-119650000D01*
X256950000Y-113050000D02*
X257350000Y-112650000D01*
X256950000Y-115880000D02*
X256950000Y-113050000D01*
%TO.N,Net-(C9-Pad1)*%
X263290000Y-100640000D02*
X262060000Y-99410000D01*
X263290000Y-103750000D02*
X263290000Y-100640000D01*
%TO.N,Net-(C9-Pad2)*%
X265290000Y-105910000D02*
X261690000Y-109510000D01*
X265290000Y-103750000D02*
X265290000Y-105910000D01*
X261690000Y-109510000D02*
X261690000Y-104980000D01*
X261690000Y-104980000D02*
X261050000Y-104340000D01*
X261050000Y-104340000D02*
X258590000Y-104340000D01*
X258590000Y-104340000D02*
X253960000Y-108970000D01*
X253960000Y-108970000D02*
X253960000Y-109210000D01*
%TO.N,Net-(C10-Pad1)*%
X251260000Y-88900000D02*
X250990000Y-88630000D01*
X254510000Y-88900000D02*
X251260000Y-88900000D01*
X250470000Y-89150000D02*
X250990000Y-88630000D01*
X250470000Y-91710000D02*
X250470000Y-89150000D01*
%TO.N,Net-(C10-Pad2)*%
X260740000Y-87670000D02*
X259510000Y-88900000D01*
X262540000Y-87670000D02*
X260740000Y-87670000D01*
%TO.N,Net-(C11-Pad2)*%
X242740000Y-103930000D02*
X242980000Y-103690000D01*
X239530000Y-103930000D02*
X242740000Y-103930000D01*
X233180000Y-100291370D02*
X234948630Y-102060000D01*
X233180000Y-99160000D02*
X233180000Y-100291370D01*
X237660000Y-102060000D02*
X239530000Y-103930000D01*
X234948630Y-102060000D02*
X237660000Y-102060000D01*
%TO.N,Net-(C11-Pad1)*%
X236830000Y-99160000D02*
X238160000Y-100490000D01*
X235180000Y-99160000D02*
X236830000Y-99160000D01*
X235180000Y-97030000D02*
X239480000Y-92730000D01*
X235180000Y-99160000D02*
X235180000Y-97030000D01*
%TO.N,Net-(Q1-Pad3)*%
X250570000Y-123785000D02*
X250570000Y-126960000D01*
X249160000Y-125550000D02*
X250570000Y-126960000D01*
X246200000Y-125550000D02*
X249160000Y-125550000D01*
%TO.N,Net-(C7-Pad1)*%
X251460000Y-100330000D02*
X251460000Y-103505000D01*
X251845000Y-103120000D02*
X251460000Y-103505000D01*
X256540000Y-103120000D02*
X251845000Y-103120000D01*
X243300000Y-106920000D02*
X243300000Y-106730000D01*
X243300000Y-106730000D02*
X244840000Y-105190000D01*
X244840000Y-105190000D02*
X244840000Y-102590000D01*
X244840000Y-102590000D02*
X245460000Y-101970000D01*
X249925000Y-101970000D02*
X251460000Y-103505000D01*
X245460000Y-101970000D02*
X249925000Y-101970000D01*
X253960000Y-114290000D02*
X252260000Y-114290000D01*
X252260000Y-114290000D02*
X249890000Y-111920000D01*
X249890000Y-105075000D02*
X251460000Y-103505000D01*
X249890000Y-111920000D02*
X249890000Y-105075000D01*
%TO.N,Net-(P1-Pad1)*%
X232508630Y-106800000D02*
X232490000Y-106800000D01*
X235658630Y-103650000D02*
X232508630Y-106800000D01*
X236790000Y-103650000D02*
X235658630Y-103650000D01*
%TO.N,Net-(P3-Pad1)*%
X256200000Y-109510000D02*
X256610000Y-109510000D01*
X253960000Y-111750000D02*
X256200000Y-109510000D01*
X259760000Y-106360000D02*
X256610000Y-109510000D01*
X259760000Y-106110000D02*
X259760000Y-106360000D01*
%TO.N,Net-(P6-Pad1)*%
X262060000Y-91850000D02*
X262560000Y-91350000D01*
X262060000Y-94330000D02*
X262060000Y-91850000D01*
%TO.N,Net-(Q2-Pad1)*%
X250080000Y-93860000D02*
X250470000Y-94250000D01*
X246100000Y-93860000D02*
X250080000Y-93860000D01*
X250470000Y-96740000D02*
X250990000Y-97260000D01*
X250470000Y-94250000D02*
X250470000Y-96740000D01*
%TO.N,Net-(R15-Pad1)*%
X243240000Y-97620000D02*
X242930000Y-97310000D01*
X243240000Y-100490000D02*
X243240000Y-97620000D01*
%TO.N,Net-(R16-Pad2)*%
X242880000Y-94410000D02*
X239480000Y-97810000D01*
X242880000Y-93880000D02*
X242880000Y-94410000D01*
%TO.N,Net-(R18-Pad2)*%
X241580000Y-131040000D02*
X242670000Y-129950000D01*
X239600000Y-131040000D02*
X241580000Y-131040000D01*
%TO.N,Net-(R19-Pad1)*%
X241605000Y-134190000D02*
X242670000Y-133125000D01*
X239160000Y-134190000D02*
X241605000Y-134190000D01*
%TD*%
D18*
%TO.N,VCC*%
X239883022Y-82802501D02*
X239891736Y-83462578D01*
X239783519Y-83316586D01*
X239575131Y-83127615D01*
X239333881Y-82982930D01*
X239069040Y-82888091D01*
X238847000Y-83009376D01*
X238847000Y-84153000D01*
X238867000Y-84153000D01*
X238867000Y-84407000D01*
X238847000Y-84407000D01*
X238847000Y-85550624D01*
X239069040Y-85671909D01*
X239333881Y-85577070D01*
X239575131Y-85432385D01*
X239783519Y-85243414D01*
X239912940Y-85068816D01*
X239922766Y-85813142D01*
X239226849Y-88264318D01*
X239228072Y-87960000D01*
X239215812Y-87835518D01*
X239179502Y-87715820D01*
X239120537Y-87605506D01*
X239041185Y-87508815D01*
X238944494Y-87429463D01*
X238834180Y-87370498D01*
X238714482Y-87334188D01*
X238590000Y-87321928D01*
X237825750Y-87325000D01*
X237667000Y-87483750D01*
X237667000Y-88883000D01*
X237687000Y-88883000D01*
X237687000Y-89137000D01*
X237667000Y-89137000D01*
X237667000Y-90536250D01*
X237825750Y-90695000D01*
X238590000Y-90698072D01*
X238714482Y-90685812D01*
X238834180Y-90649502D01*
X238944494Y-90590537D01*
X239041185Y-90511185D01*
X239120537Y-90414494D01*
X239179502Y-90304180D01*
X239215812Y-90184482D01*
X239228072Y-90060000D01*
X239225000Y-89295750D01*
X239066252Y-89137002D01*
X239103050Y-89137002D01*
X239986153Y-90105567D01*
X240004649Y-90122231D01*
X240026041Y-90134967D01*
X240049507Y-90143285D01*
X240077935Y-90146983D01*
X242481493Y-90186065D01*
X243204355Y-91013552D01*
X243222493Y-91030606D01*
X243243609Y-91043794D01*
X243266893Y-91052609D01*
X243291449Y-91056712D01*
X243316333Y-91055945D01*
X243340590Y-91050339D01*
X243363287Y-91040108D01*
X243383552Y-91025645D01*
X243400606Y-91007507D01*
X243413794Y-90986391D01*
X243422609Y-90963107D01*
X243426712Y-90938551D01*
X243426661Y-90920732D01*
X243400985Y-90569824D01*
X244003159Y-89984979D01*
X244054180Y-89969502D01*
X244164494Y-89910537D01*
X244261185Y-89831185D01*
X244340537Y-89734494D01*
X244399502Y-89624180D01*
X244409883Y-89589959D01*
X244666395Y-89340829D01*
X244678963Y-89367420D01*
X244846481Y-89593414D01*
X245054869Y-89782385D01*
X245296119Y-89927070D01*
X245560960Y-90021909D01*
X245783000Y-89900624D01*
X245783000Y-88757000D01*
X246037000Y-88757000D01*
X246037000Y-89900624D01*
X246259040Y-90021909D01*
X246523881Y-89927070D01*
X246765131Y-89782385D01*
X246973519Y-89593414D01*
X247141037Y-89367420D01*
X247261246Y-89113087D01*
X247301904Y-88979039D01*
X247179915Y-88757000D01*
X246037000Y-88757000D01*
X245783000Y-88757000D01*
X245763000Y-88757000D01*
X245763000Y-88503000D01*
X245783000Y-88503000D01*
X245783000Y-88483000D01*
X246037000Y-88483000D01*
X246037000Y-88503000D01*
X247179915Y-88503000D01*
X247254061Y-88368044D01*
X247271088Y-88377203D01*
X247294893Y-88384494D01*
X247324377Y-88386925D01*
X248194377Y-88356925D01*
X248219054Y-88353632D01*
X248242615Y-88345588D01*
X248264155Y-88333102D01*
X248282624Y-88316890D01*
X250031409Y-86452702D01*
X250736903Y-86452702D01*
X250808486Y-86696671D01*
X251063996Y-86817571D01*
X251338184Y-86886300D01*
X251620512Y-86900217D01*
X251900130Y-86858787D01*
X252166292Y-86763603D01*
X252291514Y-86696671D01*
X252363097Y-86452702D01*
X251550000Y-85639605D01*
X250736903Y-86452702D01*
X250031409Y-86452702D01*
X250252624Y-86216890D01*
X250267795Y-86197150D01*
X250278824Y-86174830D01*
X250284034Y-86157287D01*
X250285683Y-86149792D01*
X250313329Y-86201514D01*
X250557298Y-86273097D01*
X251370395Y-85460000D01*
X251356253Y-85445858D01*
X251535858Y-85266253D01*
X251550000Y-85280395D01*
X251564143Y-85266253D01*
X251743748Y-85445858D01*
X251729605Y-85460000D01*
X252542702Y-86273097D01*
X252678364Y-86233292D01*
X253412261Y-87968343D01*
X253395363Y-87985241D01*
X253291957Y-88140000D01*
X252340267Y-88140000D01*
X252261680Y-87950273D01*
X252104637Y-87715241D01*
X251904759Y-87515363D01*
X251669727Y-87358320D01*
X251408574Y-87250147D01*
X251131335Y-87195000D01*
X250848665Y-87195000D01*
X250571426Y-87250147D01*
X250310273Y-87358320D01*
X250075241Y-87515363D01*
X249875363Y-87715241D01*
X249718320Y-87950273D01*
X249610147Y-88211426D01*
X249555000Y-88488665D01*
X249555000Y-88771335D01*
X249610147Y-89048574D01*
X249710001Y-89289643D01*
X249710000Y-90680654D01*
X249597421Y-90740829D01*
X249486747Y-90831656D01*
X248657509Y-90913616D01*
X248633092Y-90918481D01*
X248610094Y-90928017D01*
X248589398Y-90941855D01*
X248571800Y-90959466D01*
X248553861Y-90988611D01*
X247747813Y-92810280D01*
X247720472Y-92720149D01*
X247638405Y-92566613D01*
X247527962Y-92432038D01*
X247393387Y-92321595D01*
X247239851Y-92239528D01*
X247073255Y-92188992D01*
X246900001Y-92171928D01*
X245299999Y-92171928D01*
X245126745Y-92188992D01*
X244960149Y-92239528D01*
X244806613Y-92321595D01*
X244672038Y-92432038D01*
X244561595Y-92566613D01*
X244484655Y-92710557D01*
X244418405Y-92586613D01*
X244307962Y-92452038D01*
X244173387Y-92341595D01*
X244019851Y-92259528D01*
X243853255Y-92208992D01*
X243680001Y-92191928D01*
X242079999Y-92191928D01*
X241906745Y-92208992D01*
X241740149Y-92259528D01*
X241586613Y-92341595D01*
X241452038Y-92452038D01*
X241341595Y-92586613D01*
X241259528Y-92740149D01*
X241208992Y-92906745D01*
X241191928Y-93079999D01*
X241191928Y-94680001D01*
X241208992Y-94853255D01*
X241244590Y-94970608D01*
X239803887Y-96411312D01*
X239621335Y-96375000D01*
X239338665Y-96375000D01*
X239061426Y-96430147D01*
X238800273Y-96538320D01*
X238565241Y-96695363D01*
X238365363Y-96895241D01*
X238208320Y-97130273D01*
X238100147Y-97391426D01*
X238045000Y-97668665D01*
X238045000Y-97951335D01*
X238100147Y-98228574D01*
X238208320Y-98489727D01*
X238365363Y-98724759D01*
X238565241Y-98924637D01*
X238800273Y-99081680D01*
X239061426Y-99189853D01*
X239338665Y-99245000D01*
X239621335Y-99245000D01*
X239898574Y-99189853D01*
X240159727Y-99081680D01*
X240394759Y-98924637D01*
X240594637Y-98724759D01*
X240751680Y-98489727D01*
X240859853Y-98228574D01*
X240915000Y-97951335D01*
X240915000Y-97668665D01*
X240878688Y-97486113D01*
X241241928Y-97122873D01*
X241241928Y-98110001D01*
X241258992Y-98283255D01*
X241309528Y-98449851D01*
X241391595Y-98603387D01*
X241502038Y-98737962D01*
X241636613Y-98848405D01*
X241790149Y-98930472D01*
X241956745Y-98981008D01*
X242129999Y-98998072D01*
X242480001Y-98998072D01*
X242480000Y-99271956D01*
X242325241Y-99375363D01*
X242125363Y-99575241D01*
X241968320Y-99810273D01*
X241860147Y-100071426D01*
X241805000Y-100348665D01*
X241805000Y-100631335D01*
X241860147Y-100908574D01*
X241968320Y-101169727D01*
X242125363Y-101404759D01*
X242325241Y-101604637D01*
X242560273Y-101761680D01*
X242821426Y-101869853D01*
X243098665Y-101925000D01*
X243381335Y-101925000D01*
X243658574Y-101869853D01*
X243919727Y-101761680D01*
X244154759Y-101604637D01*
X244354637Y-101404759D01*
X244511680Y-101169727D01*
X244619853Y-100908574D01*
X244675000Y-100631335D01*
X244675000Y-100348665D01*
X244619853Y-100071426D01*
X244511680Y-99810273D01*
X244354637Y-99575241D01*
X244154759Y-99375363D01*
X244097791Y-99337298D01*
X245566903Y-99337298D01*
X246380000Y-100150395D01*
X247193097Y-99337298D01*
X247121514Y-99093329D01*
X246866004Y-98972429D01*
X246591816Y-98903700D01*
X246309488Y-98889783D01*
X246029870Y-98931213D01*
X245763708Y-99026397D01*
X245638486Y-99093329D01*
X245566903Y-99337298D01*
X244097791Y-99337298D01*
X244000000Y-99271957D01*
X244000000Y-98951661D01*
X244069851Y-98930472D01*
X244223387Y-98848405D01*
X244357962Y-98737962D01*
X244468405Y-98603387D01*
X244550472Y-98449851D01*
X244601008Y-98283255D01*
X244618072Y-98110001D01*
X244618072Y-97890844D01*
X244638320Y-97939727D01*
X244795363Y-98174759D01*
X244995241Y-98374637D01*
X245230273Y-98531680D01*
X245491426Y-98639853D01*
X245768665Y-98695000D01*
X246051335Y-98695000D01*
X246328574Y-98639853D01*
X246589727Y-98531680D01*
X246824759Y-98374637D01*
X247024637Y-98174759D01*
X247181680Y-97939727D01*
X247289853Y-97678574D01*
X247345000Y-97401335D01*
X247345000Y-97118665D01*
X247289853Y-96841426D01*
X247181680Y-96580273D01*
X247024637Y-96345241D01*
X246824759Y-96145363D01*
X246589727Y-95988320D01*
X246328574Y-95880147D01*
X246051335Y-95825000D01*
X245768665Y-95825000D01*
X245491426Y-95880147D01*
X245230273Y-95988320D01*
X244995241Y-96145363D01*
X244795363Y-96345241D01*
X244638320Y-96580273D01*
X244618072Y-96629156D01*
X244618072Y-96509999D01*
X244601008Y-96336745D01*
X244550472Y-96170149D01*
X244468405Y-96016613D01*
X244357962Y-95882038D01*
X244223387Y-95771595D01*
X244069851Y-95689528D01*
X243903255Y-95638992D01*
X243730001Y-95621928D01*
X242742874Y-95621928D01*
X242796730Y-95568072D01*
X243680001Y-95568072D01*
X243853255Y-95551008D01*
X244019851Y-95500472D01*
X244173387Y-95418405D01*
X244307962Y-95307962D01*
X244418405Y-95173387D01*
X244495345Y-95029443D01*
X244561595Y-95153387D01*
X244672038Y-95287962D01*
X244806613Y-95398405D01*
X244960149Y-95480472D01*
X245126745Y-95531008D01*
X245299999Y-95548072D01*
X246900001Y-95548072D01*
X247073255Y-95531008D01*
X247239851Y-95480472D01*
X247393387Y-95398405D01*
X247527962Y-95287962D01*
X247638405Y-95153387D01*
X247720472Y-94999851D01*
X247761115Y-94865868D01*
X249710000Y-95805621D01*
X249710001Y-96600357D01*
X249610147Y-96841426D01*
X249555000Y-97118665D01*
X249555000Y-97401335D01*
X249610147Y-97678574D01*
X249718320Y-97939727D01*
X249875363Y-98174759D01*
X250075241Y-98374637D01*
X250310273Y-98531680D01*
X250571426Y-98639853D01*
X250848665Y-98695000D01*
X251131335Y-98695000D01*
X251408574Y-98639853D01*
X251669727Y-98531680D01*
X251904759Y-98374637D01*
X251981493Y-98297903D01*
X252638522Y-98847419D01*
X252642567Y-98850663D01*
X254064691Y-99944604D01*
X254943821Y-100871513D01*
X254962339Y-102010378D01*
X254713719Y-102360000D01*
X252329317Y-102360000D01*
X252220000Y-102286957D01*
X252220000Y-101548043D01*
X252374759Y-101444637D01*
X252574637Y-101244759D01*
X252731680Y-101009727D01*
X252839853Y-100748574D01*
X252895000Y-100471335D01*
X252895000Y-100188665D01*
X252839853Y-99911426D01*
X252731680Y-99650273D01*
X252574637Y-99415241D01*
X252374759Y-99215363D01*
X252139727Y-99058320D01*
X251878574Y-98950147D01*
X251601335Y-98895000D01*
X251318665Y-98895000D01*
X251041426Y-98950147D01*
X250780273Y-99058320D01*
X250545241Y-99215363D01*
X250345363Y-99415241D01*
X250188320Y-99650273D01*
X250080147Y-99911426D01*
X250025000Y-100188665D01*
X250025000Y-100471335D01*
X250080147Y-100748574D01*
X250188320Y-101009727D01*
X250345363Y-101244759D01*
X250545241Y-101444637D01*
X250700000Y-101548044D01*
X250700000Y-101670199D01*
X250488804Y-101459003D01*
X250465001Y-101429999D01*
X250349276Y-101335026D01*
X250217247Y-101264454D01*
X250073986Y-101220997D01*
X249962333Y-101210000D01*
X249962322Y-101210000D01*
X249925000Y-101206324D01*
X249887678Y-101210000D01*
X247439607Y-101210000D01*
X247372704Y-101143097D01*
X247616671Y-101071514D01*
X247737571Y-100816004D01*
X247806300Y-100541816D01*
X247820217Y-100259488D01*
X247778787Y-99979870D01*
X247683603Y-99713708D01*
X247616671Y-99588486D01*
X247372702Y-99516903D01*
X246559605Y-100330000D01*
X246573748Y-100344143D01*
X246394143Y-100523748D01*
X246380000Y-100509605D01*
X246365858Y-100523748D01*
X246186253Y-100344143D01*
X246200395Y-100330000D01*
X245387298Y-99516903D01*
X245143329Y-99588486D01*
X245022429Y-99843996D01*
X244953700Y-100118184D01*
X244939783Y-100400512D01*
X244981213Y-100680130D01*
X245076397Y-100946292D01*
X245143329Y-101071514D01*
X245387296Y-101143097D01*
X245308691Y-101221702D01*
X245167753Y-101264454D01*
X245035724Y-101335026D01*
X245035722Y-101335027D01*
X245035723Y-101335027D01*
X244948996Y-101406201D01*
X244948992Y-101406205D01*
X244919999Y-101429999D01*
X244896205Y-101458992D01*
X244328997Y-102026202D01*
X244300000Y-102049999D01*
X244276202Y-102078997D01*
X244276201Y-102078998D01*
X244233930Y-102130505D01*
X244119851Y-102069528D01*
X243953255Y-102018992D01*
X243780001Y-102001928D01*
X242179999Y-102001928D01*
X242006745Y-102018992D01*
X241840149Y-102069528D01*
X241686613Y-102151595D01*
X241552038Y-102262038D01*
X241441595Y-102396613D01*
X241359528Y-102550149D01*
X241308992Y-102716745D01*
X241291928Y-102889999D01*
X241291928Y-103170000D01*
X241218072Y-103170000D01*
X241218072Y-103129999D01*
X241201008Y-102956745D01*
X241150472Y-102790149D01*
X241068405Y-102636613D01*
X240957962Y-102502038D01*
X240823387Y-102391595D01*
X240669851Y-102309528D01*
X240503255Y-102258992D01*
X240330001Y-102241928D01*
X238916729Y-102241928D01*
X238550282Y-101875481D01*
X238578574Y-101869853D01*
X238839727Y-101761680D01*
X239074759Y-101604637D01*
X239274637Y-101404759D01*
X239431680Y-101169727D01*
X239539853Y-100908574D01*
X239595000Y-100631335D01*
X239595000Y-100348665D01*
X239539853Y-100071426D01*
X239431680Y-99810273D01*
X239274637Y-99575241D01*
X239074759Y-99375363D01*
X238839727Y-99218320D01*
X238578574Y-99110147D01*
X238301335Y-99055000D01*
X238018665Y-99055000D01*
X237836114Y-99091312D01*
X237393804Y-98649003D01*
X237370001Y-98619999D01*
X237254276Y-98525026D01*
X237122247Y-98454454D01*
X236978986Y-98410997D01*
X236867333Y-98400000D01*
X236867322Y-98400000D01*
X236830000Y-98396324D01*
X236792678Y-98400000D01*
X236618072Y-98400000D01*
X236618072Y-98360000D01*
X236605812Y-98235518D01*
X236569502Y-98115820D01*
X236510537Y-98005506D01*
X236431185Y-97908815D01*
X236334494Y-97829463D01*
X236224180Y-97770498D01*
X236104482Y-97734188D01*
X235980000Y-97721928D01*
X235940000Y-97721928D01*
X235940000Y-97344801D01*
X239156114Y-94128688D01*
X239338665Y-94165000D01*
X239621335Y-94165000D01*
X239898574Y-94109853D01*
X240159727Y-94001680D01*
X240394759Y-93844637D01*
X240594637Y-93644759D01*
X240751680Y-93409727D01*
X240859853Y-93148574D01*
X240915000Y-92871335D01*
X240915000Y-92588665D01*
X240859853Y-92311426D01*
X240751680Y-92050273D01*
X240594637Y-91815241D01*
X240394759Y-91615363D01*
X240159727Y-91458320D01*
X239898574Y-91350147D01*
X239621335Y-91295000D01*
X239338665Y-91295000D01*
X239061426Y-91350147D01*
X238800273Y-91458320D01*
X238565241Y-91615363D01*
X238365363Y-91815241D01*
X238208320Y-92050273D01*
X238100147Y-92311426D01*
X238045000Y-92588665D01*
X238045000Y-92871335D01*
X238081312Y-93053886D01*
X237387224Y-93747974D01*
X237356250Y-93717000D01*
X236207000Y-93717000D01*
X236207000Y-94866250D01*
X236237974Y-94897224D01*
X234668998Y-96466201D01*
X234640000Y-96489999D01*
X234616202Y-96518997D01*
X234616201Y-96518998D01*
X234545026Y-96605724D01*
X234474454Y-96737754D01*
X234430998Y-96881015D01*
X234416324Y-97030000D01*
X234420001Y-97067332D01*
X234420001Y-97721928D01*
X234380000Y-97721928D01*
X234255518Y-97734188D01*
X234135820Y-97770498D01*
X234025506Y-97829463D01*
X233928815Y-97908815D01*
X233915210Y-97925393D01*
X233859727Y-97888320D01*
X233598574Y-97780147D01*
X233321335Y-97725000D01*
X233038665Y-97725000D01*
X232761426Y-97780147D01*
X232500273Y-97888320D01*
X232265241Y-98045363D01*
X232065363Y-98245241D01*
X231908320Y-98480273D01*
X231800147Y-98741426D01*
X231745000Y-99018665D01*
X231745000Y-99301335D01*
X231800147Y-99578574D01*
X231908320Y-99839727D01*
X232065363Y-100074759D01*
X232265241Y-100274637D01*
X232425203Y-100381520D01*
X232430144Y-100431680D01*
X232430998Y-100440355D01*
X232474454Y-100583616D01*
X232545026Y-100715646D01*
X232605927Y-100789853D01*
X232640000Y-100831371D01*
X232668998Y-100855169D01*
X234384830Y-102571002D01*
X234408629Y-102600001D01*
X234437627Y-102623799D01*
X234524354Y-102694974D01*
X234656383Y-102765546D01*
X234799644Y-102809003D01*
X234948630Y-102823677D01*
X234985963Y-102820000D01*
X235618729Y-102820000D01*
X235568481Y-102895202D01*
X235509644Y-102900997D01*
X235366383Y-102944454D01*
X235234354Y-103015026D01*
X235118629Y-103109999D01*
X235094831Y-103138997D01*
X233121901Y-105111928D01*
X231689999Y-105111928D01*
X231516745Y-105128992D01*
X231350149Y-105179528D01*
X231196613Y-105261595D01*
X231070000Y-105365504D01*
X231070000Y-105364801D01*
X231386114Y-105048688D01*
X231568665Y-105085000D01*
X231851335Y-105085000D01*
X232128574Y-105029853D01*
X232389727Y-104921680D01*
X232624759Y-104764637D01*
X232824637Y-104564759D01*
X232981680Y-104329727D01*
X233089853Y-104068574D01*
X233145000Y-103791335D01*
X233145000Y-103508665D01*
X233089853Y-103231426D01*
X232981680Y-102970273D01*
X232824637Y-102735241D01*
X232624759Y-102535363D01*
X232389727Y-102378320D01*
X232128574Y-102270147D01*
X231851335Y-102215000D01*
X231568665Y-102215000D01*
X231291426Y-102270147D01*
X231030273Y-102378320D01*
X230795241Y-102535363D01*
X230595363Y-102735241D01*
X230438320Y-102970273D01*
X230330147Y-103231426D01*
X230275000Y-103508665D01*
X230275000Y-103791335D01*
X230311312Y-103973886D01*
X229799003Y-104486196D01*
X229769999Y-104509999D01*
X229724883Y-104564974D01*
X229675026Y-104625724D01*
X229607398Y-104752246D01*
X229604454Y-104757754D01*
X229560997Y-104901015D01*
X229550000Y-105012668D01*
X229550000Y-105012678D01*
X229546324Y-105050000D01*
X229550000Y-105087323D01*
X229550001Y-111422668D01*
X229546324Y-111460000D01*
X229550001Y-111497333D01*
X229556702Y-111565363D01*
X229560998Y-111608985D01*
X229604454Y-111752246D01*
X229675026Y-111884276D01*
X229734154Y-111956323D01*
X229770000Y-112000001D01*
X229798998Y-112023799D01*
X234298114Y-116522916D01*
X234275000Y-116639117D01*
X234275000Y-116980883D01*
X234341675Y-117316081D01*
X234472463Y-117631831D01*
X234662337Y-117915998D01*
X234904002Y-118157663D01*
X235188169Y-118347537D01*
X235503919Y-118478325D01*
X235839117Y-118545000D01*
X236180883Y-118545000D01*
X236516081Y-118478325D01*
X236831831Y-118347537D01*
X237115998Y-118157663D01*
X237357663Y-117915998D01*
X237547537Y-117631831D01*
X237573148Y-117570000D01*
X237661928Y-117570000D01*
X237661928Y-118540000D01*
X237674188Y-118664482D01*
X237710498Y-118784180D01*
X237769463Y-118894494D01*
X237848815Y-118991185D01*
X237945506Y-119070537D01*
X238055820Y-119129502D01*
X238175518Y-119165812D01*
X238300000Y-119178072D01*
X238640001Y-119178072D01*
X238640001Y-120015197D01*
X238353886Y-120301312D01*
X238171335Y-120265000D01*
X237888665Y-120265000D01*
X237611426Y-120320147D01*
X237350273Y-120428320D01*
X237115241Y-120585363D01*
X236915363Y-120785241D01*
X236758320Y-121020273D01*
X236650147Y-121281426D01*
X236595000Y-121558665D01*
X236595000Y-121841335D01*
X236650147Y-122118574D01*
X236758320Y-122379727D01*
X236915363Y-122614759D01*
X237115241Y-122814637D01*
X237350273Y-122971680D01*
X237611426Y-123079853D01*
X237888665Y-123135000D01*
X238171335Y-123135000D01*
X238448574Y-123079853D01*
X238709727Y-122971680D01*
X238944759Y-122814637D01*
X239144637Y-122614759D01*
X239301680Y-122379727D01*
X239409853Y-122118574D01*
X239421695Y-122059040D01*
X241148091Y-122059040D01*
X241242930Y-122323881D01*
X241387615Y-122565131D01*
X241576586Y-122773519D01*
X241802580Y-122941037D01*
X242056913Y-123061246D01*
X242190961Y-123101904D01*
X242413000Y-122979915D01*
X242413000Y-121837000D01*
X241269376Y-121837000D01*
X241148091Y-122059040D01*
X239421695Y-122059040D01*
X239465000Y-121841335D01*
X239465000Y-121558665D01*
X239428688Y-121376114D01*
X239443842Y-121360960D01*
X241148091Y-121360960D01*
X241269376Y-121583000D01*
X242413000Y-121583000D01*
X242413000Y-120440085D01*
X242667000Y-120440085D01*
X242667000Y-121583000D01*
X243810624Y-121583000D01*
X243931909Y-121360960D01*
X243837070Y-121096119D01*
X243692385Y-120854869D01*
X243503414Y-120646481D01*
X243277420Y-120478963D01*
X243023087Y-120358754D01*
X242889039Y-120318096D01*
X242667000Y-120440085D01*
X242413000Y-120440085D01*
X242190961Y-120318096D01*
X242056913Y-120358754D01*
X241802580Y-120478963D01*
X241576586Y-120646481D01*
X241387615Y-120854869D01*
X241242930Y-121096119D01*
X241148091Y-121360960D01*
X239443842Y-121360960D01*
X239911003Y-120893799D01*
X239940001Y-120870001D01*
X240034974Y-120754276D01*
X240105546Y-120622247D01*
X240149003Y-120478986D01*
X240160000Y-120367333D01*
X240163677Y-120330000D01*
X240160000Y-120292667D01*
X240160000Y-119178072D01*
X240500000Y-119178072D01*
X240624482Y-119165812D01*
X240744180Y-119129502D01*
X240854494Y-119070537D01*
X240951185Y-118991185D01*
X241030537Y-118894494D01*
X241089502Y-118784180D01*
X241125812Y-118664482D01*
X241138072Y-118540000D01*
X241138072Y-116656730D01*
X242796115Y-114998688D01*
X242978665Y-115035000D01*
X243261335Y-115035000D01*
X243538574Y-114979853D01*
X243799727Y-114871680D01*
X244034759Y-114714637D01*
X244234637Y-114514759D01*
X244391680Y-114279727D01*
X244499853Y-114018574D01*
X244555000Y-113741335D01*
X244555000Y-113458665D01*
X244518688Y-113276114D01*
X245187183Y-112607619D01*
X245225363Y-112664759D01*
X245425241Y-112864637D01*
X245657759Y-113020000D01*
X245425241Y-113175363D01*
X245225363Y-113375241D01*
X245068320Y-113610273D01*
X244960147Y-113871426D01*
X244905000Y-114148665D01*
X244905000Y-114431335D01*
X244960147Y-114708574D01*
X245068320Y-114969727D01*
X245225363Y-115204759D01*
X245425241Y-115404637D01*
X245660273Y-115561680D01*
X245921426Y-115669853D01*
X246198665Y-115725000D01*
X246481335Y-115725000D01*
X246758574Y-115669853D01*
X247019727Y-115561680D01*
X247254759Y-115404637D01*
X247454637Y-115204759D01*
X247611680Y-114969727D01*
X247719853Y-114708574D01*
X247775000Y-114431335D01*
X247775000Y-114259801D01*
X249763335Y-116248137D01*
X249655241Y-116320363D01*
X249455363Y-116520241D01*
X249351957Y-116675000D01*
X247174396Y-116675000D01*
X247084759Y-116585363D01*
X246849727Y-116428320D01*
X246588574Y-116320147D01*
X246311335Y-116265000D01*
X246028665Y-116265000D01*
X245751426Y-116320147D01*
X245490273Y-116428320D01*
X245255241Y-116585363D01*
X245055363Y-116785241D01*
X244898320Y-117020273D01*
X244790147Y-117281426D01*
X244735000Y-117558665D01*
X244735000Y-117841335D01*
X244790147Y-118118574D01*
X244898320Y-118379727D01*
X244935393Y-118435210D01*
X244918815Y-118448815D01*
X244839463Y-118545506D01*
X244780498Y-118655820D01*
X244744188Y-118775518D01*
X244731928Y-118900000D01*
X244731928Y-120500000D01*
X244744188Y-120624482D01*
X244780498Y-120744180D01*
X244839463Y-120854494D01*
X244918815Y-120951185D01*
X245015506Y-121030537D01*
X245125820Y-121089502D01*
X245245518Y-121125812D01*
X245370000Y-121138072D01*
X245440001Y-121138072D01*
X245440001Y-121387980D01*
X244206016Y-121625285D01*
X244182147Y-121632361D01*
X244160116Y-121643957D01*
X244140771Y-121659628D01*
X244127137Y-121675513D01*
X243896436Y-121994099D01*
X243810624Y-121837000D01*
X242667000Y-121837000D01*
X242667000Y-122979915D01*
X242889039Y-123101904D01*
X243023087Y-123061246D01*
X243176017Y-122988965D01*
X243077137Y-123125513D01*
X243064582Y-123147012D01*
X243056462Y-123170547D01*
X243053090Y-123195214D01*
X243054595Y-123220065D01*
X243060919Y-123244145D01*
X243071819Y-123266528D01*
X243093002Y-123292522D01*
X244389731Y-124511835D01*
X244303219Y-125982542D01*
X244304200Y-126007419D01*
X244310016Y-126031627D01*
X244320442Y-126054235D01*
X244340625Y-126080228D01*
X247510625Y-129220228D01*
X247529945Y-129235931D01*
X247551958Y-129247562D01*
X247575816Y-129254676D01*
X247602710Y-129256971D01*
X250882710Y-129186971D01*
X250907429Y-129184003D01*
X250931093Y-129176269D01*
X250952794Y-129164067D01*
X250966994Y-129152526D01*
X252806994Y-127422526D01*
X252823374Y-127403776D01*
X252835780Y-127382191D01*
X252843738Y-127358601D01*
X252846940Y-127333911D01*
X252846428Y-127317959D01*
X252693282Y-125709924D01*
X254393375Y-124468283D01*
X254418963Y-124522420D01*
X254586481Y-124748414D01*
X254794869Y-124937385D01*
X255036119Y-125082070D01*
X255300960Y-125176909D01*
X255523000Y-125055624D01*
X255523000Y-123912000D01*
X255777000Y-123912000D01*
X255777000Y-125055624D01*
X255999040Y-125176909D01*
X256263881Y-125082070D01*
X256505131Y-124937385D01*
X256713519Y-124748414D01*
X256881037Y-124522420D01*
X257001246Y-124268087D01*
X257041904Y-124134039D01*
X256919915Y-123912000D01*
X255777000Y-123912000D01*
X255523000Y-123912000D01*
X255503000Y-123912000D01*
X255503000Y-123658000D01*
X255523000Y-123658000D01*
X255523000Y-123638000D01*
X255777000Y-123638000D01*
X255777000Y-123658000D01*
X256919915Y-123658000D01*
X257041904Y-123435961D01*
X257001246Y-123301913D01*
X256881037Y-123047580D01*
X256713519Y-122821586D01*
X256505131Y-122632615D01*
X256263881Y-122487930D01*
X256242126Y-122480140D01*
X256358074Y-122453858D01*
X256381699Y-122446001D01*
X256403336Y-122433686D01*
X256422155Y-122417387D01*
X256437433Y-122397729D01*
X256443753Y-122386473D01*
X257143753Y-120976473D01*
X257152585Y-120953196D01*
X257156706Y-120928643D01*
X257154401Y-120894438D01*
X257085000Y-120556686D01*
X257085000Y-120468665D01*
X257029853Y-120191426D01*
X256990350Y-120096058D01*
X256854401Y-119434438D01*
X256847024Y-119410660D01*
X256835149Y-119388778D01*
X256819234Y-119369633D01*
X256803720Y-119356587D01*
X256040083Y-118812212D01*
X256263881Y-118732070D01*
X256505131Y-118587385D01*
X256713519Y-118398414D01*
X256881037Y-118172420D01*
X257001246Y-117918087D01*
X257041904Y-117784039D01*
X256919915Y-117562000D01*
X255777000Y-117562000D01*
X255777000Y-117582000D01*
X255523000Y-117582000D01*
X255523000Y-117562000D01*
X255503000Y-117562000D01*
X255503000Y-117308000D01*
X255523000Y-117308000D01*
X255523000Y-117288000D01*
X255777000Y-117288000D01*
X255777000Y-117308000D01*
X256919915Y-117308000D01*
X257041904Y-117085961D01*
X257024814Y-117029615D01*
X259960000Y-119964802D01*
X259960001Y-124131956D01*
X259805241Y-124235363D01*
X259605363Y-124435241D01*
X259448320Y-124670273D01*
X259340147Y-124931426D01*
X259285000Y-125208665D01*
X259285000Y-125491335D01*
X259340147Y-125768574D01*
X259448320Y-126029727D01*
X259605363Y-126264759D01*
X259782532Y-126441928D01*
X259249999Y-126441928D01*
X259076745Y-126458992D01*
X258910149Y-126509528D01*
X258756613Y-126591595D01*
X258622038Y-126702038D01*
X258511595Y-126836613D01*
X258429528Y-126990149D01*
X258378992Y-127156745D01*
X258361928Y-127329999D01*
X258361928Y-127733270D01*
X255413887Y-130681312D01*
X255231335Y-130645000D01*
X254948665Y-130645000D01*
X254671426Y-130700147D01*
X254410273Y-130808320D01*
X254175241Y-130965363D01*
X253975363Y-131165241D01*
X253818320Y-131400273D01*
X253710147Y-131661426D01*
X253655000Y-131938665D01*
X253655000Y-132221335D01*
X253710147Y-132498574D01*
X253818320Y-132759727D01*
X253975363Y-132994759D01*
X254175241Y-133194637D01*
X254410273Y-133351680D01*
X254671426Y-133459853D01*
X254948665Y-133515000D01*
X255231335Y-133515000D01*
X255508574Y-133459853D01*
X255769727Y-133351680D01*
X256004759Y-133194637D01*
X256204637Y-132994759D01*
X256361680Y-132759727D01*
X256469853Y-132498574D01*
X256525000Y-132221335D01*
X256525000Y-131938665D01*
X256488688Y-131756113D01*
X258657630Y-129587172D01*
X258756613Y-129668405D01*
X258910149Y-129750472D01*
X259076745Y-129801008D01*
X259249999Y-129818072D01*
X260850001Y-129818072D01*
X261023255Y-129801008D01*
X261189851Y-129750472D01*
X261343387Y-129668405D01*
X261477962Y-129557962D01*
X261588405Y-129423387D01*
X261670472Y-129269851D01*
X261721008Y-129103255D01*
X261738072Y-128930001D01*
X261738072Y-127329999D01*
X261721008Y-127156745D01*
X261670472Y-126990149D01*
X261588405Y-126836613D01*
X261477962Y-126702038D01*
X261386647Y-126627098D01*
X261399727Y-126621680D01*
X261634759Y-126464637D01*
X261834637Y-126264759D01*
X261991680Y-126029727D01*
X262099853Y-125768574D01*
X262155000Y-125491335D01*
X262155000Y-125208665D01*
X262099853Y-124931426D01*
X261991680Y-124670273D01*
X261834637Y-124435241D01*
X261634759Y-124235363D01*
X261480000Y-124131957D01*
X261480000Y-119687322D01*
X261483676Y-119649999D01*
X261480000Y-119612676D01*
X261480000Y-119612667D01*
X261469003Y-119501014D01*
X261425546Y-119357753D01*
X261381700Y-119275724D01*
X261354974Y-119225723D01*
X261283799Y-119138997D01*
X261260001Y-119109999D01*
X261231004Y-119086202D01*
X260500416Y-118355614D01*
X267020001Y-121240139D01*
X267020001Y-127566618D01*
X258776724Y-135809896D01*
X233208743Y-135800092D01*
X231103353Y-134048665D01*
X232645000Y-134048665D01*
X232645000Y-134331335D01*
X232700147Y-134608574D01*
X232808320Y-134869727D01*
X232965363Y-135104759D01*
X233165241Y-135304637D01*
X233400273Y-135461680D01*
X233661426Y-135569853D01*
X233938665Y-135625000D01*
X234221335Y-135625000D01*
X234498574Y-135569853D01*
X234759727Y-135461680D01*
X234994759Y-135304637D01*
X235194637Y-135104759D01*
X235351680Y-134869727D01*
X235459853Y-134608574D01*
X235515000Y-134331335D01*
X235515000Y-134048665D01*
X237725000Y-134048665D01*
X237725000Y-134331335D01*
X237780147Y-134608574D01*
X237888320Y-134869727D01*
X238045363Y-135104759D01*
X238245241Y-135304637D01*
X238480273Y-135461680D01*
X238741426Y-135569853D01*
X239018665Y-135625000D01*
X239301335Y-135625000D01*
X239578574Y-135569853D01*
X239839727Y-135461680D01*
X240074759Y-135304637D01*
X240274637Y-135104759D01*
X240378043Y-134950000D01*
X241567678Y-134950000D01*
X241605000Y-134953676D01*
X241642322Y-134950000D01*
X241642333Y-134950000D01*
X241753986Y-134939003D01*
X241897247Y-134895546D01*
X242029276Y-134824974D01*
X242043779Y-134813072D01*
X243470001Y-134813072D01*
X243643255Y-134796008D01*
X243809851Y-134745472D01*
X243963387Y-134663405D01*
X244097962Y-134552962D01*
X244208405Y-134418387D01*
X244290472Y-134264851D01*
X244341008Y-134098255D01*
X244358072Y-133925001D01*
X244358072Y-132324999D01*
X244341008Y-132151745D01*
X244290472Y-131985149D01*
X244265626Y-131938665D01*
X246155000Y-131938665D01*
X246155000Y-132221335D01*
X246210147Y-132498574D01*
X246318320Y-132759727D01*
X246475363Y-132994759D01*
X246675241Y-133194637D01*
X246910273Y-133351680D01*
X247171426Y-133459853D01*
X247448665Y-133515000D01*
X247731335Y-133515000D01*
X248008574Y-133459853D01*
X248269727Y-133351680D01*
X248504759Y-133194637D01*
X248704637Y-132994759D01*
X248808043Y-132840000D01*
X250492678Y-132840000D01*
X250530000Y-132843676D01*
X250567322Y-132840000D01*
X250567333Y-132840000D01*
X250678986Y-132829003D01*
X250822247Y-132785546D01*
X250954276Y-132714974D01*
X251070001Y-132620001D01*
X251093804Y-132590997D01*
X255326115Y-128358688D01*
X255508665Y-128395000D01*
X255791335Y-128395000D01*
X256068574Y-128339853D01*
X256329727Y-128231680D01*
X256564759Y-128074637D01*
X256764637Y-127874759D01*
X256921680Y-127639727D01*
X257029853Y-127378574D01*
X257085000Y-127101335D01*
X257085000Y-126818665D01*
X257029853Y-126541426D01*
X256921680Y-126280273D01*
X256764637Y-126045241D01*
X256564759Y-125845363D01*
X256329727Y-125688320D01*
X256068574Y-125580147D01*
X255791335Y-125525000D01*
X255508665Y-125525000D01*
X255231426Y-125580147D01*
X254970273Y-125688320D01*
X254735241Y-125845363D01*
X254535363Y-126045241D01*
X254378320Y-126280273D01*
X254270147Y-126541426D01*
X254215000Y-126818665D01*
X254215000Y-127101335D01*
X254251312Y-127283885D01*
X250215199Y-131320000D01*
X248808043Y-131320000D01*
X248704637Y-131165241D01*
X248504759Y-130965363D01*
X248269727Y-130808320D01*
X248008574Y-130700147D01*
X247731335Y-130645000D01*
X247448665Y-130645000D01*
X247171426Y-130700147D01*
X246910273Y-130808320D01*
X246675241Y-130965363D01*
X246475363Y-131165241D01*
X246318320Y-131400273D01*
X246210147Y-131661426D01*
X246155000Y-131938665D01*
X244265626Y-131938665D01*
X244208405Y-131831613D01*
X244097962Y-131697038D01*
X243963387Y-131586595D01*
X243871537Y-131537500D01*
X243963387Y-131488405D01*
X244097962Y-131377962D01*
X244208405Y-131243387D01*
X244290472Y-131089851D01*
X244341008Y-130923255D01*
X244358072Y-130750001D01*
X244358072Y-129149999D01*
X244341008Y-128976745D01*
X244290472Y-128810149D01*
X244208405Y-128656613D01*
X244097962Y-128522038D01*
X243963387Y-128411595D01*
X243809851Y-128329528D01*
X243643255Y-128278992D01*
X243470001Y-128261928D01*
X241869999Y-128261928D01*
X241696745Y-128278992D01*
X241530149Y-128329528D01*
X241376613Y-128411595D01*
X241242038Y-128522038D01*
X241131595Y-128656613D01*
X241049528Y-128810149D01*
X240998992Y-128976745D01*
X240981928Y-129149999D01*
X240981928Y-130280000D01*
X240818043Y-130280000D01*
X240714637Y-130125241D01*
X240514759Y-129925363D01*
X240279727Y-129768320D01*
X240018574Y-129660147D01*
X239741335Y-129605000D01*
X239458665Y-129605000D01*
X239181426Y-129660147D01*
X238920273Y-129768320D01*
X238685241Y-129925363D01*
X238485363Y-130125241D01*
X238328320Y-130360273D01*
X238220147Y-130621426D01*
X238165000Y-130898665D01*
X238165000Y-131181335D01*
X238220147Y-131458574D01*
X238328320Y-131719727D01*
X238485363Y-131954759D01*
X238685241Y-132154637D01*
X238920273Y-132311680D01*
X239181426Y-132419853D01*
X239458665Y-132475000D01*
X239741335Y-132475000D01*
X240018574Y-132419853D01*
X240279727Y-132311680D01*
X240514759Y-132154637D01*
X240714637Y-131954759D01*
X240818043Y-131800000D01*
X241157539Y-131800000D01*
X241131595Y-131831613D01*
X241049528Y-131985149D01*
X240998992Y-132151745D01*
X240981928Y-132324999D01*
X240981928Y-133430000D01*
X240378043Y-133430000D01*
X240274637Y-133275241D01*
X240074759Y-133075363D01*
X239839727Y-132918320D01*
X239578574Y-132810147D01*
X239301335Y-132755000D01*
X239018665Y-132755000D01*
X238741426Y-132810147D01*
X238480273Y-132918320D01*
X238245241Y-133075363D01*
X238045363Y-133275241D01*
X237888320Y-133510273D01*
X237780147Y-133771426D01*
X237725000Y-134048665D01*
X235515000Y-134048665D01*
X235459853Y-133771426D01*
X235351680Y-133510273D01*
X235194637Y-133275241D01*
X234994759Y-133075363D01*
X234759727Y-132918320D01*
X234498574Y-132810147D01*
X234221335Y-132755000D01*
X233938665Y-132755000D01*
X233661426Y-132810147D01*
X233400273Y-132918320D01*
X233165241Y-133075363D01*
X232965363Y-133275241D01*
X232808320Y-133510273D01*
X232700147Y-133771426D01*
X232645000Y-134048665D01*
X231103353Y-134048665D01*
X229050000Y-132340528D01*
X229050000Y-130898665D01*
X233085000Y-130898665D01*
X233085000Y-131181335D01*
X233140147Y-131458574D01*
X233248320Y-131719727D01*
X233405363Y-131954759D01*
X233605241Y-132154637D01*
X233840273Y-132311680D01*
X234101426Y-132419853D01*
X234378665Y-132475000D01*
X234661335Y-132475000D01*
X234938574Y-132419853D01*
X235199727Y-132311680D01*
X235434759Y-132154637D01*
X235634637Y-131954759D01*
X235791680Y-131719727D01*
X235899853Y-131458574D01*
X235955000Y-131181335D01*
X235955000Y-130898665D01*
X235899853Y-130621426D01*
X235791680Y-130360273D01*
X235634637Y-130125241D01*
X235434759Y-129925363D01*
X235199727Y-129768320D01*
X234938574Y-129660147D01*
X234661335Y-129605000D01*
X234378665Y-129605000D01*
X234101426Y-129660147D01*
X233840273Y-129768320D01*
X233605241Y-129925363D01*
X233405363Y-130125241D01*
X233248320Y-130360273D01*
X233140147Y-130621426D01*
X233085000Y-130898665D01*
X229050000Y-130898665D01*
X229050000Y-126558665D01*
X236595000Y-126558665D01*
X236595000Y-126841335D01*
X236650147Y-127118574D01*
X236758320Y-127379727D01*
X236915363Y-127614759D01*
X237115241Y-127814637D01*
X237350273Y-127971680D01*
X237611426Y-128079853D01*
X237888665Y-128135000D01*
X238171335Y-128135000D01*
X238448574Y-128079853D01*
X238709727Y-127971680D01*
X238944759Y-127814637D01*
X239144637Y-127614759D01*
X239187907Y-127550000D01*
X241321957Y-127550000D01*
X241425363Y-127704759D01*
X241625241Y-127904637D01*
X241860273Y-128061680D01*
X242121426Y-128169853D01*
X242398665Y-128225000D01*
X242681335Y-128225000D01*
X242958574Y-128169853D01*
X243219727Y-128061680D01*
X243454759Y-127904637D01*
X243654637Y-127704759D01*
X243811680Y-127469727D01*
X243919853Y-127208574D01*
X243975000Y-126931335D01*
X243975000Y-126648665D01*
X243919853Y-126371426D01*
X243811680Y-126110273D01*
X243654637Y-125875241D01*
X243454759Y-125675363D01*
X243219727Y-125518320D01*
X242958574Y-125410147D01*
X242681335Y-125355000D01*
X242398665Y-125355000D01*
X242121426Y-125410147D01*
X241860273Y-125518320D01*
X241625241Y-125675363D01*
X241425363Y-125875241D01*
X241321957Y-126030000D01*
X239305709Y-126030000D01*
X239301680Y-126020273D01*
X239144637Y-125785241D01*
X238944759Y-125585363D01*
X238709727Y-125428320D01*
X238448574Y-125320147D01*
X238171335Y-125265000D01*
X237888665Y-125265000D01*
X237611426Y-125320147D01*
X237350273Y-125428320D01*
X237115241Y-125585363D01*
X236915363Y-125785241D01*
X236758320Y-126020273D01*
X236650147Y-126281426D01*
X236595000Y-126558665D01*
X229050000Y-126558665D01*
X229050000Y-93448665D01*
X232645000Y-93448665D01*
X232645000Y-93731335D01*
X232700147Y-94008574D01*
X232808320Y-94269727D01*
X232965363Y-94504759D01*
X233165241Y-94704637D01*
X233400273Y-94861680D01*
X233661426Y-94969853D01*
X233938665Y-95025000D01*
X234221335Y-95025000D01*
X234498574Y-94969853D01*
X234759727Y-94861680D01*
X234815210Y-94824607D01*
X234828815Y-94841185D01*
X234925506Y-94920537D01*
X235035820Y-94979502D01*
X235155518Y-95015812D01*
X235280000Y-95028072D01*
X235794250Y-95025000D01*
X235953000Y-94866250D01*
X235953000Y-93717000D01*
X235933000Y-93717000D01*
X235933000Y-93463000D01*
X235953000Y-93463000D01*
X235953000Y-92313750D01*
X236207000Y-92313750D01*
X236207000Y-93463000D01*
X237356250Y-93463000D01*
X237515000Y-93304250D01*
X237518072Y-92790000D01*
X237505812Y-92665518D01*
X237469502Y-92545820D01*
X237410537Y-92435506D01*
X237331185Y-92338815D01*
X237234494Y-92259463D01*
X237124180Y-92200498D01*
X237004482Y-92164188D01*
X236880000Y-92151928D01*
X236365750Y-92155000D01*
X236207000Y-92313750D01*
X235953000Y-92313750D01*
X235794250Y-92155000D01*
X235280000Y-92151928D01*
X235155518Y-92164188D01*
X235035820Y-92200498D01*
X234925506Y-92259463D01*
X234828815Y-92338815D01*
X234815210Y-92355393D01*
X234759727Y-92318320D01*
X234498574Y-92210147D01*
X234221335Y-92155000D01*
X233938665Y-92155000D01*
X233661426Y-92210147D01*
X233400273Y-92318320D01*
X233165241Y-92475363D01*
X232965363Y-92675241D01*
X232808320Y-92910273D01*
X232700147Y-93171426D01*
X232645000Y-93448665D01*
X229050000Y-93448665D01*
X229050000Y-90060000D01*
X235851928Y-90060000D01*
X235864188Y-90184482D01*
X235900498Y-90304180D01*
X235959463Y-90414494D01*
X236038815Y-90511185D01*
X236135506Y-90590537D01*
X236245820Y-90649502D01*
X236365518Y-90685812D01*
X236490000Y-90698072D01*
X237254250Y-90695000D01*
X237413000Y-90536250D01*
X237413000Y-89137000D01*
X236013750Y-89137000D01*
X235855000Y-89295750D01*
X235851928Y-90060000D01*
X229050000Y-90060000D01*
X229050000Y-87960000D01*
X235851928Y-87960000D01*
X235855000Y-88724250D01*
X236013750Y-88883000D01*
X237413000Y-88883000D01*
X237413000Y-87483750D01*
X237254250Y-87325000D01*
X236490000Y-87321928D01*
X236365518Y-87334188D01*
X236245820Y-87370498D01*
X236135506Y-87429463D01*
X236038815Y-87508815D01*
X235959463Y-87605506D01*
X235900498Y-87715820D01*
X235864188Y-87835518D01*
X235851928Y-87960000D01*
X229050000Y-87960000D01*
X229050000Y-87909965D01*
X232741174Y-84519999D01*
X234371928Y-84519999D01*
X234371928Y-86120001D01*
X234388992Y-86293255D01*
X234439528Y-86459851D01*
X234521595Y-86613387D01*
X234632038Y-86747962D01*
X234766613Y-86858405D01*
X234920149Y-86940472D01*
X235086745Y-86991008D01*
X235259999Y-87008072D01*
X236860001Y-87008072D01*
X237033255Y-86991008D01*
X237199851Y-86940472D01*
X237353387Y-86858405D01*
X237487962Y-86747962D01*
X237598405Y-86613387D01*
X237680472Y-86459851D01*
X237731008Y-86293255D01*
X237748072Y-86120001D01*
X237748072Y-85326471D01*
X237864869Y-85432385D01*
X238106119Y-85577070D01*
X238370960Y-85671909D01*
X238593000Y-85550624D01*
X238593000Y-84407000D01*
X238573000Y-84407000D01*
X238573000Y-84153000D01*
X238593000Y-84153000D01*
X238593000Y-83009376D01*
X238370960Y-82888091D01*
X238106119Y-82982930D01*
X237864869Y-83127615D01*
X237656481Y-83316586D01*
X237488963Y-83542580D01*
X237369676Y-83794963D01*
X237353387Y-83781595D01*
X237199851Y-83699528D01*
X237033255Y-83648992D01*
X236860001Y-83631928D01*
X235259999Y-83631928D01*
X235086745Y-83648992D01*
X234920149Y-83699528D01*
X234766613Y-83781595D01*
X234632038Y-83892038D01*
X234521595Y-84026613D01*
X234439528Y-84180149D01*
X234388992Y-84346745D01*
X234371928Y-84519999D01*
X232741174Y-84519999D01*
X235387086Y-82090000D01*
X239863937Y-82090000D01*
X239883022Y-82802501D01*
%TA.AperFunction,Conductor*%
D19*
G36*
X239883022Y-82802501D02*
G01*
X239891736Y-83462578D01*
X239783519Y-83316586D01*
X239575131Y-83127615D01*
X239333881Y-82982930D01*
X239069040Y-82888091D01*
X238847000Y-83009376D01*
X238847000Y-84153000D01*
X238867000Y-84153000D01*
X238867000Y-84407000D01*
X238847000Y-84407000D01*
X238847000Y-85550624D01*
X239069040Y-85671909D01*
X239333881Y-85577070D01*
X239575131Y-85432385D01*
X239783519Y-85243414D01*
X239912940Y-85068816D01*
X239922766Y-85813142D01*
X239226849Y-88264318D01*
X239228072Y-87960000D01*
X239215812Y-87835518D01*
X239179502Y-87715820D01*
X239120537Y-87605506D01*
X239041185Y-87508815D01*
X238944494Y-87429463D01*
X238834180Y-87370498D01*
X238714482Y-87334188D01*
X238590000Y-87321928D01*
X237825750Y-87325000D01*
X237667000Y-87483750D01*
X237667000Y-88883000D01*
X237687000Y-88883000D01*
X237687000Y-89137000D01*
X237667000Y-89137000D01*
X237667000Y-90536250D01*
X237825750Y-90695000D01*
X238590000Y-90698072D01*
X238714482Y-90685812D01*
X238834180Y-90649502D01*
X238944494Y-90590537D01*
X239041185Y-90511185D01*
X239120537Y-90414494D01*
X239179502Y-90304180D01*
X239215812Y-90184482D01*
X239228072Y-90060000D01*
X239225000Y-89295750D01*
X239066252Y-89137002D01*
X239103050Y-89137002D01*
X239986153Y-90105567D01*
X240004649Y-90122231D01*
X240026041Y-90134967D01*
X240049507Y-90143285D01*
X240077935Y-90146983D01*
X242481493Y-90186065D01*
X243204355Y-91013552D01*
X243222493Y-91030606D01*
X243243609Y-91043794D01*
X243266893Y-91052609D01*
X243291449Y-91056712D01*
X243316333Y-91055945D01*
X243340590Y-91050339D01*
X243363287Y-91040108D01*
X243383552Y-91025645D01*
X243400606Y-91007507D01*
X243413794Y-90986391D01*
X243422609Y-90963107D01*
X243426712Y-90938551D01*
X243426661Y-90920732D01*
X243400985Y-90569824D01*
X244003159Y-89984979D01*
X244054180Y-89969502D01*
X244164494Y-89910537D01*
X244261185Y-89831185D01*
X244340537Y-89734494D01*
X244399502Y-89624180D01*
X244409883Y-89589959D01*
X244666395Y-89340829D01*
X244678963Y-89367420D01*
X244846481Y-89593414D01*
X245054869Y-89782385D01*
X245296119Y-89927070D01*
X245560960Y-90021909D01*
X245783000Y-89900624D01*
X245783000Y-88757000D01*
X246037000Y-88757000D01*
X246037000Y-89900624D01*
X246259040Y-90021909D01*
X246523881Y-89927070D01*
X246765131Y-89782385D01*
X246973519Y-89593414D01*
X247141037Y-89367420D01*
X247261246Y-89113087D01*
X247301904Y-88979039D01*
X247179915Y-88757000D01*
X246037000Y-88757000D01*
X245783000Y-88757000D01*
X245763000Y-88757000D01*
X245763000Y-88503000D01*
X245783000Y-88503000D01*
X245783000Y-88483000D01*
X246037000Y-88483000D01*
X246037000Y-88503000D01*
X247179915Y-88503000D01*
X247254061Y-88368044D01*
X247271088Y-88377203D01*
X247294893Y-88384494D01*
X247324377Y-88386925D01*
X248194377Y-88356925D01*
X248219054Y-88353632D01*
X248242615Y-88345588D01*
X248264155Y-88333102D01*
X248282624Y-88316890D01*
X250031409Y-86452702D01*
X250736903Y-86452702D01*
X250808486Y-86696671D01*
X251063996Y-86817571D01*
X251338184Y-86886300D01*
X251620512Y-86900217D01*
X251900130Y-86858787D01*
X252166292Y-86763603D01*
X252291514Y-86696671D01*
X252363097Y-86452702D01*
X251550000Y-85639605D01*
X250736903Y-86452702D01*
X250031409Y-86452702D01*
X250252624Y-86216890D01*
X250267795Y-86197150D01*
X250278824Y-86174830D01*
X250284034Y-86157287D01*
X250285683Y-86149792D01*
X250313329Y-86201514D01*
X250557298Y-86273097D01*
X251370395Y-85460000D01*
X251356253Y-85445858D01*
X251535858Y-85266253D01*
X251550000Y-85280395D01*
X251564143Y-85266253D01*
X251743748Y-85445858D01*
X251729605Y-85460000D01*
X252542702Y-86273097D01*
X252678364Y-86233292D01*
X253412261Y-87968343D01*
X253395363Y-87985241D01*
X253291957Y-88140000D01*
X252340267Y-88140000D01*
X252261680Y-87950273D01*
X252104637Y-87715241D01*
X251904759Y-87515363D01*
X251669727Y-87358320D01*
X251408574Y-87250147D01*
X251131335Y-87195000D01*
X250848665Y-87195000D01*
X250571426Y-87250147D01*
X250310273Y-87358320D01*
X250075241Y-87515363D01*
X249875363Y-87715241D01*
X249718320Y-87950273D01*
X249610147Y-88211426D01*
X249555000Y-88488665D01*
X249555000Y-88771335D01*
X249610147Y-89048574D01*
X249710001Y-89289643D01*
X249710000Y-90680654D01*
X249597421Y-90740829D01*
X249486747Y-90831656D01*
X248657509Y-90913616D01*
X248633092Y-90918481D01*
X248610094Y-90928017D01*
X248589398Y-90941855D01*
X248571800Y-90959466D01*
X248553861Y-90988611D01*
X247747813Y-92810280D01*
X247720472Y-92720149D01*
X247638405Y-92566613D01*
X247527962Y-92432038D01*
X247393387Y-92321595D01*
X247239851Y-92239528D01*
X247073255Y-92188992D01*
X246900001Y-92171928D01*
X245299999Y-92171928D01*
X245126745Y-92188992D01*
X244960149Y-92239528D01*
X244806613Y-92321595D01*
X244672038Y-92432038D01*
X244561595Y-92566613D01*
X244484655Y-92710557D01*
X244418405Y-92586613D01*
X244307962Y-92452038D01*
X244173387Y-92341595D01*
X244019851Y-92259528D01*
X243853255Y-92208992D01*
X243680001Y-92191928D01*
X242079999Y-92191928D01*
X241906745Y-92208992D01*
X241740149Y-92259528D01*
X241586613Y-92341595D01*
X241452038Y-92452038D01*
X241341595Y-92586613D01*
X241259528Y-92740149D01*
X241208992Y-92906745D01*
X241191928Y-93079999D01*
X241191928Y-94680001D01*
X241208992Y-94853255D01*
X241244590Y-94970608D01*
X239803887Y-96411312D01*
X239621335Y-96375000D01*
X239338665Y-96375000D01*
X239061426Y-96430147D01*
X238800273Y-96538320D01*
X238565241Y-96695363D01*
X238365363Y-96895241D01*
X238208320Y-97130273D01*
X238100147Y-97391426D01*
X238045000Y-97668665D01*
X238045000Y-97951335D01*
X238100147Y-98228574D01*
X238208320Y-98489727D01*
X238365363Y-98724759D01*
X238565241Y-98924637D01*
X238800273Y-99081680D01*
X239061426Y-99189853D01*
X239338665Y-99245000D01*
X239621335Y-99245000D01*
X239898574Y-99189853D01*
X240159727Y-99081680D01*
X240394759Y-98924637D01*
X240594637Y-98724759D01*
X240751680Y-98489727D01*
X240859853Y-98228574D01*
X240915000Y-97951335D01*
X240915000Y-97668665D01*
X240878688Y-97486113D01*
X241241928Y-97122873D01*
X241241928Y-98110001D01*
X241258992Y-98283255D01*
X241309528Y-98449851D01*
X241391595Y-98603387D01*
X241502038Y-98737962D01*
X241636613Y-98848405D01*
X241790149Y-98930472D01*
X241956745Y-98981008D01*
X242129999Y-98998072D01*
X242480001Y-98998072D01*
X242480000Y-99271956D01*
X242325241Y-99375363D01*
X242125363Y-99575241D01*
X241968320Y-99810273D01*
X241860147Y-100071426D01*
X241805000Y-100348665D01*
X241805000Y-100631335D01*
X241860147Y-100908574D01*
X241968320Y-101169727D01*
X242125363Y-101404759D01*
X242325241Y-101604637D01*
X242560273Y-101761680D01*
X242821426Y-101869853D01*
X243098665Y-101925000D01*
X243381335Y-101925000D01*
X243658574Y-101869853D01*
X243919727Y-101761680D01*
X244154759Y-101604637D01*
X244354637Y-101404759D01*
X244511680Y-101169727D01*
X244619853Y-100908574D01*
X244675000Y-100631335D01*
X244675000Y-100348665D01*
X244619853Y-100071426D01*
X244511680Y-99810273D01*
X244354637Y-99575241D01*
X244154759Y-99375363D01*
X244097791Y-99337298D01*
X245566903Y-99337298D01*
X246380000Y-100150395D01*
X247193097Y-99337298D01*
X247121514Y-99093329D01*
X246866004Y-98972429D01*
X246591816Y-98903700D01*
X246309488Y-98889783D01*
X246029870Y-98931213D01*
X245763708Y-99026397D01*
X245638486Y-99093329D01*
X245566903Y-99337298D01*
X244097791Y-99337298D01*
X244000000Y-99271957D01*
X244000000Y-98951661D01*
X244069851Y-98930472D01*
X244223387Y-98848405D01*
X244357962Y-98737962D01*
X244468405Y-98603387D01*
X244550472Y-98449851D01*
X244601008Y-98283255D01*
X244618072Y-98110001D01*
X244618072Y-97890844D01*
X244638320Y-97939727D01*
X244795363Y-98174759D01*
X244995241Y-98374637D01*
X245230273Y-98531680D01*
X245491426Y-98639853D01*
X245768665Y-98695000D01*
X246051335Y-98695000D01*
X246328574Y-98639853D01*
X246589727Y-98531680D01*
X246824759Y-98374637D01*
X247024637Y-98174759D01*
X247181680Y-97939727D01*
X247289853Y-97678574D01*
X247345000Y-97401335D01*
X247345000Y-97118665D01*
X247289853Y-96841426D01*
X247181680Y-96580273D01*
X247024637Y-96345241D01*
X246824759Y-96145363D01*
X246589727Y-95988320D01*
X246328574Y-95880147D01*
X246051335Y-95825000D01*
X245768665Y-95825000D01*
X245491426Y-95880147D01*
X245230273Y-95988320D01*
X244995241Y-96145363D01*
X244795363Y-96345241D01*
X244638320Y-96580273D01*
X244618072Y-96629156D01*
X244618072Y-96509999D01*
X244601008Y-96336745D01*
X244550472Y-96170149D01*
X244468405Y-96016613D01*
X244357962Y-95882038D01*
X244223387Y-95771595D01*
X244069851Y-95689528D01*
X243903255Y-95638992D01*
X243730001Y-95621928D01*
X242742874Y-95621928D01*
X242796730Y-95568072D01*
X243680001Y-95568072D01*
X243853255Y-95551008D01*
X244019851Y-95500472D01*
X244173387Y-95418405D01*
X244307962Y-95307962D01*
X244418405Y-95173387D01*
X244495345Y-95029443D01*
X244561595Y-95153387D01*
X244672038Y-95287962D01*
X244806613Y-95398405D01*
X244960149Y-95480472D01*
X245126745Y-95531008D01*
X245299999Y-95548072D01*
X246900001Y-95548072D01*
X247073255Y-95531008D01*
X247239851Y-95480472D01*
X247393387Y-95398405D01*
X247527962Y-95287962D01*
X247638405Y-95153387D01*
X247720472Y-94999851D01*
X247761115Y-94865868D01*
X249710000Y-95805621D01*
X249710001Y-96600357D01*
X249610147Y-96841426D01*
X249555000Y-97118665D01*
X249555000Y-97401335D01*
X249610147Y-97678574D01*
X249718320Y-97939727D01*
X249875363Y-98174759D01*
X250075241Y-98374637D01*
X250310273Y-98531680D01*
X250571426Y-98639853D01*
X250848665Y-98695000D01*
X251131335Y-98695000D01*
X251408574Y-98639853D01*
X251669727Y-98531680D01*
X251904759Y-98374637D01*
X251981493Y-98297903D01*
X252638522Y-98847419D01*
X252642567Y-98850663D01*
X254064691Y-99944604D01*
X254943821Y-100871513D01*
X254962339Y-102010378D01*
X254713719Y-102360000D01*
X252329317Y-102360000D01*
X252220000Y-102286957D01*
X252220000Y-101548043D01*
X252374759Y-101444637D01*
X252574637Y-101244759D01*
X252731680Y-101009727D01*
X252839853Y-100748574D01*
X252895000Y-100471335D01*
X252895000Y-100188665D01*
X252839853Y-99911426D01*
X252731680Y-99650273D01*
X252574637Y-99415241D01*
X252374759Y-99215363D01*
X252139727Y-99058320D01*
X251878574Y-98950147D01*
X251601335Y-98895000D01*
X251318665Y-98895000D01*
X251041426Y-98950147D01*
X250780273Y-99058320D01*
X250545241Y-99215363D01*
X250345363Y-99415241D01*
X250188320Y-99650273D01*
X250080147Y-99911426D01*
X250025000Y-100188665D01*
X250025000Y-100471335D01*
X250080147Y-100748574D01*
X250188320Y-101009727D01*
X250345363Y-101244759D01*
X250545241Y-101444637D01*
X250700000Y-101548044D01*
X250700000Y-101670199D01*
X250488804Y-101459003D01*
X250465001Y-101429999D01*
X250349276Y-101335026D01*
X250217247Y-101264454D01*
X250073986Y-101220997D01*
X249962333Y-101210000D01*
X249962322Y-101210000D01*
X249925000Y-101206324D01*
X249887678Y-101210000D01*
X247439607Y-101210000D01*
X247372704Y-101143097D01*
X247616671Y-101071514D01*
X247737571Y-100816004D01*
X247806300Y-100541816D01*
X247820217Y-100259488D01*
X247778787Y-99979870D01*
X247683603Y-99713708D01*
X247616671Y-99588486D01*
X247372702Y-99516903D01*
X246559605Y-100330000D01*
X246573748Y-100344143D01*
X246394143Y-100523748D01*
X246380000Y-100509605D01*
X246365858Y-100523748D01*
X246186253Y-100344143D01*
X246200395Y-100330000D01*
X245387298Y-99516903D01*
X245143329Y-99588486D01*
X245022429Y-99843996D01*
X244953700Y-100118184D01*
X244939783Y-100400512D01*
X244981213Y-100680130D01*
X245076397Y-100946292D01*
X245143329Y-101071514D01*
X245387296Y-101143097D01*
X245308691Y-101221702D01*
X245167753Y-101264454D01*
X245035724Y-101335026D01*
X245035722Y-101335027D01*
X245035723Y-101335027D01*
X244948996Y-101406201D01*
X244948992Y-101406205D01*
X244919999Y-101429999D01*
X244896205Y-101458992D01*
X244328997Y-102026202D01*
X244300000Y-102049999D01*
X244276202Y-102078997D01*
X244276201Y-102078998D01*
X244233930Y-102130505D01*
X244119851Y-102069528D01*
X243953255Y-102018992D01*
X243780001Y-102001928D01*
X242179999Y-102001928D01*
X242006745Y-102018992D01*
X241840149Y-102069528D01*
X241686613Y-102151595D01*
X241552038Y-102262038D01*
X241441595Y-102396613D01*
X241359528Y-102550149D01*
X241308992Y-102716745D01*
X241291928Y-102889999D01*
X241291928Y-103170000D01*
X241218072Y-103170000D01*
X241218072Y-103129999D01*
X241201008Y-102956745D01*
X241150472Y-102790149D01*
X241068405Y-102636613D01*
X240957962Y-102502038D01*
X240823387Y-102391595D01*
X240669851Y-102309528D01*
X240503255Y-102258992D01*
X240330001Y-102241928D01*
X238916729Y-102241928D01*
X238550282Y-101875481D01*
X238578574Y-101869853D01*
X238839727Y-101761680D01*
X239074759Y-101604637D01*
X239274637Y-101404759D01*
X239431680Y-101169727D01*
X239539853Y-100908574D01*
X239595000Y-100631335D01*
X239595000Y-100348665D01*
X239539853Y-100071426D01*
X239431680Y-99810273D01*
X239274637Y-99575241D01*
X239074759Y-99375363D01*
X238839727Y-99218320D01*
X238578574Y-99110147D01*
X238301335Y-99055000D01*
X238018665Y-99055000D01*
X237836114Y-99091312D01*
X237393804Y-98649003D01*
X237370001Y-98619999D01*
X237254276Y-98525026D01*
X237122247Y-98454454D01*
X236978986Y-98410997D01*
X236867333Y-98400000D01*
X236867322Y-98400000D01*
X236830000Y-98396324D01*
X236792678Y-98400000D01*
X236618072Y-98400000D01*
X236618072Y-98360000D01*
X236605812Y-98235518D01*
X236569502Y-98115820D01*
X236510537Y-98005506D01*
X236431185Y-97908815D01*
X236334494Y-97829463D01*
X236224180Y-97770498D01*
X236104482Y-97734188D01*
X235980000Y-97721928D01*
X235940000Y-97721928D01*
X235940000Y-97344801D01*
X239156114Y-94128688D01*
X239338665Y-94165000D01*
X239621335Y-94165000D01*
X239898574Y-94109853D01*
X240159727Y-94001680D01*
X240394759Y-93844637D01*
X240594637Y-93644759D01*
X240751680Y-93409727D01*
X240859853Y-93148574D01*
X240915000Y-92871335D01*
X240915000Y-92588665D01*
X240859853Y-92311426D01*
X240751680Y-92050273D01*
X240594637Y-91815241D01*
X240394759Y-91615363D01*
X240159727Y-91458320D01*
X239898574Y-91350147D01*
X239621335Y-91295000D01*
X239338665Y-91295000D01*
X239061426Y-91350147D01*
X238800273Y-91458320D01*
X238565241Y-91615363D01*
X238365363Y-91815241D01*
X238208320Y-92050273D01*
X238100147Y-92311426D01*
X238045000Y-92588665D01*
X238045000Y-92871335D01*
X238081312Y-93053886D01*
X237387224Y-93747974D01*
X237356250Y-93717000D01*
X236207000Y-93717000D01*
X236207000Y-94866250D01*
X236237974Y-94897224D01*
X234668998Y-96466201D01*
X234640000Y-96489999D01*
X234616202Y-96518997D01*
X234616201Y-96518998D01*
X234545026Y-96605724D01*
X234474454Y-96737754D01*
X234430998Y-96881015D01*
X234416324Y-97030000D01*
X234420001Y-97067332D01*
X234420001Y-97721928D01*
X234380000Y-97721928D01*
X234255518Y-97734188D01*
X234135820Y-97770498D01*
X234025506Y-97829463D01*
X233928815Y-97908815D01*
X233915210Y-97925393D01*
X233859727Y-97888320D01*
X233598574Y-97780147D01*
X233321335Y-97725000D01*
X233038665Y-97725000D01*
X232761426Y-97780147D01*
X232500273Y-97888320D01*
X232265241Y-98045363D01*
X232065363Y-98245241D01*
X231908320Y-98480273D01*
X231800147Y-98741426D01*
X231745000Y-99018665D01*
X231745000Y-99301335D01*
X231800147Y-99578574D01*
X231908320Y-99839727D01*
X232065363Y-100074759D01*
X232265241Y-100274637D01*
X232425203Y-100381520D01*
X232430144Y-100431680D01*
X232430998Y-100440355D01*
X232474454Y-100583616D01*
X232545026Y-100715646D01*
X232605927Y-100789853D01*
X232640000Y-100831371D01*
X232668998Y-100855169D01*
X234384830Y-102571002D01*
X234408629Y-102600001D01*
X234437627Y-102623799D01*
X234524354Y-102694974D01*
X234656383Y-102765546D01*
X234799644Y-102809003D01*
X234948630Y-102823677D01*
X234985963Y-102820000D01*
X235618729Y-102820000D01*
X235568481Y-102895202D01*
X235509644Y-102900997D01*
X235366383Y-102944454D01*
X235234354Y-103015026D01*
X235118629Y-103109999D01*
X235094831Y-103138997D01*
X233121901Y-105111928D01*
X231689999Y-105111928D01*
X231516745Y-105128992D01*
X231350149Y-105179528D01*
X231196613Y-105261595D01*
X231070000Y-105365504D01*
X231070000Y-105364801D01*
X231386114Y-105048688D01*
X231568665Y-105085000D01*
X231851335Y-105085000D01*
X232128574Y-105029853D01*
X232389727Y-104921680D01*
X232624759Y-104764637D01*
X232824637Y-104564759D01*
X232981680Y-104329727D01*
X233089853Y-104068574D01*
X233145000Y-103791335D01*
X233145000Y-103508665D01*
X233089853Y-103231426D01*
X232981680Y-102970273D01*
X232824637Y-102735241D01*
X232624759Y-102535363D01*
X232389727Y-102378320D01*
X232128574Y-102270147D01*
X231851335Y-102215000D01*
X231568665Y-102215000D01*
X231291426Y-102270147D01*
X231030273Y-102378320D01*
X230795241Y-102535363D01*
X230595363Y-102735241D01*
X230438320Y-102970273D01*
X230330147Y-103231426D01*
X230275000Y-103508665D01*
X230275000Y-103791335D01*
X230311312Y-103973886D01*
X229799003Y-104486196D01*
X229769999Y-104509999D01*
X229724883Y-104564974D01*
X229675026Y-104625724D01*
X229607398Y-104752246D01*
X229604454Y-104757754D01*
X229560997Y-104901015D01*
X229550000Y-105012668D01*
X229550000Y-105012678D01*
X229546324Y-105050000D01*
X229550000Y-105087323D01*
X229550001Y-111422668D01*
X229546324Y-111460000D01*
X229550001Y-111497333D01*
X229556702Y-111565363D01*
X229560998Y-111608985D01*
X229604454Y-111752246D01*
X229675026Y-111884276D01*
X229734154Y-111956323D01*
X229770000Y-112000001D01*
X229798998Y-112023799D01*
X234298114Y-116522916D01*
X234275000Y-116639117D01*
X234275000Y-116980883D01*
X234341675Y-117316081D01*
X234472463Y-117631831D01*
X234662337Y-117915998D01*
X234904002Y-118157663D01*
X235188169Y-118347537D01*
X235503919Y-118478325D01*
X235839117Y-118545000D01*
X236180883Y-118545000D01*
X236516081Y-118478325D01*
X236831831Y-118347537D01*
X237115998Y-118157663D01*
X237357663Y-117915998D01*
X237547537Y-117631831D01*
X237573148Y-117570000D01*
X237661928Y-117570000D01*
X237661928Y-118540000D01*
X237674188Y-118664482D01*
X237710498Y-118784180D01*
X237769463Y-118894494D01*
X237848815Y-118991185D01*
X237945506Y-119070537D01*
X238055820Y-119129502D01*
X238175518Y-119165812D01*
X238300000Y-119178072D01*
X238640001Y-119178072D01*
X238640001Y-120015197D01*
X238353886Y-120301312D01*
X238171335Y-120265000D01*
X237888665Y-120265000D01*
X237611426Y-120320147D01*
X237350273Y-120428320D01*
X237115241Y-120585363D01*
X236915363Y-120785241D01*
X236758320Y-121020273D01*
X236650147Y-121281426D01*
X236595000Y-121558665D01*
X236595000Y-121841335D01*
X236650147Y-122118574D01*
X236758320Y-122379727D01*
X236915363Y-122614759D01*
X237115241Y-122814637D01*
X237350273Y-122971680D01*
X237611426Y-123079853D01*
X237888665Y-123135000D01*
X238171335Y-123135000D01*
X238448574Y-123079853D01*
X238709727Y-122971680D01*
X238944759Y-122814637D01*
X239144637Y-122614759D01*
X239301680Y-122379727D01*
X239409853Y-122118574D01*
X239421695Y-122059040D01*
X241148091Y-122059040D01*
X241242930Y-122323881D01*
X241387615Y-122565131D01*
X241576586Y-122773519D01*
X241802580Y-122941037D01*
X242056913Y-123061246D01*
X242190961Y-123101904D01*
X242413000Y-122979915D01*
X242413000Y-121837000D01*
X241269376Y-121837000D01*
X241148091Y-122059040D01*
X239421695Y-122059040D01*
X239465000Y-121841335D01*
X239465000Y-121558665D01*
X239428688Y-121376114D01*
X239443842Y-121360960D01*
X241148091Y-121360960D01*
X241269376Y-121583000D01*
X242413000Y-121583000D01*
X242413000Y-120440085D01*
X242667000Y-120440085D01*
X242667000Y-121583000D01*
X243810624Y-121583000D01*
X243931909Y-121360960D01*
X243837070Y-121096119D01*
X243692385Y-120854869D01*
X243503414Y-120646481D01*
X243277420Y-120478963D01*
X243023087Y-120358754D01*
X242889039Y-120318096D01*
X242667000Y-120440085D01*
X242413000Y-120440085D01*
X242190961Y-120318096D01*
X242056913Y-120358754D01*
X241802580Y-120478963D01*
X241576586Y-120646481D01*
X241387615Y-120854869D01*
X241242930Y-121096119D01*
X241148091Y-121360960D01*
X239443842Y-121360960D01*
X239911003Y-120893799D01*
X239940001Y-120870001D01*
X240034974Y-120754276D01*
X240105546Y-120622247D01*
X240149003Y-120478986D01*
X240160000Y-120367333D01*
X240163677Y-120330000D01*
X240160000Y-120292667D01*
X240160000Y-119178072D01*
X240500000Y-119178072D01*
X240624482Y-119165812D01*
X240744180Y-119129502D01*
X240854494Y-119070537D01*
X240951185Y-118991185D01*
X241030537Y-118894494D01*
X241089502Y-118784180D01*
X241125812Y-118664482D01*
X241138072Y-118540000D01*
X241138072Y-116656730D01*
X242796115Y-114998688D01*
X242978665Y-115035000D01*
X243261335Y-115035000D01*
X243538574Y-114979853D01*
X243799727Y-114871680D01*
X244034759Y-114714637D01*
X244234637Y-114514759D01*
X244391680Y-114279727D01*
X244499853Y-114018574D01*
X244555000Y-113741335D01*
X244555000Y-113458665D01*
X244518688Y-113276114D01*
X245187183Y-112607619D01*
X245225363Y-112664759D01*
X245425241Y-112864637D01*
X245657759Y-113020000D01*
X245425241Y-113175363D01*
X245225363Y-113375241D01*
X245068320Y-113610273D01*
X244960147Y-113871426D01*
X244905000Y-114148665D01*
X244905000Y-114431335D01*
X244960147Y-114708574D01*
X245068320Y-114969727D01*
X245225363Y-115204759D01*
X245425241Y-115404637D01*
X245660273Y-115561680D01*
X245921426Y-115669853D01*
X246198665Y-115725000D01*
X246481335Y-115725000D01*
X246758574Y-115669853D01*
X247019727Y-115561680D01*
X247254759Y-115404637D01*
X247454637Y-115204759D01*
X247611680Y-114969727D01*
X247719853Y-114708574D01*
X247775000Y-114431335D01*
X247775000Y-114259801D01*
X249763335Y-116248137D01*
X249655241Y-116320363D01*
X249455363Y-116520241D01*
X249351957Y-116675000D01*
X247174396Y-116675000D01*
X247084759Y-116585363D01*
X246849727Y-116428320D01*
X246588574Y-116320147D01*
X246311335Y-116265000D01*
X246028665Y-116265000D01*
X245751426Y-116320147D01*
X245490273Y-116428320D01*
X245255241Y-116585363D01*
X245055363Y-116785241D01*
X244898320Y-117020273D01*
X244790147Y-117281426D01*
X244735000Y-117558665D01*
X244735000Y-117841335D01*
X244790147Y-118118574D01*
X244898320Y-118379727D01*
X244935393Y-118435210D01*
X244918815Y-118448815D01*
X244839463Y-118545506D01*
X244780498Y-118655820D01*
X244744188Y-118775518D01*
X244731928Y-118900000D01*
X244731928Y-120500000D01*
X244744188Y-120624482D01*
X244780498Y-120744180D01*
X244839463Y-120854494D01*
X244918815Y-120951185D01*
X245015506Y-121030537D01*
X245125820Y-121089502D01*
X245245518Y-121125812D01*
X245370000Y-121138072D01*
X245440001Y-121138072D01*
X245440001Y-121387980D01*
X244206016Y-121625285D01*
X244182147Y-121632361D01*
X244160116Y-121643957D01*
X244140771Y-121659628D01*
X244127137Y-121675513D01*
X243896436Y-121994099D01*
X243810624Y-121837000D01*
X242667000Y-121837000D01*
X242667000Y-122979915D01*
X242889039Y-123101904D01*
X243023087Y-123061246D01*
X243176017Y-122988965D01*
X243077137Y-123125513D01*
X243064582Y-123147012D01*
X243056462Y-123170547D01*
X243053090Y-123195214D01*
X243054595Y-123220065D01*
X243060919Y-123244145D01*
X243071819Y-123266528D01*
X243093002Y-123292522D01*
X244389731Y-124511835D01*
X244303219Y-125982542D01*
X244304200Y-126007419D01*
X244310016Y-126031627D01*
X244320442Y-126054235D01*
X244340625Y-126080228D01*
X247510625Y-129220228D01*
X247529945Y-129235931D01*
X247551958Y-129247562D01*
X247575816Y-129254676D01*
X247602710Y-129256971D01*
X250882710Y-129186971D01*
X250907429Y-129184003D01*
X250931093Y-129176269D01*
X250952794Y-129164067D01*
X250966994Y-129152526D01*
X252806994Y-127422526D01*
X252823374Y-127403776D01*
X252835780Y-127382191D01*
X252843738Y-127358601D01*
X252846940Y-127333911D01*
X252846428Y-127317959D01*
X252693282Y-125709924D01*
X254393375Y-124468283D01*
X254418963Y-124522420D01*
X254586481Y-124748414D01*
X254794869Y-124937385D01*
X255036119Y-125082070D01*
X255300960Y-125176909D01*
X255523000Y-125055624D01*
X255523000Y-123912000D01*
X255777000Y-123912000D01*
X255777000Y-125055624D01*
X255999040Y-125176909D01*
X256263881Y-125082070D01*
X256505131Y-124937385D01*
X256713519Y-124748414D01*
X256881037Y-124522420D01*
X257001246Y-124268087D01*
X257041904Y-124134039D01*
X256919915Y-123912000D01*
X255777000Y-123912000D01*
X255523000Y-123912000D01*
X255503000Y-123912000D01*
X255503000Y-123658000D01*
X255523000Y-123658000D01*
X255523000Y-123638000D01*
X255777000Y-123638000D01*
X255777000Y-123658000D01*
X256919915Y-123658000D01*
X257041904Y-123435961D01*
X257001246Y-123301913D01*
X256881037Y-123047580D01*
X256713519Y-122821586D01*
X256505131Y-122632615D01*
X256263881Y-122487930D01*
X256242126Y-122480140D01*
X256358074Y-122453858D01*
X256381699Y-122446001D01*
X256403336Y-122433686D01*
X256422155Y-122417387D01*
X256437433Y-122397729D01*
X256443753Y-122386473D01*
X257143753Y-120976473D01*
X257152585Y-120953196D01*
X257156706Y-120928643D01*
X257154401Y-120894438D01*
X257085000Y-120556686D01*
X257085000Y-120468665D01*
X257029853Y-120191426D01*
X256990350Y-120096058D01*
X256854401Y-119434438D01*
X256847024Y-119410660D01*
X256835149Y-119388778D01*
X256819234Y-119369633D01*
X256803720Y-119356587D01*
X256040083Y-118812212D01*
X256263881Y-118732070D01*
X256505131Y-118587385D01*
X256713519Y-118398414D01*
X256881037Y-118172420D01*
X257001246Y-117918087D01*
X257041904Y-117784039D01*
X256919915Y-117562000D01*
X255777000Y-117562000D01*
X255777000Y-117582000D01*
X255523000Y-117582000D01*
X255523000Y-117562000D01*
X255503000Y-117562000D01*
X255503000Y-117308000D01*
X255523000Y-117308000D01*
X255523000Y-117288000D01*
X255777000Y-117288000D01*
X255777000Y-117308000D01*
X256919915Y-117308000D01*
X257041904Y-117085961D01*
X257024814Y-117029615D01*
X259960000Y-119964802D01*
X259960001Y-124131956D01*
X259805241Y-124235363D01*
X259605363Y-124435241D01*
X259448320Y-124670273D01*
X259340147Y-124931426D01*
X259285000Y-125208665D01*
X259285000Y-125491335D01*
X259340147Y-125768574D01*
X259448320Y-126029727D01*
X259605363Y-126264759D01*
X259782532Y-126441928D01*
X259249999Y-126441928D01*
X259076745Y-126458992D01*
X258910149Y-126509528D01*
X258756613Y-126591595D01*
X258622038Y-126702038D01*
X258511595Y-126836613D01*
X258429528Y-126990149D01*
X258378992Y-127156745D01*
X258361928Y-127329999D01*
X258361928Y-127733270D01*
X255413887Y-130681312D01*
X255231335Y-130645000D01*
X254948665Y-130645000D01*
X254671426Y-130700147D01*
X254410273Y-130808320D01*
X254175241Y-130965363D01*
X253975363Y-131165241D01*
X253818320Y-131400273D01*
X253710147Y-131661426D01*
X253655000Y-131938665D01*
X253655000Y-132221335D01*
X253710147Y-132498574D01*
X253818320Y-132759727D01*
X253975363Y-132994759D01*
X254175241Y-133194637D01*
X254410273Y-133351680D01*
X254671426Y-133459853D01*
X254948665Y-133515000D01*
X255231335Y-133515000D01*
X255508574Y-133459853D01*
X255769727Y-133351680D01*
X256004759Y-133194637D01*
X256204637Y-132994759D01*
X256361680Y-132759727D01*
X256469853Y-132498574D01*
X256525000Y-132221335D01*
X256525000Y-131938665D01*
X256488688Y-131756113D01*
X258657630Y-129587172D01*
X258756613Y-129668405D01*
X258910149Y-129750472D01*
X259076745Y-129801008D01*
X259249999Y-129818072D01*
X260850001Y-129818072D01*
X261023255Y-129801008D01*
X261189851Y-129750472D01*
X261343387Y-129668405D01*
X261477962Y-129557962D01*
X261588405Y-129423387D01*
X261670472Y-129269851D01*
X261721008Y-129103255D01*
X261738072Y-128930001D01*
X261738072Y-127329999D01*
X261721008Y-127156745D01*
X261670472Y-126990149D01*
X261588405Y-126836613D01*
X261477962Y-126702038D01*
X261386647Y-126627098D01*
X261399727Y-126621680D01*
X261634759Y-126464637D01*
X261834637Y-126264759D01*
X261991680Y-126029727D01*
X262099853Y-125768574D01*
X262155000Y-125491335D01*
X262155000Y-125208665D01*
X262099853Y-124931426D01*
X261991680Y-124670273D01*
X261834637Y-124435241D01*
X261634759Y-124235363D01*
X261480000Y-124131957D01*
X261480000Y-119687322D01*
X261483676Y-119649999D01*
X261480000Y-119612676D01*
X261480000Y-119612667D01*
X261469003Y-119501014D01*
X261425546Y-119357753D01*
X261381700Y-119275724D01*
X261354974Y-119225723D01*
X261283799Y-119138997D01*
X261260001Y-119109999D01*
X261231004Y-119086202D01*
X260500416Y-118355614D01*
X267020001Y-121240139D01*
X267020001Y-127566618D01*
X258776724Y-135809896D01*
X233208743Y-135800092D01*
X231103353Y-134048665D01*
X232645000Y-134048665D01*
X232645000Y-134331335D01*
X232700147Y-134608574D01*
X232808320Y-134869727D01*
X232965363Y-135104759D01*
X233165241Y-135304637D01*
X233400273Y-135461680D01*
X233661426Y-135569853D01*
X233938665Y-135625000D01*
X234221335Y-135625000D01*
X234498574Y-135569853D01*
X234759727Y-135461680D01*
X234994759Y-135304637D01*
X235194637Y-135104759D01*
X235351680Y-134869727D01*
X235459853Y-134608574D01*
X235515000Y-134331335D01*
X235515000Y-134048665D01*
X237725000Y-134048665D01*
X237725000Y-134331335D01*
X237780147Y-134608574D01*
X237888320Y-134869727D01*
X238045363Y-135104759D01*
X238245241Y-135304637D01*
X238480273Y-135461680D01*
X238741426Y-135569853D01*
X239018665Y-135625000D01*
X239301335Y-135625000D01*
X239578574Y-135569853D01*
X239839727Y-135461680D01*
X240074759Y-135304637D01*
X240274637Y-135104759D01*
X240378043Y-134950000D01*
X241567678Y-134950000D01*
X241605000Y-134953676D01*
X241642322Y-134950000D01*
X241642333Y-134950000D01*
X241753986Y-134939003D01*
X241897247Y-134895546D01*
X242029276Y-134824974D01*
X242043779Y-134813072D01*
X243470001Y-134813072D01*
X243643255Y-134796008D01*
X243809851Y-134745472D01*
X243963387Y-134663405D01*
X244097962Y-134552962D01*
X244208405Y-134418387D01*
X244290472Y-134264851D01*
X244341008Y-134098255D01*
X244358072Y-133925001D01*
X244358072Y-132324999D01*
X244341008Y-132151745D01*
X244290472Y-131985149D01*
X244265626Y-131938665D01*
X246155000Y-131938665D01*
X246155000Y-132221335D01*
X246210147Y-132498574D01*
X246318320Y-132759727D01*
X246475363Y-132994759D01*
X246675241Y-133194637D01*
X246910273Y-133351680D01*
X247171426Y-133459853D01*
X247448665Y-133515000D01*
X247731335Y-133515000D01*
X248008574Y-133459853D01*
X248269727Y-133351680D01*
X248504759Y-133194637D01*
X248704637Y-132994759D01*
X248808043Y-132840000D01*
X250492678Y-132840000D01*
X250530000Y-132843676D01*
X250567322Y-132840000D01*
X250567333Y-132840000D01*
X250678986Y-132829003D01*
X250822247Y-132785546D01*
X250954276Y-132714974D01*
X251070001Y-132620001D01*
X251093804Y-132590997D01*
X255326115Y-128358688D01*
X255508665Y-128395000D01*
X255791335Y-128395000D01*
X256068574Y-128339853D01*
X256329727Y-128231680D01*
X256564759Y-128074637D01*
X256764637Y-127874759D01*
X256921680Y-127639727D01*
X257029853Y-127378574D01*
X257085000Y-127101335D01*
X257085000Y-126818665D01*
X257029853Y-126541426D01*
X256921680Y-126280273D01*
X256764637Y-126045241D01*
X256564759Y-125845363D01*
X256329727Y-125688320D01*
X256068574Y-125580147D01*
X255791335Y-125525000D01*
X255508665Y-125525000D01*
X255231426Y-125580147D01*
X254970273Y-125688320D01*
X254735241Y-125845363D01*
X254535363Y-126045241D01*
X254378320Y-126280273D01*
X254270147Y-126541426D01*
X254215000Y-126818665D01*
X254215000Y-127101335D01*
X254251312Y-127283885D01*
X250215199Y-131320000D01*
X248808043Y-131320000D01*
X248704637Y-131165241D01*
X248504759Y-130965363D01*
X248269727Y-130808320D01*
X248008574Y-130700147D01*
X247731335Y-130645000D01*
X247448665Y-130645000D01*
X247171426Y-130700147D01*
X246910273Y-130808320D01*
X246675241Y-130965363D01*
X246475363Y-131165241D01*
X246318320Y-131400273D01*
X246210147Y-131661426D01*
X246155000Y-131938665D01*
X244265626Y-131938665D01*
X244208405Y-131831613D01*
X244097962Y-131697038D01*
X243963387Y-131586595D01*
X243871537Y-131537500D01*
X243963387Y-131488405D01*
X244097962Y-131377962D01*
X244208405Y-131243387D01*
X244290472Y-131089851D01*
X244341008Y-130923255D01*
X244358072Y-130750001D01*
X244358072Y-129149999D01*
X244341008Y-128976745D01*
X244290472Y-128810149D01*
X244208405Y-128656613D01*
X244097962Y-128522038D01*
X243963387Y-128411595D01*
X243809851Y-128329528D01*
X243643255Y-128278992D01*
X243470001Y-128261928D01*
X241869999Y-128261928D01*
X241696745Y-128278992D01*
X241530149Y-128329528D01*
X241376613Y-128411595D01*
X241242038Y-128522038D01*
X241131595Y-128656613D01*
X241049528Y-128810149D01*
X240998992Y-128976745D01*
X240981928Y-129149999D01*
X240981928Y-130280000D01*
X240818043Y-130280000D01*
X240714637Y-130125241D01*
X240514759Y-129925363D01*
X240279727Y-129768320D01*
X240018574Y-129660147D01*
X239741335Y-129605000D01*
X239458665Y-129605000D01*
X239181426Y-129660147D01*
X238920273Y-129768320D01*
X238685241Y-129925363D01*
X238485363Y-130125241D01*
X238328320Y-130360273D01*
X238220147Y-130621426D01*
X238165000Y-130898665D01*
X238165000Y-131181335D01*
X238220147Y-131458574D01*
X238328320Y-131719727D01*
X238485363Y-131954759D01*
X238685241Y-132154637D01*
X238920273Y-132311680D01*
X239181426Y-132419853D01*
X239458665Y-132475000D01*
X239741335Y-132475000D01*
X240018574Y-132419853D01*
X240279727Y-132311680D01*
X240514759Y-132154637D01*
X240714637Y-131954759D01*
X240818043Y-131800000D01*
X241157539Y-131800000D01*
X241131595Y-131831613D01*
X241049528Y-131985149D01*
X240998992Y-132151745D01*
X240981928Y-132324999D01*
X240981928Y-133430000D01*
X240378043Y-133430000D01*
X240274637Y-133275241D01*
X240074759Y-133075363D01*
X239839727Y-132918320D01*
X239578574Y-132810147D01*
X239301335Y-132755000D01*
X239018665Y-132755000D01*
X238741426Y-132810147D01*
X238480273Y-132918320D01*
X238245241Y-133075363D01*
X238045363Y-133275241D01*
X237888320Y-133510273D01*
X237780147Y-133771426D01*
X237725000Y-134048665D01*
X235515000Y-134048665D01*
X235459853Y-133771426D01*
X235351680Y-133510273D01*
X235194637Y-133275241D01*
X234994759Y-133075363D01*
X234759727Y-132918320D01*
X234498574Y-132810147D01*
X234221335Y-132755000D01*
X233938665Y-132755000D01*
X233661426Y-132810147D01*
X233400273Y-132918320D01*
X233165241Y-133075363D01*
X232965363Y-133275241D01*
X232808320Y-133510273D01*
X232700147Y-133771426D01*
X232645000Y-134048665D01*
X231103353Y-134048665D01*
X229050000Y-132340528D01*
X229050000Y-130898665D01*
X233085000Y-130898665D01*
X233085000Y-131181335D01*
X233140147Y-131458574D01*
X233248320Y-131719727D01*
X233405363Y-131954759D01*
X233605241Y-132154637D01*
X233840273Y-132311680D01*
X234101426Y-132419853D01*
X234378665Y-132475000D01*
X234661335Y-132475000D01*
X234938574Y-132419853D01*
X235199727Y-132311680D01*
X235434759Y-132154637D01*
X235634637Y-131954759D01*
X235791680Y-131719727D01*
X235899853Y-131458574D01*
X235955000Y-131181335D01*
X235955000Y-130898665D01*
X235899853Y-130621426D01*
X235791680Y-130360273D01*
X235634637Y-130125241D01*
X235434759Y-129925363D01*
X235199727Y-129768320D01*
X234938574Y-129660147D01*
X234661335Y-129605000D01*
X234378665Y-129605000D01*
X234101426Y-129660147D01*
X233840273Y-129768320D01*
X233605241Y-129925363D01*
X233405363Y-130125241D01*
X233248320Y-130360273D01*
X233140147Y-130621426D01*
X233085000Y-130898665D01*
X229050000Y-130898665D01*
X229050000Y-126558665D01*
X236595000Y-126558665D01*
X236595000Y-126841335D01*
X236650147Y-127118574D01*
X236758320Y-127379727D01*
X236915363Y-127614759D01*
X237115241Y-127814637D01*
X237350273Y-127971680D01*
X237611426Y-128079853D01*
X237888665Y-128135000D01*
X238171335Y-128135000D01*
X238448574Y-128079853D01*
X238709727Y-127971680D01*
X238944759Y-127814637D01*
X239144637Y-127614759D01*
X239187907Y-127550000D01*
X241321957Y-127550000D01*
X241425363Y-127704759D01*
X241625241Y-127904637D01*
X241860273Y-128061680D01*
X242121426Y-128169853D01*
X242398665Y-128225000D01*
X242681335Y-128225000D01*
X242958574Y-128169853D01*
X243219727Y-128061680D01*
X243454759Y-127904637D01*
X243654637Y-127704759D01*
X243811680Y-127469727D01*
X243919853Y-127208574D01*
X243975000Y-126931335D01*
X243975000Y-126648665D01*
X243919853Y-126371426D01*
X243811680Y-126110273D01*
X243654637Y-125875241D01*
X243454759Y-125675363D01*
X243219727Y-125518320D01*
X242958574Y-125410147D01*
X242681335Y-125355000D01*
X242398665Y-125355000D01*
X242121426Y-125410147D01*
X241860273Y-125518320D01*
X241625241Y-125675363D01*
X241425363Y-125875241D01*
X241321957Y-126030000D01*
X239305709Y-126030000D01*
X239301680Y-126020273D01*
X239144637Y-125785241D01*
X238944759Y-125585363D01*
X238709727Y-125428320D01*
X238448574Y-125320147D01*
X238171335Y-125265000D01*
X237888665Y-125265000D01*
X237611426Y-125320147D01*
X237350273Y-125428320D01*
X237115241Y-125585363D01*
X236915363Y-125785241D01*
X236758320Y-126020273D01*
X236650147Y-126281426D01*
X236595000Y-126558665D01*
X229050000Y-126558665D01*
X229050000Y-93448665D01*
X232645000Y-93448665D01*
X232645000Y-93731335D01*
X232700147Y-94008574D01*
X232808320Y-94269727D01*
X232965363Y-94504759D01*
X233165241Y-94704637D01*
X233400273Y-94861680D01*
X233661426Y-94969853D01*
X233938665Y-95025000D01*
X234221335Y-95025000D01*
X234498574Y-94969853D01*
X234759727Y-94861680D01*
X234815210Y-94824607D01*
X234828815Y-94841185D01*
X234925506Y-94920537D01*
X235035820Y-94979502D01*
X235155518Y-95015812D01*
X235280000Y-95028072D01*
X235794250Y-95025000D01*
X235953000Y-94866250D01*
X235953000Y-93717000D01*
X235933000Y-93717000D01*
X235933000Y-93463000D01*
X235953000Y-93463000D01*
X235953000Y-92313750D01*
X236207000Y-92313750D01*
X236207000Y-93463000D01*
X237356250Y-93463000D01*
X237515000Y-93304250D01*
X237518072Y-92790000D01*
X237505812Y-92665518D01*
X237469502Y-92545820D01*
X237410537Y-92435506D01*
X237331185Y-92338815D01*
X237234494Y-92259463D01*
X237124180Y-92200498D01*
X237004482Y-92164188D01*
X236880000Y-92151928D01*
X236365750Y-92155000D01*
X236207000Y-92313750D01*
X235953000Y-92313750D01*
X235794250Y-92155000D01*
X235280000Y-92151928D01*
X235155518Y-92164188D01*
X235035820Y-92200498D01*
X234925506Y-92259463D01*
X234828815Y-92338815D01*
X234815210Y-92355393D01*
X234759727Y-92318320D01*
X234498574Y-92210147D01*
X234221335Y-92155000D01*
X233938665Y-92155000D01*
X233661426Y-92210147D01*
X233400273Y-92318320D01*
X233165241Y-92475363D01*
X232965363Y-92675241D01*
X232808320Y-92910273D01*
X232700147Y-93171426D01*
X232645000Y-93448665D01*
X229050000Y-93448665D01*
X229050000Y-90060000D01*
X235851928Y-90060000D01*
X235864188Y-90184482D01*
X235900498Y-90304180D01*
X235959463Y-90414494D01*
X236038815Y-90511185D01*
X236135506Y-90590537D01*
X236245820Y-90649502D01*
X236365518Y-90685812D01*
X236490000Y-90698072D01*
X237254250Y-90695000D01*
X237413000Y-90536250D01*
X237413000Y-89137000D01*
X236013750Y-89137000D01*
X235855000Y-89295750D01*
X235851928Y-90060000D01*
X229050000Y-90060000D01*
X229050000Y-87960000D01*
X235851928Y-87960000D01*
X235855000Y-88724250D01*
X236013750Y-88883000D01*
X237413000Y-88883000D01*
X237413000Y-87483750D01*
X237254250Y-87325000D01*
X236490000Y-87321928D01*
X236365518Y-87334188D01*
X236245820Y-87370498D01*
X236135506Y-87429463D01*
X236038815Y-87508815D01*
X235959463Y-87605506D01*
X235900498Y-87715820D01*
X235864188Y-87835518D01*
X235851928Y-87960000D01*
X229050000Y-87960000D01*
X229050000Y-87909965D01*
X232741174Y-84519999D01*
X234371928Y-84519999D01*
X234371928Y-86120001D01*
X234388992Y-86293255D01*
X234439528Y-86459851D01*
X234521595Y-86613387D01*
X234632038Y-86747962D01*
X234766613Y-86858405D01*
X234920149Y-86940472D01*
X235086745Y-86991008D01*
X235259999Y-87008072D01*
X236860001Y-87008072D01*
X237033255Y-86991008D01*
X237199851Y-86940472D01*
X237353387Y-86858405D01*
X237487962Y-86747962D01*
X237598405Y-86613387D01*
X237680472Y-86459851D01*
X237731008Y-86293255D01*
X237748072Y-86120001D01*
X237748072Y-85326471D01*
X237864869Y-85432385D01*
X238106119Y-85577070D01*
X238370960Y-85671909D01*
X238593000Y-85550624D01*
X238593000Y-84407000D01*
X238573000Y-84407000D01*
X238573000Y-84153000D01*
X238593000Y-84153000D01*
X238593000Y-83009376D01*
X238370960Y-82888091D01*
X238106119Y-82982930D01*
X237864869Y-83127615D01*
X237656481Y-83316586D01*
X237488963Y-83542580D01*
X237369676Y-83794963D01*
X237353387Y-83781595D01*
X237199851Y-83699528D01*
X237033255Y-83648992D01*
X236860001Y-83631928D01*
X235259999Y-83631928D01*
X235086745Y-83648992D01*
X234920149Y-83699528D01*
X234766613Y-83781595D01*
X234632038Y-83892038D01*
X234521595Y-84026613D01*
X234439528Y-84180149D01*
X234388992Y-84346745D01*
X234371928Y-84519999D01*
X232741174Y-84519999D01*
X235387086Y-82090000D01*
X239863937Y-82090000D01*
X239883022Y-82802501D01*
G37*
%TD.AperFunction*%
%TD*%
D18*
%TO.N,+9V*%
X267020000Y-83741841D02*
X267020001Y-111863065D01*
X266954637Y-111765241D01*
X266754759Y-111565363D01*
X266519727Y-111408320D01*
X266258574Y-111300147D01*
X265981335Y-111245000D01*
X265698665Y-111245000D01*
X265421426Y-111300147D01*
X265160273Y-111408320D01*
X264925241Y-111565363D01*
X264725363Y-111765241D01*
X264568320Y-112000273D01*
X264460147Y-112261426D01*
X264405000Y-112538665D01*
X264405000Y-112821335D01*
X264460147Y-113098574D01*
X264568320Y-113359727D01*
X264725363Y-113594759D01*
X264925241Y-113794637D01*
X265160273Y-113951680D01*
X265421426Y-114059853D01*
X265698665Y-114115000D01*
X265981335Y-114115000D01*
X266258574Y-114059853D01*
X266519727Y-113951680D01*
X266754759Y-113794637D01*
X266954637Y-113594759D01*
X267020001Y-113496935D01*
X267020001Y-119294315D01*
X258009437Y-115864636D01*
X257710000Y-115565199D01*
X257710000Y-115208665D01*
X259285000Y-115208665D01*
X259285000Y-115491335D01*
X259340147Y-115768574D01*
X259448320Y-116029727D01*
X259605363Y-116264759D01*
X259805241Y-116464637D01*
X260040273Y-116621680D01*
X260301426Y-116729853D01*
X260578665Y-116785000D01*
X260861335Y-116785000D01*
X261138574Y-116729853D01*
X261399727Y-116621680D01*
X261634759Y-116464637D01*
X261834637Y-116264759D01*
X261991680Y-116029727D01*
X262099853Y-115768574D01*
X262155000Y-115491335D01*
X262155000Y-115208665D01*
X262099853Y-114931426D01*
X261991680Y-114670273D01*
X261834637Y-114435241D01*
X261634759Y-114235363D01*
X261480000Y-114131957D01*
X261480000Y-113924771D01*
X261674759Y-113794637D01*
X261874637Y-113594759D01*
X262031680Y-113359727D01*
X262139853Y-113098574D01*
X262195000Y-112821335D01*
X262195000Y-112538665D01*
X262139853Y-112261426D01*
X262031680Y-112000273D01*
X261874637Y-111765241D01*
X261674759Y-111565363D01*
X261439727Y-111408320D01*
X261178574Y-111300147D01*
X260901335Y-111245000D01*
X260618665Y-111245000D01*
X260341426Y-111300147D01*
X260080273Y-111408320D01*
X259845241Y-111565363D01*
X259645363Y-111765241D01*
X259488320Y-112000273D01*
X259380147Y-112261426D01*
X259325000Y-112538665D01*
X259325000Y-112821335D01*
X259380147Y-113098574D01*
X259488320Y-113359727D01*
X259645363Y-113594759D01*
X259845241Y-113794637D01*
X259960001Y-113871317D01*
X259960000Y-114131956D01*
X259805241Y-114235363D01*
X259605363Y-114435241D01*
X259448320Y-114670273D01*
X259340147Y-114931426D01*
X259285000Y-115208665D01*
X257710000Y-115208665D01*
X257710000Y-114338072D01*
X258150001Y-114338072D01*
X258323255Y-114321008D01*
X258489851Y-114270472D01*
X258643387Y-114188405D01*
X258777962Y-114077962D01*
X258888405Y-113943387D01*
X258970472Y-113789851D01*
X259021008Y-113623255D01*
X259038072Y-113450001D01*
X259038072Y-111849999D01*
X259021008Y-111676745D01*
X258970472Y-111510149D01*
X258888405Y-111356613D01*
X258777962Y-111222038D01*
X258643387Y-111111595D01*
X258489851Y-111029528D01*
X258323255Y-110978992D01*
X258150001Y-110961928D01*
X256549999Y-110961928D01*
X256376745Y-110978992D01*
X256210149Y-111029528D01*
X256056613Y-111111595D01*
X255922038Y-111222038D01*
X255811595Y-111356613D01*
X255729528Y-111510149D01*
X255678992Y-111676745D01*
X255661928Y-111849999D01*
X255661928Y-113450001D01*
X255678992Y-113623255D01*
X255729528Y-113789851D01*
X255811595Y-113943387D01*
X255922038Y-114077962D01*
X256056613Y-114188405D01*
X256190001Y-114259702D01*
X256190000Y-115172106D01*
X255925178Y-115071307D01*
X255901154Y-115064774D01*
X255876317Y-115063053D01*
X255851622Y-115066211D01*
X255828017Y-115074126D01*
X255806410Y-115086494D01*
X255780900Y-115110577D01*
X254899039Y-116210917D01*
X254735241Y-116320363D01*
X254535363Y-116520241D01*
X254378320Y-116755273D01*
X254287987Y-116973355D01*
X253560900Y-117880577D01*
X253547309Y-117901436D01*
X253538049Y-117924546D01*
X253533006Y-117961249D01*
X253562851Y-120995535D01*
X253242559Y-122325235D01*
X251984883Y-124027467D01*
X252005000Y-123926335D01*
X252005000Y-123643665D01*
X251949853Y-123366426D01*
X251841680Y-123105273D01*
X251684637Y-122870241D01*
X251484759Y-122670363D01*
X251249727Y-122513320D01*
X250988574Y-122405147D01*
X250711335Y-122350000D01*
X250428665Y-122350000D01*
X250151426Y-122405147D01*
X249890273Y-122513320D01*
X249655241Y-122670363D01*
X249455363Y-122870241D01*
X249298320Y-123105273D01*
X249190147Y-123366426D01*
X249135000Y-123643665D01*
X249135000Y-123926335D01*
X249190147Y-124203574D01*
X249298320Y-124464727D01*
X249455363Y-124699759D01*
X249655241Y-124899637D01*
X249810000Y-125003044D01*
X249810000Y-125125199D01*
X249723804Y-125039003D01*
X249700001Y-125009999D01*
X249584276Y-124915026D01*
X249452247Y-124844454D01*
X249308986Y-124800997D01*
X249197333Y-124790000D01*
X249197322Y-124790000D01*
X249160000Y-124786324D01*
X249122678Y-124790000D01*
X247471958Y-124790000D01*
X247535272Y-124647337D01*
X247543964Y-124585810D01*
X247418163Y-124407000D01*
X246653109Y-124407000D01*
X246652400Y-124406785D01*
X246481979Y-124390000D01*
X246053000Y-124390000D01*
X246053000Y-124173072D01*
X246950000Y-124173072D01*
X247074482Y-124160812D01*
X247100235Y-124153000D01*
X247418163Y-124153000D01*
X247543964Y-123974190D01*
X247535272Y-123912663D01*
X247504824Y-123844057D01*
X247539502Y-123779180D01*
X247575812Y-123659482D01*
X247588072Y-123535000D01*
X247588072Y-123193710D01*
X248981823Y-121807575D01*
X249792653Y-121816453D01*
X249890273Y-121881680D01*
X250151426Y-121989853D01*
X250428665Y-122045000D01*
X250711335Y-122045000D01*
X250988574Y-121989853D01*
X251249727Y-121881680D01*
X251322282Y-121833200D01*
X251668610Y-121836992D01*
X251693411Y-121834824D01*
X251717313Y-121827858D01*
X251739397Y-121816363D01*
X251758814Y-121800780D01*
X251768075Y-121790686D01*
X252928075Y-120380686D01*
X252941932Y-120360002D01*
X252951487Y-120337012D01*
X252956373Y-120312600D01*
X252956654Y-120290632D01*
X252709131Y-116944117D01*
X253351250Y-115591080D01*
X253541426Y-115669853D01*
X253818665Y-115725000D01*
X254101335Y-115725000D01*
X254378574Y-115669853D01*
X254639727Y-115561680D01*
X254874759Y-115404637D01*
X255074637Y-115204759D01*
X255231680Y-114969727D01*
X255339853Y-114708574D01*
X255395000Y-114431335D01*
X255395000Y-114148665D01*
X255339853Y-113871426D01*
X255231680Y-113610273D01*
X255074637Y-113375241D01*
X254874759Y-113175363D01*
X254642241Y-113020000D01*
X254874759Y-112864637D01*
X255074637Y-112664759D01*
X255231680Y-112429727D01*
X255339853Y-112168574D01*
X255395000Y-111891335D01*
X255395000Y-111608665D01*
X255358688Y-111426114D01*
X255981785Y-110803017D01*
X256191426Y-110889853D01*
X256468665Y-110945000D01*
X256751335Y-110945000D01*
X257028574Y-110889853D01*
X257289727Y-110781680D01*
X257524759Y-110624637D01*
X257724637Y-110424759D01*
X257881680Y-110189727D01*
X257989853Y-109928574D01*
X258045000Y-109651335D01*
X258045000Y-109368665D01*
X258008688Y-109186114D01*
X259396730Y-107798072D01*
X260560001Y-107798072D01*
X260733255Y-107781008D01*
X260899851Y-107730472D01*
X260930000Y-107714357D01*
X260930000Y-108291956D01*
X260775241Y-108395363D01*
X260575363Y-108595241D01*
X260418320Y-108830273D01*
X260310147Y-109091426D01*
X260255000Y-109368665D01*
X260255000Y-109651335D01*
X260310147Y-109928574D01*
X260418320Y-110189727D01*
X260575363Y-110424759D01*
X260775241Y-110624637D01*
X261010273Y-110781680D01*
X261271426Y-110889853D01*
X261548665Y-110945000D01*
X261831335Y-110945000D01*
X262108574Y-110889853D01*
X262369727Y-110781680D01*
X262604759Y-110624637D01*
X262804637Y-110424759D01*
X262961680Y-110189727D01*
X263069853Y-109928574D01*
X263125000Y-109651335D01*
X263125000Y-109368665D01*
X263088688Y-109186113D01*
X265801003Y-106473799D01*
X265830001Y-106450001D01*
X265924974Y-106334276D01*
X265995546Y-106202247D01*
X266039003Y-106058986D01*
X266050000Y-105947333D01*
X266050000Y-105947323D01*
X266053676Y-105910000D01*
X266050000Y-105872677D01*
X266050000Y-104968043D01*
X266204759Y-104864637D01*
X266404637Y-104664759D01*
X266561680Y-104429727D01*
X266669853Y-104168574D01*
X266725000Y-103891335D01*
X266725000Y-103608665D01*
X266669853Y-103331426D01*
X266561680Y-103070273D01*
X266404637Y-102835241D01*
X266204759Y-102635363D01*
X265969727Y-102478320D01*
X265708574Y-102370147D01*
X265431335Y-102315000D01*
X265148665Y-102315000D01*
X264871426Y-102370147D01*
X264610273Y-102478320D01*
X264554790Y-102515393D01*
X264541185Y-102498815D01*
X264444494Y-102419463D01*
X264334180Y-102360498D01*
X264214482Y-102324188D01*
X264090000Y-102311928D01*
X264050000Y-102311928D01*
X264050000Y-100677325D01*
X264053676Y-100640000D01*
X264050000Y-100602675D01*
X264050000Y-100602667D01*
X264039003Y-100491014D01*
X263995546Y-100347753D01*
X263924974Y-100215724D01*
X263830001Y-100099999D01*
X263801003Y-100076201D01*
X263458688Y-99733886D01*
X263495000Y-99551335D01*
X263495000Y-99268665D01*
X263439853Y-98991426D01*
X263331680Y-98730273D01*
X263174637Y-98495241D01*
X262974759Y-98295363D01*
X262739727Y-98138320D01*
X262478574Y-98030147D01*
X262201335Y-97975000D01*
X261918665Y-97975000D01*
X261641426Y-98030147D01*
X261380273Y-98138320D01*
X261145241Y-98295363D01*
X260945363Y-98495241D01*
X260788320Y-98730273D01*
X260680147Y-98991426D01*
X260625000Y-99268665D01*
X260625000Y-99551335D01*
X260680147Y-99828574D01*
X260788320Y-100089727D01*
X260945363Y-100324759D01*
X261145241Y-100524637D01*
X261380273Y-100681680D01*
X261641426Y-100789853D01*
X261918665Y-100845000D01*
X262201335Y-100845000D01*
X262383886Y-100808688D01*
X262530001Y-100954803D01*
X262530000Y-102311928D01*
X262490000Y-102311928D01*
X262365518Y-102324188D01*
X262245820Y-102360498D01*
X262135506Y-102419463D01*
X262038815Y-102498815D01*
X261959463Y-102595506D01*
X261900498Y-102705820D01*
X261864188Y-102825518D01*
X261851928Y-102950000D01*
X261851928Y-104067127D01*
X261613803Y-103829002D01*
X261590001Y-103799999D01*
X261474276Y-103705026D01*
X261342247Y-103634454D01*
X261198986Y-103590997D01*
X261087333Y-103580000D01*
X261087322Y-103580000D01*
X261050000Y-103576324D01*
X261012678Y-103580000D01*
X258627325Y-103580000D01*
X258590000Y-103576324D01*
X258552675Y-103580000D01*
X258552667Y-103580000D01*
X258441014Y-103590997D01*
X258297753Y-103634454D01*
X258165724Y-103705026D01*
X258049999Y-103799999D01*
X258026201Y-103828997D01*
X255312201Y-106542998D01*
X255229916Y-106542998D01*
X255351904Y-106320961D01*
X255311246Y-106186913D01*
X255191037Y-105932580D01*
X255023519Y-105706586D01*
X254815131Y-105517615D01*
X254573881Y-105372930D01*
X254309040Y-105278091D01*
X254087000Y-105399376D01*
X254087000Y-106543000D01*
X254107000Y-106543000D01*
X254107000Y-106797000D01*
X254087000Y-106797000D01*
X254087000Y-106817000D01*
X253833000Y-106817000D01*
X253833000Y-106797000D01*
X252690085Y-106797000D01*
X252568096Y-107019039D01*
X252608754Y-107153087D01*
X252728963Y-107407420D01*
X252896481Y-107633414D01*
X253104869Y-107822385D01*
X253290865Y-107933933D01*
X253280273Y-107938320D01*
X253045241Y-108095363D01*
X252845363Y-108295241D01*
X252688320Y-108530273D01*
X252580147Y-108791426D01*
X252525000Y-109068665D01*
X252525000Y-109351335D01*
X252580147Y-109628574D01*
X252688320Y-109889727D01*
X252845363Y-110124759D01*
X253045241Y-110324637D01*
X253277759Y-110480000D01*
X253045241Y-110635363D01*
X252845363Y-110835241D01*
X252688320Y-111070273D01*
X252580147Y-111331426D01*
X252525000Y-111608665D01*
X252525000Y-111891335D01*
X252580147Y-112168574D01*
X252688320Y-112429727D01*
X252845363Y-112664759D01*
X253045241Y-112864637D01*
X253277759Y-113020000D01*
X253045241Y-113175363D01*
X252998415Y-113222189D01*
X251029293Y-111347736D01*
X251205088Y-107138421D01*
X251889332Y-106320961D01*
X252568096Y-106320961D01*
X252690085Y-106543000D01*
X253833000Y-106543000D01*
X253833000Y-105399376D01*
X253610960Y-105278091D01*
X253346119Y-105372930D01*
X253104869Y-105517615D01*
X252896481Y-105706586D01*
X252728963Y-105932580D01*
X252608754Y-106186913D01*
X252568096Y-106320961D01*
X251889332Y-106320961D01*
X252288952Y-105843539D01*
X253782176Y-105160364D01*
X254930802Y-104873208D01*
X254954247Y-104864832D01*
X254965489Y-104858813D01*
X255804058Y-104354119D01*
X255860273Y-104391680D01*
X256121426Y-104499853D01*
X256398665Y-104555000D01*
X256681335Y-104555000D01*
X256958574Y-104499853D01*
X257219727Y-104391680D01*
X257454759Y-104234637D01*
X257654637Y-104034759D01*
X257811680Y-103799727D01*
X257919853Y-103538574D01*
X257975000Y-103261335D01*
X257975000Y-102978665D01*
X257919853Y-102701426D01*
X257811680Y-102440273D01*
X257654637Y-102205241D01*
X257454759Y-102005363D01*
X257379014Y-101954752D01*
X257595977Y-100256090D01*
X257596695Y-100231204D01*
X257592545Y-100206657D01*
X257583685Y-100183390D01*
X257570457Y-100162299D01*
X257560309Y-100150707D01*
X251858072Y-94383566D01*
X251858072Y-93725000D01*
X251845812Y-93600518D01*
X251809502Y-93480820D01*
X251774824Y-93415943D01*
X251805272Y-93347337D01*
X251813964Y-93285810D01*
X251688163Y-93107000D01*
X251370235Y-93107000D01*
X251344482Y-93099188D01*
X251220000Y-93086928D01*
X250323000Y-93086928D01*
X250323000Y-92978665D01*
X255105000Y-92978665D01*
X255105000Y-93261335D01*
X255160147Y-93538574D01*
X255268320Y-93799727D01*
X255425363Y-94034759D01*
X255625241Y-94234637D01*
X255860273Y-94391680D01*
X256121426Y-94499853D01*
X256398665Y-94555000D01*
X256681335Y-94555000D01*
X256958574Y-94499853D01*
X257219727Y-94391680D01*
X257454759Y-94234637D01*
X257500731Y-94188665D01*
X260625000Y-94188665D01*
X260625000Y-94471335D01*
X260680147Y-94748574D01*
X260788320Y-95009727D01*
X260945363Y-95244759D01*
X261145241Y-95444637D01*
X261380273Y-95601680D01*
X261641426Y-95709853D01*
X261918665Y-95765000D01*
X262201335Y-95765000D01*
X262478574Y-95709853D01*
X262739727Y-95601680D01*
X262974759Y-95444637D01*
X263174637Y-95244759D01*
X263331680Y-95009727D01*
X263439853Y-94748574D01*
X263495000Y-94471335D01*
X263495000Y-94188665D01*
X263439853Y-93911426D01*
X263331680Y-93650273D01*
X263174637Y-93415241D01*
X262974759Y-93215363D01*
X262820000Y-93111957D01*
X262820000Y-93038072D01*
X263360001Y-93038072D01*
X263533255Y-93021008D01*
X263699851Y-92970472D01*
X263853387Y-92888405D01*
X263987962Y-92777962D01*
X264098405Y-92643387D01*
X264180472Y-92489851D01*
X264231008Y-92323255D01*
X264248072Y-92150001D01*
X264248072Y-90549999D01*
X264231008Y-90376745D01*
X264180472Y-90210149D01*
X264098405Y-90056613D01*
X263987962Y-89922038D01*
X263853387Y-89811595D01*
X263699851Y-89729528D01*
X263533255Y-89678992D01*
X263360001Y-89661928D01*
X261759999Y-89661928D01*
X261586745Y-89678992D01*
X261420149Y-89729528D01*
X261266613Y-89811595D01*
X261132038Y-89922038D01*
X261021595Y-90056613D01*
X260939528Y-90210149D01*
X260888992Y-90376745D01*
X260871928Y-90549999D01*
X260871928Y-92150001D01*
X260888992Y-92323255D01*
X260939528Y-92489851D01*
X261021595Y-92643387D01*
X261132038Y-92777962D01*
X261266613Y-92888405D01*
X261300001Y-92906251D01*
X261300000Y-93111956D01*
X261145241Y-93215363D01*
X260945363Y-93415241D01*
X260788320Y-93650273D01*
X260680147Y-93911426D01*
X260625000Y-94188665D01*
X257500731Y-94188665D01*
X257654637Y-94034759D01*
X257811680Y-93799727D01*
X257919853Y-93538574D01*
X257975000Y-93261335D01*
X257975000Y-92978665D01*
X257919853Y-92701426D01*
X257811680Y-92440273D01*
X257654637Y-92205241D01*
X257454759Y-92005363D01*
X257219727Y-91848320D01*
X256958574Y-91740147D01*
X256681335Y-91685000D01*
X256398665Y-91685000D01*
X256121426Y-91740147D01*
X255860273Y-91848320D01*
X255625241Y-92005363D01*
X255425363Y-92205241D01*
X255268320Y-92440273D01*
X255160147Y-92701426D01*
X255105000Y-92978665D01*
X250323000Y-92978665D01*
X250323000Y-92870000D01*
X250751979Y-92870000D01*
X250922400Y-92853215D01*
X250923109Y-92853000D01*
X251688163Y-92853000D01*
X251749340Y-92766045D01*
X253144469Y-92716921D01*
X253169144Y-92713611D01*
X253192700Y-92705550D01*
X253214230Y-92693048D01*
X253232907Y-92676587D01*
X253251767Y-92650308D01*
X254501083Y-90335000D01*
X254651335Y-90335000D01*
X254928574Y-90279853D01*
X255189727Y-90171680D01*
X255424759Y-90014637D01*
X255624637Y-89814759D01*
X255781680Y-89579727D01*
X255889853Y-89318574D01*
X255945000Y-89041335D01*
X255945000Y-88758665D01*
X258075000Y-88758665D01*
X258075000Y-89041335D01*
X258130147Y-89318574D01*
X258238320Y-89579727D01*
X258395363Y-89814759D01*
X258595241Y-90014637D01*
X258830273Y-90171680D01*
X259091426Y-90279853D01*
X259368665Y-90335000D01*
X259651335Y-90335000D01*
X259928574Y-90279853D01*
X260189727Y-90171680D01*
X260424759Y-90014637D01*
X260624637Y-89814759D01*
X260781680Y-89579727D01*
X260889853Y-89318574D01*
X260945000Y-89041335D01*
X260945000Y-88857506D01*
X261001595Y-88963387D01*
X261112038Y-89097962D01*
X261246613Y-89208405D01*
X261400149Y-89290472D01*
X261566745Y-89341008D01*
X261739999Y-89358072D01*
X263340001Y-89358072D01*
X263513255Y-89341008D01*
X263679851Y-89290472D01*
X263833387Y-89208405D01*
X263967962Y-89097962D01*
X264078405Y-88963387D01*
X264160472Y-88809851D01*
X264211008Y-88643255D01*
X264228072Y-88470001D01*
X264228072Y-86869999D01*
X264211008Y-86696745D01*
X264160472Y-86530149D01*
X264078405Y-86376613D01*
X263967962Y-86242038D01*
X263833387Y-86131595D01*
X263679851Y-86049528D01*
X263513255Y-85998992D01*
X263340001Y-85981928D01*
X261739999Y-85981928D01*
X261566745Y-85998992D01*
X261400149Y-86049528D01*
X261246613Y-86131595D01*
X261112038Y-86242038D01*
X261001595Y-86376613D01*
X260919528Y-86530149D01*
X260868992Y-86696745D01*
X260851928Y-86869999D01*
X260851928Y-86910000D01*
X260777325Y-86910000D01*
X260740000Y-86906324D01*
X260702675Y-86910000D01*
X260702667Y-86910000D01*
X260591014Y-86920997D01*
X260447753Y-86964454D01*
X260315724Y-87035026D01*
X260199999Y-87129999D01*
X260176201Y-87158997D01*
X259833886Y-87501312D01*
X259651335Y-87465000D01*
X259368665Y-87465000D01*
X259091426Y-87520147D01*
X258830273Y-87628320D01*
X258595241Y-87785363D01*
X258395363Y-87985241D01*
X258238320Y-88220273D01*
X258130147Y-88481426D01*
X258075000Y-88758665D01*
X255945000Y-88758665D01*
X255889853Y-88481426D01*
X255781680Y-88220273D01*
X255624637Y-87985241D01*
X255424759Y-87785363D01*
X255189727Y-87628320D01*
X254928574Y-87520147D01*
X254790352Y-87492653D01*
X254292921Y-86601731D01*
X253853851Y-85677373D01*
X254444250Y-85675000D01*
X254603000Y-85516250D01*
X254603000Y-84117000D01*
X253203750Y-84117000D01*
X253132124Y-84188626D01*
X251407105Y-83954157D01*
X251380916Y-83953325D01*
X248873207Y-84133161D01*
X247157714Y-84193657D01*
X247149727Y-84188320D01*
X246888574Y-84080147D01*
X246611335Y-84025000D01*
X246328665Y-84025000D01*
X246051426Y-84080147D01*
X245790273Y-84188320D01*
X245705650Y-84244863D01*
X245237660Y-84261366D01*
X245240217Y-84209488D01*
X245198787Y-83929870D01*
X245103603Y-83663708D01*
X245036671Y-83538486D01*
X244792702Y-83466903D01*
X243979605Y-84280000D01*
X243993748Y-84294143D01*
X243814143Y-84473748D01*
X243800000Y-84459605D01*
X242986903Y-85272702D01*
X243058486Y-85516671D01*
X243234465Y-85599939D01*
X243260514Y-87180236D01*
X243137000Y-87303750D01*
X243137000Y-88453000D01*
X243157000Y-88453000D01*
X243157000Y-88707000D01*
X243137000Y-88707000D01*
X243137000Y-88727000D01*
X242883000Y-88727000D01*
X242883000Y-88707000D01*
X242863000Y-88707000D01*
X242863000Y-88453000D01*
X242883000Y-88453000D01*
X242883000Y-87303750D01*
X242724250Y-87145000D01*
X242210000Y-87141928D01*
X242113085Y-87151473D01*
X241893982Y-84350512D01*
X242359783Y-84350512D01*
X242401213Y-84630130D01*
X242496397Y-84896292D01*
X242563329Y-85021514D01*
X242807298Y-85093097D01*
X243620395Y-84280000D01*
X242807298Y-83466903D01*
X242563329Y-83538486D01*
X242442429Y-83793996D01*
X242373700Y-84068184D01*
X242359783Y-84350512D01*
X241893982Y-84350512D01*
X241810813Y-83287298D01*
X242986903Y-83287298D01*
X243800000Y-84100395D01*
X244613097Y-83287298D01*
X244541514Y-83043329D01*
X244323139Y-82940000D01*
X253041928Y-82940000D01*
X253045000Y-83704250D01*
X253203750Y-83863000D01*
X254603000Y-83863000D01*
X254603000Y-82463750D01*
X254857000Y-82463750D01*
X254857000Y-83863000D01*
X254877000Y-83863000D01*
X254877000Y-84117000D01*
X254857000Y-84117000D01*
X254857000Y-85516250D01*
X255015750Y-85675000D01*
X255780000Y-85678072D01*
X255904482Y-85665812D01*
X256024180Y-85629502D01*
X256086825Y-85596017D01*
X256139463Y-85694494D01*
X256218815Y-85791185D01*
X256315506Y-85870537D01*
X256425820Y-85929502D01*
X256545518Y-85965812D01*
X256670000Y-85978072D01*
X257184250Y-85975000D01*
X257343000Y-85816250D01*
X257343000Y-84667000D01*
X257597000Y-84667000D01*
X257597000Y-85816250D01*
X257755750Y-85975000D01*
X258270000Y-85978072D01*
X258394482Y-85965812D01*
X258514180Y-85929502D01*
X258624494Y-85870537D01*
X258721185Y-85791185D01*
X258800537Y-85694494D01*
X258859502Y-85584180D01*
X258895812Y-85464482D01*
X258908072Y-85340000D01*
X258905000Y-84825750D01*
X258746250Y-84667000D01*
X257597000Y-84667000D01*
X257343000Y-84667000D01*
X257323000Y-84667000D01*
X257323000Y-84413000D01*
X257343000Y-84413000D01*
X257343000Y-83263750D01*
X257597000Y-83263750D01*
X257597000Y-84413000D01*
X258746250Y-84413000D01*
X258760585Y-84398665D01*
X263655000Y-84398665D01*
X263655000Y-84681335D01*
X263710147Y-84958574D01*
X263818320Y-85219727D01*
X263975363Y-85454759D01*
X264175241Y-85654637D01*
X264410273Y-85811680D01*
X264671426Y-85919853D01*
X264948665Y-85975000D01*
X265231335Y-85975000D01*
X265508574Y-85919853D01*
X265769727Y-85811680D01*
X266004759Y-85654637D01*
X266204637Y-85454759D01*
X266361680Y-85219727D01*
X266469853Y-84958574D01*
X266525000Y-84681335D01*
X266525000Y-84398665D01*
X266469853Y-84121426D01*
X266361680Y-83860273D01*
X266204637Y-83625241D01*
X266004759Y-83425363D01*
X265769727Y-83268320D01*
X265508574Y-83160147D01*
X265231335Y-83105000D01*
X264948665Y-83105000D01*
X264671426Y-83160147D01*
X264410273Y-83268320D01*
X264175241Y-83425363D01*
X263975363Y-83625241D01*
X263818320Y-83860273D01*
X263710147Y-84121426D01*
X263655000Y-84398665D01*
X258760585Y-84398665D01*
X258905000Y-84254250D01*
X258908072Y-83740000D01*
X258895812Y-83615518D01*
X258859502Y-83495820D01*
X258800537Y-83385506D01*
X258721185Y-83288815D01*
X258624494Y-83209463D01*
X258514180Y-83150498D01*
X258394482Y-83114188D01*
X258270000Y-83101928D01*
X257755750Y-83105000D01*
X257597000Y-83263750D01*
X257343000Y-83263750D01*
X257184250Y-83105000D01*
X256670000Y-83101928D01*
X256545518Y-83114188D01*
X256425820Y-83150498D01*
X256417207Y-83155102D01*
X256418072Y-82940000D01*
X256405812Y-82815518D01*
X256369502Y-82695820D01*
X256310537Y-82585506D01*
X256231185Y-82488815D01*
X256134494Y-82409463D01*
X256024180Y-82350498D01*
X255904482Y-82314188D01*
X255780000Y-82301928D01*
X255015750Y-82305000D01*
X254857000Y-82463750D01*
X254603000Y-82463750D01*
X254444250Y-82305000D01*
X253680000Y-82301928D01*
X253555518Y-82314188D01*
X253435820Y-82350498D01*
X253325506Y-82409463D01*
X253228815Y-82488815D01*
X253149463Y-82585506D01*
X253090498Y-82695820D01*
X253054188Y-82815518D01*
X253041928Y-82940000D01*
X244323139Y-82940000D01*
X244286004Y-82922429D01*
X244011816Y-82853700D01*
X243729488Y-82839783D01*
X243449870Y-82881213D01*
X243183708Y-82976397D01*
X243058486Y-83043329D01*
X242986903Y-83287298D01*
X241810813Y-83287298D01*
X241780356Y-82897947D01*
X242387710Y-82090000D01*
X265544571Y-82090000D01*
X267020000Y-83741841D01*
%TA.AperFunction,Conductor*%
D19*
G36*
X267020000Y-83741841D02*
G01*
X267020001Y-111863065D01*
X266954637Y-111765241D01*
X266754759Y-111565363D01*
X266519727Y-111408320D01*
X266258574Y-111300147D01*
X265981335Y-111245000D01*
X265698665Y-111245000D01*
X265421426Y-111300147D01*
X265160273Y-111408320D01*
X264925241Y-111565363D01*
X264725363Y-111765241D01*
X264568320Y-112000273D01*
X264460147Y-112261426D01*
X264405000Y-112538665D01*
X264405000Y-112821335D01*
X264460147Y-113098574D01*
X264568320Y-113359727D01*
X264725363Y-113594759D01*
X264925241Y-113794637D01*
X265160273Y-113951680D01*
X265421426Y-114059853D01*
X265698665Y-114115000D01*
X265981335Y-114115000D01*
X266258574Y-114059853D01*
X266519727Y-113951680D01*
X266754759Y-113794637D01*
X266954637Y-113594759D01*
X267020001Y-113496935D01*
X267020001Y-119294315D01*
X258009437Y-115864636D01*
X257710000Y-115565199D01*
X257710000Y-115208665D01*
X259285000Y-115208665D01*
X259285000Y-115491335D01*
X259340147Y-115768574D01*
X259448320Y-116029727D01*
X259605363Y-116264759D01*
X259805241Y-116464637D01*
X260040273Y-116621680D01*
X260301426Y-116729853D01*
X260578665Y-116785000D01*
X260861335Y-116785000D01*
X261138574Y-116729853D01*
X261399727Y-116621680D01*
X261634759Y-116464637D01*
X261834637Y-116264759D01*
X261991680Y-116029727D01*
X262099853Y-115768574D01*
X262155000Y-115491335D01*
X262155000Y-115208665D01*
X262099853Y-114931426D01*
X261991680Y-114670273D01*
X261834637Y-114435241D01*
X261634759Y-114235363D01*
X261480000Y-114131957D01*
X261480000Y-113924771D01*
X261674759Y-113794637D01*
X261874637Y-113594759D01*
X262031680Y-113359727D01*
X262139853Y-113098574D01*
X262195000Y-112821335D01*
X262195000Y-112538665D01*
X262139853Y-112261426D01*
X262031680Y-112000273D01*
X261874637Y-111765241D01*
X261674759Y-111565363D01*
X261439727Y-111408320D01*
X261178574Y-111300147D01*
X260901335Y-111245000D01*
X260618665Y-111245000D01*
X260341426Y-111300147D01*
X260080273Y-111408320D01*
X259845241Y-111565363D01*
X259645363Y-111765241D01*
X259488320Y-112000273D01*
X259380147Y-112261426D01*
X259325000Y-112538665D01*
X259325000Y-112821335D01*
X259380147Y-113098574D01*
X259488320Y-113359727D01*
X259645363Y-113594759D01*
X259845241Y-113794637D01*
X259960001Y-113871317D01*
X259960000Y-114131956D01*
X259805241Y-114235363D01*
X259605363Y-114435241D01*
X259448320Y-114670273D01*
X259340147Y-114931426D01*
X259285000Y-115208665D01*
X257710000Y-115208665D01*
X257710000Y-114338072D01*
X258150001Y-114338072D01*
X258323255Y-114321008D01*
X258489851Y-114270472D01*
X258643387Y-114188405D01*
X258777962Y-114077962D01*
X258888405Y-113943387D01*
X258970472Y-113789851D01*
X259021008Y-113623255D01*
X259038072Y-113450001D01*
X259038072Y-111849999D01*
X259021008Y-111676745D01*
X258970472Y-111510149D01*
X258888405Y-111356613D01*
X258777962Y-111222038D01*
X258643387Y-111111595D01*
X258489851Y-111029528D01*
X258323255Y-110978992D01*
X258150001Y-110961928D01*
X256549999Y-110961928D01*
X256376745Y-110978992D01*
X256210149Y-111029528D01*
X256056613Y-111111595D01*
X255922038Y-111222038D01*
X255811595Y-111356613D01*
X255729528Y-111510149D01*
X255678992Y-111676745D01*
X255661928Y-111849999D01*
X255661928Y-113450001D01*
X255678992Y-113623255D01*
X255729528Y-113789851D01*
X255811595Y-113943387D01*
X255922038Y-114077962D01*
X256056613Y-114188405D01*
X256190001Y-114259702D01*
X256190000Y-115172106D01*
X255925178Y-115071307D01*
X255901154Y-115064774D01*
X255876317Y-115063053D01*
X255851622Y-115066211D01*
X255828017Y-115074126D01*
X255806410Y-115086494D01*
X255780900Y-115110577D01*
X254899039Y-116210917D01*
X254735241Y-116320363D01*
X254535363Y-116520241D01*
X254378320Y-116755273D01*
X254287987Y-116973355D01*
X253560900Y-117880577D01*
X253547309Y-117901436D01*
X253538049Y-117924546D01*
X253533006Y-117961249D01*
X253562851Y-120995535D01*
X253242559Y-122325235D01*
X251984883Y-124027467D01*
X252005000Y-123926335D01*
X252005000Y-123643665D01*
X251949853Y-123366426D01*
X251841680Y-123105273D01*
X251684637Y-122870241D01*
X251484759Y-122670363D01*
X251249727Y-122513320D01*
X250988574Y-122405147D01*
X250711335Y-122350000D01*
X250428665Y-122350000D01*
X250151426Y-122405147D01*
X249890273Y-122513320D01*
X249655241Y-122670363D01*
X249455363Y-122870241D01*
X249298320Y-123105273D01*
X249190147Y-123366426D01*
X249135000Y-123643665D01*
X249135000Y-123926335D01*
X249190147Y-124203574D01*
X249298320Y-124464727D01*
X249455363Y-124699759D01*
X249655241Y-124899637D01*
X249810000Y-125003044D01*
X249810000Y-125125199D01*
X249723804Y-125039003D01*
X249700001Y-125009999D01*
X249584276Y-124915026D01*
X249452247Y-124844454D01*
X249308986Y-124800997D01*
X249197333Y-124790000D01*
X249197322Y-124790000D01*
X249160000Y-124786324D01*
X249122678Y-124790000D01*
X247471958Y-124790000D01*
X247535272Y-124647337D01*
X247543964Y-124585810D01*
X247418163Y-124407000D01*
X246653109Y-124407000D01*
X246652400Y-124406785D01*
X246481979Y-124390000D01*
X246053000Y-124390000D01*
X246053000Y-124173072D01*
X246950000Y-124173072D01*
X247074482Y-124160812D01*
X247100235Y-124153000D01*
X247418163Y-124153000D01*
X247543964Y-123974190D01*
X247535272Y-123912663D01*
X247504824Y-123844057D01*
X247539502Y-123779180D01*
X247575812Y-123659482D01*
X247588072Y-123535000D01*
X247588072Y-123193710D01*
X248981823Y-121807575D01*
X249792653Y-121816453D01*
X249890273Y-121881680D01*
X250151426Y-121989853D01*
X250428665Y-122045000D01*
X250711335Y-122045000D01*
X250988574Y-121989853D01*
X251249727Y-121881680D01*
X251322282Y-121833200D01*
X251668610Y-121836992D01*
X251693411Y-121834824D01*
X251717313Y-121827858D01*
X251739397Y-121816363D01*
X251758814Y-121800780D01*
X251768075Y-121790686D01*
X252928075Y-120380686D01*
X252941932Y-120360002D01*
X252951487Y-120337012D01*
X252956373Y-120312600D01*
X252956654Y-120290632D01*
X252709131Y-116944117D01*
X253351250Y-115591080D01*
X253541426Y-115669853D01*
X253818665Y-115725000D01*
X254101335Y-115725000D01*
X254378574Y-115669853D01*
X254639727Y-115561680D01*
X254874759Y-115404637D01*
X255074637Y-115204759D01*
X255231680Y-114969727D01*
X255339853Y-114708574D01*
X255395000Y-114431335D01*
X255395000Y-114148665D01*
X255339853Y-113871426D01*
X255231680Y-113610273D01*
X255074637Y-113375241D01*
X254874759Y-113175363D01*
X254642241Y-113020000D01*
X254874759Y-112864637D01*
X255074637Y-112664759D01*
X255231680Y-112429727D01*
X255339853Y-112168574D01*
X255395000Y-111891335D01*
X255395000Y-111608665D01*
X255358688Y-111426114D01*
X255981785Y-110803017D01*
X256191426Y-110889853D01*
X256468665Y-110945000D01*
X256751335Y-110945000D01*
X257028574Y-110889853D01*
X257289727Y-110781680D01*
X257524759Y-110624637D01*
X257724637Y-110424759D01*
X257881680Y-110189727D01*
X257989853Y-109928574D01*
X258045000Y-109651335D01*
X258045000Y-109368665D01*
X258008688Y-109186114D01*
X259396730Y-107798072D01*
X260560001Y-107798072D01*
X260733255Y-107781008D01*
X260899851Y-107730472D01*
X260930000Y-107714357D01*
X260930000Y-108291956D01*
X260775241Y-108395363D01*
X260575363Y-108595241D01*
X260418320Y-108830273D01*
X260310147Y-109091426D01*
X260255000Y-109368665D01*
X260255000Y-109651335D01*
X260310147Y-109928574D01*
X260418320Y-110189727D01*
X260575363Y-110424759D01*
X260775241Y-110624637D01*
X261010273Y-110781680D01*
X261271426Y-110889853D01*
X261548665Y-110945000D01*
X261831335Y-110945000D01*
X262108574Y-110889853D01*
X262369727Y-110781680D01*
X262604759Y-110624637D01*
X262804637Y-110424759D01*
X262961680Y-110189727D01*
X263069853Y-109928574D01*
X263125000Y-109651335D01*
X263125000Y-109368665D01*
X263088688Y-109186113D01*
X265801003Y-106473799D01*
X265830001Y-106450001D01*
X265924974Y-106334276D01*
X265995546Y-106202247D01*
X266039003Y-106058986D01*
X266050000Y-105947333D01*
X266050000Y-105947323D01*
X266053676Y-105910000D01*
X266050000Y-105872677D01*
X266050000Y-104968043D01*
X266204759Y-104864637D01*
X266404637Y-104664759D01*
X266561680Y-104429727D01*
X266669853Y-104168574D01*
X266725000Y-103891335D01*
X266725000Y-103608665D01*
X266669853Y-103331426D01*
X266561680Y-103070273D01*
X266404637Y-102835241D01*
X266204759Y-102635363D01*
X265969727Y-102478320D01*
X265708574Y-102370147D01*
X265431335Y-102315000D01*
X265148665Y-102315000D01*
X264871426Y-102370147D01*
X264610273Y-102478320D01*
X264554790Y-102515393D01*
X264541185Y-102498815D01*
X264444494Y-102419463D01*
X264334180Y-102360498D01*
X264214482Y-102324188D01*
X264090000Y-102311928D01*
X264050000Y-102311928D01*
X264050000Y-100677325D01*
X264053676Y-100640000D01*
X264050000Y-100602675D01*
X264050000Y-100602667D01*
X264039003Y-100491014D01*
X263995546Y-100347753D01*
X263924974Y-100215724D01*
X263830001Y-100099999D01*
X263801003Y-100076201D01*
X263458688Y-99733886D01*
X263495000Y-99551335D01*
X263495000Y-99268665D01*
X263439853Y-98991426D01*
X263331680Y-98730273D01*
X263174637Y-98495241D01*
X262974759Y-98295363D01*
X262739727Y-98138320D01*
X262478574Y-98030147D01*
X262201335Y-97975000D01*
X261918665Y-97975000D01*
X261641426Y-98030147D01*
X261380273Y-98138320D01*
X261145241Y-98295363D01*
X260945363Y-98495241D01*
X260788320Y-98730273D01*
X260680147Y-98991426D01*
X260625000Y-99268665D01*
X260625000Y-99551335D01*
X260680147Y-99828574D01*
X260788320Y-100089727D01*
X260945363Y-100324759D01*
X261145241Y-100524637D01*
X261380273Y-100681680D01*
X261641426Y-100789853D01*
X261918665Y-100845000D01*
X262201335Y-100845000D01*
X262383886Y-100808688D01*
X262530001Y-100954803D01*
X262530000Y-102311928D01*
X262490000Y-102311928D01*
X262365518Y-102324188D01*
X262245820Y-102360498D01*
X262135506Y-102419463D01*
X262038815Y-102498815D01*
X261959463Y-102595506D01*
X261900498Y-102705820D01*
X261864188Y-102825518D01*
X261851928Y-102950000D01*
X261851928Y-104067127D01*
X261613803Y-103829002D01*
X261590001Y-103799999D01*
X261474276Y-103705026D01*
X261342247Y-103634454D01*
X261198986Y-103590997D01*
X261087333Y-103580000D01*
X261087322Y-103580000D01*
X261050000Y-103576324D01*
X261012678Y-103580000D01*
X258627325Y-103580000D01*
X258590000Y-103576324D01*
X258552675Y-103580000D01*
X258552667Y-103580000D01*
X258441014Y-103590997D01*
X258297753Y-103634454D01*
X258165724Y-103705026D01*
X258049999Y-103799999D01*
X258026201Y-103828997D01*
X255312201Y-106542998D01*
X255229916Y-106542998D01*
X255351904Y-106320961D01*
X255311246Y-106186913D01*
X255191037Y-105932580D01*
X255023519Y-105706586D01*
X254815131Y-105517615D01*
X254573881Y-105372930D01*
X254309040Y-105278091D01*
X254087000Y-105399376D01*
X254087000Y-106543000D01*
X254107000Y-106543000D01*
X254107000Y-106797000D01*
X254087000Y-106797000D01*
X254087000Y-106817000D01*
X253833000Y-106817000D01*
X253833000Y-106797000D01*
X252690085Y-106797000D01*
X252568096Y-107019039D01*
X252608754Y-107153087D01*
X252728963Y-107407420D01*
X252896481Y-107633414D01*
X253104869Y-107822385D01*
X253290865Y-107933933D01*
X253280273Y-107938320D01*
X253045241Y-108095363D01*
X252845363Y-108295241D01*
X252688320Y-108530273D01*
X252580147Y-108791426D01*
X252525000Y-109068665D01*
X252525000Y-109351335D01*
X252580147Y-109628574D01*
X252688320Y-109889727D01*
X252845363Y-110124759D01*
X253045241Y-110324637D01*
X253277759Y-110480000D01*
X253045241Y-110635363D01*
X252845363Y-110835241D01*
X252688320Y-111070273D01*
X252580147Y-111331426D01*
X252525000Y-111608665D01*
X252525000Y-111891335D01*
X252580147Y-112168574D01*
X252688320Y-112429727D01*
X252845363Y-112664759D01*
X253045241Y-112864637D01*
X253277759Y-113020000D01*
X253045241Y-113175363D01*
X252998415Y-113222189D01*
X251029293Y-111347736D01*
X251205088Y-107138421D01*
X251889332Y-106320961D01*
X252568096Y-106320961D01*
X252690085Y-106543000D01*
X253833000Y-106543000D01*
X253833000Y-105399376D01*
X253610960Y-105278091D01*
X253346119Y-105372930D01*
X253104869Y-105517615D01*
X252896481Y-105706586D01*
X252728963Y-105932580D01*
X252608754Y-106186913D01*
X252568096Y-106320961D01*
X251889332Y-106320961D01*
X252288952Y-105843539D01*
X253782176Y-105160364D01*
X254930802Y-104873208D01*
X254954247Y-104864832D01*
X254965489Y-104858813D01*
X255804058Y-104354119D01*
X255860273Y-104391680D01*
X256121426Y-104499853D01*
X256398665Y-104555000D01*
X256681335Y-104555000D01*
X256958574Y-104499853D01*
X257219727Y-104391680D01*
X257454759Y-104234637D01*
X257654637Y-104034759D01*
X257811680Y-103799727D01*
X257919853Y-103538574D01*
X257975000Y-103261335D01*
X257975000Y-102978665D01*
X257919853Y-102701426D01*
X257811680Y-102440273D01*
X257654637Y-102205241D01*
X257454759Y-102005363D01*
X257379014Y-101954752D01*
X257595977Y-100256090D01*
X257596695Y-100231204D01*
X257592545Y-100206657D01*
X257583685Y-100183390D01*
X257570457Y-100162299D01*
X257560309Y-100150707D01*
X251858072Y-94383566D01*
X251858072Y-93725000D01*
X251845812Y-93600518D01*
X251809502Y-93480820D01*
X251774824Y-93415943D01*
X251805272Y-93347337D01*
X251813964Y-93285810D01*
X251688163Y-93107000D01*
X251370235Y-93107000D01*
X251344482Y-93099188D01*
X251220000Y-93086928D01*
X250323000Y-93086928D01*
X250323000Y-92978665D01*
X255105000Y-92978665D01*
X255105000Y-93261335D01*
X255160147Y-93538574D01*
X255268320Y-93799727D01*
X255425363Y-94034759D01*
X255625241Y-94234637D01*
X255860273Y-94391680D01*
X256121426Y-94499853D01*
X256398665Y-94555000D01*
X256681335Y-94555000D01*
X256958574Y-94499853D01*
X257219727Y-94391680D01*
X257454759Y-94234637D01*
X257500731Y-94188665D01*
X260625000Y-94188665D01*
X260625000Y-94471335D01*
X260680147Y-94748574D01*
X260788320Y-95009727D01*
X260945363Y-95244759D01*
X261145241Y-95444637D01*
X261380273Y-95601680D01*
X261641426Y-95709853D01*
X261918665Y-95765000D01*
X262201335Y-95765000D01*
X262478574Y-95709853D01*
X262739727Y-95601680D01*
X262974759Y-95444637D01*
X263174637Y-95244759D01*
X263331680Y-95009727D01*
X263439853Y-94748574D01*
X263495000Y-94471335D01*
X263495000Y-94188665D01*
X263439853Y-93911426D01*
X263331680Y-93650273D01*
X263174637Y-93415241D01*
X262974759Y-93215363D01*
X262820000Y-93111957D01*
X262820000Y-93038072D01*
X263360001Y-93038072D01*
X263533255Y-93021008D01*
X263699851Y-92970472D01*
X263853387Y-92888405D01*
X263987962Y-92777962D01*
X264098405Y-92643387D01*
X264180472Y-92489851D01*
X264231008Y-92323255D01*
X264248072Y-92150001D01*
X264248072Y-90549999D01*
X264231008Y-90376745D01*
X264180472Y-90210149D01*
X264098405Y-90056613D01*
X263987962Y-89922038D01*
X263853387Y-89811595D01*
X263699851Y-89729528D01*
X263533255Y-89678992D01*
X263360001Y-89661928D01*
X261759999Y-89661928D01*
X261586745Y-89678992D01*
X261420149Y-89729528D01*
X261266613Y-89811595D01*
X261132038Y-89922038D01*
X261021595Y-90056613D01*
X260939528Y-90210149D01*
X260888992Y-90376745D01*
X260871928Y-90549999D01*
X260871928Y-92150001D01*
X260888992Y-92323255D01*
X260939528Y-92489851D01*
X261021595Y-92643387D01*
X261132038Y-92777962D01*
X261266613Y-92888405D01*
X261300001Y-92906251D01*
X261300000Y-93111956D01*
X261145241Y-93215363D01*
X260945363Y-93415241D01*
X260788320Y-93650273D01*
X260680147Y-93911426D01*
X260625000Y-94188665D01*
X257500731Y-94188665D01*
X257654637Y-94034759D01*
X257811680Y-93799727D01*
X257919853Y-93538574D01*
X257975000Y-93261335D01*
X257975000Y-92978665D01*
X257919853Y-92701426D01*
X257811680Y-92440273D01*
X257654637Y-92205241D01*
X257454759Y-92005363D01*
X257219727Y-91848320D01*
X256958574Y-91740147D01*
X256681335Y-91685000D01*
X256398665Y-91685000D01*
X256121426Y-91740147D01*
X255860273Y-91848320D01*
X255625241Y-92005363D01*
X255425363Y-92205241D01*
X255268320Y-92440273D01*
X255160147Y-92701426D01*
X255105000Y-92978665D01*
X250323000Y-92978665D01*
X250323000Y-92870000D01*
X250751979Y-92870000D01*
X250922400Y-92853215D01*
X250923109Y-92853000D01*
X251688163Y-92853000D01*
X251749340Y-92766045D01*
X253144469Y-92716921D01*
X253169144Y-92713611D01*
X253192700Y-92705550D01*
X253214230Y-92693048D01*
X253232907Y-92676587D01*
X253251767Y-92650308D01*
X254501083Y-90335000D01*
X254651335Y-90335000D01*
X254928574Y-90279853D01*
X255189727Y-90171680D01*
X255424759Y-90014637D01*
X255624637Y-89814759D01*
X255781680Y-89579727D01*
X255889853Y-89318574D01*
X255945000Y-89041335D01*
X255945000Y-88758665D01*
X258075000Y-88758665D01*
X258075000Y-89041335D01*
X258130147Y-89318574D01*
X258238320Y-89579727D01*
X258395363Y-89814759D01*
X258595241Y-90014637D01*
X258830273Y-90171680D01*
X259091426Y-90279853D01*
X259368665Y-90335000D01*
X259651335Y-90335000D01*
X259928574Y-90279853D01*
X260189727Y-90171680D01*
X260424759Y-90014637D01*
X260624637Y-89814759D01*
X260781680Y-89579727D01*
X260889853Y-89318574D01*
X260945000Y-89041335D01*
X260945000Y-88857506D01*
X261001595Y-88963387D01*
X261112038Y-89097962D01*
X261246613Y-89208405D01*
X261400149Y-89290472D01*
X261566745Y-89341008D01*
X261739999Y-89358072D01*
X263340001Y-89358072D01*
X263513255Y-89341008D01*
X263679851Y-89290472D01*
X263833387Y-89208405D01*
X263967962Y-89097962D01*
X264078405Y-88963387D01*
X264160472Y-88809851D01*
X264211008Y-88643255D01*
X264228072Y-88470001D01*
X264228072Y-86869999D01*
X264211008Y-86696745D01*
X264160472Y-86530149D01*
X264078405Y-86376613D01*
X263967962Y-86242038D01*
X263833387Y-86131595D01*
X263679851Y-86049528D01*
X263513255Y-85998992D01*
X263340001Y-85981928D01*
X261739999Y-85981928D01*
X261566745Y-85998992D01*
X261400149Y-86049528D01*
X261246613Y-86131595D01*
X261112038Y-86242038D01*
X261001595Y-86376613D01*
X260919528Y-86530149D01*
X260868992Y-86696745D01*
X260851928Y-86869999D01*
X260851928Y-86910000D01*
X260777325Y-86910000D01*
X260740000Y-86906324D01*
X260702675Y-86910000D01*
X260702667Y-86910000D01*
X260591014Y-86920997D01*
X260447753Y-86964454D01*
X260315724Y-87035026D01*
X260199999Y-87129999D01*
X260176201Y-87158997D01*
X259833886Y-87501312D01*
X259651335Y-87465000D01*
X259368665Y-87465000D01*
X259091426Y-87520147D01*
X258830273Y-87628320D01*
X258595241Y-87785363D01*
X258395363Y-87985241D01*
X258238320Y-88220273D01*
X258130147Y-88481426D01*
X258075000Y-88758665D01*
X255945000Y-88758665D01*
X255889853Y-88481426D01*
X255781680Y-88220273D01*
X255624637Y-87985241D01*
X255424759Y-87785363D01*
X255189727Y-87628320D01*
X254928574Y-87520147D01*
X254790352Y-87492653D01*
X254292921Y-86601731D01*
X253853851Y-85677373D01*
X254444250Y-85675000D01*
X254603000Y-85516250D01*
X254603000Y-84117000D01*
X253203750Y-84117000D01*
X253132124Y-84188626D01*
X251407105Y-83954157D01*
X251380916Y-83953325D01*
X248873207Y-84133161D01*
X247157714Y-84193657D01*
X247149727Y-84188320D01*
X246888574Y-84080147D01*
X246611335Y-84025000D01*
X246328665Y-84025000D01*
X246051426Y-84080147D01*
X245790273Y-84188320D01*
X245705650Y-84244863D01*
X245237660Y-84261366D01*
X245240217Y-84209488D01*
X245198787Y-83929870D01*
X245103603Y-83663708D01*
X245036671Y-83538486D01*
X244792702Y-83466903D01*
X243979605Y-84280000D01*
X243993748Y-84294143D01*
X243814143Y-84473748D01*
X243800000Y-84459605D01*
X242986903Y-85272702D01*
X243058486Y-85516671D01*
X243234465Y-85599939D01*
X243260514Y-87180236D01*
X243137000Y-87303750D01*
X243137000Y-88453000D01*
X243157000Y-88453000D01*
X243157000Y-88707000D01*
X243137000Y-88707000D01*
X243137000Y-88727000D01*
X242883000Y-88727000D01*
X242883000Y-88707000D01*
X242863000Y-88707000D01*
X242863000Y-88453000D01*
X242883000Y-88453000D01*
X242883000Y-87303750D01*
X242724250Y-87145000D01*
X242210000Y-87141928D01*
X242113085Y-87151473D01*
X241893982Y-84350512D01*
X242359783Y-84350512D01*
X242401213Y-84630130D01*
X242496397Y-84896292D01*
X242563329Y-85021514D01*
X242807298Y-85093097D01*
X243620395Y-84280000D01*
X242807298Y-83466903D01*
X242563329Y-83538486D01*
X242442429Y-83793996D01*
X242373700Y-84068184D01*
X242359783Y-84350512D01*
X241893982Y-84350512D01*
X241810813Y-83287298D01*
X242986903Y-83287298D01*
X243800000Y-84100395D01*
X244613097Y-83287298D01*
X244541514Y-83043329D01*
X244323139Y-82940000D01*
X253041928Y-82940000D01*
X253045000Y-83704250D01*
X253203750Y-83863000D01*
X254603000Y-83863000D01*
X254603000Y-82463750D01*
X254857000Y-82463750D01*
X254857000Y-83863000D01*
X254877000Y-83863000D01*
X254877000Y-84117000D01*
X254857000Y-84117000D01*
X254857000Y-85516250D01*
X255015750Y-85675000D01*
X255780000Y-85678072D01*
X255904482Y-85665812D01*
X256024180Y-85629502D01*
X256086825Y-85596017D01*
X256139463Y-85694494D01*
X256218815Y-85791185D01*
X256315506Y-85870537D01*
X256425820Y-85929502D01*
X256545518Y-85965812D01*
X256670000Y-85978072D01*
X257184250Y-85975000D01*
X257343000Y-85816250D01*
X257343000Y-84667000D01*
X257597000Y-84667000D01*
X257597000Y-85816250D01*
X257755750Y-85975000D01*
X258270000Y-85978072D01*
X258394482Y-85965812D01*
X258514180Y-85929502D01*
X258624494Y-85870537D01*
X258721185Y-85791185D01*
X258800537Y-85694494D01*
X258859502Y-85584180D01*
X258895812Y-85464482D01*
X258908072Y-85340000D01*
X258905000Y-84825750D01*
X258746250Y-84667000D01*
X257597000Y-84667000D01*
X257343000Y-84667000D01*
X257323000Y-84667000D01*
X257323000Y-84413000D01*
X257343000Y-84413000D01*
X257343000Y-83263750D01*
X257597000Y-83263750D01*
X257597000Y-84413000D01*
X258746250Y-84413000D01*
X258760585Y-84398665D01*
X263655000Y-84398665D01*
X263655000Y-84681335D01*
X263710147Y-84958574D01*
X263818320Y-85219727D01*
X263975363Y-85454759D01*
X264175241Y-85654637D01*
X264410273Y-85811680D01*
X264671426Y-85919853D01*
X264948665Y-85975000D01*
X265231335Y-85975000D01*
X265508574Y-85919853D01*
X265769727Y-85811680D01*
X266004759Y-85654637D01*
X266204637Y-85454759D01*
X266361680Y-85219727D01*
X266469853Y-84958574D01*
X266525000Y-84681335D01*
X266525000Y-84398665D01*
X266469853Y-84121426D01*
X266361680Y-83860273D01*
X266204637Y-83625241D01*
X266004759Y-83425363D01*
X265769727Y-83268320D01*
X265508574Y-83160147D01*
X265231335Y-83105000D01*
X264948665Y-83105000D01*
X264671426Y-83160147D01*
X264410273Y-83268320D01*
X264175241Y-83425363D01*
X263975363Y-83625241D01*
X263818320Y-83860273D01*
X263710147Y-84121426D01*
X263655000Y-84398665D01*
X258760585Y-84398665D01*
X258905000Y-84254250D01*
X258908072Y-83740000D01*
X258895812Y-83615518D01*
X258859502Y-83495820D01*
X258800537Y-83385506D01*
X258721185Y-83288815D01*
X258624494Y-83209463D01*
X258514180Y-83150498D01*
X258394482Y-83114188D01*
X258270000Y-83101928D01*
X257755750Y-83105000D01*
X257597000Y-83263750D01*
X257343000Y-83263750D01*
X257184250Y-83105000D01*
X256670000Y-83101928D01*
X256545518Y-83114188D01*
X256425820Y-83150498D01*
X256417207Y-83155102D01*
X256418072Y-82940000D01*
X256405812Y-82815518D01*
X256369502Y-82695820D01*
X256310537Y-82585506D01*
X256231185Y-82488815D01*
X256134494Y-82409463D01*
X256024180Y-82350498D01*
X255904482Y-82314188D01*
X255780000Y-82301928D01*
X255015750Y-82305000D01*
X254857000Y-82463750D01*
X254603000Y-82463750D01*
X254444250Y-82305000D01*
X253680000Y-82301928D01*
X253555518Y-82314188D01*
X253435820Y-82350498D01*
X253325506Y-82409463D01*
X253228815Y-82488815D01*
X253149463Y-82585506D01*
X253090498Y-82695820D01*
X253054188Y-82815518D01*
X253041928Y-82940000D01*
X244323139Y-82940000D01*
X244286004Y-82922429D01*
X244011816Y-82853700D01*
X243729488Y-82839783D01*
X243449870Y-82881213D01*
X243183708Y-82976397D01*
X243058486Y-83043329D01*
X242986903Y-83287298D01*
X241810813Y-83287298D01*
X241780356Y-82897947D01*
X242387710Y-82090000D01*
X265544571Y-82090000D01*
X267020000Y-83741841D01*
G37*
%TD.AperFunction*%
%TD*%
M02*
